<?xml version="1.0" encoding="utf-8"?>
<!-- Generator: Adobe Illustrator 19.0.0, SVG Export Plug-In . SVG Version: 6.00 Build 0)  -->
<svg version="1.1" id="_x38_69a981d-5394-490d-9104-6940aaebaf2b"
	 xmlns="http://www.w3.org/2000/svg" xmlns:xlink="http://www.w3.org/1999/xlink" x="0px" y="0px" viewBox="204 3.1 1003.9 836.8"
	 style="enable-background:new 204 3.1 1003.9 836.8;" xml:space="preserve">
<style type="text/css">
	.st0{fill:#103D65;stroke:#E8E8E8;stroke-width:12.9265;stroke-miterlimit:10;}
	.st1{opacity:0.1;enable-background:new    ;}
	.st2{fill:#FFFFFF;}
	.st3{fill:#103D65;stroke:#E8E8E8;stroke-width:15.1536;stroke-miterlimit:10;}
</style>
<title>questions</title>
<g>
	<g>
		<polygon class="st0" points="784.6,294.5 784.6,621 435.3,699.9 311.7,542.1 300.7,227 300.3,215.6 615.4,159.5 		"/>
		<polygon class="st1" points="784.6,296.8 784.6,621 438.9,699 435.3,699.9 311.7,542.1 300.7,227 429.8,345.1 		"/>
		<polygon class="st1" points="784.6,297.7 784.6,621 438.9,699 429.8,345.1 779.1,300 		"/>
	</g>
	<path class="st2" d="M349.5,439.5c-25.1,60.2-39.2,122.7-43.3,187.4c-0.9,13.2,19.6,11.4,20.5-1.4c3.6-61.1,17.8-120.4,41-176.9
		C372.8,436.8,354.6,427.7,349.5,439.5z"/>
	<path class="st2" d="M599.8,402c-2-7.5-7.3-14.6-14.6-17.6c-1.3-0.5-2.7-0.9-4.1-1.2c-0.4-2.3-2.2-4.6-4.6-4.8
		c-15.7-1.1-29.3,8.8-35,23.2c-5.5,14.1-3.9,30.6,8.2,40.8c10.8,9.1,27.4,9.8,38.5,0.7C599.7,433.7,603.5,416,599.8,402z
		 M589.3,415.8c-0.1-0.5-0.2-0.9-0.4-1.4c-2.3-5.5-8.7-8.7-14.1-6.8c-1.4-0.5-3.2-0.5-4.6,1.4c-5,7.3-3.2,17.8,5.5,21
		c2.9,1,6.3,1,9-0.3c-0.8,1.2-1.7,2.3-2.7,3.3c-6,5.9-16.1,6.6-23,1.9c-8.2-5.6-10.3-15.4-8-24.6c0.4,0.6,0.8,1.1,1.4,1.7
		c2.7,2.4,6.7,2.3,9.6,0.2c2.2-1.6,3.7-4.2,4.6-6.8c0.8-2.2,1.3-4.5,1-6.7c1.5-0.1,2.9-0.8,4-2c2.4-2.4,6.5-2.6,9.5-1.1
		c4,1.9,6.3,5.9,7.5,10C589.5,408.6,589.7,412.2,589.3,415.8z"/>
	<path class="st2" d="M710.4,389.5c-2.1-13.9-10.4-27.4-25.8-28c-14.2-0.6-25,10.4-28.6,23.3c-5.3,10.1-8.8,22.4-0.8,32
		c4.3,5.2,10.8,7.5,17.4,8c6.7,0.5,14,0.4,20.4-2C706.5,417.7,712.5,403.1,710.4,389.5z M690.8,410.9c-4.2,2.3-9.3,2.4-13.9,2.4
		c-2.6,0-5.6-0.2-8.2-1.1c1.4-0.6,2.7-1.4,3.7-2.8c0.4-0.5,0.7-1,1-1.5c2.3,0.1,4.6-0.9,6.1-2.8c2.5-3,2.4-6.7,1.3-10.2
		c-0.2-0.6-0.5-1.1-0.9-1.6c-0.2-0.5-0.4-1.1-0.8-1.6c-1.8-2.3-5.7-3.7-8.2-1.5c-0.5,0.4-1,0.8-1.4,1.3c-0.8-0.5-1.6-1-2.5-1.3
		c0.1-0.5,0.2-1,0.3-1.5c0.8-1.3,1.6-2.6,2.3-3.8c0.6-1,0.8-2.2,0.6-3.4c2.4-4,6.1-7.1,11-8c1.6-0.3,3.1-0.3,4.5-0.1
		c-0.4,0.2-0.7,0.3-1.1,0.6c-2.3-0.1-4.6,1-5.7,3.2c-1.6,3.2-1.3,7.3,0.9,10.2c2.5,3.2,6.9,4.5,10.7,3c3.2-1.3,5.6-4.2,5.8-7.7
		c0.8,1.7,1.4,3.4,1.8,5.2C700.3,395.9,698.9,406.5,690.8,410.9z"/>
	<path class="st2" d="M654.7,460c-5.2-3.1-11.7-3.9-17.6-4.4c-5.4-0.4-10.6-0.2-15.8,0.6c-1-0.2-2-0.2-3.2,0.3
		c-0.5,0.2-1,0.4-1.5,0.6c-0.4,0.1-0.7,0.1-1.1,0.2c-0.8,0.2-1.4,0.5-2,1.1c-8.7,3.9-17.2,10.2-16.6,20.8
		c0.7,13.2,14.9,17.4,25.9,17.9c10.8,0.5,23.8-1.8,32.4-8.7C664.7,480.7,665.9,466.6,654.7,460z M649.9,477.1c-2.4,3.5-7.2,5-11,6.2
		c-4.8,1.5-9.9,2.1-14.9,2.1c-4.3-0.1-9.8-0.4-13.2-3.3c-2.8-2.4-2.5-5.4-0.3-8.1c2.4-3,6.3-4.5,9.8-5.7c4.9-1,10-1.3,15-1
		c4.4,0.3,10,0.7,13.8,3.1C651.7,472,651.6,474.7,649.9,477.1z"/>
</g>
<g>
	<title>questions</title>
	<g>
		<polygon class="st3" points="1178.2,365.9 1101.5,740.9 681.8,749.4 576.9,539.1 638.4,174.7 640.6,161.5 1015.7,171.1 		"/>
		<polygon class="st1" points="1177.7,368.5 1101.5,740.9 686.2,749.2 681.8,749.4 576.9,539.1 638.4,174.7 758.9,340.6 		"/>
		<polygon class="st1" points="1177.5,369.6 1101.5,740.9 686.2,749.2 758.9,340.6 1170.7,370.9 		"/>
	</g>
	<path class="st2" d="M644.5,430.2c-43,63.2-73.9,131.7-93.8,205.1c-4.2,15,19.8,17.7,23.9,3.3c18.6-69.3,48.7-134.1,88.7-193.6
		C671.9,432.5,653.1,417.7,644.5,430.2z"/>
	<path class="st2" d="M940.8,445.9c-0.5-9.1-5-18.5-12.6-23.7c-1.4-0.9-2.9-1.7-4.4-2.3c0.1-2.8-1.4-5.8-4.1-6.6
		c-17.8-5-35.7,3.2-45.7,18.5c-9.7,14.9-11.6,34.2-0.2,48.7c10.3,13,29.2,17.7,44.1,9.8C933.2,482.3,941.7,462.8,940.8,445.9z
		 M925.5,459.3c0-0.6-0.1-1.1-0.1-1.7c-1.3-6.8-7.9-12-14.6-11.2c-1.5-0.8-3.6-1.3-5.6,0.5c-7.5,7.2-7.8,19.7,1.4,25.4
		c3.1,1.8,7,2.6,10.4,1.7c-1.2,1.2-2.5,2.3-3.8,3.1c-8.3,5.4-20,3.8-26.8-3.2c-8.1-8.4-8.2-20.1-3.4-30.1c0.3,0.8,0.7,1.5,1.2,2.2
		c2.6,3.3,7.2,4.2,10.9,2.5c2.9-1.3,5.2-4,6.8-6.7c1.4-2.3,2.5-4.8,2.7-7.5c1.7,0.2,3.5-0.3,5.1-1.3c3.3-2.2,8.1-1.4,11.2,1
		c4.1,3.1,5.9,8.2,6.2,13.2C927.3,451.1,926.8,455.3,925.5,459.3z"/>
	<path class="st2" d="M1070.7,457.5c0.8-16.5-5.5-33.9-23-38.2c-16.2-4-31.2,6-38.3,20c-8.5,10.4-15.4,23.6-8.4,36.6
		c3.8,7,10.6,11.2,18.1,13.3c7.6,2.2,15.9,3.7,23.9,2.4C1059.6,489,1069.9,473.6,1070.7,457.5z M1043.2,477.6
		c-5.3,1.6-11.3,0.6-16.6-0.6c-3-0.6-6.4-1.5-9.2-3.2c1.8-0.3,3.4-1,4.9-2.3c0.5-0.5,1-1,1.5-1.5c2.6,0.6,5.5,0.1,7.7-1.7
		c3.5-2.9,4.3-7.1,3.9-11.4c-0.1-0.7-0.3-1.4-0.6-2.1c-0.1-0.7-0.2-1.3-0.6-2c-1.5-3.1-5.6-5.6-9-3.7c-0.7,0.4-1.3,0.7-2,1.1
		c-0.8-0.8-1.6-1.5-2.5-2.1c0.2-0.5,0.4-1.1,0.7-1.6c1.2-1.3,2.4-2.6,3.6-3.9c1-1,1.4-2.4,1.5-3.7c3.7-4,8.7-6.8,14.5-6.6
		c1.9,0,3.6,0.4,5.2,0.9c-0.5,0.1-0.9,0.2-1.4,0.4c-2.6-0.7-5.5,0-7.3,2.3c-2.6,3.3-3.2,8.1-1.3,11.9c2.1,4.3,6.8,6.8,11.6,6
		c4-0.7,7.4-3.6,8.5-7.4c0.5,2.1,0.8,4.3,0.9,6.4C1057.6,462.6,1053.5,474.4,1043.2,477.6z"/>
	<path class="st2" d="M990.2,525.4c-5.2-4.7-12.5-7.3-19.2-9.1c-6.1-1.7-12.1-2.7-18.3-3c-1.1-0.5-2.3-0.7-3.8-0.4
		c-0.6,0.1-1.2,0.2-1.9,0.3c-0.4,0-0.9,0-1.3,0c-0.9,0-1.8,0.3-2.5,0.7c-10.9,2.4-22.2,7.6-24,20c-2.3,15.4,13,23.5,25.5,26.7
		c12.2,3.1,27.8,3.5,39.3-2.4C996.8,551.6,1001.5,535.6,990.2,525.4z M980.7,543.9c-3.6,3.4-9.5,4.1-14.1,4.5
		c-5.9,0.6-11.8,0.1-17.6-1.1c-4.9-1.1-11.2-2.8-14.4-6.9c-2.7-3.4-1.6-6.8,1.6-9.4c3.4-2.9,8.2-3.6,12.6-4.3
		c5.9,0,11.8,0.8,17.5,2.3c5,1.3,11.4,3.1,15.2,6.8C984,538.5,983.2,541.6,980.7,543.9z"/>
</g>
</svg>
