<?xml version="1.0" encoding="utf-8"?>
<!-- Generator: Adobe Illustrator 19.0.0, SVG Export Plug-In . SVG Version: 6.00 Build 0)  -->
<svg version="1.1" id="圖層_1" xmlns="http://www.w3.org/2000/svg" xmlns:xlink="http://www.w3.org/1999/xlink" x="0px" y="0px"
	 viewBox="0 0 350 350" style="enable-background:new 0 0 350 350;" xml:space="preserve">
<style type="text/css">
	.st0{fill:#FFFFFF;}
	.st1{fill:#FF693A;}
</style>
<path class="st0" d="M265.6,86.4c-7.5,6.7-15,13.5-22.6,20.2c6.6-10.4,13.1-20.8,19.7-31.2c2.7-4.3-3.5-9.2-7.3-6.3
	c-11.2,8.4-21.3,17.9-30.8,28c3.8-6.8,7.7-13.6,11.5-20.3c2.3-4.2-3.5-9.7-7.3-6.3c-15,13.3-28.2,28.3-40.4,44.1L210.8,67
	c2-4.4-3.2-9.5-7.3-6.3c-21.1,15.8-37.2,36.4-51.1,58.5c8.5-21.3,19.6-41.6,33-60.4c3.7-5.2-3-11.2-7.5-6.6
	c-13.3,13.5-24.4,28.7-34.4,44.6c7.2-15,15.4-29.6,24.5-43.6c3.2-5-4.5-9.4-8.3-5.5c-8.7,9.2-16.9,18.8-24.4,28.9
	c2.8-5.4,5.7-10.8,8.6-16.2c2.8-5.1-4.5-9.7-8.3-5.5c-8.1,9.1-15.6,18.7-22.4,28.7c6.6-11.8,13.8-23.2,20.9-34.5
	c3.1-5-4.5-9.4-8.3-5.5C113,57.2,101.5,71.8,91.4,87.4c4.9-9.3,10.3-18.4,16.3-27.1c3.6-5.2-3.3-11.6-7.5-6.6
	c-9,10.5-17.1,21.8-24.2,33.7c6.3-15.9,14-31.2,23.1-45.8c3-4.8-5-10.1-8.3-5.5c-3.1,4.4-6.2,9-9.1,13.5c0.6-4.2-5.9-7.9-8.9-3.9
	c-1,1.4-2,2.8-3,4.2c-0.5-1-1.4-1.9-2.4-2.4c1.4-2.5,2.8-5,4.3-7.5c2.9-4.9-4.8-10-8.3-5.5c-7.7,9.8-15,20-21.9,30.4
	c-1.1-3.7-7.7-5.2-9.4-0.8c-6.3,16.7-12.6,33.4-18.9,50c-2.2,5.9,6.1,10.3,9,4.4C25,113,28,107.4,31,101.8c-3,7.9-5.9,15.9-8.5,24
	c-1.5,4.6,4.3,7.2,7.7,5c-0.4,4.7,7.7,7.2,9.6,2.2c0.2-0.5,0.4-1,0.6-1.4c-0.6,3.8-1.2,7.7-1.6,11.5c-0.7,6.4,8,8.2,9.8,2
	c0.7-2.3,1.4-4.6,2.1-6.9c-1.5,7.7-2.7,15.4-3.5,23.2c-0.6,5.3,5.8,7.6,8.6,4.4c1.8,3.5,7.8,3.5,9.4-1.3c6-18.6,13.9-36.5,23.4-53.5
	c-7,16.9-11.9,34.6-13.1,53.2c-0.4,6.3,8,8.3,9.8,2c5.6-19.8,13.6-38.8,23.6-56.7c-7.1,17-13.4,34.4-18.8,52.2
	c-1.6,5.4,7.5,8.6,9.4,3.2c7.8-22.2,18.1-43.4,30.6-63.1c-9,20-16.4,40.7-22,61.9c-1.5,5.5,6.9,8.2,9.4,3.2
	c7.6-15.7,15.4-31.5,23.9-46.8c-4.9,12.8-8.9,25.9-11.9,39.3c-1.3,5.7,6.7,8.1,9.4,3.2c15.1-27.5,30.8-55.9,52.9-78.3
	c-11.8,25.2-23.6,50.4-35.4,75.6c-2.3,4.9,4.9,10.4,8.3,5.5c13.9-20.3,27.9-40.9,43.9-59.7c-7.2,12.7-14.4,25.4-21.5,38.1
	c-2.8,4.9,4.8,10,8.3,5.5c12.7-16.7,25.5-33.5,40-48.6L215.3,132c-3.3,5.2,4.4,8.9,8.3,5.5c16.5-14.8,33.1-29.7,49.6-44.5
	C278,88.7,270.4,82.2,265.6,86.4z"/>
<ellipse class="st0" cx="240.1" cy="109.5" rx="43.4" ry="39.5"/>
<g id="XMLID_10_">
	<g id="XMLID_1_">
		<g id="XMLID_213_">
			<path id="XMLID_217_" class="st1" d="M218.6,142.6c-11.5-7.5-17.1-21.9-14.9-35.3c2.2-13.4,11.8-24.6,23.5-31
				c12.6-6.8,29.5-8.5,41.8-0.3c11.5,7.6,16.6,22.8,13.9,36c-3.1,15.3-15.5,27-29.8,32.1c-3,1.1-1.7,5.9,1.3,4.8
				c14.7-5.3,27.3-16.4,32.2-31.5c4.6-14.3,0.8-31.5-10.2-41.9c-24.8-23.3-68.1-3.7-76.6,26.2c-4.8,16.7,1.6,35.6,16.3,45.1
				C218.8,148.7,221.3,144.4,218.6,142.6L218.6,142.6z"/>
		</g>
	</g>
	<g id="XMLID_2_">
		<g id="XMLID_207_">
			<path id="XMLID_211_" class="st1" d="M228.3,97.8c-0.5,3.2-1,6.3-1.4,9.5c-0.2,1.3,0.3,2.7,1.7,3.1c1.2,0.3,2.9-0.4,3.1-1.7
				c0.5-3.2,1-6.3,1.4-9.5c0.2-1.3-0.3-2.7-1.7-3.1C230.2,95.7,228.5,96.5,228.3,97.8L228.3,97.8z"/>
		</g>
	</g>
	<g id="XMLID_3_">
		<g id="XMLID_201_">
			<path id="XMLID_205_" class="st1" d="M247.6,100.4c-0.8,3-1.7,6-2.5,9c-0.9,3.1,4,4.4,4.8,1.3c0.8-3,1.7-6,2.5-9
				C253.3,98.6,248.5,97.3,247.6,100.4L247.6,100.4z"/>
		</g>
	</g>
	<g id="XMLID_5_">
		<g id="XMLID_195_">
			<path id="XMLID_199_" class="st1" d="M192.6,152.9c-16.2-19.3-24.5-46.5-13-70.2c5.3-10.9,14.6-19.5,26.2-23.2
				c5.4-1.7,11.1-2.4,16.7-1.7c2.8,0.3,5.7,1,8.3,2c3.5,1.4,9.7,5.8,4.9,9.5c-2.5,2,1,5.5,3.5,3.5c4.7-3.8,3.6-10.5-0.6-14.2
				c-4.8-4.4-12.6-5.8-18.9-6c-14.8-0.6-29.3,6.5-38.5,18c-20.8,26.2-12.2,62.1,7.7,85.9C191.1,158.9,194.6,155.3,192.6,152.9
				L192.6,152.9z"/>
		</g>
	</g>
	<g id="XMLID_6_">
		<g id="XMLID_189_">
			<path id="XMLID_193_" class="st1" d="M266.2,158.3c20.3-0.8,35.4,15.6,35.4,35.4c0,18.9-8.5,45.3-30,48.3
				c-3.2,0.4-1.8,5.3,1.3,4.8c24.3-3.4,34.4-33.6,33.7-54.9c-0.7-21.7-18.2-39.5-40.4-38.6C263,153.5,262.9,158.5,266.2,158.3
				L266.2,158.3z"/>
		</g>
	</g>
	<g id="XMLID_7_">
		<g id="XMLID_183_">
			<path id="XMLID_187_" class="st1" d="M195.3,173.2c-6.8,24.3-11.4,49.2-13.5,74.4c-1,12.3-1.6,24.8-1.4,37.2
				c0.2,7.5,1.5,16.7,9,20.4c7.1,3.5,15.5-0.5,20.2-6.2c2.8-3.4,4.4-7.6,5.4-11.8c0.6-2.5,1.1-5,1.5-7.4c0.5-2.6,0.6-7.3,2.3-9.5
				c5.7-7.6,4.4,7.7,4.2,9.7c-0.7,5.8-1.4,11.6-0.1,17.4c1.7,7.6,8,15.4,16.3,15.7c10.6,0.4,15.7-10.3,17-19.3
				c1.9-13.8,2.5-27.9,3.7-41.8c0.3-3.2-4.7-3.2-5,0c-0.9,11-1.9,22.1-2.8,33.1c-0.7,8-2.8,27.6-15.8,22.1
				c-11.3-4.7-9.1-19.4-7.9-29c0.6-5.1,1.3-14.1-5.7-15.3c-6.9-1.2-9.2,7.2-10.1,12.2c-1.8,9.3-2.8,21.3-12.9,25.4
				c-12.2,5.1-14-9.9-14.1-18.3c-0.1-10.9,0.4-21.8,1.2-32.7c2-25.4,6.6-50.5,13.5-75C201,171.5,196.2,170.1,195.3,173.2
				L195.3,173.2z"/>
		</g>
	</g>
	<g id="XMLID_4_">
		<g id="XMLID_177_">
			<path id="XMLID_181_" class="st1" d="M233,128.9c1.6-3.6,7.2-4,7.7,0.6c0.4,3.2,5.4,3.2,5,0c-0.5-4-3.1-7.6-7.3-8.4
				c-4-0.7-8.2,1.6-9.8,5.3C227.5,129.3,231.8,131.8,233,128.9L233,128.9z"/>
		</g>
	</g>
</g>
<g id="XMLID_9_">
	<g id="XMLID_12_">
		<g id="XMLID_171_">
			<path id="XMLID_175_" class="st1" d="M82.3,46.3c-0.7-4.2-5.2-6.2-9.1-4.6c-4.5,1.8-8.1,7.5-9.9,11.8
				c-3.9,9.3,0.4,21.4,11.7,21.2c10.3-0.2,20.7-12.3,21.1-22.3c0.2-4.2-1.7-8.8-5.8-10.6c-4-1.7-8.9-0.1-10.6,4
				c-1.2,2.9,3.1,5.5,4.3,2.5c1.7-4.1,6.3-1.5,7,2c0.6,3.2-1,6.3-2.6,9c-2.7,4.5-6.5,9.3-12,10.3c-6,1.1-10.1-3.7-9.8-9.3
				c0.1-3,1.5-5.9,3.2-8.4c0.8-1.1,1.6-2.3,2.5-3.3c0.6-0.6,4.4-4.6,5.1-0.9C78.1,50.8,82.9,49.5,82.3,46.3L82.3,46.3z"/>
		</g>
	</g>
	<g id="XMLID_13_">
		<g id="XMLID_165_">
			<path id="XMLID_169_" class="st1" d="M107,31.2c-2.8,16.9-7,33.5-12.7,49.7c1.6,0.4,3.2,0.9,4.8,1.3c1.9-6.6,4.8-12.7,8.8-18.2
				c0.3-0.4,2.7-4,3.6-4.3c4.1-1.3,2.5,4,2.3,5.4c-0.4,2.4-0.8,4.8-0.3,7.2c0.9,4.3,4.3,7.2,8.7,7.3c5.1,0.1,9.1-3.5,12.4-6.9
				c2.3-2.3-1.3-5.8-3.5-3.5c-2.6,2.7-6.2,6.7-10.3,4.9c-4.4-1.9-1.9-7.5-1.7-11.1c0.3-3.9-1-9-5.8-9.2c-4.8-0.3-8.3,5.6-10.6,9
				c-3.8,5.5-6.5,11.7-8.4,18.1c-0.9,3.1,3.8,4.3,4.8,1.3c5.7-16.2,9.9-32.7,12.7-49.7C112.3,29.4,107.5,28,107,31.2L107,31.2z"/>
		</g>
	</g>
</g>
<g id="XMLID_19_">
	<g id="XMLID_14_">
		<g id="XMLID_159_">
			<path id="XMLID_163_" class="st1" d="M67.9,104.6c-1.4,6.8-4.2,12.8-8.3,18.4c1.5,0.6,3,1.3,4.6,1.9c2.4-6.8,6.9-12.9,12.9-17
				c2.3-1.6,8.2-6.1,8.5-1.4c0.2,3.2-2.2,8.1-3,11.3c-1.1,4.1-2.5,9.9,1.8,12.6c4.4,2.8,8.9-0.7,11.7-3.9c2.1-2.4-1.4-6-3.5-3.5
				c-1.4,1.6-4.8,6-6.2,1c-0.3-1.1,0.7-3.9,1-4.9c1.1-4,2.4-8.1,3.3-12.2c0.9-4.4-0.4-9-6-8.2c-11.8,1.7-21.6,14.5-25.3,24.8
				c-1,2.9,3,4,4.6,1.9c4.3-5.9,7.3-12.4,8.8-19.6C73.4,102.8,68.5,101.4,67.9,104.6L67.9,104.6z"/>
		</g>
	</g>
	<g id="XMLID_15_">
		<g id="XMLID_152_">
			<path id="XMLID_157_" class="st1" d="M103.6,116.5c2.6-1,5.6-2.9,4.7-6.3c-0.6-2.3-3-3.5-5.4-3c-6.7,1.3-11.3,10.4-6.4,15.7
				c5.5,5.9,16.1,2.7,21.8-1.3c6.9-4.9,3.9-11.7-2.2-15.3c-2.8-1.6-5.3,2.7-2.5,4.3c2.9,1.7,5.3,4.5,1.6,7.1
				c-1.8,1.3-4.4,2.1-6.6,2.7c-2.3,0.6-5.7,1.6-7.8-0.2c-2.1-2-2.2-3.9-0.1-5.7c1-0.6,1.5-1.5,1.4-2.7
				C99.3,112.8,100.6,117.6,103.6,116.5L103.6,116.5z"/>
		</g>
	</g>
</g>
<g id="XMLID_20_">
	<g id="XMLID_145_">
		<path id="XMLID_150_" class="st1" d="M48.9,165.9c-1.4,24.8-2.8,49.7-4.2,74.5c-0.2,3.2,4.8,3.2,5,0c1.4-24.8,2.8-49.7,4.2-74.5
			C54.1,162.7,49.1,162.7,48.9,165.9L48.9,165.9z"/>
	</g>
</g>
<g id="XMLID_27_">
	<g id="XMLID_138_">
		<path id="XMLID_143_" class="st1" d="M49.6,167.3c10.9,11.4,25.1,19.3,40.5,22.5c7.7,1.6,15.6,2.1,23.4,1.4c9-0.9,18.9-5.9,27.8-3
			c3.1,1,4.4-3.8,1.3-4.8c-8.1-2.6-15.8,0.5-23.7,2c-8,1.5-16.4,1.5-24.4,0.1c-15.7-2.6-30.2-10.3-41.3-21.8
			C50.9,161.4,47.4,164.9,49.6,167.3L49.6,167.3z"/>
	</g>
</g>
<g id="XMLID_34_">
	<g id="XMLID_131_">
		<path id="XMLID_136_" class="st1" d="M146,191.8c-7,25.5-13.9,51-20.9,76.5c-0.8,3.1,4,4.4,4.8,1.3c7-25.5,13.9-51,20.9-76.5
			C151.6,190,146.8,188.7,146,191.8L146,191.8z"/>
	</g>
</g>
<g id="XMLID_39_">
	<g id="XMLID_124_">
		<path id="XMLID_129_" class="st1" d="M41.1,237.1c6.8,13.6,19.8,23.6,34.6,26.9c7.4,1.7,14.9,1.5,22.3-0.1c9.5-2,21-6,29.6,0.7
			c2.5,1.9,6.1-1.6,3.5-3.5c-14.2-11-30.6-0.3-46.2-0.9c-16.7-0.6-32.1-10.8-39.6-25.7C44,231.7,39.7,234.2,41.1,237.1L41.1,237.1z"
			/>
	</g>
</g>
<g id="XMLID_50_">
	<g id="XMLID_117_">
		<path id="XMLID_122_" class="st1" d="M57.2,191.2c-1.5,6.2-3.1,12.3-4.6,18.5c-0.7,2.6,3.3,4.6,4.6,1.9c0.3-0.6,0.6-1.3,0.9-1.9
			c1.3-2.9-3-5.4-4.3-2.5c-0.3,0.6-0.6,1.3-0.9,1.9c1.5,0.6,3,1.3,4.6,1.9c1.5-6.2,3.1-12.3,4.6-18.5
			C62.8,189.4,58,188.1,57.2,191.2L57.2,191.2z"/>
	</g>
</g>
<g id="XMLID_51_">
	<g id="XMLID_110_">
		<path id="XMLID_115_" class="st1" d="M61.9,194.1c5.6,1.2,11.2,2.5,16.8,3.7c-0.6-1-1.2-2.1-1.7-3.1c-2.5,8-5.1,16-7.6,24
			c1.4-0.4,2.8-0.7,4.2-1.1c-0.8-0.8-1.5-1.5-2.3-2.3c-2.3-2.3-5.8,1.2-3.5,3.5c0.8,0.8,1.5,1.5,2.3,2.3c1.4,1.4,3.6,0.7,4.2-1.1
			c2.5-8,5.1-16,7.6-24c0.4-1.2-0.5-2.8-1.7-3.1c-5.6-1.2-11.2-2.5-16.8-3.7C60.1,188.5,58.8,193.4,61.9,194.1L61.9,194.1z"/>
	</g>
</g>
<g id="XMLID_59_">
	<g id="XMLID_103_">
		<path id="XMLID_108_" class="st1" d="M61,217.5c4.8,0.4,9.7,0.7,14.5,1.1c3.2,0.2,3.2-4.8,0-5c-4.8-0.4-9.7-0.7-14.5-1.1
			C57.8,212.2,57.8,217.2,61,217.5L61,217.5z"/>
	</g>
</g>
<g id="XMLID_61_">
	<g id="XMLID_96_">
		<path id="XMLID_101_" class="st1" d="M94,204.7c10.4,0.2,20.8,0.3,31.2,0.5c-0.4-1.6-0.8-3.1-1.3-4.7c-0.6,0.3-1.2,0.5-1.7,0.8
			c-2.9,1.3-0.4,5.6,2.5,4.3c0.6-0.3,1.2-0.5,1.7-0.8c2.4-1,1-4.6-1.3-4.7c-10.4-0.2-20.8-0.3-31.2-0.5
			C90.8,199.7,90.8,204.7,94,204.7L94,204.7z"/>
	</g>
</g>
<g id="XMLID_92_">
	<g id="XMLID_89_">
		<path id="XMLID_94_" class="st1" d="M94,217.4c8.8-0.1,17.7-0.1,26.5-0.2c3.2,0,3.2-5,0-5c-8.8,0.1-17.7,0.1-26.5,0.2
			C90.8,212.4,90.8,217.4,94,217.4L94,217.4z"/>
	</g>
</g>
<g id="XMLID_99_">
	<g id="XMLID_83_">
		<path id="XMLID_87_" class="st1" d="M96,231.2c6.4,0.8,12.7,1.7,19.1,2.5c3.2,0.4,3.1-4.6,0-5c-6.4-0.8-12.7-1.7-19.1-2.5
			C92.8,225.8,92.8,230.8,96,231.2L96,231.2z"/>
	</g>
</g>
<g id="XMLID_106_">
	<g id="XMLID_77_">
		<path id="XMLID_81_" class="st1" d="M123.7,152.3c2.3,2.9,4.6,5.8,6.8,8.7c0.8,1.1,2.7,0.9,3.5,0c1.1-1,0.8-2.5,0-3.5
			c-2.3-2.9-4.6-5.8-6.8-8.7c-0.8-1.1-2.7-0.9-3.5,0C122.6,149.8,122.9,151.2,123.7,152.3L123.7,152.3z"/>
	</g>
</g>
<g id="XMLID_113_">
	<g id="XMLID_71_">
		<path id="XMLID_75_" class="st1" d="M119.1,149.6c-1.5,1.8-3,3.6-4.5,5.4c-0.7,0.8-1,2.1-0.4,3c3.8,5.6,10.2,8.9,17,8.1
			c3.2-0.4,3.2-5.4,0-5c-5,0.6-9.8-1.3-12.7-5.6c-0.1,1-0.3,2-0.4,3c1.5-1.8,3-3.6,4.5-5.4C124.6,150.7,121.1,147.1,119.1,149.6
			L119.1,149.6z"/>
	</g>
</g>
<g id="XMLID_120_">
	<g id="XMLID_65_">
		<path id="XMLID_69_" class="st1" d="M88.2,152.7c7.4,5.6,14.7,11.3,22.1,16.9c2.6,2,5-2.4,2.5-4.3c-7.4-5.6-14.7-11.3-22.1-16.9
			C88.2,146.4,85.7,150.8,88.2,152.7L88.2,152.7z"/>
	</g>
</g>
<g id="XMLID_127_">
	<g id="XMLID_57_">
		<path id="XMLID_63_" class="st1" d="M221.1,67.6c3.8-0.6,7.6-1.1,11.5-1.7c3.2-0.5,1.8-5.3-1.3-4.8c-3.8,0.6-7.6,1.1-11.5,1.7
			C216.6,63.2,218,68.1,221.1,67.6L221.1,67.6z"/>
	</g>
</g>
<g id="XMLID_134_">
	<g id="XMLID_49_">
		<path id="XMLID_55_" class="st1" d="M265.6,242.3c3.5-1.4,7-2.9,10.6-4.3c2.9-1.2,1.6-6-1.3-4.8c-3.5,1.4-7,2.9-10.6,4.3
			C261.4,238.7,262.6,243.5,265.6,242.3L265.6,242.3z"/>
	</g>
</g>
<g id="XMLID_141_">
	<g id="XMLID_43_">
		<path id="XMLID_47_" class="st1" d="M253.2,51.1c-2.8-3.3-9.6-12.3-2.9-15.6c2.8-1.4,4.8,0.9,4.6,3.7c-0.1,2.9-2.5,5.4-4.4,7.5
			c-2.1,2.4,1.4,6,3.5,3.5c3.3-3.8,6.8-8.3,5.6-13.7c-0.9-4.2-4.5-7-8.9-6.4c-4.5,0.7-7.6,4.5-8,8.9c-0.6,6.2,3.2,11.2,7,15.6
			C251.8,57.1,255.3,53.5,253.2,51.1L253.2,51.1z"/>
	</g>
</g>
<g id="XMLID_148_">
	<g id="XMLID_36_">
		<path id="XMLID_41_" class="st1" d="M277.6,65.2c0.5-3.2,1.4-6.2,3.1-8.9c1.2-1.9,4.9-6.9,7.7-4.5c1.7,1.5,1,4.5-0.2,6.1
			c-1.9,2.4-5.2,3.5-7.9,4.6c-3,1.1-1.7,6,1.3,4.8c4.4-1.6,9.3-3.6,11.6-8c1.8-3.4,1.6-8.2-1.3-11c-3.4-3.3-8.4-2-11.7,0.8
			c-4.3,3.7-6.7,9.4-7.5,14.9C272.3,67,277.2,68.3,277.6,65.2L277.6,65.2z"/>
	</g>
</g>
<g id="XMLID_155_">
	<g id="XMLID_29_">
		<path id="XMLID_33_" class="st1" d="M299.9,95.3c3.5-1.8,10.7-4.5,14.3-1.6c2.8,2.1,0.5,5.2-2.4,5.6s-5.8-1.5-7.9-3.1
			c-2.5-2-6.1,1.6-3.5,3.5c3.8,2.9,8.6,5.7,13.5,4.3c3.7-1.1,6.9-4.7,6.7-8.6c-0.5-11.3-17.2-7.6-23.3-4.4
			C294.5,92.5,297,96.8,299.9,95.3L299.9,95.3z"/>
	</g>
</g>
</svg>
