<?xml version="1.0" encoding="utf-8"?>
<!-- Generator: Adobe Illustrator 19.0.0, SVG Export Plug-In . SVG Version: 6.00 Build 0)  -->
<svg version="1.1" id="圖層_1" xmlns="http://www.w3.org/2000/svg" xmlns:xlink="http://www.w3.org/1999/xlink" x="0px" y="0px"
	 viewBox="-122 245.9 350 350" style="enable-background:new -122 245.9 350 350;" xml:space="preserve">
<style type="text/css">
	.st0{fill:#FFFFFF;}
	.st1{fill:#FF693A;}
</style>
<ellipse class="st0" cx="117" cy="345.3" rx="43.4" ry="39.5"/>
<g id="XMLID_10_">
	<g id="XMLID_1_">
		<g id="XMLID_213_">
			<path class="st1" d="M163.5,353.2c-4.9,15.1-17.5,26.2-32.2,31.5c-3,1.1-4.3-3.7-1.3-4.8c14.3-5.1,26.7-16.8,29.8-32.1
				c2.7-13.2-2.4-28.4-13.9-36c-8.3-5.5-18.7-6.6-28.5-4.5c-1.6,0.3-3.2,0.8-4.8,1.2c-3,0.9-5.9,2.2-8.5,3.6
				c-11.7,6.4-21.3,17.6-23.5,31c-2.2,13.4,3.4,27.8,14.9,35.3c2.7,1.8,0.2,6.1-2.5,4.2c-14.7-9.5-21.1-28.4-16.3-45.1
				c4.8-16.7,20.4-30.2,37.6-34.8c1.6-0.4,3.2-0.8,4.9-1c12.1-2,24.5,0.6,34.2,9.6C164.3,321.7,168.1,338.9,163.5,353.2z"/>
		</g>
	</g>
	<g id="XMLID_2_">
		<g id="XMLID_207_">
			<path id="XMLID_211_" class="st1" d="M105.2,333.6c-0.5,3.2-1,6.3-1.4,9.5c-0.2,1.3,0.3,2.7,1.7,3.1c1.2,0.3,2.9-0.4,3.1-1.7
				c0.5-3.2,1-6.3,1.4-9.5c0.2-1.3-0.3-2.7-1.7-3.1C107.1,331.5,105.4,332.3,105.2,333.6L105.2,333.6z"/>
		</g>
	</g>
	<g id="XMLID_3_">
		<g id="XMLID_201_">
			<path id="XMLID_205_" class="st1" d="M124.5,336.2c-0.8,3-1.7,6-2.5,9c-0.9,3.1,4,4.4,4.8,1.3c0.8-3,1.7-6,2.5-9
				C130.2,334.4,125.4,333.1,124.5,336.2L124.5,336.2z"/>
		</g>
	</g>
	<g id="XMLID_5_">
		<g id="XMLID_195_">
			<path class="st1" d="M117.5,307.3c-1.6,0.3-3.2,0.8-4.8,1.2c-1-0.9-1.4-2.3,0-3.4c1-0.8,1.5-1.6,1.7-2.4c0.6-3-3.8-6-6.6-7.1
				c-2.6-1-5.5-1.7-8.3-2c-5.6-0.7-11.3,0-16.7,1.7c-11.6,3.7-20.9,12.3-26.2,23.2c-11.5,23.7-3.2,50.9,13,70.2c2,2.4-1.5,6-3.7,3.6
				c-19.9-23.8-28.5-59.7-7.7-85.9c9.2-11.5,23.7-18.6,38.5-18c6.3,0.2,14.1,1.6,18.9,6c2.2,1.9,3.5,4.6,3.6,7.3
				C119.3,303.6,118.8,305.6,117.5,307.3z"/>
		</g>
	</g>
	<g id="XMLID_6_">
		<g id="XMLID_189_">
			<path id="XMLID_193_" class="st1" d="M143.1,394.1c20.3-0.8,35.4,15.6,35.4,35.4c0,18.9-8.5,45.3-30,48.3
				c-3.2,0.4-1.8,5.3,1.3,4.8c24.3-3.4,34.4-33.6,33.7-54.9c-0.7-21.7-18.2-39.5-40.4-38.6C139.9,389.3,139.8,394.3,143.1,394.1
				L143.1,394.1z"/>
		</g>
	</g>
	<g id="XMLID_7_">
		<g id="XMLID_183_">
			<path id="XMLID_187_" class="st1" d="M72.2,409c-6.8,24.3-11.4,49.2-13.5,74.4c-1,12.3-1.6,24.8-1.4,37.2
				c0.2,7.5,1.5,16.7,9,20.4c7.1,3.5,15.5-0.5,20.2-6.2c2.8-3.4,4.4-7.6,5.4-11.8c0.6-2.5,1.1-5,1.5-7.4c0.5-2.6,0.6-7.3,2.3-9.5
				c5.7-7.6,4.4,7.7,4.2,9.7c-0.7,5.8-1.4,11.6-0.1,17.4c1.7,7.6,8,15.4,16.3,15.7c10.6,0.4,15.7-10.3,17-19.3
				c1.9-13.8,2.5-27.9,3.7-41.8c0.3-3.2-4.7-3.2-5,0c-0.9,11-1.9,22.1-2.8,33.1c-0.7,8-2.8,27.6-15.8,22.1
				c-11.3-4.7-9.1-19.4-7.9-29c0.6-5.1,1.3-14.1-5.7-15.3c-6.9-1.2-9.2,7.2-10.1,12.2c-1.8,9.3-2.8,21.3-12.9,25.4
				c-12.2,5.1-14-9.9-14.1-18.3c-0.1-10.9,0.4-21.8,1.2-32.7c2-25.4,6.6-50.5,13.5-75C77.9,407.3,73.1,405.9,72.2,409L72.2,409z"/>
		</g>
	</g>
	<g id="XMLID_4_">
		<g id="XMLID_177_">
			<path id="XMLID_181_" class="st1" d="M109.9,364.7c1.6-3.6,7.2-4,7.7,0.6c0.4,3.2,5.4,3.2,5,0c-0.5-4-3.1-7.6-7.3-8.4
				c-4-0.7-8.2,1.6-9.8,5.3C104.4,365.1,108.7,367.6,109.9,364.7L109.9,364.7z"/>
		</g>
	</g>
</g>
<g id="XMLID_134_">
	<g id="XMLID_49_">
		<path id="XMLID_55_" class="st1" d="M142.5,478.1c3.5-1.4,7-2.9,10.6-4.3c2.9-1.2,1.6-6-1.3-4.8c-3.5,1.4-7,2.9-10.6,4.3
			C138.3,474.5,139.5,479.3,142.5,478.1L142.5,478.1z"/>
	</g>
</g>
<g id="XMLID_141_">
	<g id="XMLID_43_">
		<path id="XMLID_47_" class="st1" d="M130.1,286.9c-2.8-3.3-9.6-12.3-2.9-15.6c2.8-1.4,4.8,0.9,4.6,3.7c-0.1,2.9-2.5,5.4-4.4,7.5
			c-2.1,2.4,1.4,6,3.5,3.5c3.3-3.8,6.8-8.3,5.6-13.7c-0.9-4.2-4.5-7-8.9-6.4c-4.5,0.7-7.6,4.5-8,8.9c-0.6,6.2,3.2,11.2,7,15.6
			C128.7,292.9,132.2,289.3,130.1,286.9L130.1,286.9z"/>
	</g>
</g>
<g id="XMLID_148_">
	<g id="XMLID_36_">
		<path id="XMLID_41_" class="st1" d="M154.5,301c0.5-3.2,1.4-6.2,3.1-8.9c1.2-1.9,4.9-6.9,7.7-4.5c1.7,1.5,1,4.5-0.2,6.1
			c-1.9,2.4-5.2,3.5-7.9,4.6c-3,1.1-1.7,6,1.3,4.8c4.4-1.6,9.3-3.6,11.6-8c1.8-3.4,1.6-8.2-1.3-11c-3.4-3.3-8.4-2-11.7,0.8
			c-4.3,3.7-6.7,9.4-7.5,14.9C149.2,302.8,154.1,304.1,154.5,301L154.5,301z"/>
	</g>
</g>
<g id="XMLID_155_">
	<g id="XMLID_29_">
		<path id="XMLID_33_" class="st1" d="M176.8,331.1c3.5-1.8,10.7-4.5,14.3-1.6c2.8,2.1,0.5,5.2-2.4,5.6s-5.8-1.5-7.9-3.1
			c-2.5-2-6.1,1.6-3.5,3.5c3.8,2.9,8.6,5.7,13.5,4.3c3.7-1.1,6.9-4.7,6.7-8.6c-0.5-11.3-17.2-7.6-23.3-4.4
			C171.4,328.3,173.9,332.6,176.8,331.1L176.8,331.1z"/>
	</g>
</g>
<path class="st1" d="M42.7,483.6c-19.7-16.3-40.3-31.3-61.8-45c0.3-0.8,0.6-1.6,0.9-2.4c1.1-3-3.4-5.2-4.5-2.2
	c-5.2,13.9-10.4,27.8-15.5,41.7c-1.5-8.3-3.1-16.7-4.6-25c-0.3-1.5-1.7-2.9-3.3-2.2c-19,7.9-38,15.7-57.1,23.6
	c-0.1-0.5-0.2-1-0.3-1.4c-0.7-3.1-5.4-1.4-4.7,1.7c5.6,24.1,11.1,48.1,16.7,72.2c0.7,3.1,5.4,1.4,4.7-1.7c-0.1-0.4-0.2-0.8-0.3-1.2
	c0.3-0.1,0.5-0.1,0.8-0.3c16.9-9.8,35.1-17,54.1-21.6c1.2-0.3,1.7-1.3,1.6-2.4c0-0.2,0-0.4,0-0.6c-2-11-4-22-6.1-33
	c0.5-0.2,1-0.6,1.3-1.3c4.9-13,9.7-26,14.6-39c21,13.4,41.1,28.2,60.3,44C41.9,489.5,45.2,485.7,42.7,483.6z M-36,514.9
	c-0.4,0.2-0.7,0.5-1,0.9c-18,4.6-35.1,11.7-51.2,20.9c-4.6-19.9-9.2-39.8-13.8-59.7c18.3-7.6,36.6-15.1,54.9-22.7
	C-43.5,474.5-39.7,494.7-36,514.9z"/>
<path class="st1" d="M43,489.3c-24.1,2.5-47.6,8.9-69.6,19.2c-2.9,1.3-1.3,6.1,1.7,4.7c20.5-9.5,42.1-15.7,64.5-18.5
	c0.3,0.1,0.6,0.1,0.9,0l2.9-0.5C46.5,493.8,46.3,488.9,43,489.3z"/>
<path class="st1" d="M-26.5,393c-6.4-13.3-19.5-21.5-33.7-23.5c0.4-1.5-0.5-3.3-2.5-3.1c-17.1,1.6-32.5,13.3-37.4,30
	c-5,16.9,1.4,36,15.9,46.1c15.2,10.5,35.7,9.6,49.5-2.7C-21.6,428-19,408.4-26.5,393z M-33.4,430.9c-9.5,13.1-27.4,17.4-42,10.7
	c-14.7-6.7-23.1-22.6-21-38.5c1.7-12.9,10.4-23.4,21.7-28.5c0,0,0,0,0,0c14.4-2.4,30.2,2.2,39.5,13.9
	C-25.7,400.3-24.3,418.4-33.4,430.9z"/>
</svg>
