<?xml version="1.0" encoding="utf-8"?>
<!-- Generator: Adobe Illustrator 19.0.0, SVG Export Plug-In . SVG Version: 6.00 Build 0)  -->
<svg version="1.1" id="圖層_1" xmlns="http://www.w3.org/2000/svg" xmlns:xlink="http://www.w3.org/1999/xlink" x="0px" y="0px"
	 viewBox="125 -125 350 350" style="enable-background:new 125 -125 350 350;" xml:space="preserve">
<style type="text/css">
	.st0{fill:#FFFFFF;}
	.st1{fill:#29597C;}
</style>
<path class="st0" d="M159.5,7.7c-7.9,0.1-14.8,8.3-13.9,16c0.5,4.8,2.9,8.6,6.3,11.1c-0.6,1.8-0.9,3.7-0.7,5.7
	c1.4,13.5,12,24,25.6,24.8c12.6,0.8,25.8-5.1,30.6-17.5C218.7,18.4,181.2,7.5,159.5,7.7z"/>
<path class="st0" d="M283.4,97.2c-3-8.4-11.2-10.9-19.1-9.2c-5.2,1.1-10.5,2.3-15.7,3.4c1.8-6.7-1.6-14.3-7.9-17.4
	c-7.4-3.7-16.3-0.4-20.1,6.8c-2.7,5.2-5.4,10.4-8.1,15.6c-2.3-2-5.2-3.6-8.7-4.4c-9.3-2.3-22-0.2-30.9,3c-4.6,1.7-9.1,4.1-12.9,7.3
	c-0.8,0.3-1.6,0.6-2.4,1c-7.3,3-11.7,10.7-9.4,18.4c-1.9,9.9,1,20.4,9.6,26.5c8.4,6,21.6,5.6,31.2,2.5c7.5-2.4,13.4-7.8,16.5-14.6
	c5.7-0.4,10.5-3.8,12.8-9c2.5,0.4,5.1,0.3,7.9-0.3c16.1-3.5,32.2-6.9,48.3-10.4C282.2,114.7,285.8,104.2,283.4,97.2z"/>
<path class="st0" d="M392.5,12.3c-4.5,0-8.7,1.4-12.6,3.9c-1.6-5.4-3.6-10.2-5.9-14.4c20.1-3.4,35.3-19.5,35.3-38.8
	c0-21.8-19.4-39.5-43.4-39.5c-2.9,0-5.7,0.3-8.4,0.7c-5.1-7.1-11.3-11.3-18.1-11.3c-17.3,0-31.3,27.5-31.3,61.5
	c0,20.5,5.1,38.7,13,49.8c-12.8,11.4-13.3,31.3-15.1,47.3c-2.2,19.1-3,38.4-2.4,57.6c0.1,4.8,0.4,9.6,0.7,14.4
	c0.3,4,0.3,8.4,1.8,12.2c4,10.2,17,12.6,24.3,4.2c5.4-6.3,5.2-16.8,7.3-24.5c0.7-2.4,1.4-4.8,2.2-7.2c0.8,2.8,1.6,5.7,2.4,8.5
	c2.3,8.3,4.7,16.5,7,24.8c2.3,8.2,12.6,8.4,17.8,3.4c9.9-9.5,13.7-23,16.8-35.9c2.7-11.7,5.5-23.4,8.2-35c0.1,0,0.3,0,0.4,0
	c16.3,0,29.5-18.3,29.5-40.8S408.8,12.3,392.5,12.3z"/>
<g id="XMLID_10_">
	<g id="XMLID_1_">
		<g id="XMLID_213_">
			<path class="st1" d="M412.5-29.2C407.6-14.1,395-3,380.3,2.3c-3,1.1-4.3-3.7-1.3-4.8c14.3-5.1,26.7-16.8,29.8-32.1
				c2.7-13.2-2.4-28.4-13.9-36c-8.3-5.5-18.7-6.6-28.5-4.5c-1.6,0.3-3.2,0.8-4.8,1.2c-3,0.9-5.9,2.2-8.5,3.6
				c-11.7,6.4-21.3,17.6-23.5,31C327.4-25.9,333-11.5,344.5-4c2.7,1.8,0.2,6.1-2.5,4.2c-14.7-9.5-21.1-28.4-16.3-45.1
				c4.8-16.7,20.4-30.2,37.6-34.8c1.6-0.4,3.2-0.8,4.9-1c12.1-2,24.5,0.6,34.2,9.6C413.3-60.7,417.1-43.5,412.5-29.2z"/>
		</g>
	</g>
	<g id="XMLID_2_">
		<g id="XMLID_207_">
			<path id="XMLID_211_" class="st1" d="M354.2-48.8c-0.5,3.2-1,6.3-1.4,9.5c-0.2,1.3,0.3,2.7,1.7,3.1c1.2,0.3,2.9-0.4,3.1-1.7
				c0.5-3.2,1-6.3,1.4-9.5c0.2-1.3-0.3-2.7-1.7-3.1C356.1-50.9,354.4-50.1,354.2-48.8L354.2-48.8z"/>
		</g>
	</g>
	<g id="XMLID_3_">
		<g id="XMLID_201_">
			<path id="XMLID_205_" class="st1" d="M373.5-46.2c-0.8,3-1.7,6-2.5,9c-0.9,3.1,4,4.4,4.8,1.3c0.8-3,1.7-6,2.5-9
				C379.2-48,374.4-49.3,373.5-46.2L373.5-46.2z"/>
		</g>
	</g>
	<g id="XMLID_5_">
		<g id="XMLID_195_">
			<path class="st1" d="M366.5-75.1c-1.6,0.3-3.2,0.8-4.8,1.2c-1-0.9-1.4-2.3,0-3.4c1-0.8,1.5-1.6,1.7-2.4c0.6-3-3.8-6-6.6-7.1
				c-2.6-1-5.5-1.7-8.3-2c-5.6-0.7-11.3,0-16.7,1.7c-11.6,3.7-20.9,12.3-26.2,23.2c-11.5,23.7-3.2,50.9,13,70.2c2,2.4-1.5,6-3.7,3.6
				C295-13.9,286.4-49.8,307.2-76c9.2-11.5,23.7-18.6,38.5-18c6.3,0.2,14.1,1.6,18.9,6c2.2,1.9,3.5,4.6,3.6,7.3
				C368.3-78.8,367.8-76.8,366.5-75.1z"/>
		</g>
	</g>
	<g id="XMLID_6_">
		<g id="XMLID_189_">
			<path id="XMLID_193_" class="st1" d="M392.1,11.7c20.3-0.8,35.4,15.6,35.4,35.4c0,18.9-8.5,45.3-30,48.3
				c-3.2,0.4-1.8,5.3,1.3,4.8c24.3-3.4,34.4-33.6,33.7-54.9c-0.7-21.7-18.2-39.5-40.4-38.6C388.9,6.9,388.8,11.9,392.1,11.7
				L392.1,11.7z"/>
		</g>
	</g>
	<g id="XMLID_7_">
		<g id="XMLID_183_">
			<path id="XMLID_187_" class="st1" d="M321.2,26.6c-6.8,24.3-11.4,49.2-13.5,74.4c-1,12.3-1.6,24.8-1.4,37.2
				c0.2,7.5,1.5,16.7,9,20.4c7.1,3.5,15.5-0.5,20.2-6.2c2.8-3.4,4.4-7.6,5.4-11.8c0.6-2.5,1.1-5,1.5-7.4c0.5-2.6,0.6-7.3,2.3-9.5
				c5.7-7.6,4.4,7.7,4.2,9.7c-0.7,5.8-1.4,11.6-0.1,17.4c1.7,7.6,8,15.4,16.3,15.7c10.6,0.4,15.7-10.3,17-19.3
				c1.9-13.8,2.5-27.9,3.7-41.8c0.3-3.2-4.7-3.2-5,0c-0.9,11-1.9,22.1-2.8,33.1c-0.7,8-2.8,27.6-15.8,22.1
				c-11.3-4.7-9.1-19.4-7.9-29c0.6-5.1,1.3-14.1-5.7-15.3c-6.9-1.2-9.2,7.2-10.1,12.2c-1.8,9.3-2.8,21.3-12.9,25.4
				c-12.2,5.1-14-9.9-14.1-18.3c-0.1-10.9,0.4-21.8,1.2-32.7c2-25.4,6.6-50.5,13.5-75C326.9,24.9,322.1,23.5,321.2,26.6L321.2,26.6z
				"/>
		</g>
	</g>
	<g id="XMLID_4_">
		<g id="XMLID_177_">
			<path id="XMLID_181_" class="st1" d="M358.9-17.7c1.6-3.6,7.2-4,7.7,0.6c0.4,3.2,5.4,3.2,5,0c-0.5-4-3.1-7.6-7.3-8.4
				c-4-0.7-8.2,1.6-9.8,5.3C353.4-17.3,357.7-14.8,358.9-17.7L358.9-17.7z"/>
		</g>
	</g>
</g>
<g id="XMLID_134_">
	<g id="XMLID_49_">
		<path id="XMLID_55_" class="st1" d="M391.5,95.7c3.5-1.4,7-2.9,10.6-4.3c2.9-1.2,1.6-6-1.3-4.8c-3.5,1.4-7,2.9-10.6,4.3
			C387.3,92.1,388.5,96.9,391.5,95.7L391.5,95.7z"/>
	</g>
</g>
<g id="XMLID_141_">
	<g id="XMLID_43_">
		<path id="XMLID_47_" class="st1" d="M379.1-95.5c-2.8-3.3-9.6-12.3-2.9-15.6c2.8-1.4,4.8,0.9,4.6,3.7c-0.1,2.9-2.5,5.4-4.4,7.5
			c-2.1,2.4,1.4,6,3.5,3.5c3.3-3.8,6.8-8.3,5.6-13.7c-0.9-4.2-4.5-7-8.9-6.4c-4.5,0.7-7.6,4.5-8,8.9c-0.6,6.2,3.2,11.2,7,15.6
			C377.7-89.5,381.2-93.1,379.1-95.5L379.1-95.5z"/>
	</g>
</g>
<g id="XMLID_148_">
	<g id="XMLID_36_">
		<path id="XMLID_41_" class="st1" d="M403.5-81.4c0.5-3.2,1.4-6.2,3.1-8.9c1.2-1.9,4.9-6.9,7.7-4.5c1.7,1.5,1,4.5-0.2,6.1
			c-1.9,2.4-5.2,3.5-7.9,4.6c-3,1.1-1.7,6,1.3,4.8c4.4-1.6,9.3-3.6,11.6-8c1.8-3.4,1.6-8.2-1.3-11c-3.4-3.3-8.4-2-11.7,0.8
			c-4.3,3.7-6.7,9.4-7.5,14.9C398.2-79.6,403.1-78.3,403.5-81.4L403.5-81.4z"/>
	</g>
</g>
<g id="XMLID_155_">
	<g id="XMLID_29_">
		<path id="XMLID_33_" class="st1" d="M425.8-51.3c3.5-1.8,10.7-4.5,14.3-1.6c2.8,2.1,0.5,5.2-2.4,5.6s-5.8-1.5-7.9-3.1
			c-2.5-2-6.1,1.6-3.5,3.5c3.8,2.9,8.6,5.7,13.5,4.3c3.7-1.1,6.9-4.7,6.7-8.6c-0.5-11.3-17.2-7.6-23.3-4.4
			C420.4-54.1,422.9-49.8,425.8-51.3L425.8-51.3z"/>
	</g>
</g>
<path class="st1" d="M291.7,101.2c-19.7-16.3-40.3-31.3-61.8-45c0.3-0.8,0.6-1.6,0.9-2.4c1.1-3-3.4-5.2-4.5-2.2
	c-5.2,13.9-10.4,27.8-15.5,41.7c-1.5-8.3-3.1-16.7-4.6-25c-0.3-1.5-1.7-2.9-3.3-2.2c-19,7.9-38,15.7-57.1,23.6
	c-0.1-0.5-0.2-1-0.3-1.4c-0.7-3.1-5.4-1.4-4.7,1.7c5.6,24.1,11.1,48.1,16.7,72.2c0.7,3.1,5.4,1.4,4.7-1.7c-0.1-0.4-0.2-0.8-0.3-1.2
	c0.3-0.1,0.5-0.1,0.8-0.3c16.9-9.8,35.1-17,54.1-21.6c1.2-0.3,1.7-1.3,1.6-2.4c0-0.2,0-0.4,0-0.6c-2-11-4-22-6.1-33
	c0.5-0.2,1-0.6,1.3-1.3c4.9-13,9.7-26,14.6-39c21,13.4,41.1,28.2,60.3,44C290.9,107.1,294.2,103.3,291.7,101.2z M213,132.5
	c-0.4,0.2-0.7,0.5-1,0.9c-18,4.6-35.1,11.7-51.2,20.9c-4.6-19.9-9.2-39.8-13.8-59.7c18.3-7.6,36.6-15.1,54.9-22.7
	C205.5,92.1,209.3,112.3,213,132.5z"/>
<path class="st1" d="M292,106.9c-24.1,2.5-47.6,8.9-69.6,19.2c-2.9,1.3-1.3,6.1,1.7,4.7c20.5-9.5,42.1-15.7,64.5-18.5
	c0.3,0.1,0.6,0.1,0.9,0l2.9-0.5C295.5,111.4,295.3,106.5,292,106.9z"/>
<path class="st1" d="M222.5,10.6c-6.4-13.3-19.5-21.5-33.7-23.5c0.4-1.5-0.5-3.3-2.5-3.1c-17.1,1.6-32.5,13.3-37.4,30
	c-5,16.9,1.4,36,15.9,46.1c15.2,10.5,35.7,9.6,49.5-2.7C227.4,45.6,230,26,222.5,10.6z M215.6,48.5c-9.5,13.1-27.4,17.4-42,10.7
	c-14.7-6.7-23.1-22.6-21-38.5C154.3,7.8,163-2.7,174.3-7.8l0,0c14.4-2.4,30.2,2.2,39.5,13.9C223.3,17.9,224.7,36,215.6,48.5z"/>
</svg>
