<?xml version="1.0" encoding="utf-8"?>
<!-- Generator: Adobe Illustrator 19.0.0, SVG Export Plug-In . SVG Version: 6.00 Build 0)  -->
<svg version="1.1" id="_x38_69a981d-5394-490d-9104-6940aaebaf2b"
	 xmlns="http://www.w3.org/2000/svg" xmlns:xlink="http://www.w3.org/1999/xlink" x="0px" y="0px" viewBox="288 -68.4 1172.4 977.3"
	 style="enable-background:new 288 -68.4 1172.4 977.3;" xml:space="preserve">
<style type="text/css">
	.st0{fill:#F9E153;}
	.st1{fill:#F88132;}
	.st2{fill:#103D65;stroke:#FFFFFF;stroke-width:12.9265;stroke-miterlimit:10;}
	.st3{opacity:0.1;enable-background:new    ;}
	.st4{fill:#FFFFFF;}
	.st5{fill:none;stroke:#FFFFFF;stroke-width:8.5039;stroke-linecap:round;stroke-miterlimit:10;}
	.st6{fill:none;stroke:#FFFFFF;stroke-width:8.5039;stroke-miterlimit:10;}
</style>
<path class="st0" d="M1108.3,45.5c-39.9,0.4-78.2,7.2-114,19.5c-64.6,22.2-136.2,12.4-191.4-28C756.7,3.2,699.6-16.6,637.8-15.9
	c-150.9,1.8-271.4,124-271.1,275c0.4,151.3,123,273.7,274.3,273.7c1.4,0,2.8,0,4.1,0c68.6-1,133.7,30.6,173.9,86.1
	c65.8,90.6,172.5,149.5,292.9,149.5c201.3,0,364.2-164.6,361.4-366.6C1470.6,203.3,1306.9,43.6,1108.3,45.5z"/>
<polygon class="st1" points="496.8,57 920,134.6 855.9,-42.5 449.6,-42.5 "/>
<title>questions</title>
<g>
	<g>
		<polygon class="st2" points="482.3,59.6 932.8,193.1 932.3,217.8 922.5,695.6 826.1,847.9 516.7,791.4 348.2,360.3 		"/>
		<polygon class="st3" points="789,439.7 932.3,217.8 922.5,695.6 826.1,847.9 823.1,847.3 516.7,791.4 349.8,364.6 		"/>
		<polygon class="st3" points="359,370.3 789,439.7 823.1,847.3 516.7,791.4 350.5,366.2 		"/>
	</g>
</g>
<g>
	<g>
		<polygon class="st2" points="1416,515.2 1310,786.5 1115.3,822 1054.6,726.2 1048.5,425.6 1048.2,410 1331.6,326 		"/>
		<polygon class="st3" points="1415,517.9 1310,786.5 1117.2,821.6 1115.3,822 1054.6,726.2 1048.5,425.6 1138.6,565.2 		"/>
		<polygon class="st3" points="1414.5,519 1310,786.5 1117.2,821.6 1138.6,565.2 1409.2,521.5 		"/>
	</g>
</g>
<polygon class="st1" points="1388.1,195.7 1029,242.8 1029,96.2 1435.2,96.2 "/>
<circle class="st4" cx="1074.8" cy="167" r="7.5"/>
<circle class="st4" cx="1113" cy="165" r="7.5"/>
<circle class="st4" cx="1151.2" cy="163" r="7.5"/>
<path class="st4" d="M1112.5,611.8c-0.5-9.3-8.8-15.9-17.8-15.5c-4.2,0.2-3.7,6.6,0.5,6.5c14.2-0.6,13.6,20.4,0,20.9
	c-13.1,0.5-16.5-16.4-7.5-23.9c3.2-2.6-0.4-8-3.7-5.4c-7.1,5.9-10.3,15.1-6.7,23.9c3.4,8.4,12.2,13.2,21.1,11.5
	C1106.8,628.2,1113,620.3,1112.5,611.8z"/>
<polygon class="st1" points="1097.3,334.5 1075.9,284.5 1040,196.5 1097.3,196.5 "/>
<polygon class="st1" points="858.5,172.5 759.5,73.5 858.5,73.5 "/>
<g>
	<path class="st4" d="M876.2,615.1c-3.4,6.4-11.3,8.9-17.5,4.6c-6.4-4.4-14.4,4.7-8,9.2c12.6,8.7,29,5.4,36.4-8.4
		C890.8,613.6,879.9,608.2,876.2,615.1z"/>
	<line class="st5" x1="883" y1="540.7" x2="883" y2="565"/>
	<line class="st5" x1="848.4" y1="568.3" x2="848.4" y2="592.5"/>
</g>
<line class="st5" x1="1081.3" y1="546.8" x2="1081.3" y2="561.8"/>
<line class="st5" x1="1115.9" y1="563.8" x2="1115.9" y2="578.7"/>
<g>
	<line class="st6" x1="516.3" y1="-16.9" x2="834.7" y2="13.8"/>
	<line class="st6" x1="516.3" y1="8.5" x2="834.7" y2="39.1"/>
	<line class="st6" x1="516.3" y1="33.8" x2="834.7" y2="64.5"/>
</g>
</svg>
