<?xml version="1.0" encoding="utf-8"?>
<!-- Generator: Adobe Illustrator 19.0.0, SVG Export Plug-In . SVG Version: 6.00 Build 0)  -->
<svg version="1.1" id="圖層_1" xmlns="http://www.w3.org/2000/svg" xmlns:xlink="http://www.w3.org/1999/xlink" x="0px" y="0px"
	 viewBox="0 0 350 350" style="enable-background:new 0 0 350 350;" xml:space="preserve">
<style type="text/css">
	.st0{fill:#FF693A;}
</style>
<g>
	<g>
		<path class="st0" d="M92.4,166.1c8.5,28.5,14.4,57.8,17.4,87.4c0.3,3.2,5.3,3.2,5,0c-3.1-30.1-8.9-59.8-17.6-88.8
			C96.3,161.7,91.5,163,92.4,166.1L92.4,166.1z"/>
	</g>
</g>
<g>
	<g>
		<path class="st0" d="M97.3,161.2c34.8-19,70.5-36.1,107.2-51.1c8.7-3.6,18.4-7.7,28.1-6.2c9.1,1.4,15.6,8.4,18.9,16.7
			c3.7,9.1,3.4,19.3,3,28.9c-0.4,10.2-1,20.4-1.4,30.6c-1.1,23.1-2.2,46.2-3.3,69.4c-0.2,3.2,4.8,3.2,5,0
			c1.1-22.5,2.1-44.9,3.2-67.4c0.5-11.2,1.1-22.4,1.6-33.5c0.4-9.8,0.4-20-3.2-29.3c-2.6-6.8-7.1-13-13.3-16.9
			c-7.4-4.5-16.3-4.5-24.5-2.5c-10,2.4-19.6,7.1-29,11.1c-9.9,4.2-19.7,8.6-29.5,13.1c-22.1,10.2-43.8,21.2-65.2,32.8
			C91.9,158.5,94.5,162.8,97.3,161.2L97.3,161.2z"/>
	</g>
</g>
<g>
	<g>
		<path class="st0" d="M100.7,153.8c-4.8-6.4,4-11.4,8.7-14c5.5-3.1,10.9-6.1,16.4-9.2c10.9-6.1,21.8-12.3,32.7-18.4
			c21.8-12.3,43.6-24.5,65.5-36.8c-1.3-0.7-2.5-1.4-3.8-2.2c-0.7,7.6-1.4,15.2-2.1,22.8c-0.3,3.2,4.7,3.2,5,0
			c0.7-7.6,1.4-15.2,2.1-22.8c0.2-2-2.2-3-3.8-2.2c-25.3,14.2-50.5,28.4-75.8,42.6c-12.6,7.1-25.3,14.2-37.9,21.3
			c-7.2,4.1-18.3,11.9-11.3,21.4C98.2,158.9,102.6,156.4,100.7,153.8L100.7,153.8z"/>
	</g>
</g>
<g>
	<g>
		<path class="st0" d="M147.2,139.4c-2.7-12.9-7.2-25.4-13.8-36.9c-5.2-9.2-12.9-22.9-23.7-26.4c-10.6-3.4-17.4,6.2-19.4,15.3
			c-2.8,12.8-1.3,26.5,3.4,38.7c1.1,3,6,1.7,4.8-1.3c-4-10.5-5.6-21.8-3.9-33c0.7-4.4,1.8-9.5,5-12.8c4.8-4.9,11-1.7,15.2,2.3
			c14.6,14.1,23.5,35.8,27.5,55.3C143.1,143.8,147.9,142.5,147.2,139.4L147.2,139.4z"/>
	</g>
</g>
<g>
	<g>
		<path class="st0" d="M202.8,113.2C197.7,94,185.9,77,169.4,65.9c-6.1-4.1-15.8-7.8-19.9,0.8c-2,4.2-2.1,9.7-2.5,14.2
			c-0.5,6.6-0.5,13.1,0,19.7c0.2,3.2,5.2,3.2,5,0c-0.7-9.3-1-19.6,1.1-28.7c2.7-11.8,15.6-0.7,20.5,3.6
			c11.9,10.3,20.3,23.9,24.3,39.1C198.8,117.6,203.6,116.3,202.8,113.2L202.8,113.2z"/>
	</g>
</g>
<g>
	<g>
		<path class="st0" d="M146.6,147.8c10.2,37.2,15.6,75.6,16,114.2c0,3.2,5,3.2,5,0c-0.4-39-5.8-77.9-16.1-115.5
			C150.6,143.4,145.8,144.7,146.6,147.8L146.6,147.8z"/>
	</g>
</g>
<g>
	<g>
		<path class="st0" d="M199.5,127c5.2,36.4,3.6,73.6-4.8,109.4c-0.7,3.1,4.1,4.5,4.8,1.3c8.5-36.8,10.1-74.7,4.8-112.1
			C203.9,122.5,199.1,123.8,199.5,127L199.5,127z"/>
	</g>
</g>
<g>
	<g>
		<path class="st0" d="M126.6,270.8c41-11.3,80.8-26.3,119-44.9c2.9-1.4,0.4-5.7-2.5-4.3c-37.8,18.4-77.2,33.3-117.8,44.4
			C122.2,266.9,123.5,271.7,126.6,270.8L126.6,270.8z"/>
	</g>
</g>
<g>
	<g>
		<path class="st0" d="M261.8,24.2c-3.3,5-6.7,10-10,15c-1.8,2.7,2.5,5.2,4.3,2.5c3.3-5,6.7-10,10-15
			C267.9,24.1,263.6,21.6,261.8,24.2L261.8,24.2z"/>
	</g>
</g>
<g>
	<g>
		<path class="st0" d="M278.9,22.1c5.3,2.1,10.6,4.3,15.9,6.4c-0.2-1.5-0.4-3-0.6-4.6c-11,5.5-22,11-32.9,16.5
			c-2.9,1.4-0.3,5.8,2.5,4.3c11-5.5,22-11,32.9-16.5c2.1-1.1,1.2-3.8-0.6-4.6c-5.3-2.1-10.6-4.3-15.9-6.4
			C277.3,16.1,276,21,278.9,22.1L278.9,22.1z"/>
	</g>
</g>
<g>
	<g>
		<path class="st0" d="M158.6,21.7c0.8,3.5,1.7,7,2.5,10.5c0.7,3.1,5.6,1.8,4.8-1.3c-0.8-3.5-1.7-7-2.5-10.5
			C162.7,17.2,157.8,18.5,158.6,21.7L158.6,21.7z"/>
	</g>
</g>
<g>
	<g>
		<path class="st0" d="M167.3,13.2c4.4-2,8.9-4,13.3-6c-1.2-0.9-2.4-1.9-3.7-2.8c-2.8,8.3-5.6,16.6-8.4,25c-1,3.1,3.8,4.4,4.8,1.3
			c2.8-8.3,5.6-16.6,8.4-25c0.8-2.3-1.9-3.6-3.7-2.8c-4.4,2-8.9,4-13.3,6C161.8,10.2,164.3,14.5,167.3,13.2L167.3,13.2z"/>
	</g>
</g>
<g>
	<g>
		<path class="st0" d="M40.7,62.6c1.7-4.2,3.4-8.4,5.2-12.5c0.7-1.6,1.2-5.5,3.9-4.2c1.2,0.6,2.4,4.1,3,5.3
			c4.2,7.6,8.5,15.2,12.7,22.8c0.3-1.1,0.6-2.3,0.9-3.4c-5.9,3.9-13,4.3-19.2,0.7c-5-2.9-8.6-7.4-14-9.9c-2.9-1.3-5.4,3-2.5,4.3
			c6.9,3.1,11.4,9.7,18.7,12.1c6.6,2.1,13.8,0.9,19.5-2.9c1.1-0.8,1.6-2.2,0.9-3.4C66.4,65.2,63,59,59.5,52.8
			c-2.1-3.8-4.3-10.4-8.4-12.5c-3.2-1.6-6,0.1-7.7,3c-3.2,5.4-5.1,12.1-7.5,17.9C34.6,64.2,39.5,65.5,40.7,62.6L40.7,62.6z"/>
	</g>
</g>
</svg>
