<?xml version="1.0" encoding="utf-8"?>
<!-- Generator: Adobe Illustrator 19.0.0, SVG Export Plug-In . SVG Version: 6.00 Build 0)  -->
<svg version="1.1" id="_x37_8bf026f-5d34-4e97-88cf-29aa2cfb8006"
	 xmlns="http://www.w3.org/2000/svg" xmlns:xlink="http://www.w3.org/1999/xlink" x="0px" y="0px" viewBox="269 -147 1133.9 1133.9"
	 style="enable-background:new 269 -147 1133.9 1133.9;" xml:space="preserve">
<style type="text/css">
	.st0{fill:none;stroke:#FFFFFF;stroke-width:23.0393;stroke-miterlimit:10;}
	.st1{fill:#103D65;stroke:#FFFFFF;stroke-width:23.0393;stroke-miterlimit:10;}
	.st2{opacity:0.1;enable-background:new    ;}
	.st3{fill:none;stroke:#FFFFFF;stroke-width:23.04;stroke-miterlimit:10;}
</style>
<g>
	<line class="st0" x1="808.3" y1="11.6" x2="609.6" y2="101.2"/>
	<g>
		<polygon class="st1" points="876.8,51.9 876.8,573.6 508.5,656.7 378.3,490.3 366.7,158.1 366.2,-31.3 698.5,-90.4 		"/>
		<polygon class="st2" points="876.8,54.3 876.8,573.6 512.4,655.7 508.5,656.7 378.3,490.3 366.7,-19.2 502.8,105.3 		"/>
		<polygon class="st2" points="876.8,55.3 876.8,573.6 512.4,655.7 502.8,105.3 871.1,57.7 		"/>
	</g>
</g>
<title>interview</title>
<line class="st0" x1="808.3" y1="473.8" x2="609.6" y2="563.4"/>
<g>
	<polygon class="st1" points="876.8,514.2 876.8,858.4 508.5,941.6 378.3,775.2 366.7,443 366.2,431 698.5,371.9 	"/>
	<polygon class="st2" points="876.8,516.6 876.8,858.4 512.4,940.6 508.5,941.6 378.3,775.2 366.7,443 502.8,567.5 	"/>
	<polygon class="st2" points="876.8,517.5 876.8,858.4 512.4,940.6 502.8,567.5 871.1,519.9 	"/>
</g>
<g>
	<polygon class="st1" points="944.7,9.7 1171,-63.3 1178.5,-48.3 1388.1,364.6 1272,908.5 985.6,976.3 753.8,556.5 	"/>
	<polygon class="st2" points="1027.1,448.4 1178.5,-48.3 1388.1,364.6 1272,908.5 1266.6,909.8 985.6,976.3 755.5,559.5 	"/>
	<polygon class="st2" points="764.7,559.7 1027.1,448.4 1266.6,909.8 985.6,976.3 756,560.7 	"/>
</g>
<path class="st0" d="M1365.6,500.5"/>
<polyline class="st0" points="753.8,556.5 1027.1,448.4 1248.2,399.6 1171,-63.3 "/>
<polygon class="st1" points="1256.5,454.8 1272.2,395.6 1217.5,320.7 1201.8,379.9 "/>
<line class="st3" x1="632.1" y1="416.5" x2="721.8" y2="506.1"/>
<line class="st3" x1="551.8" y1="432.8" x2="641.5" y2="522.5"/>
<line class="st3" x1="471.5" y1="449.1" x2="561.1" y2="538.8"/>
<line class="st1" x1="734" y1="157.9" x2="734" y2="205.9"/>
<line class="st1" x1="664" y1="157.9" x2="664" y2="205.9"/>
<path class="st1" d="M755.5,237.3c-30,30-78.6,30-108.5,0"/>
</svg>
