<?xml version="1.0" encoding="utf-8"?>
<!-- Generator: Adobe Illustrator 19.0.0, SVG Export Plug-In . SVG Version: 6.00 Build 0)  -->
<svg version="1.1" id="圖層_1" xmlns="http://www.w3.org/2000/svg" xmlns:xlink="http://www.w3.org/1999/xlink" x="0px" y="0px"
	 viewBox="-122 245.9 350 350" style="enable-background:new -122 245.9 350 350;" xml:space="preserve">
<style type="text/css">
	.st0{fill:#FF693A;}
</style>
<path class="st0" d="M125.9,440.2c-20.1-33.3-40.2-66.6-60.3-99.9c8.1-14,16.2-27.9,24.3-41.9c2.3-4,4.6-8,7-12
	c2.3-3.9,4.9-8,4.8-12.7c-0.2-8.2-7.7-12.4-15-12.9c-16.3-1.1-34.2,3.1-49.7,7.8c-16.6,5-32.5,12.6-47,22c-3,1.9-3.7,4.9-3.1,7.5
	c-1.9,2.3-2.6,5.5-0.6,8.8c5.6,8.8,12,17.1,19,24.9c5.9,6.5,12.2,13.6,19.8,18.3c-1.7,0.9-3,2.5-3.3,5.1C17,399,10.7,442.6,2.9,486
	c-0.7,3.9,1.4,6.7,4.2,8c0.1,0.5,0.2,0.9,0.4,1.4c5.3,13.8,11.8,27.1,19.4,39.7c-3.3,5,1.6,10.9,6.9,11c7.8,11.7,16.5,22.8,26,33.2
	c2.8,3,8.1,2,10.6-0.7c2.4-2.7,2.2-6.1,0.6-8.8c1.7-0.5,3.3-1.7,4.4-3.7c18.8-36.1,32.6-74.7,41.3-114.5
	C122.3,454,130,447,125.9,440.2z M66.6,372c0.1-0.1,0.3-0.3,0.4-0.5c2.8,4.6,5.6,9.2,8.3,13.8c-16.5,17.6-32.9,35.2-49.4,52.8
	c1.4-9.2,2.8-18.4,4-27.7c0.2-0.2,0.5-0.4,0.7-0.7C42.7,397.2,54.7,384.6,66.6,372z M15.3,320.6c-5.3-6-10.1-12.4-14.5-19.1
	c23.3-14.6,49.9-23.4,77.4-25.5c2.1-0.2,5,0.2,7.3,0c-0.8,1.4-1.7,3.4-1.9,3.7c-4,6.8-8,13.7-11.9,20.5c-7,12-14,24-20.9,36
	c-5.3,0.6-9.6,8.3-4.5,13.4c0.8,0.8,1.6,1.6,2.4,2.4c2.2,2.2,5.1,2.3,7.5,1.2c1.3,2.2,2.6,4.3,3.9,6.5c-1.6,0.2-3.2,0.9-4.6,2.4
	c-7.3,7.7-14.7,15.5-22,23.2c1.1-9.1,2.2-18.1,3.2-27.2c0.3-2.4-0.4-4.3-1.7-5.8c5.1-2.2,7.2-10.5,0.7-13.7
	C27.6,334.8,21,327.1,15.3,320.6z M21.7,490.4c-0.8-2-2.1-3.3-3.6-4c1.6-8.8,3-17.7,4.5-26.5c2,0.2,4.2-0.5,5.9-2.4
	c18.3-19.6,36.6-39.2,54.9-58.7c2.9,4.7,5.7,9.5,8.6,14.2c-2.1-0.2-4.2,0.5-6,2.7c-20.9,26.2-41.9,52.3-62.8,78.5
	C22.7,492.8,22.2,491.6,21.7,490.4z M62.1,559.2c-5.9-7.1-11.3-14.5-16.3-22.2c14.9-15.4,29.9-30.7,44.8-46.1
	C83,514.4,73.4,537.3,62.1,559.2z M103.4,441.6c-1.7,8.2-3.5,16.4-5.7,24.5c-2.1-0.2-4.3,0.4-6.2,2.3c-18,18.5-36,37-54,55.5
	c-2.7-4.7-5.2-9.5-7.6-14.4c22.4-28,44.8-56.1,67.3-84.1c0.5-0.6,0.8-1.2,1.1-1.8c2.7,4.5,5.4,8.9,8.1,13.4
	C105,437.9,103.9,439.4,103.4,441.6z"/>
<path class="st0" d="M158.6,275.1l-20,21.9c-6.5,7.1,4.8,17,11.3,9.8c6.7-7.3,13.3-14.6,20-21.9
	C176.4,277.8,165.1,267.9,158.6,275.1z"/>
<path class="st0" d="M193.5,333.7c-11.3,3-22.5,6-33.8,9c-9.3,2.5-4.3,16.6,5,14.2c11.3-3,22.5-6,33.8-9
	C207.8,345.4,202.8,331.2,193.5,333.7z"/>
<path class="st0" d="M203.7,396.9c-10.8-4.2-21.6-8.4-32.4-12.6c-8.9-3.5-15.7,10-6.7,13.4c10.8,4.2,21.6,8.4,32.4,12.6
	C206,413.9,212.7,400.4,203.7,396.9z"/>
<path class="st0" d="M-59,331.9c-10.7-4.7-21.4-9.5-32.1-14.2c-8.8-3.9-15.5,9.5-6.7,13.4c10.7,4.7,21.4,9.5,32.1,14.2
	C-56.8,349.2-50.2,335.8-59,331.9z"/>
<path class="st0" d="M-36.5,379.4c-0.3-3.7-4-7.7-8-7c-10.8,1.9-21.6,3.9-32.4,5.8c-4,0.7-7.3,3.7-7,8c0.3,3.7,4,7.7,8,7
	c10.8-1.9,21.6-3.9,32.4-5.8C-39.5,386.7-36.2,383.8-36.5,379.4z"/>
<path class="st0" d="M-43.4,409.1c-9.8,12.9-21.2,24.4-34,34.3c-7.6,5.8,0.8,18.3,8.5,12.4C-55,445.2-42.6,432.9-32,419
	C-26.2,411.3-37.5,401.4-43.4,409.1z"/>
</svg>
