<?xml version="1.0" encoding="utf-8"?>
<!-- Generator: Adobe Illustrator 19.0.0, SVG Export Plug-In . SVG Version: 6.00 Build 0)  -->
<svg version="1.1" id="_x37_8bf026f-5d34-4e97-88cf-29aa2cfb8006"
	 xmlns="http://www.w3.org/2000/svg" xmlns:xlink="http://www.w3.org/1999/xlink" x="0px" y="0px" viewBox="140 -276 1262.9 1262.9"
	 style="enable-background:new 140 -276 1262.9 1262.9;" xml:space="preserve">
<style type="text/css">
	.st0{fill:none;stroke:#FFFFFF;stroke-width:23.0393;stroke-miterlimit:10;}
	.st1{fill:#103D65;stroke:#FFFFFF;stroke-width:23.0393;stroke-miterlimit:10;}
	.st2{opacity:0.1;enable-background:new    ;}
	.st3{fill:none;stroke:#FFFFFF;stroke-width:23.04;stroke-miterlimit:10;}
	.st4{fill:#FFFFFF;}
	.st5{fill:none;stroke:#103D65;stroke-width:23.0393;stroke-miterlimit:10;}
</style>
<g>
	<line class="st0" x1="783.9" y1="-68.2" x2="514.4" y2="53.3"/>
	<g>
		<polygon class="st1" points="876.8,-13.5 876.8,694 377.3,806.7 200.8,581 185,130.5 184.3,-126.3 635,-206.5 		"/>
		<polygon class="st2" points="876.8,-10.3 876.8,694 382.6,805.3 377.3,806.7 200.8,581 185,-109.9 369.6,58.9 		"/>
		<polygon class="st2" points="876.8,-8.9 876.8,694 382.6,805.3 369.6,58.9 869.1,-5.7 		"/>
	</g>
</g>
<title>interview</title>
<line class="st0" x1="808.3" y1="473.8" x2="609.6" y2="563.4"/>
<g>
	<polygon class="st1" points="876.8,514.2 876.8,858.4 508.5,941.6 378.3,775.2 366.7,443 366.2,431 698.5,371.9 	"/>
	<polygon class="st2" points="876.8,516.6 876.8,858.4 512.4,940.6 508.5,941.6 378.3,775.2 366.7,443 502.8,567.5 	"/>
	<polygon class="st2" points="876.8,517.5 876.8,858.4 512.4,940.6 502.8,567.5 871.1,519.9 	"/>
</g>
<g>
	<polygon class="st1" points="944.7,9.7 1171,-63.3 1178.5,-48.3 1388.1,364.6 1272,908.5 985.6,976.3 753.8,556.5 	"/>
	<polygon class="st2" points="1027.1,448.4 1178.5,-48.3 1388.1,364.6 1272,908.5 1266.6,909.8 985.6,976.3 755.5,559.5 	"/>
	<polygon class="st2" points="764.7,559.7 1027.1,448.4 1266.6,909.8 985.6,976.3 756,560.7 	"/>
</g>
<path class="st0" d="M1365.6,500.5"/>
<polyline class="st0" points="753.8,556.5 1027.1,448.4 1248.2,399.6 1171,-63.3 "/>
<polygon class="st1" points="1256.5,454.8 1272.2,395.6 1217.5,320.7 1201.8,379.9 "/>
<line class="st3" x1="632.1" y1="416.5" x2="721.8" y2="506.1"/>
<line class="st3" x1="551.8" y1="432.8" x2="641.5" y2="522.5"/>
<line class="st3" x1="471.5" y1="449.1" x2="561.1" y2="538.8"/>
<g>
	<path class="st4" d="M602.6,173c-2.9-11.2-10.9-21.9-21.8-26.3c-2-0.8-4-1.4-6-1.8c-0.7-3.5-3.2-6.9-6.9-7.2
		c-23.5-1.7-43.8,13.1-52.2,34.7c-8.2,21-5.8,45.6,12.2,60.8c16.2,13.6,40.9,14.7,57.4,1C602.4,220.2,608,193.7,602.6,173z
		 M586.9,193.6c-0.2-0.7-0.3-1.4-0.6-2.1c-3.4-8.2-12.9-12.9-21.1-10.2c-2-0.7-4.8-0.7-6.8,2c-7.5,10.9-4.8,26.5,8.2,31.3
		c4.4,1.4,9.4,1.5,13.4-0.5c-1.2,1.8-2.5,3.4-4,4.9c-9,8.8-23.9,9.9-34.2,2.8c-12.3-8.4-15.3-23-12-36.8c0.5,0.8,1.3,1.7,2.1,2.4
		c4,3.5,10,3.4,14.2,0.3c3.3-2.3,5.5-6.4,6.9-10c1.2-3.3,1.9-6.7,1.5-10c2.2-0.3,4.4-1.3,6-2.9c3.6-3.6,9.7-3.9,14.2-1.7
		c5.9,2.8,9.5,8.7,11.1,14.9C587.1,182.8,587.5,188.2,586.9,193.6z"/>
	<path class="st4" d="M767.6,154.2c-3.2-20.8-15.6-40.9-38.4-41.8c-21.2-0.8-37.3,15.5-42.6,34.7c-8,15.1-13.2,33.3-1.2,47.8
		c6.4,7.8,16.1,11.2,26,12c10,0.8,20.8,0.6,30.4-3C761.8,196.3,770.7,174.6,767.6,154.2z M738.4,186.3c-6.2,3.3-13.9,3.6-20.8,3.5
		c-3.9,0-8.4-0.3-12.3-1.7c2.1-0.8,4-2.2,5.5-4.1c0.6-0.8,1-1.5,1.4-2.3c3.4,0.1,6.9-1.3,9.2-4.1c3.7-4.5,3.5-10,1.9-15.2
		c-0.3-0.9-0.8-1.7-1.3-2.4c-0.3-0.8-0.7-1.6-1.2-2.3c-2.6-3.5-8.5-5.4-12.2-2.3c-0.8,0.6-1.4,1.3-2.2,1.9c-1.2-0.8-2.4-1.5-3.7-2
		c0.2-0.8,0.3-1.4,0.4-2.2c1.2-1.9,2.3-3.9,3.5-5.8c0.9-1.5,1.2-3.3,0.8-5c3.6-5.9,9-10.6,16.4-12c2.4-0.4,4.6-0.4,6.7-0.2
		c-0.6,0.3-1.1,0.5-1.6,0.8c-3.4-0.3-6.9,1.4-8.5,4.8c-2.4,4.9-1.9,10.9,1.3,15.2c3.7,4.9,10.2,6.8,15.9,4.5
		c4.8-1.9,8.3-6.4,8.7-11.4c1.2,2.5,2.1,5.1,2.8,7.8C752.5,163.9,750.4,179.7,738.4,186.3z"/>
	<path class="st4" d="M684.6,259.5c-7.7-4.5-17.5-5.9-26.3-6.5c-8-0.6-15.8-0.3-23.6,0.9c-1.4-0.3-3-0.3-4.8,0.4
		c-0.8,0.3-1.5,0.6-2.3,0.8c-0.5,0.1-1.1,0.3-1.6,0.3c-1.2,0.3-2.1,0.8-2.9,1.6c-13,5.8-25.7,15.2-24.8,31.1
		c1.1,19.8,22.2,26,38.6,26.7c16.1,0.8,35.6-2.7,48.4-13.1C699.4,290.4,701.2,269.3,684.6,259.5z M677.4,285
		c-3.6,5.2-10.7,7.5-16.5,9.3c-7.2,2.3-14.7,3.2-22.3,3.1c-6.4-0.1-14.7-0.6-19.7-4.9c-4.2-3.5-3.7-8-0.4-12.1
		c3.5-4.4,9.3-6.6,14.7-8.5c7.3-1.5,15-2,22.4-1.5c6.5,0.4,15,1,20.7,4.7C680.1,277.4,679.9,281.5,677.4,285z"/>
</g>
<g>
	<line class="st5" x1="841.3" y1="-187.5" x2="948.7" y2="-187.5"/>
	<line class="st5" x1="895" y1="-133.8" x2="895" y2="-241.1"/>
</g>
<g>
	<line class="st5" x1="1283" y1="5.4" x2="1341" y2="5.4"/>
	<line class="st5" x1="1312" y1="34.4" x2="1312" y2="-23.6"/>
</g>
<g>
	<line class="st5" x1="163.4" y1="741.5" x2="248.6" y2="741.5"/>
	<line class="st5" x1="206" y1="784.1" x2="206" y2="698.8"/>
</g>
</svg>
