<?xml version="1.0" encoding="utf-8"?>
<!-- Generator: Adobe Illustrator 19.0.0, SVG Export Plug-In . SVG Version: 6.00 Build 0)  -->
<svg version="1.1" id="_x37_8bf026f-5d34-4e97-88cf-29aa2cfb8006"
	 xmlns="http://www.w3.org/2000/svg" xmlns:xlink="http://www.w3.org/1999/xlink" x="0px" y="0px" viewBox="269 -147 1133.9 1133.9"
	 style="enable-background:new 269 -147 1133.9 1133.9;" xml:space="preserve">
<style type="text/css">
	.st0{fill:#FFFFFF;}
	.st1{fill:#103D65;stroke:#E8E8E8;stroke-width:23.0393;stroke-miterlimit:10;}
	.st2{opacity:0.1;enable-background:new    ;}
</style>
<path class="st0" d="M1361.6,656.9c-10.3-94.6-55.6-183.9-124.5-249.3c-19.4-18.4-40.7-34.5-63.4-48.6c-6.9-4.3-16.8,0-20.1,6.8
	c-3.9,7.9-0.1,15.8,6.8,20.1c5.2,3.3,8.4,5.3,12.1,7.9c4.6,3.2,9.1,6.5,13.6,9.8c8.9,6.8,17.5,13.9,25.7,21.4
	c8.3,7.5,16.2,15.4,23.8,23.6c1,1.1,2.1,2.2,3.1,3.4c-0.4-0.5-1.5-1.7,0.5,0.5c1.8,2.1,3.7,4.2,5.5,6.4c3.8,4.5,7.4,9,11,13.6
	c27.7,36,47,72.5,60.8,115.3c3.8,11.8,7.1,23.9,9.7,36c0,0.1,0.5,2.6,0.6,2.9c0.2,1.2,0.5,2.4,0.7,3.6c0.6,3,1.1,6,1.6,9
	c1.1,6.5,1.9,13.1,2.6,19.6c0.9,7.8,7.7,14.9,16,13.9C1355.5,672,1362.6,665.3,1361.6,656.9z"/>
<title>interview</title>
<g>
	<polygon class="st1" points="1155.8,138.2 1229.3,715.5 629.5,933.7 375.5,682.4 285.2,127.8 281.8,107.7 826.4,-62.4 	"/>
	<polygon class="st2" points="1156.3,142.3 1229.3,715.5 635.7,931.1 629.5,933.7 375.5,682.4 285.2,127.8 540,307.5 	"/>
	<polygon class="st2" points="1156.6,143.9 1229.3,715.5 635.7,931.1 540,307.5 1147.4,149.1 	"/>
</g>
<path class="st0" d="M853.4,369.9c-5.2-12.9-16.2-24.2-29.8-27.9c-2.5-0.7-5-1.1-7.4-1.2c-1.3-4.1-4.8-7.8-9.2-7.5
	c-28.1,1.6-49.9,22.1-56.7,48.9c-6.6,26.1,0,54.9,23.7,70.2c21.2,13.7,50.6,11.2,68.2-7.5C860.3,425.8,862.9,393.6,853.4,369.9z
	 M837.9,396.6c-0.3-0.8-0.6-1.6-1-2.4c-5.3-9.2-17.2-13.3-26.5-8.9c-2.5-0.5-5.8-0.1-7.7,3.4c-7.2,14-1.7,32.2,14.4,35.9
	c5.4,1,11.3,0.4,15.8-2.6c-1.1,2.3-2.5,4.4-4,6.4c-9.3,11.8-26.9,15.3-40.2,8.4c-15.8-8.1-21.6-25-19.7-41.7
	c0.7,0.9,1.7,1.8,2.8,2.6c5.3,3.6,12.4,2.6,16.9-1.8c3.5-3.3,5.6-8.4,6.6-12.9c0.9-4,1.3-8.2,0.3-12.1c2.5-0.6,5-2.1,6.7-4.4
	c3.7-4.8,10.9-6,16.5-4.1c7.4,2.5,12.5,8.9,15.4,16C836.5,383.8,837.8,390.2,837.9,396.6z"/>
<path class="st0" d="M1046.1,322.7c-6.9-24.1-24.6-46.1-51.8-43.7c-25.2,2.2-41.9,24-45.3,47.6c-7.2,19.1-10.6,41.5,5.8,56.8
	c8.8,8.3,20.7,10.9,32.6,10.3c12-0.5,24.8-2.5,35.6-8.2C1045.5,373.5,1052.8,346.4,1046.1,322.7z M1016.3,365.2
	c-6.8,4.9-15.9,6.4-24.2,7.3c-4.7,0.6-10,1-14.8-0.1c2.4-1.3,4.4-3.2,5.9-5.7c0.6-1,1-1.9,1.3-2.9c4.1-0.4,7.9-2.6,10.3-6.2
	c3.7-5.9,2.7-12.3,0-18.3c-0.4-1.1-1.1-1.9-2-2.7c-0.4-1-1-1.8-1.7-2.6c-3.6-3.8-10.8-5.2-14.8-0.9c-0.8,0.8-1.5,1.7-2.3,2.6
	c-1.5-0.8-3.1-1.4-4.7-1.8c0.1-0.9,0.1-1.7,0.2-2.6c1.1-2.5,2.2-4.9,3.3-7.4c0.9-1.9,0.9-4.1,0.2-6.1c3.4-7.6,9.1-14,17.6-16.7
	c2.8-0.9,5.4-1.2,7.9-1.2c-0.7,0.4-1.2,0.8-1.8,1.2c-4.1,0.2-7.9,2.7-9.3,6.9c-2.1,6.1-0.6,13.2,3.9,17.9c5.1,5.2,13.1,6.5,19.5,3
	c5.4-3,8.9-8.8,8.6-14.8c1.8,2.8,3.3,5.7,4.4,8.8C1029.6,336.5,1029.6,355.6,1016.3,365.2z"/>
<path class="st0" d="M950.5,464c-6.9-5.2-16-4.3-21.9,1.9c-0.6,0.7-1.2,1.4-1.7,2.1c-10.5,3-17.7,16.1-10.8,26.3
	c3.6,5.4,10,8.5,16.5,8.2c6.2-0.3,11.3-3.4,15.5-7.6c3.6-3.6,7.2-8.2,8.3-13.2C957.8,475.4,955.9,468,950.5,464z"/>
<path class="st0" d="M493.4,125.8c-4.9-7.1-13.8-8-20.8-3.9C417,153.7,376,207.4,356.8,268.1C337,330.7,345,398.8,374.6,456.9
	c16.5,32.3,39.9,61.2,68.6,83.6c6.4,5,15.6,4.9,21.2-1.5c5.1-5.9,4.9-16.2-1.5-21.2c-24.1-18.8-41.8-39.4-57.3-66.3
	c-1.8-3.1-3.5-6.3-5.2-9.5c0,0,0-0.1-0.1-0.1c-0.4-0.9-0.9-1.8-1.3-2.6c-0.9-1.9-1.8-3.7-2.6-5.6c-3.1-6.8-5.8-13.8-8.3-20.8
	c-2.4-7.1-4.6-14.2-6.4-21.5c-0.4-1.8-0.8-3.5-1.2-5.3c0-0.2-0.3-1.4-0.4-1.9c-0.1-0.4-0.2-0.9-0.2-0.9c-0.7-3.8-1.4-7.6-1.9-11.4
	c-2.1-14.8-2.8-29.9-2-44.9c0-0.2,0.2-3,0.3-3.4c0.2-1.8,0.3-3.5,0.5-5.2c0.4-3.7,0.9-7.5,1.5-11.2c1.2-7.2,2.7-14.3,4.5-21.3
	c0.9-3.4,1.9-6.8,2.9-10.1c0.5-1.7,1-3.3,1.6-5c0.4-1.2,0.8-2.3,1.3-3.5c2.5-6.8,5.3-13.5,8.5-20.1c3.1-6.6,6.5-13,10.2-19.3
	c1.8-3,3.6-6,5.5-9c0.1-0.1,0.7-1,1-1.6c0.3-0.4,0.6-0.9,0.6-0.9c1.2-1.6,2.3-3.3,3.5-4.9c19.9-27.6,42.1-47.8,71.5-64.6
	C496.4,142.7,497.7,132.2,493.4,125.8z"/>
</svg>
