<?xml version="1.0" encoding="utf-8"?>
<!-- Generator: Adobe Illustrator 19.0.0, SVG Export Plug-In . SVG Version: 6.00 Build 0)  -->
<svg version="1.1" id="_x37_8bf026f-5d34-4e97-88cf-29aa2cfb8006"
	 xmlns="http://www.w3.org/2000/svg" xmlns:xlink="http://www.w3.org/1999/xlink" x="0px" y="0px" viewBox="269 -147 1133.9 1133.9"
	 style="enable-background:new 269 -147 1133.9 1133.9;" xml:space="preserve">
<style type="text/css">
	.st0{fill:#103D65;stroke:#E8E8E8;stroke-width:23.0393;stroke-miterlimit:10;}
	.st1{opacity:0.1;enable-background:new    ;}
	.st2{fill:#FFFFFF;}
</style>
<title>interview</title>
<g>
	<polygon class="st0" points="1286.5,242.8 1286.5,824.8 663.9,965.4 443.7,684.1 424.2,122.5 423.3,102.2 985,2.2 	"/>
	<polygon class="st1" points="1286.5,246.9 1286.5,824.8 670.4,963.7 663.9,965.4 443.7,684.1 424.2,122.5 654.2,333 	"/>
	<polygon class="st1" points="1286.5,248.5 1286.5,824.8 670.4,963.7 654.2,333 1276.8,252.5 	"/>
</g>
<path class="st2" d="M511.1,501.3c-44.7,107.3-69.9,218.6-77.2,334.1c-1.6,23.6,35,20.3,36.6-2.4c6.5-108.9,31.7-214.6,73.2-315.4
	C552.6,496.4,520.1,480.1,511.1,501.3z"/>
<path class="st2" d="M957.2,434.4c-3.5-13.4-13-26.1-26-31.4c-2.4-1-4.8-1.7-7.2-2.1c-0.8-4.2-3.8-8.3-8.2-8.6
	c-28.1-2-52.3,15.6-62.4,41.4c-9.8,25.1-6.9,54.5,14.6,72.6c19.3,16.3,48.8,17.5,68.6,1.2C957,490.8,963.7,459.2,957.2,434.4z
	 M938.5,459c-0.2-0.8-0.4-1.7-0.7-2.5c-4.1-9.8-15.4-15.4-25.2-12.2c-2.4-0.8-5.7-0.8-8.1,2.4c-8.9,13-5.7,31.7,9.8,37.4
	c5.2,1.7,11.2,1.8,16-0.6c-1.4,2.1-3,4.1-4.8,5.8c-10.7,10.5-28.6,11.8-40.9,3.3c-14.7-10-18.3-27.5-14.3-43.9c0.6,1,1.5,2,2.5,2.9
	c4.8,4.2,12,4.1,17,0.4c3.9-2.8,6.6-7.6,8.2-12c1.4-3.9,2.3-8,1.8-12c2.6-0.3,5.2-1.5,7.2-3.5c4.3-4.3,11.6-4.6,16.9-2
	c7,3.4,11.3,10.4,13.3,17.8C938.7,446.1,939.2,452.6,938.5,459z"/>
<path class="st2" d="M1154.3,412c-3.8-24.8-18.6-48.8-45.9-49.9c-25.3-1-44.6,18.5-50.9,41.5c-9.5,18-15.8,39.8-1.4,57.1
	c7.7,9.3,19.2,13.4,31,14.3c12,1,24.9,0.7,36.3-3.6C1147.3,462.3,1158,436.3,1154.3,412z M1119.4,450.3c-7.4,4-16.6,4.3-24.9,4.2
	c-4.7,0-10-0.3-14.7-2c2.5-1,4.8-2.6,6.6-4.9c0.7-0.9,1.2-1.8,1.7-2.7c4.1,0.1,8.2-1.6,11-4.9c4.4-5.4,4.2-11.9,2.3-18.2
	c-0.3-1.1-0.9-2-1.6-2.9c-0.3-1-0.8-1.9-1.4-2.8c-3.1-4.2-10.1-6.5-14.6-2.8c-0.9,0.7-1.7,1.5-2.6,2.3c-1.4-1-2.9-1.8-4.4-2.4
	c0.2-0.9,0.3-1.7,0.5-2.6c1.4-2.3,2.8-4.6,4.2-6.9c1.1-1.8,1.4-4,1-6c4.3-7.1,10.8-12.7,19.6-14.3c2.9-0.5,5.5-0.5,8-0.2
	c-0.7,0.3-1.3,0.6-1.9,1c-4.1-0.3-8.2,1.7-10.1,5.7c-2.9,5.8-2.3,13,1.6,18.2c4.4,5.8,12.2,8.1,19,5.4c5.7-2.3,9.9-7.6,10.4-13.6
	c1.4,3,2.5,6.1,3.3,9.3C1136.2,423.6,1133.8,442.5,1119.4,450.3z"/>
<path class="st2" d="M1055.1,537.7c-9.2-5.4-20.9-7-31.4-7.8c-9.6-0.7-18.9-0.3-28.2,1.1c-1.7-0.4-3.6-0.3-5.7,0.5
	c-0.9,0.3-1.8,0.7-2.7,1c-0.6,0.1-1.3,0.3-1.9,0.4c-1.4,0.3-2.5,1-3.5,1.9c-15.5,6.9-30.7,18.1-29.6,37.1
	c1.3,23.6,26.5,31,46.1,31.9c19.2,0.9,42.5-3.2,57.8-15.6C1072.8,574.7,1075,549.5,1055.1,537.7z M1046.5,568.2
	c-4.3,6.2-12.8,9-19.7,11.1c-8.6,2.7-17.6,3.8-26.6,3.7c-7.6-0.1-17.5-0.7-23.5-5.8c-5-4.2-4.4-9.6-0.5-14.5
	c4.2-5.3,11.1-7.9,17.5-10.2c8.7-1.8,17.9-2.4,26.7-1.8c7.8,0.5,17.9,1.2,24.7,5.6C1049.8,559.1,1049.5,564,1046.5,568.2z"/>
</svg>
