<?xml version="1.0" encoding="utf-8"?>
<!-- Generator: Adobe Illustrator 19.0.0, SVG Export Plug-In . SVG Version: 6.00 Build 0)  -->
<svg version="1.1" id="_x37_8bf026f-5d34-4e97-88cf-29aa2cfb8006"
	 xmlns="http://www.w3.org/2000/svg" xmlns:xlink="http://www.w3.org/1999/xlink" x="0px" y="0px" viewBox="269 -404.1 1391 1391"
	 style="enable-background:new 269 -404.1 1391 1391;" xml:space="preserve">
<style type="text/css">
	.st0{fill:#103D65;stroke:#FFFFFF;stroke-width:23.0393;stroke-miterlimit:10;}
	.st1{opacity:0.1;enable-background:new    ;}
	.st2{fill:#FFFFFF;}
	.st3{fill:none;stroke:#FFFFFF;stroke-width:23.0393;stroke-miterlimit:10;}
	.st4{fill:#103D65;}
</style>
<polygon class="st0" points="328.9,294.1 630.8,-228.8 932.7,294.1 "/>
<circle class="st0" cx="530.6" cy="329.1" r="261.6"/>
<title>interview</title>
<g>
	<polygon class="st0" points="962.8,-192.6 1524.5,-92.6 1523.6,-72.3 1504.1,489.3 1283.9,770.6 661.3,630 661.3,48 	"/>
	<polygon class="st1" points="1293.6,138.2 1523.6,-72.3 1504.1,489.3 1283.9,770.6 1277.4,768.9 661.3,630 661.3,52.1 	"/>
	<polygon class="st1" points="671,57.7 1293.6,138.2 1277.4,768.9 661.3,630 661.3,53.7 	"/>
</g>
<path class="st2" d="M878.7,489.8c-4.6,12-14.3,22.8-23.7,31.2c-9.5,8.5-20.2,15.3-31.6,20.9c-27.6,13.3-58.7,17.5-89.1,18.8
	c-25.5,1.1-60.8,3.3-74.9-23.2c-0.1-0.1-0.1-0.3-0.2-0.4c-0.6-1.1-0.5-2.3,0-3.2l-3.4-60.6c-1.9,2.6-3.6,5.2-5.3,7.9
	c-2.2,3.5-8.1,0.7-5.8-2.9c3.3-5.2,6.8-10.2,10.6-15c7.6-9.8,16.3-18.7,25.9-26.6c12.9-10.7,27.3-19.5,42.7-26
	c7.5-3.2,15.3-6,23.3-8c6.4-1.6,13.6-2.7,19.9-0.1c16.5,6.9,6.9,27.4,0.8,38.1c-4.8,8.3-10.5,16-17,23c6.6-1.4,13.6-1.8,20.3-1.9
	c18.3-0.3,36.6,0.1,55,0.1c8.6,0,17.2,0,25.8,0.1c5.4,0.1,10.9,0.3,16.1,2.1C879.6,467.8,882.9,478.9,878.7,489.8z"/>
<g>
	<polygon class="st0" points="1592.5,471.2 1592.5,793.1 1248.1,870.9 1126.3,715.3 1115.6,404.6 1115.1,393.4 1425.8,338.1 	"/>
	<polygon class="st1" points="1592.5,473.5 1592.5,793.1 1251.8,870 1248.1,870.9 1126.3,715.3 1115.6,404.6 1242.8,521.1 	"/>
	<polygon class="st1" points="1592.5,474.3 1592.5,793.1 1251.8,870 1242.8,521.1 1587.2,476.6 	"/>
</g>
<path class="st0" d="M789.7,188.2l2.9-1.2c32.6-13.5,68.5-16.8,103.1-9.4l0,0"/>
<path class="st3" d="M842.7,370.6l14.9-1.5c59.5-6,119.5,5,173,31.8l0,0"/>
<path class="st3" d="M999.7,223.9h9.3c37.2,0,73.7-9.6,106.1-28l0,0"/>
<line class="st3" x1="1021" y1="272" x2="1021" y2="338.1"/>
<line class="st3" x1="860.7" y1="246.2" x2="860.7" y2="312.3"/>
<path class="st2" d="M655.3,463.2l0.6,10c-1.9,2.6-3.6,5.2-5.3,7.9c-2.2,3.5-8.1,0.7-5.8-2.9C648,473,651.5,468,655.3,463.2z"/>
<path class="st2" d="M659.5,537.5c-0.1-0.1-0.1-0.3-0.2-0.4c-0.6-1.1-0.5-2.3,0-3.2L659.5,537.5z"/>
<g>
	<g>
		<g>
			<path class="st4" d="M527.4-162.8L497-152.2l-19.8-56.9l15.2-5.3c13.2-4.6,20.1-19,15.6-32.2c-4.6-13.2-19-20.1-32.2-15.6
				c-13.2,4.6-20.1,19-15.6,32.2l-30.4,10.6c-10.4-29.9,5.5-62.7,35.4-73.1c29.9-10.4,62.7,5.5,73.1,35.4
				c8.6,24.6-0.7,51.2-20.9,65.7L527.4-162.8z"/>
		</g>
	</g>
	
		<rect x="507.4" y="-141" transform="matrix(-0.9444 0.3288 -0.3288 -0.9444 976.7405 -415.0096)" class="st4" width="32.2" height="32.2"/>
</g>
<g>
	<g>
		<g>
			<path class="st4" d="M1598.1-97.3l-21.1-10.2l19.1-39.4l10.5,5.1c9.1,4.4,20.1,0.6,24.5-8.5c4.4-9.1,0.6-20.1-8.5-24.5
				c-9.1-4.4-20.1-0.6-24.5,8.5l-21.1-10.2c10-20.7,35-29.4,55.8-19.4c20.7,10,29.4,35,19.4,55.8c-8.3,17.1-26.7,26-44.5,23
				L1598.1-97.3z"/>
		</g>
	</g>
	
		<rect x="1565" y="-91.5" transform="matrix(-0.9003 -0.4353 0.4353 -0.9003 3030.9858 534.6058)" class="st4" width="23.4" height="23.4"/>
</g>
</svg>
