<?xml version="1.0" encoding="utf-8"?>
<!-- Generator: Adobe Illustrator 19.0.0, SVG Export Plug-In . SVG Version: 6.00 Build 0)  -->
<svg version="1.1" id="圖層_1" xmlns="http://www.w3.org/2000/svg" xmlns:xlink="http://www.w3.org/1999/xlink" x="0px" y="0px"
	 viewBox="0 0 350 350" style="enable-background:new 0 0 350 350;" xml:space="preserve">
<style type="text/css">
	.st0{fill:#FF693A;}
</style>
<g>
	<g>
		<path class="st0" d="M64.7,136.5c-6.8-4.8,3.3-21.5,5.9-26.4c4.3-7.9,9.7-15.2,15.8-21.9c13.1-14.2,29.3-25,46.5-33.5
			c18.6-9.1,38.9-16.2,59.8-16.3c19.1,0,38,6.5,52.8,18.7c16.3,13.4,26.6,32.6,29.5,53.3c0.6-1,1.2-2.1,1.7-3.1
			c-0.6,0.1-1.2,0.3-1.9,0.4c-3.1,0.7-1.8,5.5,1.3,4.8c0.6-0.1,1.2-0.3,1.9-0.4c1.4-0.3,1.9-1.8,1.7-3.1
			c-5.8-41.4-40.7-73.6-82.6-75.6c-22.7-1.1-45.1,6.4-65.3,16.1c-19.6,9.4-38.2,22-52.3,38.7c-7.3,8.6-13.5,18.2-17.9,28.6
			c-3.1,7.2-7.7,18.2,0.4,23.9C64.8,142.6,67.3,138.3,64.7,136.5L64.7,136.5z"/>
	</g>
</g>
<g>
	<g>
		<path class="st0" d="M245.8,103.7c9.7,14.4,30.5,24.3,46.2,12.7c12.5-9.3,12.6-29.2-2.7-35.6c-3-1.2-4.3,3.6-1.3,4.8
			c13.5,5.6,9,23.2-2,28.6c-13.1,6.5-28.3-2-35.8-13.1C248.4,98.6,244,101.1,245.8,103.7L245.8,103.7z"/>
	</g>
</g>
<g>
	<g>
		<path class="st0" d="M275.9,204.3c-4,28.4-25.4,51.2-52.2,60.3c-27.6,9.5-63.4,7.2-87.5-10.4c-14-10.2-23.4-27.5-20.2-45
			c0.6-3.1-4.2-4.5-4.8-1.3c-2.7,15.1,2.4,30.2,12.5,41.7c10.7,12.2,26.3,19.2,41.8,22.6c32,7.1,68.1,0.9,92.2-22.5
			c12.1-11.8,20.6-27.2,22.9-44C281.2,202.5,276.4,201.1,275.9,204.3L275.9,204.3z"/>
	</g>
</g>
<g>
	<g>
		<path class="st0" d="M94.8,221.6c4.4-12.9,10.9-25,19.3-35.7c1.8-2.3,3.7-5.2,6-7c5.9-4.6,6.3,2.1,7.7,6c2.5,7.4,5,14.7,7.5,22.1
			c1,3,5.9,1.7,4.8-1.3c-3.2-9.5-5.9-19.6-9.8-28.9c-2.8-6.7-9-6.1-13.7-1.5c-12.3,12-21,28.8-26.6,44.9
			C88.9,223.4,93.7,224.7,94.8,221.6L94.8,221.6z"/>
	</g>
</g>
</svg>
