<?xml version="1.0" encoding="utf-8"?>
<!-- Generator: Adobe Illustrator 19.0.0, SVG Export Plug-In . SVG Version: 6.00 Build 0)  -->
<svg version="1.1" id="圖層_1" xmlns="http://www.w3.org/2000/svg" xmlns:xlink="http://www.w3.org/1999/xlink" x="0px" y="0px"
	 viewBox="125 -125 350 350" style="enable-background:new 125 -125 350 350;" xml:space="preserve">
<style type="text/css">
	.st0{fill:#FF8F7D;}
</style>
<path class="st0" d="M411.1,11.4c-2-13.8-8.6-26.6-20-35c-11.9-8.7-26.7-13-41.4-14.4c-18.2-1.7-36.4,0.7-53.3,7.2
	c-8.5,3.3-3.9,16.7,4.7,13.5c16.2-6.3,33.6-8.5,50.9-6.1c14.9,2.2,31.1,7.4,39.5,20.7c7.8,12.3,7.3,28.4,2.8,41.9
	c-5.4,16.5-16.4,30.5-26.8,44.1c-5.6,7.2,5.1,16.6,10.7,9.3C396.3,69.3,415.6,42.6,411.1,11.4z"/>
<path class="st0" d="M404,92c-14.8,8.8-33.2,16.8-50.7,17.6c-2.3,0.1-5.6,0.2-7.4-1.3c-2.7-2.2-1.3-7-0.9-9.9
	c1.5-10.7,3.1-21.4,4.6-32.2c1.3-9-12.6-11.8-13.9-2.8c-1.8,12.8-4.5,25.7-5.3,38.6c-0.7,11.2,5.8,20,17.1,21.5
	c10.3,1.4,21.6-1.9,31.4-4.8c11.7-3.6,22.7-8.7,33.3-14.9C419.9,99.1,411.9,87.3,404,92z"/>
<path class="st0" d="M292.2,136.1c-1.1-3.3-5.6-6.1-9.1-4.4c-14.4,7-29.7,13.8-46,13.9c-13.5,0.1-26-6-35.1-15.7
	c-20.3-21.7-18.1-54.8-4.5-79.3c7.9-14.2,19.3-26.2,32-36.2c7.2-5.6-0.8-17.4-8.1-11.7c-27.1,21.2-48.4,51.1-48.7,86.7
	c-0.3,31.6,20.7,63.8,53.2,69.5c21.6,3.8,42.8-4.5,62-13.7C291.4,143.5,293.7,140,292.2,136.1z"/>
<path class="st0" d="M258.7-22.1c-8.6-5.2-21.1-5.4-30.8-4.5c-11.5,1.1-22.5,5-32.2,11.2c-7.8,4.8,0.3,16.6,8.1,11.7
	c6.9-4.4,14.7-7.4,22.8-8.4c7.4-1,16.5-1.3,23.5,1.5c0.7,0.3,1.2,0.6,1.8,0.9c0.6,0.6,0.6,0.6,0.2,0.2c0.1,1.3-2.3,4.2-2.9,5.3
	c-2.7,4.3-5.2,8.4-7.9,12.7c-5.2,8.4-10.4,16.9-15.7,25.4c-4.8,7.8,8,14,12.7,6.3C245.2,29.1,252,18,259,6.9C262,2,266.1-3,266.4-9
	C266.5-14.6,263.4-19.3,258.7-22.1z"/>
</svg>
