<?xml version="1.0" encoding="utf-8"?>
<!-- Generator: Adobe Illustrator 19.0.0, SVG Export Plug-In . SVG Version: 6.00 Build 0)  -->
<svg version="1.1" id="圖層_1" xmlns="http://www.w3.org/2000/svg" xmlns:xlink="http://www.w3.org/1999/xlink" x="0px" y="0px"
	 viewBox="-122 245.9 350 350" style="enable-background:new -122 245.9 350 350;" xml:space="preserve">
<style type="text/css">
	.st0{fill:#FF693A;}
</style>
<path class="st0" d="M172.8,305.9c-2-13.8-8.6-26.6-20-35c-11.9-8.7-26.7-13-41.4-14.4c-18.2-1.7-36.4,0.7-53.3,7.2
	c-8.5,3.3-3.9,16.7,4.7,13.5c16.2-6.3,33.6-8.5,50.9-6.1c14.9,2.2,31.1,7.4,39.5,20.7c7.8,12.3,7.3,28.4,2.8,41.9
	c-5.4,16.5-16.4,30.5-26.8,44.1c-5.6,7.2,5.1,16.6,10.7,9.3C158,363.8,177.3,337.1,172.8,305.9z"/>
<path class="st0" d="M165.7,386.5c-14.8,8.8-33.2,16.8-50.7,17.6c-2.3,0.1-5.6,0.2-7.4-1.3c-2.7-2.2-1.3-7-0.9-9.9
	c1.5-10.7,3.1-21.4,4.6-32.2c1.3-9-12.6-11.8-13.9-2.8c-1.8,12.8-4.5,25.7-5.3,38.6c-0.7,11.2,5.8,20,17.1,21.5
	c10.3,1.4,21.6-1.9,31.4-4.8c11.7-3.6,22.7-8.7,33.3-14.9C181.6,393.6,173.6,381.8,165.7,386.5z"/>
<path class="st0" d="M53.9,430.6c-1.1-3.3-5.6-6.1-9.1-4.4c-14.4,7-29.7,13.8-46,13.9c-13.5,0.1-26-6-35.1-15.7
	c-20.3-21.7-18.1-54.8-4.5-79.3c7.9-14.2,19.3-26.2,32-36.2c7.2-5.6-0.8-17.4-8.1-11.7c-27.1,21.2-48.4,51.1-48.7,86.7
	c-0.3,31.6,20.7,63.8,53.2,69.5c21.6,3.8,42.8-4.5,62-13.7C53.1,438,55.4,434.5,53.9,430.6z"/>
<path class="st0" d="M20.4,272.4c-8.6-5.2-21.1-5.4-30.8-4.5c-11.5,1.1-22.5,5-32.2,11.2c-7.8,4.8,0.3,16.6,8.1,11.7
	c6.9-4.4,14.7-7.4,22.8-8.4c7.4-1,16.5-1.3,23.5,1.5c0.7,0.3,1.2,0.6,1.8,0.9c0.6,0.6,0.6,0.6,0.2,0.2c0.1,1.3-2.3,4.2-2.9,5.3
	c-2.7,4.3-5.2,8.4-7.9,12.7c-5.2,8.4-10.4,16.9-15.7,25.4c-4.8,7.8,8,14,12.7,6.3c6.9-11.1,13.7-22.2,20.7-33.3
	c3-4.9,7.1-9.9,7.4-15.9C28.2,279.9,25.1,275.2,20.4,272.4z"/>
<path class="st0" d="M134.1,532.5c-2.3-24.1-17.4-44.3-38.4-55.8c-22.6-12.4-49.5-13.2-74-6.6c-22.4,6-47.1,18.3-57.5,40.2
	s-4.3,49.8,14.3,65.5c7,5.9,16.3-4.8,9.3-10.7c-12.6-10.6-17.8-28.8-12.5-44.4c6.2-18.4,25.7-28.7,42.9-34.5
	c19.8-6.7,42.3-8.6,62.1-0.8c17.6,6.9,32.3,20.2,37.7,38.7c5.5,18.6,0.1,45.8-21.3,51.2c-8.8,2.3-4.1,15.6,4.7,13.5
	C125.2,582.4,136.2,555,134.1,532.5z"/>
<path class="st0" d="M32.1,496.9c-9.2,0-8.1,14.2,0.9,14.2C42.2,511.1,41.2,496.9,32.1,496.9z"/>
<path class="st0" d="M78.8,498.6v-0.3c0-0.9-0.3-1.9-0.8-2.7c-0.4-0.9-0.9-1.6-1.6-2.2c-0.7-0.7-1.5-1-2.4-1.3
	c-0.9-0.4-1.8-0.6-2.7-0.4c-1.8,0.2-3.7,0.9-4.8,2.5c-0.4,0.5-0.7,1-1,1.5c-0.6,1.1-0.8,2.4-0.8,3.6v0.3c0,0.9,0.3,1.9,0.8,2.7
	c0.4,0.9,0.9,1.6,1.6,2.2c0.7,0.7,1.5,1,2.4,1.3c0.9,0.4,1.8,0.6,2.7,0.4c1.8-0.2,3.7-0.9,4.8-2.5c0.4-0.5,0.7-1,1-1.5
	C78.7,501.1,78.9,499.9,78.8,498.6z"/>
<path class="st0" d="M75.1,517.7c-8.8,7.3-20.8,9.6-31.5,5c-8.4-3.6-14.7,9.1-6.3,12.7c15.1,6.5,33,4.5,45.8-6
	C90.1,523.7,82.2,512,75.1,517.7z"/>
</svg>
