<?xml version="1.0" encoding="utf-8"?>
<!-- Generator: Adobe Illustrator 19.0.0, SVG Export Plug-In . SVG Version: 6.00 Build 0)  -->
<svg version="1.1" id="_x37_8bf026f-5d34-4e97-88cf-29aa2cfb8006"
	 xmlns="http://www.w3.org/2000/svg" xmlns:xlink="http://www.w3.org/1999/xlink" x="0px" y="0px" viewBox="269 -147 1133.9 1133.9"
	 style="enable-background:new 269 -147 1133.9 1133.9;" xml:space="preserve">
<style type="text/css">
	.st0{fill:#103D65;stroke:#FFFFFF;stroke-width:23.0393;stroke-miterlimit:10;}
	.st1{opacity:0.1;enable-background:new    ;}
	.st2{fill:#FFFFFF;}
	.st3{fill:none;stroke:#FFFFFF;stroke-width:23.0393;stroke-miterlimit:10;}
	.st4{fill:#103D65;}
</style>
<title>interview</title>
<g>
	<polygon class="st0" points="693.8,-45.6 1255.5,54.4 1254.6,74.7 1235.1,636.3 1014.9,917.6 392.3,777 392.3,195 	"/>
	<polygon class="st1" points="1024.6,285.2 1254.6,74.7 1235.1,636.3 1014.9,917.6 1008.4,915.9 392.3,777 392.3,199.1 	"/>
	<polygon class="st1" points="402,204.7 1024.6,285.2 1008.4,915.9 392.3,777 392.3,200.7 	"/>
</g>
<path class="st2" d="M609.7,636.8c-4.6,12-14.3,22.8-23.7,31.2c-9.5,8.5-20.2,15.3-31.6,20.9c-27.6,13.3-58.7,17.5-89.1,18.8
	c-25.5,1.1-60.8,3.3-74.9-23.2c-0.1-0.1-0.1-0.3-0.2-0.4c-0.6-1.1-0.5-2.3,0-3.2l-3.4-60.6c-1.9,2.6-3.6,5.2-5.3,7.9
	c-2.2,3.5-8.1,0.7-5.8-2.9c3.3-5.2,6.8-10.2,10.6-15c7.6-9.8,16.3-18.7,25.9-26.6c12.9-10.7,27.3-19.5,42.7-26
	c7.5-3.2,15.3-6,23.3-8c6.4-1.6,13.6-2.7,19.9-0.1c16.5,6.9,6.9,27.4,0.8,38.1c-4.8,8.3-10.5,16-17,23c6.6-1.4,13.6-1.8,20.3-1.9
	c18.3-0.3,36.6,0.1,55,0.1c8.6,0,17.2,0,25.8,0.1c5.4,0.1,10.9,0.3,16.1,2.1C610.6,614.8,613.9,625.9,609.7,636.8z"/>
<g>
	<polygon class="st0" points="1328.5,595.2 1328.5,879.2 1024.6,947.9 917.1,810.6 907.6,536.4 907.2,526.5 1181.4,477.7 	"/>
	<polygon class="st1" points="1328.5,597.2 1328.5,879.2 1027.8,947.1 1024.6,947.9 917.1,810.6 907.6,536.4 1019.9,639.2 	"/>
	<polygon class="st1" points="1328.5,597.9 1328.5,879.2 1027.8,947.1 1019.9,639.2 1323.8,599.9 	"/>
</g>
<path class="st0" d="M520.7,335.2l2.9-1.2c32.6-13.5,68.5-16.8,103.1-9.4l0,0"/>
<path class="st3" d="M573.7,517.6l14.9-1.5c59.5-6,119.5,5,173,31.8l0,0"/>
<path class="st3" d="M730.7,370.9h9.3c37.2,0,73.7-9.6,106.1-28h0"/>
<line class="st0" x1="752" y1="419" x2="752" y2="485.1"/>
<line class="st0" x1="591.7" y1="393.2" x2="591.7" y2="459.3"/>
<path class="st2" d="M386.3,610.2l0.6,10c-1.9,2.6-3.6,5.2-5.3,7.9c-2.2,3.5-8.1,0.7-5.8-2.9C379,620,382.5,615,386.3,610.2z"/>
<path class="st2" d="M390.5,684.5c-0.1-0.1-0.1-0.3-0.2-0.4c-0.6-1.1-0.5-2.3,0-3.2L390.5,684.5z"/>
<g>
	<g>
		<g>
			<path class="st4" d="M481.8,13.9l-30.4,10.6l-19.8-56.9l15.2-5.3c13.2-4.6,20.1-19,15.6-32.2c-4.6-13.2-19-20.1-32.2-15.6
				c-13.2,4.6-20.1,19-15.6,32.2l-30.4,10.6c-10.4-29.9,5.5-62.7,35.4-73.1c29.9-10.4,62.7,5.5,73.1,35.4
				c8.6,24.6-0.7,51.2-20.9,65.7L481.8,13.9z"/>
		</g>
	</g>
	
		<rect x="461.8" y="35.7" transform="matrix(0.9444 -0.3288 0.3288 0.9444 9.5394 160.0015)" class="st4" width="32.2" height="32.2"/>
</g>
<g>
	<g>
		<g>
			<path class="st4" d="M1329.1,49.7L1308,39.5l19.1-39.4l10.5,5.1c9.1,4.4,20.1,0.6,24.5-8.5c4.4-9.1,0.6-20.1-8.5-24.5
				c-9.1-4.4-20.1-0.6-24.5,8.5L1308-29.5c10-20.7,35-29.4,55.8-19.4c20.7,10,29.4,35,19.4,55.8c-8.3,17.1-26.7,26-44.5,23
				L1329.1,49.7z"/>
		</g>
	</g>
	
		<rect x="1296" y="55.5" transform="matrix(0.9003 0.4353 -0.4353 0.9003 159.6532 -562.5792)" class="st4" width="23.4" height="23.4"/>
</g>
</svg>
