<?xml version="1.0" encoding="utf-8"?>
<!-- Generator: Adobe Illustrator 19.0.0, SVG Export Plug-In . SVG Version: 6.00 Build 0)  -->
<svg version="1.1" id="_x37_8bf026f-5d34-4e97-88cf-29aa2cfb8006"
	 xmlns="http://www.w3.org/2000/svg" xmlns:xlink="http://www.w3.org/1999/xlink" x="0px" y="0px"
	 viewBox="339 -348.5 1405.4 1405.4" style="enable-background:new 339 -348.5 1405.4 1405.4;" xml:space="preserve">
<style type="text/css">
	.st0{fill:#103D65;stroke:#FFFFFF;stroke-width:23.0393;stroke-linejoin:bevel;stroke-miterlimit:10;}
	.st1{fill:#FFFFFF;}
	.st2{fill:#103D65;stroke:#FFFFFF;stroke-width:23.0393;stroke-miterlimit:10;}
	.st3{opacity:0.1;enable-background:new    ;}
	.st4{fill:none;stroke:#FFFFFF;stroke-width:23.0393;stroke-miterlimit:10;}
	.st5{fill:none;stroke:#FFFFFF;stroke-width:23.0393;stroke-linejoin:bevel;stroke-miterlimit:10;}
	.st6{fill:none;stroke:#103D65;stroke-width:23.0393;stroke-miterlimit:10;}
</style>
<g>
	<polygon class="st0" points="1329.1,225.7 1329.1,648.2 1751.6,648.2 	"/>
	<polygon class="st1" points="1425.2,432 1425.2,552.1 1545.3,552.1 	"/>
</g>
<g>
	<g>
		<polygon class="st2" points="1351.1,50.6 1351.1,762.9 821.8,882.4 634.6,643.3 618,-51.7 617.2,-69 1094.8,-154 		"/>
		<polygon class="st3" points="1351.1,54 1351.1,762.9 827.3,881 821.8,882.4 634.6,643.3 618,-51.7 813.5,127.2 		"/>
		<polygon class="st3" points="1351.1,55.4 1351.1,762.9 827.3,881 813.5,127.2 1342.8,58.8 		"/>
	</g>
</g>
<title>interview</title>
<g>
	<g>
		<polyline class="st4" points="945.7,253 987.7,211 1029.7,253 		"/>
		<polyline class="st4" points="1120.6,253 1162.6,211 1204.6,253 		"/>
	</g>
	<polyline class="st4" points="1117.1,339.5 1075.1,381.5 1033.2,339.5 	"/>
</g>
<g>
	<g>
		<polygon class="st2" points="1693,815.9 1693,860.2 961,988.3 711.2,735.9 688.5,675.8 687.5,652.2 1341.8,535.7 		"/>
		<path class="st2" d="M1619.8,871.6c50.8,0,92-41.2,92-92s-41.2-92-92-92L964,797.8c50.8,0,92,41.2,92,92c0,50.8-41.2,92-92,92"/>
		<polygon class="st3" points="1693,820.7 1693,860.2 968.6,986.3 961,988.3 711.2,735.9 688.5,675.8 956.4,921 		"/>
		<polygon class="st3" points="1693,822.6 1693,860.2 968.6,986.3 956.4,921 1681.7,827.2 		"/>
	</g>
	<g>
		<g>
			<g>
				<polygon class="st2" points="1355.7,610.8 1355.7,669.7 1292.6,683.9 1204.4,591.3 1202.4,534.4 1202.3,532.4 1259.2,522.2 				
					"/>
				<polygon class="st3" points="1355.7,611.2 1355.7,669.7 1293.4,683.8 1292.6,683.9 1204.4,591.3 1202.4,534.4 1291.7,620 				
					"/>
				<polygon class="st3" points="1355.7,611.4 1355.7,669.7 1293.4,683.8 1291.7,620 1354.8,611.8 				"/>
			</g>
		</g>
		<g>
			<g>
				<polygon class="st2" points="1355.7,610.8 1355.7,669.7 1292.6,683.9 1204.4,591.3 1202.4,534.4 1202.3,532.4 1259.2,522.2 				
					"/>
				<polygon class="st3" points="1355.7,611.2 1355.7,669.7 1293.4,683.8 1292.6,683.9 1204.4,591.3 1202.4,534.4 1291.7,620 				
					"/>
				<polygon class="st3" points="1355.7,611.4 1355.7,669.7 1293.4,683.8 1291.7,620 1354.8,611.8 				"/>
			</g>
		</g>
		<g>
			<g>
				<polygon class="st2" points="1355.7,610.8 1355.7,669.7 1292.6,683.9 1275.8,658.4 1273.7,601.5 1273.6,599.5 1330.5,589.4 				
					"/>
				<polygon class="st3" points="1355.7,611.2 1355.7,669.7 1293.4,683.8 1292.6,683.9 1275.8,658.4 1273.7,601.5 1291.7,620 				
					"/>
				<polygon class="st3" points="1355.7,611.4 1355.7,669.7 1293.4,683.8 1291.7,620 1354.8,611.8 				"/>
			</g>
		</g>
	</g>
</g>
<g>
	<rect x="409.9" y="638.6" class="st0" width="764.7" height="97.8"/>
	<g>
		<line class="st5" x1="1115.8" y1="638.6" x2="1115.8" y2="678.3"/>
		<line class="st5" x1="1057" y1="638.6" x2="1057" y2="678.3"/>
		<line class="st5" x1="998.2" y1="638.6" x2="998.2" y2="678.3"/>
		<line class="st5" x1="939.4" y1="638.6" x2="939.4" y2="678.3"/>
		<line class="st5" x1="880.5" y1="638.6" x2="880.5" y2="678.3"/>
		<line class="st5" x1="821.7" y1="638.6" x2="821.7" y2="678.3"/>
		<line class="st5" x1="762.9" y1="638.6" x2="762.9" y2="678.3"/>
		<line class="st5" x1="704.1" y1="638.6" x2="704.1" y2="678.3"/>
		<line class="st5" x1="645.2" y1="638.6" x2="645.2" y2="678.3"/>
		<line class="st5" x1="586.4" y1="638.6" x2="586.4" y2="678.3"/>
		<line class="st5" x1="527.6" y1="638.6" x2="527.6" y2="678.3"/>
		<line class="st5" x1="468.8" y1="638.6" x2="468.8" y2="678.3"/>
	</g>
</g>
<g>
	<line class="st6" x1="1513.6" y1="-174.1" x2="1513.6" y2="-114.5"/>
	<line class="st6" x1="1438.9" y1="-143.2" x2="1481.1" y2="-101"/>
	<line class="st6" x1="1408" y1="-68.5" x2="1467.6" y2="-68.5"/>
	<line class="st6" x1="1438.9" y1="6.2" x2="1481.1" y2="-36"/>
	<line class="st6" x1="1513.6" y1="37.1" x2="1513.6" y2="-22.5"/>
	<line class="st6" x1="1588.2" y1="6.2" x2="1546.1" y2="-36"/>
	<line class="st6" x1="1619.2" y1="-68.5" x2="1559.5" y2="-68.5"/>
	<line class="st6" x1="1588.2" y1="-143.2" x2="1546.1" y2="-101"/>
</g>
<g>
	<line class="st6" x1="480.8" y1="-154.4" x2="480.8" y2="-115.8"/>
	<line class="st6" x1="432.5" y1="-134.3" x2="459.8" y2="-107.1"/>
	<line class="st6" x1="412.5" y1="-86.1" x2="451.1" y2="-86.1"/>
	<line class="st6" x1="432.5" y1="-37.8" x2="459.8" y2="-65"/>
	<line class="st6" x1="480.8" y1="-17.8" x2="480.8" y2="-56.3"/>
	<line class="st6" x1="529.1" y1="-37.8" x2="501.8" y2="-65"/>
	<line class="st6" x1="549.1" y1="-86.1" x2="510.5" y2="-86.1"/>
	<line class="st6" x1="529.1" y1="-134.3" x2="501.8" y2="-107.1"/>
</g>
</svg>
