<?xml version="1.0" encoding="utf-8"?>
<!-- Generator: Adobe Illustrator 19.0.0, SVG Export Plug-In . SVG Version: 6.00 Build 0)  -->
<svg version="1.1" id="_x37_8bf026f-5d34-4e97-88cf-29aa2cfb8006"
	 xmlns="http://www.w3.org/2000/svg" xmlns:xlink="http://www.w3.org/1999/xlink" x="0px" y="0px"
	 viewBox="339 -348.5 1405.4 1405.4" style="enable-background:new 339 -348.5 1405.4 1405.4;" xml:space="preserve">
<style type="text/css">
	.st0{fill:#103D65;stroke:#FFFFFF;stroke-width:23.0393;stroke-linejoin:bevel;stroke-miterlimit:10;}
	.st1{fill:#FFFFFF;}
	.st2{fill:#103D65;stroke:#FFFFFF;stroke-width:23.0393;stroke-miterlimit:10;}
	.st3{opacity:0.1;enable-background:new    ;}
	.st4{fill:none;}
	.st5{fill:#103D65;}
	.st6{fill:none;stroke:#FFFFFF;stroke-width:23.0393;stroke-miterlimit:10;}
	.st7{fill:none;stroke:#FFFFFF;stroke-width:23.0393;stroke-linejoin:bevel;stroke-miterlimit:10;}
</style>
<g>
	<polygon class="st0" points="1329.1,225.7 1329.1,648.2 1751.6,648.2 	"/>
	<polygon class="st1" points="1425.2,432 1425.2,552.1 1545.3,552.1 	"/>
</g>
<g>
	<g>
		<polygon class="st2" points="1351.1,50.6 1351.1,762.9 821.8,882.4 634.6,643.3 618,-51.7 617.2,-69 1094.8,-154 		"/>
		<polygon class="st3" points="1351.1,54 1351.1,762.9 827.3,881 821.8,882.4 634.6,643.3 618,-51.7 813.5,127.2 		"/>
		<polygon class="st3" points="1351.1,55.4 1351.1,762.9 827.3,881 813.5,127.2 1342.8,58.8 		"/>
	</g>
</g>
<title>interview</title>
<g>
	<g>
		<line class="st4" x1="487.7" y1="-86.2" x2="487.7" y2="253"/>
		<rect x="475.9" y="-70.4" class="st5" width="23.4" height="323.4"/>
	</g>
	<g>
		<g>
			<line class="st4" x1="487.7" y1="-60.9" x2="487.7" y2="253"/>
			<rect x="475.9" y="-60.9" class="st5" width="23.4" height="313.9"/>
		</g>
		<g>
			<g>
				<polygon class="st5" points="392.3,16.3 409.4,32.1 487.5,-51.9 565.8,32.1 582.9,16.3 487.5,-86.2 				"/>
			</g>
		</g>
	</g>
</g>
<g>
	<g>
		<line class="st4" x1="1497.9" y1="-231.5" x2="1497.9" y2="-27"/>
		<rect x="1490.9" y="-221.9" class="st5" width="14.1" height="194.9"/>
	</g>
	<g>
		<g>
			<line class="st4" x1="1497.9" y1="-216.2" x2="1497.9" y2="-27"/>
			<rect x="1490.9" y="-216.2" class="st5" width="14.1" height="189.2"/>
		</g>
		<g>
			<g>
				<polygon class="st5" points="1440.5,-169.7 1450.7,-160.1 1497.9,-210.8 1545.1,-160.1 1555.3,-169.7 1497.9,-231.5 				"/>
			</g>
		</g>
	</g>
</g>
<g>
	<g>
		<polyline class="st6" points="945.7,253 987.7,211 1029.7,253 		"/>
		<polyline class="st6" points="1120.6,253 1162.6,211 1204.6,253 		"/>
	</g>
	<polyline class="st6" points="1117.1,339.5 1075.1,381.5 1033.2,339.5 	"/>
</g>
<g>
	<g>
		<polygon class="st2" points="1693,815.9 1693,860.2 961,988.3 711.2,735.9 688.5,675.8 687.5,652.2 1341.8,535.7 		"/>
		<path class="st2" d="M1619.8,871.6c50.8,0,92-41.2,92-92s-41.2-92-92-92L964,797.8c50.8,0,92,41.2,92,92c0,50.8-41.2,92-92,92"/>
		<polygon class="st3" points="1693,820.7 1693,860.2 968.6,986.3 961,988.3 711.2,735.9 688.5,675.8 956.4,921 		"/>
		<polygon class="st3" points="1693,822.6 1693,860.2 968.6,986.3 956.4,921 1681.7,827.2 		"/>
	</g>
	<g>
		<g>
			<g>
				<polygon class="st2" points="1355.7,610.8 1355.7,669.7 1292.6,683.9 1204.4,591.3 1202.4,534.4 1202.3,532.4 1259.2,522.2 				
					"/>
				<polygon class="st3" points="1355.7,611.2 1355.7,669.7 1293.4,683.8 1292.6,683.9 1204.4,591.3 1202.4,534.4 1291.7,620 				
					"/>
				<polygon class="st3" points="1355.7,611.4 1355.7,669.7 1293.4,683.8 1291.7,620 1354.8,611.8 				"/>
			</g>
		</g>
		<g>
			<g>
				<polygon class="st2" points="1355.7,610.8 1355.7,669.7 1292.6,683.9 1204.4,591.3 1202.4,534.4 1202.3,532.4 1259.2,522.2 				
					"/>
				<polygon class="st3" points="1355.7,611.2 1355.7,669.7 1293.4,683.8 1292.6,683.9 1204.4,591.3 1202.4,534.4 1291.7,620 				
					"/>
				<polygon class="st3" points="1355.7,611.4 1355.7,669.7 1293.4,683.8 1291.7,620 1354.8,611.8 				"/>
			</g>
		</g>
		<g>
			<g>
				<polygon class="st2" points="1355.7,610.8 1355.7,669.7 1292.6,683.9 1275.8,658.4 1273.7,601.5 1273.6,599.5 1330.5,589.4 				
					"/>
				<polygon class="st3" points="1355.7,611.2 1355.7,669.7 1293.4,683.8 1292.6,683.9 1275.8,658.4 1273.7,601.5 1291.7,620 				
					"/>
				<polygon class="st3" points="1355.7,611.4 1355.7,669.7 1293.4,683.8 1291.7,620 1354.8,611.8 				"/>
			</g>
		</g>
	</g>
</g>
<g>
	<rect x="409.9" y="638.6" class="st0" width="764.7" height="97.8"/>
	<g>
		<line class="st7" x1="1115.8" y1="638.6" x2="1115.8" y2="678.3"/>
		<line class="st7" x1="1057" y1="638.6" x2="1057" y2="678.3"/>
		<line class="st7" x1="998.2" y1="638.6" x2="998.2" y2="678.3"/>
		<line class="st7" x1="939.4" y1="638.6" x2="939.4" y2="678.3"/>
		<line class="st7" x1="880.5" y1="638.6" x2="880.5" y2="678.3"/>
		<line class="st7" x1="821.7" y1="638.6" x2="821.7" y2="678.3"/>
		<line class="st7" x1="762.9" y1="638.6" x2="762.9" y2="678.3"/>
		<line class="st7" x1="704.1" y1="638.6" x2="704.1" y2="678.3"/>
		<line class="st7" x1="645.2" y1="638.6" x2="645.2" y2="678.3"/>
		<line class="st7" x1="586.4" y1="638.6" x2="586.4" y2="678.3"/>
		<line class="st7" x1="527.6" y1="638.6" x2="527.6" y2="678.3"/>
		<line class="st7" x1="468.8" y1="638.6" x2="468.8" y2="678.3"/>
	</g>
</g>
</svg>
