<?xml version="1.0" encoding="utf-8"?>
<!-- Generator: Adobe Illustrator 19.0.0, SVG Export Plug-In . SVG Version: 6.00 Build 0)  -->
<svg version="1.1" id="圖層_1" xmlns="http://www.w3.org/2000/svg" xmlns:xlink="http://www.w3.org/1999/xlink" x="0px" y="0px"
	 viewBox="-122 245.9 350 350" style="enable-background:new -122 245.9 350 350;" xml:space="preserve">
<style type="text/css">
	.st0{fill:#FF693A;}
</style>
<path class="st0" d="M49.4,299.6c-4.4,0.3-6.8,3.9-7,8c-3.4,69.9-6.8,139.7-10.2,209.6c-0.2,4.1,4.3,7.2,8,7c4.4-0.3,6.8-3.9,7-8
	c3.4-69.9,6.8-139.7,10.2-209.6C57.6,302.5,53.1,299.3,49.4,299.6z"/>
<path class="st0" d="M88.3,317.3C82.2,305.2,76.7,292.7,70,281c-2.6-4.5-6.6-8.8-11.9-10.1c-6.4-1.5-12.2,1.5-16.9,5.7
	c-18.1,16.2-31.5,38.3-39.4,61.1c-1.3,3.9-0.5,8.1,3.4,10c3.3,1.7,8.7,0.4,10-3.4c6.4-18.4,16.1-35.3,29.2-49.7
	c1.5-1.6,3-3.2,4.5-4.8c1-1,3.5-4.1,5.1-4.3c2.1-0.2,3.9,4.4,4.8,6.1C64,301.7,69,312,74.2,322.2c1.8,3.6,5.4,6.1,9.6,4.6
	C87.2,325.6,90.2,320.9,88.3,317.3z"/>
<path class="st0" d="M-61.2,403.2c-4.5,0.3-6.7,3.9-7,8c-2.4,42.1-4.9,84.2-7.3,126.4c-0.2,4.1,4.3,7.2,8,7c4.5-0.3,6.7-3.9,7-8
	l7.3-126.4C-53,406.1-57.6,402.9-61.2,403.2z"/>
<path class="st0" d="M-37.6,407.6c-3.6-12.9-7.2-25.8-10.8-38.7c-1.6-5.8-9-6.1-12.7-2.4c-18.6,18.4-31.5,41.7-37.8,67.1
	c-2.3,9.4,12.4,12.3,14.7,3c4.6-18.5,13.3-35.4,25.2-50c2.4,8.7,4.9,17.4,7.3,26.1C-49.2,421.9-35,416.9-37.6,407.6z"/>
<path class="st0" d="M136.7,410.3c-3.6-0.8-8.5,1.8-8.8,5.9c-3.6,48.3-7.3,96.5-10.9,144.8c-0.3,4.1,1.6,7.9,5.9,8.8
	c3.8,0.8,8.3-1.9,8.8-5.9l0.5-3.9c0.1-1,0.1-1.8-0.1-2.7c3.5-46.1,7-92.2,10.4-138.2C142.9,415.1,141,411.3,136.7,410.3z"/>
<path class="st0" d="M182.3,429.7c-12.7-24-25.3-47.9-38-71.9c-2.3-4.4-9-4-11.9-0.7c-18.4,21-33.7,44.6-45.3,70
	c-4,8.8,9.5,15.5,13.4,6.7c9.5-21,21.6-40.6,36.1-58.5c11.1,20.9,22.1,41.9,33.2,62.8c1.9,3.6,7.3,4,10.4,2
	C184,437.7,184.2,433.3,182.3,429.7z"/>
</svg>
