<?xml version="1.0" encoding="utf-8"?>
<!-- Generator: Adobe Illustrator 19.0.0, SVG Export Plug-In . SVG Version: 6.00 Build 0)  -->
<svg version="1.1" id="圖層_1" xmlns="http://www.w3.org/2000/svg" xmlns:xlink="http://www.w3.org/1999/xlink" x="0px" y="0px"
	 viewBox="125 -125 350 350" style="enable-background:new 125 -125 350 350;" xml:space="preserve">
<style type="text/css">
	.st0{fill:#FF8F7D;}
</style>
<path class="st0" d="M307.2-74.5c-4.4,0.3-6.8,3.9-7,8c-3.4,69.9-6.8,139.7-10.2,209.6c-0.2,4.1,4.3,7.2,8,7c4.4-0.3,6.8-3.9,7-8
	c3.4-69.9,6.8-139.7,10.2-209.6C315.4-71.6,310.9-74.8,307.2-74.5z"/>
<path class="st0" d="M346.1-56.8c-6.1-12.1-11.6-24.6-18.3-36.3c-2.6-4.5-6.6-8.8-11.9-10.1c-6.4-1.5-12.2,1.5-16.9,5.7
	c-18.1,16.2-31.5,38.3-39.4,61.1c-1.3,3.9-0.5,8.1,3.4,10c3.3,1.7,8.7,0.4,10-3.4c6.4-18.4,16.1-35.3,29.2-49.7
	c1.5-1.6,3-3.2,4.5-4.8c1-1,3.5-4.1,5.1-4.3c2.1-0.2,3.9,4.4,4.8,6.1c5.2,10.1,10.2,20.4,15.4,30.6c1.8,3.6,5.4,6.1,9.6,4.6
	C345-48.5,348-53.2,346.1-56.8z"/>
<path class="st0" d="M196.6,29.1c-4.5,0.3-6.7,3.9-7,8c-2.4,42.1-4.9,84.2-7.3,126.4c-0.2,4.1,4.3,7.2,8,7c4.5-0.3,6.7-3.9,7-8
	l7.3-126.4C204.8,32,200.2,28.8,196.6,29.1z"/>
<path class="st0" d="M220.2,33.5c-3.6-12.9-7.2-25.8-10.8-38.7c-1.6-5.8-9-6.1-12.7-2.4c-18.6,18.4-31.5,41.7-37.8,67.1
	c-2.3,9.4,12.4,12.3,14.7,3c4.6-18.5,13.3-35.4,25.2-50c2.4,8.7,4.9,17.4,7.3,26.1C208.6,47.8,222.8,42.8,220.2,33.5z"/>
<path class="st0" d="M394.5,36.2c-3.6-0.8-8.5,1.8-8.8,5.9c-3.6,48.3-7.3,96.5-10.9,144.8c-0.3,4.1,1.6,7.9,5.9,8.8
	c3.8,0.8,8.3-1.9,8.8-5.9l0.5-3.9c0.1-1,0.1-1.8-0.1-2.7c3.5-46.1,7-92.2,10.4-138.2C400.7,41,398.8,37.2,394.5,36.2z"/>
<path class="st0" d="M440.1,55.6c-12.7-24-25.3-47.9-38-71.9c-2.3-4.4-9-4-11.9-0.7c-18.4,21-33.7,44.6-45.3,70
	c-4,8.8,9.5,15.5,13.4,6.7c9.5-21,21.6-40.6,36.1-58.5c11.1,20.9,22.1,41.9,33.2,62.8c1.9,3.6,7.3,4,10.4,2
	C441.8,63.6,442,59.2,440.1,55.6z"/>
</svg>
