<?xml version="1.0" encoding="utf-8"?>
<!-- Generator: Adobe Illustrator 19.0.0, SVG Export Plug-In . SVG Version: 6.00 Build 0)  -->
<svg version="1.1" id="圖層_1" xmlns="http://www.w3.org/2000/svg" xmlns:xlink="http://www.w3.org/1999/xlink" x="0px" y="0px"
	 viewBox="0 0 350 350" style="enable-background:new 0 0 350 350;" xml:space="preserve">
<style type="text/css">
	.st0{fill:#FF693A;}
</style>
<path class="st0" d="M198,91.8c-5.8-10.7-11.5-21.4-17.3-32.1c-3.4-6.3-8.7-22.8-18.8-17.5c-3.9,2.1-6.4,7-8.8,10.5
	c-2.8,4.2-5.5,8.6-7.9,13.1c-5.2,9.7-9.2,19.8-12.3,30.3c-1.8,6.2,8,8.1,9.8,2c2.5-8.6,5.8-16.8,9.8-24.8c1.8-3.6,3.8-7.2,6-10.7
	c1-1.6,2-3.2,3.1-4.8c0.9-1.3,3.3-3.6,3.9-5.2c0.1,0.2,0.2,0.4,0.3,0.6c1.1,2,2.2,4,3.3,6.1c1.4,2.6,2.8,5.2,4.2,7.8
	c-2.6-2.5-7.8-2.2-8.3,2.3c-6.2,48.6-5.2,97.9,3.4,146.2c1.1,6.3,11.1,5.6,10-0.7c-8.4-47.4-9.7-95.8-3.6-143.5
	c0.1-0.6,0.1-1.1,0-1.6c0.3,0.6,0.6,1.1,0.9,1.7c4.7,8.7,9.3,17.3,14,26C192.8,103.1,201,97.4,198,91.8z"/>
<path class="st0" d="M103.9,160.9c-7.3-12.1-11.4-25.6-12.4-39.7c-0.3-4.6-5.8-5.8-8.8-2.9c-16.6,15.8-27.6,36.9-31.1,59.5
	c-1,6.3,8.8,8.3,9.8,2c2.7-17.5,10.2-33.6,21.4-47c0.8,4.4,1.9,8.7,3.2,13c-2.7-0.7-5.8,0.4-6.2,3.7c-3.2,30.3-2.7,60.8,1.9,91
	c1,6.3,10.9,5.7,10-0.7c-4-26.6-5-53.6-2.8-80.5c0.6-0.8,1-1.9,1-3.1l0-0.4c1.7,3.7,3.6,7.3,5.7,10.9
	C99,172.1,107.2,166.4,103.9,160.9z"/>
<path class="st0" d="M240.5,150.1c-2.6,29.8-5.2,59.5-7.7,89.3c-0.6,6.3,9.2,8.4,9.8,2c2.6-29.8,5.2-59.5,7.7-89.3
	C250.9,145.8,241.1,143.7,240.5,150.1z"/>
<path class="st0" d="M271.3,163.8c-4.3-8.7-8.7-17.4-13-26.2c-2.7-5.4-5.6-15.7-13.1-15.8c-7.5,0-11.6,9.1-14.8,14.6
	c-4.6,7.9-8.4,16.3-11.5,24.9c-2.2,6,6.8,10.5,9,4.4c2.2-6,4.7-11.9,7.6-17.7c1.4-2.7,2.8-5.4,4.4-8c0.8-1.4,3.8-8,5.5-8.2
	c-1.4,0.2,2.2,6.2,2.7,7.3c1.4,2.9,2.9,5.8,4.3,8.7c3.2,6.4,6.4,12.8,9.6,19.2C264.7,172.8,274.2,169.5,271.3,163.8z"/>
</svg>
