<?xml version="1.0" encoding="UTF-8"?>
<svg width="38px" height="38px" viewBox="0 0 38 38" version="1.1" xmlns="http://www.w3.org/2000/svg" xmlns:xlink="http://www.w3.org/1999/xlink">
    <!-- Generator: Sketch 51 (57462) - http://www.bohemiancoding.com/sketch -->
    <title>Group 77 Copy</title>
    <desc>Created with Sketch.</desc>
    <defs/>
    <g id="Page-1" stroke="none" stroke-width="1" fill="none" fill-rule="evenodd">
        <g id="Group-77-Copy" transform="translate(1.000000, 1.000000)">
            <g id="Group-56-Copy-2" fill-rule="nonzero" stroke="#EFEEF0">
                <circle id="Oval" cx="18" cy="18" r="18"/>
            </g>
            <path d="M19.7480469,11.125 C19.5136707,11.125 19.0595737,11.245116 18.3857422,11.4853516 C17.7119107,11.7255871 17.375,12.4199161 17.375,13.5683594 L17.375,16.1875 L15.125,16.1875 L15.125,17.875 L17.375,17.875 L17.375,26.3125 L19.0625,26.3125 L19.0625,17.875 L21.5058594,17.875 L21.9101562,16.1875 L19.0625,16.1875 L19.0625,13.515625 L19.1591797,13.1728516 C19.2236331,12.9443348 19.4550761,12.8300781 19.8535156,12.8300781 L21.3125,12.8300781 L21.3125,11.1425781 L19.8535156,11.1425781 L19.8271484,11.1337891 C19.8095702,11.1279297 19.7832033,11.125 19.7480469,11.125 Z M19.7480469,10 C19.7714845,10 19.7949218,10.0029297 19.8183594,10.0087891 C19.841797,10.0146485 19.8652343,10.0175781 19.8886719,10.0175781 L21.3300781,10.0175781 C21.6347671,10.0175781 21.8955067,10.1259755 22.1123047,10.3427734 C22.3291026,10.5595714 22.4375,10.8261703 22.4375,11.1425781 C22.4375,11.1542969 22.4375,11.1630859 22.4375,11.1689453 C22.4375,11.1748047 22.4375,11.1835937 22.4375,11.1953125 L22.4375,12.8300781 C22.4375,13.1347671 22.326173,13.3984364 22.1035156,13.6210938 C21.8808583,13.8437511 21.617189,13.9550781 21.3125,13.9550781 L20.1875,13.9550781 L20.1875,15.0625 L21.9101562,15.0625 C22.0859384,15.0625 22.2529289,15.1005856 22.4111328,15.1767578 C22.5693367,15.2529301 22.7011713,15.3671867 22.8066406,15.5195312 C22.9121099,15.660157 22.9824217,15.8154288 23.0175781,15.9853516 C23.0527346,16.1552743 23.0410159,16.3281241 22.9824219,16.5039062 L22.5957031,18.1914062 C22.5253903,18.4257824 22.390626,18.6191399 22.1914062,18.7714844 C21.9921865,18.9238289 21.7636732,19 21.5058594,19 L20.1875,19 L20.1875,26.2949219 C20.1875,26.6113297 20.076173,26.8779286 19.8535156,27.0947266 C19.6308583,27.3115245 19.367189,27.4199219 19.0625,27.4199219 L17.375,27.4199219 C17.0585922,27.4199219 16.7919933,27.3115245 16.5751953,27.0947266 C16.3583974,26.8779286 16.25,26.6113297 16.25,26.2949219 L16.25,19 L15.125,19 C14.820311,19 14.5566417,18.888673 14.3339844,18.6660156 C14.111327,18.4433583 14,18.179689 14,17.875 L14,16.1875 C14,16.0351555 14.0292966,15.8916022 14.0878906,15.7568359 C14.1464847,15.6220696 14.2285151,15.5019537 14.3339844,15.3964844 C14.4394537,15.2910151 14.5595696,15.2089847 14.6943359,15.1503906 C14.8291022,15.0917966 14.9726555,15.0625 15.125,15.0625 L16.25,15.0625 L16.25,13.5683594 C16.25,12.7011675 16.4199202,12.0302758 16.7597656,11.5556641 C17.0996111,11.0810523 17.4453107,10.7382823 17.796875,10.5273438 C18.1718769,10.3046864 18.5410138,10.1611331 18.9042969,10.0966797 C19.2675799,10.0322262 19.5488271,10 19.7480469,10 Z" id="-copy" fill="#EFEEF0"/>
        </g>
    </g>
</svg>