<?xml version="1.0" encoding="utf-8"?>
<!-- Generator: Adobe Illustrator 19.0.0, SVG Export Plug-In . SVG Version: 6.00 Build 0)  -->
<svg version="1.1" id="_x37_8bf026f-5d34-4e97-88cf-29aa2cfb8006"
	 xmlns="http://www.w3.org/2000/svg" xmlns:xlink="http://www.w3.org/1999/xlink" x="0px" y="0px"
	 viewBox="310.5 -377 1594.4 1594.4" style="enable-background:new 310.5 -377 1594.4 1594.4;" xml:space="preserve">
<style type="text/css">
	.st0{fill:none;stroke:#103D65;stroke-width:37.1933;stroke-miterlimit:10;}
	.st1{fill:#103D65;stroke:#FFFFFF;stroke-width:27.4816;stroke-miterlimit:10;}
	.st2{opacity:0.1;enable-background:new    ;}
	.st3{fill:none;stroke:#FFFFFF;stroke-width:27.4816;stroke-miterlimit:10;}
	.st4{fill:#F88132;stroke:#FFFFFF;stroke-width:27.4816;stroke-miterlimit:10;}
	.st5{opacity:0.1;fill:#F88132;enable-background:new    ;}
</style>
<path class="st0" d="M1385,660.1c178.1-67.2,267.9-265.6,200.8-443.7"/>
<g>
	<g>
		<polygon class="st1" points="1533.9,490.3 1428,979.4 793.1,950.1 622.9,630.3 694.2,217.8 696.8,197.3 1275.4,196.8 		"/>
		<polygon class="st2" points="1533.2,494.3 1428,979.4 799.8,949.6 793.1,950.1 622.9,630.3 694.2,217.8 886.6,468.5 		"/>
		<polygon class="st2" points="1533,495.9 1428,979.4 799.8,949.6 886.6,468.5 1522.5,498.2 		"/>
	</g>
</g>
<title>interview</title>
<g>
	<g>
		<path class="st3" d="M1047.1,570.9L1047.1,570.9c32-22.4,76.1-14.6,98.6,17.4l0.1,0.1"/>
		<path class="st3" d="M1252.5,607.3L1252.5,607.3c32.1-22.4,76.2-14.6,98.6,17.5l0,0.1"/>
	</g>
	<polyline class="st3" points="1230.4,708.2 1172.3,748.8 1131.8,690.8 	"/>
</g>
<path class="st0" d="M645.1-4.1C578,174,667.8,372.5,845.9,439.6"/>
<g>
	<g>
		<g>
			<polygon class="st4" points="1592.7,98.8 1534.6,378.8 888,409.1 717.9,89.4 753,-173.7 755.6,-194.2 1334.2,-194.7 			"/>
			<polyline class="st4" points="807.6,179.1 842.7,-84 845.3,-104.4 1423.9,-105 			"/>
			<polyline class="st4" points="896.5,268 931.5,4.9 934.2,-15.5 1512.8,-16.1 			"/>
			<polyline class="st4" points="1060.2,-173.7 1062.9,-194.2 1126.6,-194.7 1385,98.8 1326.8,378.8 			"/>
			<polyline class="st3" points="920.4,-173.7 923.1,-194.2 986.8,-194.7 1245.2,98.8 1187,378.8 			"/>
			<polygon class="st5" points="1592,102.9 1534.6,378.8 894.8,408.6 888,409.1 717.9,89.4 753,-173.7 945.4,77 			"/>
			<polygon class="st5" points="1591.8,104.5 1534.6,378.8 894.8,408.6 945.4,77 1581.3,106.7 			"/>
		</g>
	</g>
	<g>
		<path class="st4" d="M1079.2-122.4H942.2c-41.3,0-74.8-33.5-74.8-74.8l0,0c0-41.3,33.5-74.8,74.8-74.8h62.3
			c41.3,0,74.8,33.5,74.8,74.8V-122.4L1079.2-122.4z"/>
		<path class="st4" d="M1126.2-75.4H989.2c-41.3,0-74.8-33.5-74.8-74.8l0,0c0-41.3,33.5-74.8,74.8-74.8h62.3
			c41.3,0,74.8,33.5,74.8,74.8V-75.4L1126.2-75.4z"/>
	</g>
	<g>
		<path class="st4" d="M1173.2-122.4h137.1c41.3,0,74.8-33.5,74.8-74.8l0,0c0-41.3-33.5-74.8-74.8-74.8H1248
			c-41.3,0-74.8,33.5-74.8,74.8L1173.2-122.4L1173.2-122.4z"/>
		<path class="st4" d="M1126.2-75.4h137.1c41.3,0,74.8-33.5,74.8-74.8l0,0c0-41.3-33.5-74.8-74.8-74.8H1201
			c-41.3,0-74.8,33.5-74.8,74.8L1126.2-75.4L1126.2-75.4z"/>
	</g>
</g>
</svg>
