<?xml version="1.0" encoding="utf-8"?>
<!-- Generator: Adobe Illustrator 19.0.0, SVG Export Plug-In . SVG Version: 6.00 Build 0)  -->
<svg version="1.1" id="_x37_8bf026f-5d34-4e97-88cf-29aa2cfb8006"
	 xmlns="http://www.w3.org/2000/svg" xmlns:xlink="http://www.w3.org/1999/xlink" x="0px" y="0px"
	 viewBox="405 -282.5 1405.4 1405.4" style="enable-background:new 405 -282.5 1405.4 1405.4;" xml:space="preserve">
<style type="text/css">
	.st0{fill:#103D65;stroke:#FFFFFF;stroke-width:23.0393;stroke-miterlimit:10;}
	.st1{opacity:0.1;enable-background:new    ;}
	.st2{fill:none;stroke:#FFFFFF;stroke-width:23.0393;stroke-miterlimit:10;}
	.st3{fill:none;stroke:#103D65;stroke-width:23.0393;stroke-miterlimit:10;}
	.st4{fill:none;stroke:#103D65;stroke-width:31.1811;stroke-miterlimit:10;}
</style>
<g>
	<g>
		<polygon class="st0" points="1469.5,380.9 1345.4,1082.3 803.4,1107.7 660.7,839.6 765.5,152.4 767.7,135.2 1252.8,134.8 		"/>
		<polygon class="st1" points="1468.9,384.2 1345.4,1082.3 809,1107.3 803.4,1107.7 660.7,839.6 765.5,152.4 926.8,362.6 		"/>
		<polygon class="st1" points="1468.7,385.6 1345.4,1082.3 809,1107.3 926.8,362.6 1459.9,387.5 		"/>
	</g>
</g>
<title>interview</title>
<g>
	<g>
		<polyline class="st2" points="1035.1,509.5 1083.7,475.5 1117.8,524.2 		"/>
		<polyline class="st2" points="1207.3,540 1256,506 1290,554.7 		"/>
	</g>
	<polyline class="st2" points="1188.8,624.6 1140.1,658.6 1106.1,610 	"/>
</g>
<g>
	<line class="st3" x1="1668.7" y1="187.9" x2="1658.3" y2="246.6"/>
	<line class="st3" x1="1589.8" y1="205.4" x2="1624" y2="254.3"/>
	<line class="st3" x1="1546.3" y1="273.5" x2="1605" y2="283.9"/>
	<line class="st3" x1="1563.7" y1="352.5" x2="1612.6" y2="318.3"/>
	<line class="st3" x1="1631.9" y1="395.9" x2="1642.3" y2="337.2"/>
	<line class="st3" x1="1710.7" y1="378.5" x2="1676.6" y2="329.6"/>
	<line class="st3" x1="1754.3" y1="310.3" x2="1695.5" y2="299.9"/>
	<line class="st3" x1="1736.8" y1="231.4" x2="1688" y2="265.6"/>
</g>
<g>
	<line class="st3" x1="648.3" y1="27.3" x2="641.5" y2="65.4"/>
	<line class="st3" x1="597.2" y1="38.7" x2="619.3" y2="70.3"/>
	<line class="st3" x1="569.1" y1="82.7" x2="607.1" y2="89.4"/>
	<line class="st3" x1="580.4" y1="133.7" x2="612" y2="111.7"/>
	<line class="st3" x1="624.5" y1="161.9" x2="631.2" y2="123.9"/>
	<line class="st3" x1="675.5" y1="150.6" x2="653.4" y2="119"/>
	<line class="st3" x1="703.6" y1="106.5" x2="665.6" y2="99.8"/>
	<line class="st3" x1="692.3" y1="55.6" x2="660.7" y2="77.6"/>
</g>
<path class="st4" d="M617.1,186.6c-56.3,149.3,19,315.7,168.3,372"/>
<g>
	<g>
		<g>
			<polygon class="st0" points="1518.8,52.7 1470.1,287.4 928,312.8 785.4,44.8 814.8,-175.8 817,-193 1302.1,-193.4 			"/>
			<polyline class="st0" points="860.6,120 890,-100.6 892.2,-117.7 1377.3,-118.2 			"/>
			<polyline class="st0" points="935.1,194.5 964.5,-26.1 966.7,-43.2 1451.8,-43.7 			"/>
			<polyline class="st2" points="1072.4,-175.8 1074.6,-193 1128,-193.4 1344.7,52.7 1295.9,287.4 			"/>
			<polyline class="st2" points="955.2,-175.8 957.4,-193 1010.8,-193.4 1227.5,52.7 1178.7,287.4 			"/>
			<polygon class="st1" points="1518.2,56.1 1470.1,287.4 933.7,312.4 928,312.8 785.4,44.8 814.8,-175.8 976.1,34.4 			"/>
			<polygon class="st1" points="1518,57.4 1470.1,287.4 933.7,312.4 976.1,34.4 1509.2,59.3 			"/>
		</g>
	</g>
	<g>
		<path class="st0" d="M1088.3-132.8H973.4c-34.6,0-62.7-28.1-62.7-62.7v0c0-34.6,28.1-62.7,62.7-62.7h52.2
			c34.6,0,62.7,28.1,62.7,62.7V-132.8z"/>
		<path class="st0" d="M1127.7-93.4h-114.9c-34.6,0-62.7-28.1-62.7-62.7v0c0-34.6,28.1-62.7,62.7-62.7h52.2
			c34.6,0,62.7,28.1,62.7,62.7V-93.4z"/>
	</g>
	<g>
		<path class="st0" d="M1167.1-132.8H1282c34.6,0,62.7-28.1,62.7-62.7v0c0-34.6-28.1-62.7-62.7-62.7h-52.2
			c-34.6,0-62.7,28.1-62.7,62.7V-132.8z"/>
		<path class="st0" d="M1127.7-93.4h114.9c34.6,0,62.7-28.1,62.7-62.7v0c0-34.6-28.1-62.7-62.7-62.7h-52.2
			c-34.6,0-62.7,28.1-62.7,62.7V-93.4z"/>
	</g>
</g>
</svg>
