<?xml version="1.0" encoding="utf-8"?>
<!-- Generator: Adobe Illustrator 19.0.0, SVG Export Plug-In . SVG Version: 6.00 Build 0)  -->
<svg version="1.1" id="圖層_1" xmlns="http://www.w3.org/2000/svg" xmlns:xlink="http://www.w3.org/1999/xlink" x="0px" y="0px"
	 viewBox="187 -84.7 727 265.7" style="enable-background:new 187 -84.7 727 265.7;" xml:space="preserve">
<style type="text/css">
	.st0{fill:#F88132;}
	.st1{fill:#FFFFFF;stroke:#FFFFFF;stroke-miterlimit:10;}
	.st2{fill:#F9E153;stroke:#FFFFFF;stroke-miterlimit:10;}
	.st3{fill:#FFFFFF;}
</style>
<rect id="XMLID_84_" x="172.2" y="-167.3" width="790.5" height="405.3"/>
<rect id="XMLID_170_" x="242" y="51.4" class="st0" width="146.4" height="61.5"/>
<g id="XMLID_102_">
	<path id="XMLID_41_" class="st1" d="M299.3,24.2H276v2.9c0,3.9-0.8,5.8-3.8,7c-2.9,1.1-6.5,1.1-11.1,1.1c-0.4-2.4-1.7-5.5-2.8-7.7
		c2.6,0.1,6.5,0.1,7.4,0.1c1,0,1.3-0.2,1.3-0.9v-2.6h-25V17h25v-1.2c1.7-0.8,3.6-1.9,5.3-3.1h-17.8V6.5h26.2l1.9-0.4l5.1,4.7
		c-2.9,2.1-6.4,4.3-10,6.3h21.7V24.2z M251.5,12h-8.6V-1.7h4.5l-1.1-18.8c3.8-0.7,9.5-2.4,13.1-3.7l3.6,5.1c-2.4,0.9-5.2,1.7-8,2.3
		l0.1,1.2h7.5v5.5h-7.2l0.1,1.4h7.1v2.5c1.2-0.5,2.3-1.1,3.5-1.8c-1-0.6-2.1-1.3-3-1.8l4.1-3.4c1.1,0.6,2.2,1.2,3.4,1.9
		c0.9-0.8,1.6-1.6,2.2-2.4l5.8,1.8c-0.9,1.3-1.9,2.5-3.1,3.6c1.3,0.9,2.5,1.8,3.4,2.6l-4.4,3.8c-0.8-0.8-1.9-1.8-3.3-2.8
		c-1.4,1.1-2.9,1.9-4.3,2.8h18.7l0.2-1.4h-6.5v-5.5h7l0.1-1.4h-6.7v-5.5h7.1l0.1-1.4h-7.6v-5.5h16.5c-0.3,6.8-0.8,14.7-1.4,20.8h4.6
		V12h-9V4.7h-38.3V12z M255.9-1.7h9.5c-0.8-0.8-1.9-2-2.8-2.9v1.4h-6.8L255.9-1.7z M274-13.3c-0.7-0.7-1.7-1.4-2.8-2.3
		c-1.5,1.1-3.1,2-4.6,2.8c-1-1.1-3.3-3-4.6-4c1.5-0.6,2.9-1.3,4.3-2.1c-1-0.6-1.9-1.1-2.9-1.6l4-3.3c1.1,0.5,2.2,1.1,3.3,1.8
		c0.8-0.7,1.4-1.4,1.9-2.1l5.7,1.7c-0.8,1.1-1.8,2.3-2.9,3.3c1,0.8,1.9,1.5,2.7,2.1L274-13.3z"/>
	<g id="XMLID_31_">
		<path id="XMLID_36_" class="st2" d="M320.9-26h-10.5v-18.2h33.9c-0.6-1.6-1.3-3.2-1.9-4.6l12.8-3.6c1.4,2.4,2.8,5.5,3.7,8.2h31.5
			V-26h-10.3v8.9H373c4.9,4.1,9.9,8.6,12.8,12.2l-10.3,6.9c-1.2-1.6-2.8-3.5-4.7-5.5c-39,3.1-44.3,3.5-48.3,5
			c-0.6-2.3-2.4-7.9-3.7-11.1c2.2-0.4,4.1-1.4,6.5-3.2c1.2-0.7,3.3-2.3,5.9-4.4h-10.4V-26z M390.8,20.7v11.4h-80.3V20.7h33v-5.2
			h-25.1V4.3h25.1v-5.4H357v5.4h27.1v11.2H357v5.2H390.8z M323.1-32.4v4.2H377v-4.2H323.1z M361.6-12.2c-1.1-1-2.2-1.9-3.2-2.7
			l3.3-2.2H348c-2.3,2.1-5,4.2-7.7,6.2L361.6-12.2z"/>
		<path id="XMLID_32_" class="st2" d="M477.9,19.9c0,6.7-1.3,10.4-5.6,12.4c-4.3,2.1-10.2,2.3-18.2,2.3c-0.5-3.8-2.5-9.7-4.3-13.2
			c4.5,0.3,10.7,0.3,12.4,0.3c1.6,0,2.3-0.5,2.3-1.9V5.3c-2.3,2.7-4.9,5.9-6.3,8.3c-8.3-5.4-13.9-13-17.6-22
			c-3.9,10.1-9.8,17.7-19,22.7c-1-1.8-2.8-4.3-4.7-6.6v26.9h-13.3v-65.5h31.5c-0.3-1.7-0.5-3.5-0.5-5.2H420v-11.3h26.1
			c0.2,5.8,0.6,11.3,1.5,16.6h30.3V19.9z M416.9,1.5c6.8-4.4,11.3-11.2,14-19.5h-14V1.5z M450.9-18.1c2.8,7.7,7.1,14,13.6,18.5
			v-18.5H450.9z"/>
	</g>
	<path id="XMLID_25_" class="st1" d="M606.5,18.6c3.8-0.6,7.7-1.2,11.4-1.8l0.5,7.8c-11.1,2.1-23.1,4.2-31.9,5.7l-2-8.4
		c3.7-0.4,8.3-1.1,13.2-1.9v-7.3h-11.1V4.8h11.1v-5h8.7v5h10.7v7.9h-10.7V18.6z M585.3-24.4h33.3v7.8h-7.8c3,4,6.2,8.9,7.6,12.3
		l-7,4.5c-0.3-0.8-0.6-1.6-1.1-2.6c-16.3,1.2-19.1,1.4-21.2,2.3c-0.5-1.8-2-5.9-2.9-8.2c1-0.3,2-1.3,3-2.7c0.6-0.8,1.8-3,2.9-5.6
		h-6.8V-24.4z M606.3-9.5c-1-1.6-2-3-3-4.4l4.3-2.6H602c-1.3,2.5-2.9,5.1-4.5,7.4L606.3-9.5z M628.9,16.7h-8.5v-38.4h8.5V16.7z
		 M641.3-27.3v48.9c0,4.5-0.8,6.8-3.5,8.2c-2.7,1.4-6.4,1.7-11.6,1.7c-0.4-2.4-1.8-6.3-3.1-8.7c3.2,0.1,6.6,0.1,7.7,0.1
		c1.1,0,1.5-0.4,1.5-1.5v-48.8H641.3z"/>
	<g id="XMLID_14_">
		<path id="XMLID_21_" class="st1" d="M734.5,14.7c-0.1-4.4-1.1-10.3-2.4-16v24.1c0,5.2-0.6,8.4-3.7,10.2c-3.1,1.8-7.1,2.1-12.5,2
			c-0.3-3.2-1.5-7.9-3-11.1c-2.2,4.2-5.2,7.8-9.1,10.9c-1.5-3.1-4.9-7.5-7.6-9.7c9.8-7,12-17.4,12.7-33.3c-1.4,9-4,18-7.3,23.9
			c-1.8-1.4-6-3.8-8.3-5c0.9-1.4,1.6-3.2,2.3-5l-4.9,1.9c-0.4-2.3-1.2-5.3-2.2-8.3v23.1c0,5.1-0.7,8.3-3.7,10.1c-3,1.8-6.8,2-12,2
			c-0.2-3.2-1.5-7.9-2.9-11.1c-2.1,4.5-5.1,8.4-9,11.6c-1.5-3.2-5-7.7-7.8-10c9.4-7.2,11.4-17.9,12-34.1c-1.2,8.3-3.5,17.4-6.1,23.2
			c-1.8-1.3-6-3.7-8.2-4.7c2.4-5.3,3.9-13.3,4.8-20.6l9.4,1.9c0.1-2,0.1-4,0.1-6.2h-12.1v-12.7h16.2v-6.5h-12.6V-47h12.6v-9.7h12.8
			v9.7h11.4v12.2h-11.4v6.5h13v12.7h-6.6v5.7l4.6-1.6c1.8,3.2,3.5,6.9,4.6,10.5c0.9-3.7,1.5-7.5,2-11.3l9.2,1.7l0.1-4.9h-11.9v-12.7
			h16.3v-6.5h-14.1V-47h14.1v-9.7h12.7v9.7h13.1v12.2h-13.1v6.5h16.4v12.7h-10.5v4.8l6.6-1.5c3.1,7.8,5.3,17.9,5.7,24.6L734.5,14.7z
			 M675.9-15.6c-0.2,16.3-1.2,29.1-6,38.9c2.6,0.1,5.4,0.1,6.3,0c1,0,1.2-0.2,1.2-1.2v-37.8H675.9z M719.4-15.6
			c-0.3,16.6-1.3,29.6-6.5,39.4c2.9,0.1,6,0.1,7,0.1c1,0,1.2-0.3,1.2-1.2v-38.2H719.4z"/>
		<path id="XMLID_15_" class="st1" d="M775.9,4.4c-0.1-1.1-0.3-2.3-0.5-3.7c-17.4,2.5-20.9,3.5-23.3,4.6c-0.6-2.5-2.7-8.6-4.2-12
			c2.7-0.7,4.7-2.8,7.7-6.4c1-1.1,2.7-3.3,4.6-6.1c-5.5,0.8-7.4,1.2-8.8,1.9c-0.7-2.5-2.7-8.4-4.1-11.6c1.9-0.6,3.5-2.4,5.3-5.2
			c1.7-2.7,6.9-13.3,9.6-23.3l12.4,4.9c-2.8,7.4-7,15.5-11.3,22.1l4.1-0.2c2.4-4.2,4.8-8.8,6.6-13.4l11.2,7c-0.5,1.1-1.1,2-1.6,3.1
			l9.7-3.8c2.9,5.2,6.1,12,7.6,16.4l-11,4.8c-1.2-4.3-4.3-11.2-6.8-16.5c-3.1,5.7-6.7,11.2-10.7,16.6l8.2-2.3
			c2.1,6.5,4.2,15,4.8,20.2L775.9,4.4z M761.7,9.3c-0.5,9.1-1.8,18.6-3.8,24.8c-2.3-1.2-7.2-2.7-9.9-3.5c2.2-5.8,3.2-14.7,3.6-23
			L761.7,9.3z M771.4,7.6c1.1,7,1.9,15.9,2.2,21.8l-9.9,1.9c0-6.1-0.8-15.1-1.6-22L771.4,7.6z M773.4-9.6c-0.5-2.1-1.1-4.1-1.5-6.1
			c-1.7,2.3-3.6,4.6-5.4,6.8L773.4-9.6z M821.6-1.2c5,7.9,11.8,15.6,18.5,20.4c-3,2.3-7.1,6.9-9.3,10.3
			c-5.2-4.9-10.2-12.2-14.3-20.2v25h-13.6V10.6c-3.7,7.7-8.2,14.8-12.7,19.7c-1.8-2.6-5.1-6.3-7.9-8.9l-6.2,2.2
			c-0.7-4.3-2.5-11-4-16.1l8.6-2.8c1.2,3.7,2.7,8.3,3.7,12.1c5.1-4.9,10.1-11.3,13.8-17.9h-12.9v-12.5h17.6v-8.3h2.4
			c-1-4.3-3.3-10.8-5.1-15.7l9.3-2.8c-8.2,0.7-16.5,1.2-24.2,1.4c-0.4-3.3-1.9-8.1-3.2-11c17.1-1,36.1-3,49.7-5.7l5.9,11.6
			c-7.8,1.4-16.8,2.6-26,3.5c2.1,4.9,4.4,11,5.6,15.2l-10.4,3.5h8.7c3.6-5.2,7.6-13.4,10.1-20.1l11.7,3.5c-3.1,7.4-7.7,16.4-11,22
			c-2.3-1.5-6.8-3.7-9.9-5v7.9h20.3v12.5H821.6z"/>
	</g>
	<g id="XMLID_2_">
		<g id="XMLID_12_">
			<polygon id="XMLID_13_" class="st1" points="497.1,-3.6 511.5,4 497.1,11.6 			"/>
		</g>
		<g id="XMLID_10_">
			<polygon id="XMLID_11_" class="st1" points="524,-3.6 538.4,4 524,11.6 			"/>
		</g>
		<g id="XMLID_8_">
			<polygon id="XMLID_9_" class="st1" points="550.9,-3.6 565.3,4 550.9,11.6 			"/>
		</g>
	</g>
</g>
<g id="XMLID_85_">
	<g id="XMLID_7_">
		<path id="XMLID_164_" class="st3" d="M414.2,60.8c-1.3,3.3-2.8,6.6-4.7,9.8v32.5h-5.4V78.8c-1.1,1.4-2.2,2.7-3.3,3.8
			c-0.5-1.4-2.1-4.4-3-5.8c4.4-4.3,8.7-11,11.2-17.7L414.2,60.8z M422.5,89.7c-1.9,4.1-4.8,8.7-7.3,11.6c-1-0.9-3.1-2.4-4.4-3
			c2.4-2.6,4.9-6.5,6.5-10L422.5,89.7z M430.1,86.7v16.6h-5.7V86.7h-12.4v-5.1h12.4v-4.2h-9.3V61.1h24.9v16.3h-9.9v4.2h12.3v5.1
			H430.1z M420.5,72.4h13.9v-6.4h-13.9V72.4z M435.9,88.1c2.7,3.1,5.6,7.2,7,10l-4.5,2.7c-1.3-2.8-4.2-7.2-6.7-10.4L435.9,88.1z"/>
		<path id="XMLID_155_" class="st3" d="M485.2,91.6c-1.1,2.2-2.2,4.5-3.2,6.2h7.5v4.5h-26.9v-4.5h7.2c-0.3-1.7-1.2-4.1-2.3-5.9
			l4.4-1.2h-5.6V79.5c-0.5,0.4-0.9,0.8-1.5,1.1c-0.7-1.1-2.2-2.9-3.3-3.7c1.7-1.1,3.2-2.7,4.6-4.5c-1.1-0.9-2.5-1.9-3.8-2.6v1.6
			h-16.4v-4.5h7.5c-0.8-1.8-2.1-4.2-3.2-6l3.8-2.3c1.3,1.9,2.9,4.6,3.6,6.3l-2.9,2h7.5v2.6l2.8-3.4c1.1,0.6,2.3,1.3,3.4,2
			c0.4-1,0.9-2,1.2-3.1H464v-4.4h7.5l0.9-0.2l3.3,1c-0.8,4-2,7.5-3.6,10.6h8.1c-1.9-3.5-3.3-7.6-4.3-12l4.6-0.9
			c0.2,1,0.5,2.1,0.9,3.1c0.9-0.9,1.8-1.8,2.5-2.5l3.3,3.1c-1.4,1.2-3,2.4-4.3,3.4c0.2,0.6,0.5,1.2,0.9,1.8c1.1-0.9,2.4-1.8,3.1-2.6
			l3.2,3.1c-1.4,1-2.8,2-4.2,2.8c1.4,1.9,3,3.4,4.9,4.6c-1.2,0.9-2.9,2.8-3.7,4.1c-0.5-0.4-1-0.8-1.5-1.1v11.8h-4.4L485.2,91.6z
			 M461,100.7h-9.1v2h-4.3V86.3H461V100.7z M460.8,77.7h-13.1v-4.3h13.1V77.7z M447.7,79.8h13.1v4.3h-13.1V79.8z M451.9,90.9v5.3
			h4.8v-5.3H451.9z M470.3,74.9c-0.9,1.4-1.9,2.6-3.1,3.7h18.1c-1.3-1.1-2.4-2.5-3.5-4v1.8h-11.5V74.9z M471,86.4h9.5v-3.6H471V86.4
			z M472.3,90.7c1.2,1.9,2.3,4.6,2.6,6.2l-3.1,0.9h5.3c0.9-2,2-4.9,2.6-7.1H472.3z"/>
		<path id="XMLID_143_" class="st3" d="M508.8,71.4h-15.5V67h6.7c-0.4-1.8-1.4-4.3-2.5-6.3l4-1.4c1.1,1.9,2.3,4.6,2.8,6.3l-3.4,1.4
			h7.9V71.4z M507.5,100.7h-8.9v2h-3.9V86.5h12.8V100.7z M507.3,77.8h-12.1v-4.3h12.1V77.8z M495.2,80h12.1v4.2h-12.1V80z
			 M498.6,90.8v5.6h4.9v-5.6H498.6z M536.9,94.2c-1.4,1-3,1.8-4.6,2.6c1.7,1.1,3.6,1.9,5.9,2.4c-1,1-2.3,2.8-2.9,4
			c-6.3-1.9-10.2-6-12.5-11.8h-0.6c-0.9,0.9-2,1.7-3.1,2.4v3.7l5.5-0.9c0,1.3,0,3.1,0.2,4.2c-7.6,1.5-9.1,1.9-9.9,2.5
			c-0.4-0.9-1.6-2.5-2.3-3.2c0.8-0.7,2-1.9,2.2-4c-1.5,0.7-2.9,1.3-4.5,1.8c-0.5-0.9-1.8-2.7-2.6-3.5c2.8-0.7,5.6-1.7,8.1-2.9h-7.1
			v-3.8h6.7v-1.5h-4.6v-3.4h4.6v-1.6h-5.2v-3.4h5.2v-2.1h-4.6v-8.3h11.3v8.3h-1.8v2.1h5v-2.1H524v-8.3h11.5v8.3h-4.9v2.1h5.8v3.4
			h-5.8v1.6h5.3v3.4h-5.3v1.5h6.9v3.8h-9.9c0.6,1,1.2,2,2,2.8c1.7-0.9,3.5-1.9,4.6-2.7L536.9,94.2z M536.8,66.1h-27.6v-4h11.2
			c-0.3-0.9-0.7-1.7-1-2.4l4.7-1.4c0.7,1.2,1.4,2.6,1.8,3.8h10.9V66.1z M514.9,72.8h3v-2.5h-3V72.8z M520.4,82.7h5v-1.6h-5V82.7z
			 M520.4,87.6h5v-1.5h-5V87.6z M528,72.8h3.2v-2.5H528V72.8z"/>
		<path id="XMLID_138_" class="st3" d="M558.8,95.9c-3.2,2.7-8.9,5.2-13.8,6.3c-0.7-1.2-2.2-3-3.3-4.1c4.7-0.7,10.2-2.3,13.1-4
			L558.8,95.9z M583.9,87.9v4.6h-18.4v10.8h-5.6V92.6h-18.1v-4.6h18.1v-2.1h-13.7v-4.1h13.7v-2.1h-16v-4.3h8.7
			c-0.4-1.1-1.1-2.4-1.8-3.5l3.2-0.7H542v-4.4h6.4c-0.7-1.8-1.9-4.1-3-5.9l4.8-1.6c1.4,2,3,4.8,3.6,6.6l-2.3,0.9h4.4V59h5.2v7.7h3.6
			V59h5.3v7.7h4.2l-1.7-0.5c1.1-1.9,2.4-4.8,3-6.8l5.9,1.4c-1.3,2.2-2.6,4.3-3.8,6h6.1v4.4h-12.5l4.5,1.1c-1,1.1-2,2.2-2.9,3h9.1
			v4.3h-16.4v2.1h14.2v4.1h-14.2v2.1H583.9z M556.6,71.2c0.8,1.2,1.5,2.6,1.9,3.6l-2.6,0.6h12.9l-1.7-0.5c0.8-1.1,1.8-2.5,2.4-3.6
			H556.6z M571.3,93.8c3.8,1.4,9.4,3.8,12.5,5.3l-4,3.1c-2.7-1.6-8.3-4.1-12.3-5.7L571.3,93.8z"/>
		<path id="XMLID_132_" class="st3" d="M619.5,80.8c3.4,2.8,8.1,5.2,13,6.4c-1.2,1.1-2.9,3.3-3.7,4.8c-2.8-0.9-5.5-2.2-8-3.8v15
			h-5.9V86.5h3.6c-2.1-1.7-4-3.6-5.5-5.7h-4.9c-1.6,2.1-3.6,3.9-5.7,5.6h4v3.3c0,4.5-1.4,10.5-10.8,13.9c-0.8-1.4-2.7-3.5-3.9-4.6
			c7.9-2.6,8.9-6.6,8.9-9.6v-1.7c-2.7,1.8-5.6,3.3-8.6,4.4c-0.8-1.4-2.5-3.5-3.7-4.6c4.7-1.4,9.4-3.8,12.8-6.7h-7.5V60.7h33.8v20.1
			H619.5z M599,68.6h8.3v-3.4H599V68.6z M599,76.3h8.3v-3.4H599V76.3z M621.3,65.2H613v3.4h8.3V65.2z M621.3,72.8H613v3.4h8.3V72.8z
			"/>
		<path id="XMLID_125_" class="st3" d="M668.4,60.4c-0.3,0.4-0.6,0.8-0.9,1.2c3.2,2.9,8.1,5.7,12.5,7.3c-0.9,1.2-1.8,3.6-2.2,4.9
			c-2.4-1.1-5-2.7-7.4-4.4V72H659v-2.1c-2.4,1.7-4.8,3.2-7.2,4.5c-0.3-0.8-1.1-2.4-1.9-3.7v2.6h-3.7v7.2l4-1l0.7,5.2
			c-1.6,0.4-3.1,0.9-4.7,1.3v11.2c0,2.6-0.4,3.9-1.9,4.8c-1.4,0.9-3.5,1-6.4,1c-0.1-1.4-0.8-3.6-1.5-5.1c1.5,0,3.1,0,3.6,0
			c0.6,0,0.8-0.2,0.8-0.8v-9.7l-4,1l-1.5-5.4c1.6-0.3,3.4-0.8,5.5-1.2v-8.5h-5v-5.2h5v-9h5.5v9h3.7v1c5.4-2.4,10.8-6.3,13.8-10.6
			L668.4,60.4z M658.1,88.8c-0.1,0.6-0.2,1.2-0.3,1.8h19.3v12.7h-4.9v-1.3h-10.4v1.4H657v-9.1c-0.9,3.3-2.2,6.4-4.2,9
			c-0.9-0.9-3.3-2.5-4.6-3.1c4.4-5.3,4.8-12.9,4.8-18.3V74h22.7v14.8H658.1z M670.8,84.9V83h-12.3c0,0.6,0,1.2-0.1,1.9H670.8z
			 M658.5,77.9v1.8h12.3v-1.8H658.5z M668.7,68.2c-1.4-1.1-2.7-2.2-3.9-3.3c-1.1,1.1-2.3,2.2-3.6,3.3H668.7z M661.8,94.5v3.4h10.4
			v-3.4H661.8z"/>
		<path id="XMLID_118_" class="st3" d="M710.2,82.8c-1.8,0.9-3.6,1.7-5.5,2.5h17.6v18h-5.8V102h-18.1v1.2h-5.5V89.4
			c-2.6,0.8-5.2,1.4-7.8,2c-0.5-1.1-1.7-3.4-2.5-4.5c5.4-1,10.8-2.4,15.9-4.2h-14.5V78h15.3v-2.7h-11.4v-4.6h11.4v-2.6h5.6v2.6h10.4
			v3.9c2.4-1.6,4.5-3.3,6.2-5.2l4.2,2.7c-2.1,2.1-4.5,4.1-7.1,5.9h7.7v4.8H710.2z M692.4,66.4h-8.6v-4.8h8.6V59h5.6v2.6h6v4.8h-6
			v2.9h-5.6V66.4z M716.4,89.6h-18.1v2.3h18.1V89.6z M716.4,97.8v-2.4h-18.1v2.4H716.4z M704.8,78h4.9c1.6-0.9,3.1-1.8,4.6-2.7h-9.5
			V78z M712.2,66.4h-6.4v-4.8h6.4V59h5.6v2.6h8.2v4.8h-8.2v2.9h-5.6V66.4z"/>
		<path id="XMLID_111_" class="st3" d="M764.4,90.5c-1.2,2-2.6,3.6-4.3,5.1c5,1.2,9.6,2.5,13.2,3.6l-5.1,4
			c-3.5-1.3-8.2-2.7-13.6-4.1c-5.4,2.5-12.6,3.7-21.8,4.4c-0.4-1.7-1.2-3.6-2.1-4.9c5.8-0.2,10.7-0.7,14.7-1.7
			c-3-0.6-6.1-1.2-9.3-1.8c1.1-1.3,2.4-2.8,3.6-4.6h-9v-4.6h12c0.9-1.5,1.7-2.9,2.4-4.3h-11.5V68.3h10.2v-2.7h-12.5v-4.9h41.3v4.9
			H760v2.7h11.3v13.3H746l5,1.1c-0.5,1-1,2.1-1.7,3.2h11.4c0.4-0.9,0.7-1.8,1-2.7l5.5,1.3c-0.1,0.5-0.3,0.9-0.5,1.3h7.1v4.6H764.4z
			 M739.1,77.2h5v-4.4h-5V77.2z M746.3,90.5c-0.4,0.6-0.9,1.2-1.3,1.8c2.8,0.5,5.6,1.1,8.4,1.7c1.6-1,3.1-2.1,4.3-3.5H746.3z
			 M749.4,68.3h5.4v-2.7h-5.4V68.3z M754.7,77.2v-4.4h-5.4v4.4H754.7z M760,72.7v4.4h5.7v-4.4H760z"/>
		<path id="XMLID_106_" class="st3" d="M792.7,60.9c-1.2,3.3-2.7,6.6-4.5,9.7v32.6h-5.4V79c-1,1.4-2.1,2.7-3.2,3.8
			c-0.5-1.4-2.1-4.5-3-5.9c4.3-4.3,8.4-11,10.8-17.7L792.7,60.9z M809.5,72.7V97c0,2.7-0.5,4.3-2.2,5.2c-1.7,0.9-3.9,1.1-7,1.1
			c-0.2-1.7-1.1-4.2-1.9-5.7c2,0,4,0,4.6,0c0.6,0,0.9-0.2,0.9-0.8V72.7h-5.5c-1.3,2.7-2.9,5.3-4.5,7.3c-1-1-3.3-2.8-4.6-3.7
			c3.6-4,6.4-10.6,8.1-17.1l5.5,1.2c-0.6,2.4-1.4,4.7-2.2,7.1h16.3l0.9-0.2l4,0.8c-0.6,3.8-1.4,8.2-2,11l-4.8-0.8
			c0.2-1.5,0.5-3.5,0.8-5.5H809.5z M801.6,81.3c-1.4,6-3.8,12-6.4,15.8c-1.1-0.9-3.5-2.3-4.8-3c2.7-3.3,4.7-8.7,5.8-13.9L801.6,81.3
			z M816.2,79.7c2.5,4.9,4.5,11.2,5.2,15.5L816,97c-0.5-4.2-2.5-10.7-4.8-15.6L816.2,79.7z"/>
		<path id="XMLID_103_" class="st3" d="M830.4,95c0-2.7,2.1-4.7,4.9-4.7c2.8,0,4.9,2,4.9,4.7c0,2.7-2.1,4.6-4.9,4.6
			C832.5,99.6,830.4,97.7,830.4,95z M831.2,70.8l-0.2-7.1h8.7l-0.2,7.1L837.8,87h-4.9L831.2,70.8z"/>
	</g>
	<rect id="XMLID_101_" x="242" y="109.3" class="st0" width="597.7" height="3.5"/>
	<g id="XMLID_86_">
		<path id="XMLID_97_" class="st3" d="M290.4,94.7v5.8h-41.1v-5.8H290.4z M287.8,63.6v5.7h-35.9v-5.7H287.8z M284.1,78.7v5.7h-28.9
			v-5.7H284.1z"/>
		<path id="XMLID_91_" class="st3" d="M309.1,60.8c-1,3-2.3,6-3.7,9v33.6H300V79.1c-1,1.5-2.1,2.8-3.2,4.1c-0.4-1.4-1.8-4.7-2.7-6.1
			c3.9-4.3,7.5-11.1,9.7-17.9L309.1,60.8z M338,61.5v41.4h-5.4v-2.3h-17.8v2.7h-5.1V61.5H338z M332.7,95.6V66.3h-17.8v29.3H332.7z
			 M325.8,76.3v4.1h4.6V93h-13.1V80.3h4.2v-4.1H316v-4.1h5.5v-4.8h4.4v4.8h5.7v4.1H325.8z M326.2,84.2h-4.8v5h4.8V84.2z"/>
		<path id="XMLID_87_" class="st3" d="M380.7,96.1c0,3.4-0.8,5-3,6c-2.3,1-5.6,1.1-10.5,1.1c-0.3-1.7-1.5-4.4-2.4-5.9
			c3.3,0.2,7.3,0.1,8.3,0.1c1.1,0,1.5-0.4,1.5-1.4v-6.9h-20.3c-1.2,5.3-3.6,10.5-8,14.2c-0.9-1.2-3.1-3.3-4.4-4.1
			c7.2-6.1,7.8-15.2,7.8-22.4V61.3h30.8V96.1z M374.8,83.7v-5.8h-19c0,1.8-0.1,3.8-0.3,5.8H374.8z M355.8,66.8v5.8h19v-5.8H355.8z"
			/>
	</g>
</g>
</svg>
