<?xml version="1.0" encoding="utf-8"?>
<!-- Generator: Adobe Illustrator 19.0.0, SVG Export Plug-In . SVG Version: 6.00 Build 0)  -->
<svg version="1.1" id="圖層_1" xmlns="http://www.w3.org/2000/svg" xmlns:xlink="http://www.w3.org/1999/xlink" x="0px" y="0px"
	 viewBox="207 174 1010.1 494.9" style="enable-background:new 207 174 1010.1 494.9;" xml:space="preserve">
<style type="text/css">
	.st0{fill:none;}
	.st1{fill:none;stroke:#FFFFFF;stroke-width:2.16;}
	.st2{fill:#041321;stroke:#FFFFFF;stroke-width:2.8346;stroke-miterlimit:10;}
	.st3{fill:#103D65;stroke:#FFFFFF;stroke-width:2.8346;stroke-miterlimit:10;}
	.st4{fill:#F88132;}
	.st5{fill:#F9E153;}
	.st6{fill:none;stroke:#F88132;stroke-width:4;stroke-linecap:round;stroke-linejoin:round;}
	.st7{fill:#FFFFFF;}
	.st8{opacity:0.1;enable-background:new    ;}
	.st9{display:none;}
	.st10{display:inline;}
	.st11{fill:url(#XMLID_110_);}
	.st12{fill:url(#XMLID_111_);}
	.st13{fill:url(#XMLID_112_);}
	.st14{fill:url(#XMLID_113_);}
	.st15{fill:url(#XMLID_114_);}
	.st16{fill:url(#XMLID_115_);}
	.st17{fill:url(#XMLID_116_);}
	.st18{fill:url(#XMLID_117_);}
	.st19{fill:url(#XMLID_118_);}
	.st20{fill:#F9E153;stroke:#103D65;stroke-width:2.8346;stroke-miterlimit:10;}
	.st21{fill:#103D65;stroke:#103D65;stroke-width:2.8346;stroke-miterlimit:10;}
	.st22{fill:#FFFFFF;stroke:#103D65;stroke-width:2.8346;stroke-miterlimit:10;}
	.st23{fill:#FFFFFF;stroke:#103D65;stroke-width:1.4173;stroke-miterlimit:10;}
	.st24{fill:none;stroke:#29597C;stroke-width:2.8346;stroke-miterlimit:10;}
</style>
<pattern  x="207" y="668.9" width="72" height="72" patternUnits="userSpaceOnUse" id="XMLID_119_" viewBox="72.3 -72 72 72" style="overflow:visible;">
	<g>
		<polygon class="st0" points="72.3,0 144.3,0 144.3,-72 72.3,-72 		"/>
		<g>
			<polygon class="st0" points="72.3,-72 144.3,-72 144.3,0 72.3,0 			"/>
			<g>
				<polygon class="st0" points="72.3,-72 144.3,-72 144.3,0 72.3,0 				"/>
				<g>
					<line class="st1" x1="144" y1="-3.6" x2="216.5" y2="-3.6"/>
					<line class="st1" x1="144" y1="-18" x2="216.5" y2="-18"/>
					<line class="st1" x1="144" y1="-32.4" x2="216.5" y2="-32.4"/>
					<line class="st1" x1="144" y1="-46.8" x2="216.5" y2="-46.8"/>
					<line class="st1" x1="144" y1="-61.2" x2="216.5" y2="-61.2"/>
					<line class="st1" x1="144" y1="-10.8" x2="216.5" y2="-10.8"/>
					<line class="st1" x1="144" y1="-25.2" x2="216.5" y2="-25.2"/>
					<line class="st1" x1="144" y1="-39.6" x2="216.5" y2="-39.6"/>
					<line class="st1" x1="144" y1="-54" x2="216.5" y2="-54"/>
					<line class="st1" x1="144" y1="-68.4" x2="216.5" y2="-68.4"/>
				</g>
				<g>
					<line class="st1" x1="72" y1="-3.6" x2="144.5" y2="-3.6"/>
					<line class="st1" x1="72" y1="-18" x2="144.5" y2="-18"/>
					<line class="st1" x1="72" y1="-32.4" x2="144.5" y2="-32.4"/>
					<line class="st1" x1="72" y1="-46.8" x2="144.5" y2="-46.8"/>
					<line class="st1" x1="72" y1="-61.2" x2="144.5" y2="-61.2"/>
					<line class="st1" x1="72" y1="-10.8" x2="144.5" y2="-10.8"/>
					<line class="st1" x1="72" y1="-25.2" x2="144.5" y2="-25.2"/>
					<line class="st1" x1="72" y1="-39.6" x2="144.5" y2="-39.6"/>
					<line class="st1" x1="72" y1="-54" x2="144.5" y2="-54"/>
					<line class="st1" x1="72" y1="-68.4" x2="144.5" y2="-68.4"/>
				</g>
				<g>
					<line class="st1" x1="0" y1="-3.6" x2="72.5" y2="-3.6"/>
					<line class="st1" x1="0" y1="-18" x2="72.5" y2="-18"/>
					<line class="st1" x1="0" y1="-32.4" x2="72.5" y2="-32.4"/>
					<line class="st1" x1="0" y1="-46.8" x2="72.5" y2="-46.8"/>
					<line class="st1" x1="0" y1="-61.2" x2="72.5" y2="-61.2"/>
					<line class="st1" x1="0" y1="-10.8" x2="72.5" y2="-10.8"/>
					<line class="st1" x1="0" y1="-25.2" x2="72.5" y2="-25.2"/>
					<line class="st1" x1="0" y1="-39.6" x2="72.5" y2="-39.6"/>
					<line class="st1" x1="0" y1="-54" x2="72.5" y2="-54"/>
					<line class="st1" x1="0" y1="-68.4" x2="72.5" y2="-68.4"/>
				</g>
			</g>
		</g>
	</g>
</pattern>
<pattern  x="207" y="668.9" width="72" height="72" patternUnits="userSpaceOnUse" id="XMLID_120_" viewBox="72.3 -72 72 72" style="overflow:visible;">
	<g>
		<polygon class="st0" points="72.3,0 144.3,0 144.3,-72 72.3,-72 		"/>
		<g>
			<polygon class="st0" points="72.3,-72 144.3,-72 144.3,0 72.3,0 			"/>
			<g>
				<polygon class="st0" points="72.3,-72 144.3,-72 144.3,0 72.3,0 				"/>
				<g>
					<line class="st1" x1="144" y1="-3.6" x2="216.5" y2="-3.6"/>
					<line class="st1" x1="144" y1="-18" x2="216.5" y2="-18"/>
					<line class="st1" x1="144" y1="-32.4" x2="216.5" y2="-32.4"/>
					<line class="st1" x1="144" y1="-46.8" x2="216.5" y2="-46.8"/>
					<line class="st1" x1="144" y1="-61.2" x2="216.5" y2="-61.2"/>
					<line class="st1" x1="144" y1="-10.8" x2="216.5" y2="-10.8"/>
					<line class="st1" x1="144" y1="-25.2" x2="216.5" y2="-25.2"/>
					<line class="st1" x1="144" y1="-39.6" x2="216.5" y2="-39.6"/>
					<line class="st1" x1="144" y1="-54" x2="216.5" y2="-54"/>
					<line class="st1" x1="144" y1="-68.4" x2="216.5" y2="-68.4"/>
				</g>
				<g>
					<line class="st1" x1="72" y1="-3.6" x2="144.5" y2="-3.6"/>
					<line class="st1" x1="72" y1="-18" x2="144.5" y2="-18"/>
					<line class="st1" x1="72" y1="-32.4" x2="144.5" y2="-32.4"/>
					<line class="st1" x1="72" y1="-46.8" x2="144.5" y2="-46.8"/>
					<line class="st1" x1="72" y1="-61.2" x2="144.5" y2="-61.2"/>
					<line class="st1" x1="72" y1="-10.8" x2="144.5" y2="-10.8"/>
					<line class="st1" x1="72" y1="-25.2" x2="144.5" y2="-25.2"/>
					<line class="st1" x1="72" y1="-39.6" x2="144.5" y2="-39.6"/>
					<line class="st1" x1="72" y1="-54" x2="144.5" y2="-54"/>
					<line class="st1" x1="72" y1="-68.4" x2="144.5" y2="-68.4"/>
				</g>
				<g>
					<line class="st1" x1="0" y1="-3.6" x2="72.5" y2="-3.6"/>
					<line class="st1" x1="0" y1="-18" x2="72.5" y2="-18"/>
					<line class="st1" x1="0" y1="-32.4" x2="72.5" y2="-32.4"/>
					<line class="st1" x1="0" y1="-46.8" x2="72.5" y2="-46.8"/>
					<line class="st1" x1="0" y1="-61.2" x2="72.5" y2="-61.2"/>
					<line class="st1" x1="0" y1="-10.8" x2="72.5" y2="-10.8"/>
					<line class="st1" x1="0" y1="-25.2" x2="72.5" y2="-25.2"/>
					<line class="st1" x1="0" y1="-39.6" x2="72.5" y2="-39.6"/>
					<line class="st1" x1="0" y1="-54" x2="72.5" y2="-54"/>
					<line class="st1" x1="0" y1="-68.4" x2="72.5" y2="-68.4"/>
				</g>
			</g>
		</g>
	</g>
</pattern>
<pattern  x="207" y="668.9" width="72" height="72" patternUnits="userSpaceOnUse" id="XMLID_121_" viewBox="72.3 -72 72 72" style="overflow:visible;">
	<g>
		<polygon class="st0" points="72.3,0 144.3,0 144.3,-72 72.3,-72 		"/>
		<g>
			<polygon class="st0" points="72.3,-72 144.3,-72 144.3,0 72.3,0 			"/>
			<g>
				<polygon class="st0" points="72.3,-72 144.3,-72 144.3,0 72.3,0 				"/>
				<g>
					<line class="st1" x1="144" y1="-3.6" x2="216.5" y2="-3.6"/>
					<line class="st1" x1="144" y1="-18" x2="216.5" y2="-18"/>
					<line class="st1" x1="144" y1="-32.4" x2="216.5" y2="-32.4"/>
					<line class="st1" x1="144" y1="-46.8" x2="216.5" y2="-46.8"/>
					<line class="st1" x1="144" y1="-61.2" x2="216.5" y2="-61.2"/>
					<line class="st1" x1="144" y1="-10.8" x2="216.5" y2="-10.8"/>
					<line class="st1" x1="144" y1="-25.2" x2="216.5" y2="-25.2"/>
					<line class="st1" x1="144" y1="-39.6" x2="216.5" y2="-39.6"/>
					<line class="st1" x1="144" y1="-54" x2="216.5" y2="-54"/>
					<line class="st1" x1="144" y1="-68.4" x2="216.5" y2="-68.4"/>
				</g>
				<g>
					<line class="st1" x1="72" y1="-3.6" x2="144.5" y2="-3.6"/>
					<line class="st1" x1="72" y1="-18" x2="144.5" y2="-18"/>
					<line class="st1" x1="72" y1="-32.4" x2="144.5" y2="-32.4"/>
					<line class="st1" x1="72" y1="-46.8" x2="144.5" y2="-46.8"/>
					<line class="st1" x1="72" y1="-61.2" x2="144.5" y2="-61.2"/>
					<line class="st1" x1="72" y1="-10.8" x2="144.5" y2="-10.8"/>
					<line class="st1" x1="72" y1="-25.2" x2="144.5" y2="-25.2"/>
					<line class="st1" x1="72" y1="-39.6" x2="144.5" y2="-39.6"/>
					<line class="st1" x1="72" y1="-54" x2="144.5" y2="-54"/>
					<line class="st1" x1="72" y1="-68.4" x2="144.5" y2="-68.4"/>
				</g>
				<g>
					<line class="st1" x1="0" y1="-3.6" x2="72.5" y2="-3.6"/>
					<line class="st1" x1="0" y1="-18" x2="72.5" y2="-18"/>
					<line class="st1" x1="0" y1="-32.4" x2="72.5" y2="-32.4"/>
					<line class="st1" x1="0" y1="-46.8" x2="72.5" y2="-46.8"/>
					<line class="st1" x1="0" y1="-61.2" x2="72.5" y2="-61.2"/>
					<line class="st1" x1="0" y1="-10.8" x2="72.5" y2="-10.8"/>
					<line class="st1" x1="0" y1="-25.2" x2="72.5" y2="-25.2"/>
					<line class="st1" x1="0" y1="-39.6" x2="72.5" y2="-39.6"/>
					<line class="st1" x1="0" y1="-54" x2="72.5" y2="-54"/>
					<line class="st1" x1="0" y1="-68.4" x2="72.5" y2="-68.4"/>
				</g>
			</g>
		</g>
	</g>
</pattern>
<pattern  x="207" y="668.9" width="72" height="72" patternUnits="userSpaceOnUse" id="XMLID_122_" viewBox="72.3 -72 72 72" style="overflow:visible;">
	<g>
		<polygon class="st0" points="72.3,0 144.3,0 144.3,-72 72.3,-72 		"/>
		<g>
			<polygon class="st0" points="72.3,-72 144.3,-72 144.3,0 72.3,0 			"/>
			<g>
				<polygon class="st0" points="72.3,-72 144.3,-72 144.3,0 72.3,0 				"/>
				<g>
					<line class="st1" x1="144" y1="-3.6" x2="216.5" y2="-3.6"/>
					<line class="st1" x1="144" y1="-18" x2="216.5" y2="-18"/>
					<line class="st1" x1="144" y1="-32.4" x2="216.5" y2="-32.4"/>
					<line class="st1" x1="144" y1="-46.8" x2="216.5" y2="-46.8"/>
					<line class="st1" x1="144" y1="-61.2" x2="216.5" y2="-61.2"/>
					<line class="st1" x1="144" y1="-10.8" x2="216.5" y2="-10.8"/>
					<line class="st1" x1="144" y1="-25.2" x2="216.5" y2="-25.2"/>
					<line class="st1" x1="144" y1="-39.6" x2="216.5" y2="-39.6"/>
					<line class="st1" x1="144" y1="-54" x2="216.5" y2="-54"/>
					<line class="st1" x1="144" y1="-68.4" x2="216.5" y2="-68.4"/>
				</g>
				<g>
					<line class="st1" x1="72" y1="-3.6" x2="144.5" y2="-3.6"/>
					<line class="st1" x1="72" y1="-18" x2="144.5" y2="-18"/>
					<line class="st1" x1="72" y1="-32.4" x2="144.5" y2="-32.4"/>
					<line class="st1" x1="72" y1="-46.8" x2="144.5" y2="-46.8"/>
					<line class="st1" x1="72" y1="-61.2" x2="144.5" y2="-61.2"/>
					<line class="st1" x1="72" y1="-10.8" x2="144.5" y2="-10.8"/>
					<line class="st1" x1="72" y1="-25.2" x2="144.5" y2="-25.2"/>
					<line class="st1" x1="72" y1="-39.6" x2="144.5" y2="-39.6"/>
					<line class="st1" x1="72" y1="-54" x2="144.5" y2="-54"/>
					<line class="st1" x1="72" y1="-68.4" x2="144.5" y2="-68.4"/>
				</g>
				<g>
					<line class="st1" x1="0" y1="-3.6" x2="72.5" y2="-3.6"/>
					<line class="st1" x1="0" y1="-18" x2="72.5" y2="-18"/>
					<line class="st1" x1="0" y1="-32.4" x2="72.5" y2="-32.4"/>
					<line class="st1" x1="0" y1="-46.8" x2="72.5" y2="-46.8"/>
					<line class="st1" x1="0" y1="-61.2" x2="72.5" y2="-61.2"/>
					<line class="st1" x1="0" y1="-10.8" x2="72.5" y2="-10.8"/>
					<line class="st1" x1="0" y1="-25.2" x2="72.5" y2="-25.2"/>
					<line class="st1" x1="0" y1="-39.6" x2="72.5" y2="-39.6"/>
					<line class="st1" x1="0" y1="-54" x2="72.5" y2="-54"/>
					<line class="st1" x1="0" y1="-68.4" x2="72.5" y2="-68.4"/>
				</g>
			</g>
		</g>
	</g>
</pattern>
<pattern  x="207" y="668.9" width="72" height="72" patternUnits="userSpaceOnUse" id="XMLID_123_" viewBox="72.3 -72 72 72" style="overflow:visible;">
	<g>
		<polygon class="st0" points="72.3,0 144.3,0 144.3,-72 72.3,-72 		"/>
		<g>
			<polygon class="st0" points="72.3,-72 144.3,-72 144.3,0 72.3,0 			"/>
			<g>
				<polygon class="st0" points="72.3,-72 144.3,-72 144.3,0 72.3,0 				"/>
				<g>
					<line class="st1" x1="144" y1="-3.6" x2="216.5" y2="-3.6"/>
					<line class="st1" x1="144" y1="-18" x2="216.5" y2="-18"/>
					<line class="st1" x1="144" y1="-32.4" x2="216.5" y2="-32.4"/>
					<line class="st1" x1="144" y1="-46.8" x2="216.5" y2="-46.8"/>
					<line class="st1" x1="144" y1="-61.2" x2="216.5" y2="-61.2"/>
					<line class="st1" x1="144" y1="-10.8" x2="216.5" y2="-10.8"/>
					<line class="st1" x1="144" y1="-25.2" x2="216.5" y2="-25.2"/>
					<line class="st1" x1="144" y1="-39.6" x2="216.5" y2="-39.6"/>
					<line class="st1" x1="144" y1="-54" x2="216.5" y2="-54"/>
					<line class="st1" x1="144" y1="-68.4" x2="216.5" y2="-68.4"/>
				</g>
				<g>
					<line class="st1" x1="72" y1="-3.6" x2="144.5" y2="-3.6"/>
					<line class="st1" x1="72" y1="-18" x2="144.5" y2="-18"/>
					<line class="st1" x1="72" y1="-32.4" x2="144.5" y2="-32.4"/>
					<line class="st1" x1="72" y1="-46.8" x2="144.5" y2="-46.8"/>
					<line class="st1" x1="72" y1="-61.2" x2="144.5" y2="-61.2"/>
					<line class="st1" x1="72" y1="-10.8" x2="144.5" y2="-10.8"/>
					<line class="st1" x1="72" y1="-25.2" x2="144.5" y2="-25.2"/>
					<line class="st1" x1="72" y1="-39.6" x2="144.5" y2="-39.6"/>
					<line class="st1" x1="72" y1="-54" x2="144.5" y2="-54"/>
					<line class="st1" x1="72" y1="-68.4" x2="144.5" y2="-68.4"/>
				</g>
				<g>
					<line class="st1" x1="0" y1="-3.6" x2="72.5" y2="-3.6"/>
					<line class="st1" x1="0" y1="-18" x2="72.5" y2="-18"/>
					<line class="st1" x1="0" y1="-32.4" x2="72.5" y2="-32.4"/>
					<line class="st1" x1="0" y1="-46.8" x2="72.5" y2="-46.8"/>
					<line class="st1" x1="0" y1="-61.2" x2="72.5" y2="-61.2"/>
					<line class="st1" x1="0" y1="-10.8" x2="72.5" y2="-10.8"/>
					<line class="st1" x1="0" y1="-25.2" x2="72.5" y2="-25.2"/>
					<line class="st1" x1="0" y1="-39.6" x2="72.5" y2="-39.6"/>
					<line class="st1" x1="0" y1="-54" x2="72.5" y2="-54"/>
					<line class="st1" x1="0" y1="-68.4" x2="72.5" y2="-68.4"/>
				</g>
			</g>
		</g>
	</g>
</pattern>
<pattern  x="207" y="668.9" width="72" height="72" patternUnits="userSpaceOnUse" id="XMLID_124_" viewBox="72.3 -72 72 72" style="overflow:visible;">
	<g>
		<polygon class="st0" points="72.3,0 144.3,0 144.3,-72 72.3,-72 		"/>
		<g>
			<polygon class="st0" points="72.3,-72 144.3,-72 144.3,0 72.3,0 			"/>
			<g>
				<polygon class="st0" points="72.3,-72 144.3,-72 144.3,0 72.3,0 				"/>
				<g>
					<line class="st1" x1="144" y1="-3.6" x2="216.5" y2="-3.6"/>
					<line class="st1" x1="144" y1="-18" x2="216.5" y2="-18"/>
					<line class="st1" x1="144" y1="-32.4" x2="216.5" y2="-32.4"/>
					<line class="st1" x1="144" y1="-46.8" x2="216.5" y2="-46.8"/>
					<line class="st1" x1="144" y1="-61.2" x2="216.5" y2="-61.2"/>
					<line class="st1" x1="144" y1="-10.8" x2="216.5" y2="-10.8"/>
					<line class="st1" x1="144" y1="-25.2" x2="216.5" y2="-25.2"/>
					<line class="st1" x1="144" y1="-39.6" x2="216.5" y2="-39.6"/>
					<line class="st1" x1="144" y1="-54" x2="216.5" y2="-54"/>
					<line class="st1" x1="144" y1="-68.4" x2="216.5" y2="-68.4"/>
				</g>
				<g>
					<line class="st1" x1="72" y1="-3.6" x2="144.5" y2="-3.6"/>
					<line class="st1" x1="72" y1="-18" x2="144.5" y2="-18"/>
					<line class="st1" x1="72" y1="-32.4" x2="144.5" y2="-32.4"/>
					<line class="st1" x1="72" y1="-46.8" x2="144.5" y2="-46.8"/>
					<line class="st1" x1="72" y1="-61.2" x2="144.5" y2="-61.2"/>
					<line class="st1" x1="72" y1="-10.8" x2="144.5" y2="-10.8"/>
					<line class="st1" x1="72" y1="-25.2" x2="144.5" y2="-25.2"/>
					<line class="st1" x1="72" y1="-39.6" x2="144.5" y2="-39.6"/>
					<line class="st1" x1="72" y1="-54" x2="144.5" y2="-54"/>
					<line class="st1" x1="72" y1="-68.4" x2="144.5" y2="-68.4"/>
				</g>
				<g>
					<line class="st1" x1="0" y1="-3.6" x2="72.5" y2="-3.6"/>
					<line class="st1" x1="0" y1="-18" x2="72.5" y2="-18"/>
					<line class="st1" x1="0" y1="-32.4" x2="72.5" y2="-32.4"/>
					<line class="st1" x1="0" y1="-46.8" x2="72.5" y2="-46.8"/>
					<line class="st1" x1="0" y1="-61.2" x2="72.5" y2="-61.2"/>
					<line class="st1" x1="0" y1="-10.8" x2="72.5" y2="-10.8"/>
					<line class="st1" x1="0" y1="-25.2" x2="72.5" y2="-25.2"/>
					<line class="st1" x1="0" y1="-39.6" x2="72.5" y2="-39.6"/>
					<line class="st1" x1="0" y1="-54" x2="72.5" y2="-54"/>
					<line class="st1" x1="0" y1="-68.4" x2="72.5" y2="-68.4"/>
				</g>
			</g>
		</g>
	</g>
</pattern>
<pattern  x="207" y="668.9" width="72" height="72" patternUnits="userSpaceOnUse" id="XMLID_125_" viewBox="72.3 -72 72 72" style="overflow:visible;">
	<g>
		<polygon class="st0" points="72.3,0 144.3,0 144.3,-72 72.3,-72 		"/>
		<g>
			<polygon class="st0" points="72.3,-72 144.3,-72 144.3,0 72.3,0 			"/>
			<g>
				<polygon class="st0" points="72.3,-72 144.3,-72 144.3,0 72.3,0 				"/>
				<g>
					<line class="st1" x1="144" y1="-3.6" x2="216.5" y2="-3.6"/>
					<line class="st1" x1="144" y1="-18" x2="216.5" y2="-18"/>
					<line class="st1" x1="144" y1="-32.4" x2="216.5" y2="-32.4"/>
					<line class="st1" x1="144" y1="-46.8" x2="216.5" y2="-46.8"/>
					<line class="st1" x1="144" y1="-61.2" x2="216.5" y2="-61.2"/>
					<line class="st1" x1="144" y1="-10.8" x2="216.5" y2="-10.8"/>
					<line class="st1" x1="144" y1="-25.2" x2="216.5" y2="-25.2"/>
					<line class="st1" x1="144" y1="-39.6" x2="216.5" y2="-39.6"/>
					<line class="st1" x1="144" y1="-54" x2="216.5" y2="-54"/>
					<line class="st1" x1="144" y1="-68.4" x2="216.5" y2="-68.4"/>
				</g>
				<g>
					<line class="st1" x1="72" y1="-3.6" x2="144.5" y2="-3.6"/>
					<line class="st1" x1="72" y1="-18" x2="144.5" y2="-18"/>
					<line class="st1" x1="72" y1="-32.4" x2="144.5" y2="-32.4"/>
					<line class="st1" x1="72" y1="-46.8" x2="144.5" y2="-46.8"/>
					<line class="st1" x1="72" y1="-61.2" x2="144.5" y2="-61.2"/>
					<line class="st1" x1="72" y1="-10.8" x2="144.5" y2="-10.8"/>
					<line class="st1" x1="72" y1="-25.2" x2="144.5" y2="-25.2"/>
					<line class="st1" x1="72" y1="-39.6" x2="144.5" y2="-39.6"/>
					<line class="st1" x1="72" y1="-54" x2="144.5" y2="-54"/>
					<line class="st1" x1="72" y1="-68.4" x2="144.5" y2="-68.4"/>
				</g>
				<g>
					<line class="st1" x1="0" y1="-3.6" x2="72.5" y2="-3.6"/>
					<line class="st1" x1="0" y1="-18" x2="72.5" y2="-18"/>
					<line class="st1" x1="0" y1="-32.4" x2="72.5" y2="-32.4"/>
					<line class="st1" x1="0" y1="-46.8" x2="72.5" y2="-46.8"/>
					<line class="st1" x1="0" y1="-61.2" x2="72.5" y2="-61.2"/>
					<line class="st1" x1="0" y1="-10.8" x2="72.5" y2="-10.8"/>
					<line class="st1" x1="0" y1="-25.2" x2="72.5" y2="-25.2"/>
					<line class="st1" x1="0" y1="-39.6" x2="72.5" y2="-39.6"/>
					<line class="st1" x1="0" y1="-54" x2="72.5" y2="-54"/>
					<line class="st1" x1="0" y1="-68.4" x2="72.5" y2="-68.4"/>
				</g>
			</g>
		</g>
	</g>
</pattern>
<pattern  x="207" y="668.9" width="72" height="72" patternUnits="userSpaceOnUse" id="XMLID_126_" viewBox="72.3 -72 72 72" style="overflow:visible;">
	<g>
		<polygon class="st0" points="72.3,0 144.3,0 144.3,-72 72.3,-72 		"/>
		<g>
			<polygon class="st0" points="72.3,-72 144.3,-72 144.3,0 72.3,0 			"/>
			<g>
				<polygon class="st0" points="72.3,-72 144.3,-72 144.3,0 72.3,0 				"/>
				<g>
					<line class="st1" x1="144" y1="-3.6" x2="216.5" y2="-3.6"/>
					<line class="st1" x1="144" y1="-18" x2="216.5" y2="-18"/>
					<line class="st1" x1="144" y1="-32.4" x2="216.5" y2="-32.4"/>
					<line class="st1" x1="144" y1="-46.8" x2="216.5" y2="-46.8"/>
					<line class="st1" x1="144" y1="-61.2" x2="216.5" y2="-61.2"/>
					<line class="st1" x1="144" y1="-10.8" x2="216.5" y2="-10.8"/>
					<line class="st1" x1="144" y1="-25.2" x2="216.5" y2="-25.2"/>
					<line class="st1" x1="144" y1="-39.6" x2="216.5" y2="-39.6"/>
					<line class="st1" x1="144" y1="-54" x2="216.5" y2="-54"/>
					<line class="st1" x1="144" y1="-68.4" x2="216.5" y2="-68.4"/>
				</g>
				<g>
					<line class="st1" x1="72" y1="-3.6" x2="144.5" y2="-3.6"/>
					<line class="st1" x1="72" y1="-18" x2="144.5" y2="-18"/>
					<line class="st1" x1="72" y1="-32.4" x2="144.5" y2="-32.4"/>
					<line class="st1" x1="72" y1="-46.8" x2="144.5" y2="-46.8"/>
					<line class="st1" x1="72" y1="-61.2" x2="144.5" y2="-61.2"/>
					<line class="st1" x1="72" y1="-10.8" x2="144.5" y2="-10.8"/>
					<line class="st1" x1="72" y1="-25.2" x2="144.5" y2="-25.2"/>
					<line class="st1" x1="72" y1="-39.6" x2="144.5" y2="-39.6"/>
					<line class="st1" x1="72" y1="-54" x2="144.5" y2="-54"/>
					<line class="st1" x1="72" y1="-68.4" x2="144.5" y2="-68.4"/>
				</g>
				<g>
					<line class="st1" x1="0" y1="-3.6" x2="72.5" y2="-3.6"/>
					<line class="st1" x1="0" y1="-18" x2="72.5" y2="-18"/>
					<line class="st1" x1="0" y1="-32.4" x2="72.5" y2="-32.4"/>
					<line class="st1" x1="0" y1="-46.8" x2="72.5" y2="-46.8"/>
					<line class="st1" x1="0" y1="-61.2" x2="72.5" y2="-61.2"/>
					<line class="st1" x1="0" y1="-10.8" x2="72.5" y2="-10.8"/>
					<line class="st1" x1="0" y1="-25.2" x2="72.5" y2="-25.2"/>
					<line class="st1" x1="0" y1="-39.6" x2="72.5" y2="-39.6"/>
					<line class="st1" x1="0" y1="-54" x2="72.5" y2="-54"/>
					<line class="st1" x1="0" y1="-68.4" x2="72.5" y2="-68.4"/>
				</g>
			</g>
		</g>
	</g>
</pattern>
<pattern  x="207" y="668.9" width="72" height="72" patternUnits="userSpaceOnUse" id="XMLID_127_" viewBox="72.3 -72 72 72" style="overflow:visible;">
	<g>
		<polygon class="st0" points="72.3,0 144.3,0 144.3,-72 72.3,-72 		"/>
		<g>
			<polygon class="st0" points="72.3,-72 144.3,-72 144.3,0 72.3,0 			"/>
			<g>
				<polygon class="st0" points="72.3,-72 144.3,-72 144.3,0 72.3,0 				"/>
				<g>
					<line class="st1" x1="144" y1="-3.6" x2="216.5" y2="-3.6"/>
					<line class="st1" x1="144" y1="-18" x2="216.5" y2="-18"/>
					<line class="st1" x1="144" y1="-32.4" x2="216.5" y2="-32.4"/>
					<line class="st1" x1="144" y1="-46.8" x2="216.5" y2="-46.8"/>
					<line class="st1" x1="144" y1="-61.2" x2="216.5" y2="-61.2"/>
					<line class="st1" x1="144" y1="-10.8" x2="216.5" y2="-10.8"/>
					<line class="st1" x1="144" y1="-25.2" x2="216.5" y2="-25.2"/>
					<line class="st1" x1="144" y1="-39.6" x2="216.5" y2="-39.6"/>
					<line class="st1" x1="144" y1="-54" x2="216.5" y2="-54"/>
					<line class="st1" x1="144" y1="-68.4" x2="216.5" y2="-68.4"/>
				</g>
				<g>
					<line class="st1" x1="72" y1="-3.6" x2="144.5" y2="-3.6"/>
					<line class="st1" x1="72" y1="-18" x2="144.5" y2="-18"/>
					<line class="st1" x1="72" y1="-32.4" x2="144.5" y2="-32.4"/>
					<line class="st1" x1="72" y1="-46.8" x2="144.5" y2="-46.8"/>
					<line class="st1" x1="72" y1="-61.2" x2="144.5" y2="-61.2"/>
					<line class="st1" x1="72" y1="-10.8" x2="144.5" y2="-10.8"/>
					<line class="st1" x1="72" y1="-25.2" x2="144.5" y2="-25.2"/>
					<line class="st1" x1="72" y1="-39.6" x2="144.5" y2="-39.6"/>
					<line class="st1" x1="72" y1="-54" x2="144.5" y2="-54"/>
					<line class="st1" x1="72" y1="-68.4" x2="144.5" y2="-68.4"/>
				</g>
				<g>
					<line class="st1" x1="0" y1="-3.6" x2="72.5" y2="-3.6"/>
					<line class="st1" x1="0" y1="-18" x2="72.5" y2="-18"/>
					<line class="st1" x1="0" y1="-32.4" x2="72.5" y2="-32.4"/>
					<line class="st1" x1="0" y1="-46.8" x2="72.5" y2="-46.8"/>
					<line class="st1" x1="0" y1="-61.2" x2="72.5" y2="-61.2"/>
					<line class="st1" x1="0" y1="-10.8" x2="72.5" y2="-10.8"/>
					<line class="st1" x1="0" y1="-25.2" x2="72.5" y2="-25.2"/>
					<line class="st1" x1="0" y1="-39.6" x2="72.5" y2="-39.6"/>
					<line class="st1" x1="0" y1="-54" x2="72.5" y2="-54"/>
					<line class="st1" x1="0" y1="-68.4" x2="72.5" y2="-68.4"/>
				</g>
			</g>
		</g>
	</g>
</pattern>
<g id="圖層_2">
</g>
<g id="圖層_10">
	<polygon class="st2" points="344.6,555.5 755.3,483.8 761.7,583.4 355.6,658.4 	"/>
	<polygon class="st3" points="362,529.6 757.3,475.8 764.8,575.2 355.6,658.4 	"/>
	<g>
		<g>
			<path class="st4" d="M593.3,555.9l7.4-0.8l5.7,14.6l2.1,6.7h0.2c0-3.3-0.1-7.9,0.4-11.7l1.2-10.6l6.6-0.7l-3.4,31.7l-7.1,1.1
				l-5.8-14.6l-2.1-6.7h-0.2c-0.1,3.6,0,8-0.4,11.9l-1.3,10.8l-6.9,1L593.3,555.9z"/>
			<path class="st4" d="M619.5,572.3c0.9-8,6.4-13.2,11.8-13.9c5.3-0.6,9.6,3.4,8.8,11.1c-0.8,7.8-6.2,13-11.5,13.8
				C623.2,584.2,618.6,580.3,619.5,572.3z M633.5,570.5c0.4-3.9-0.4-6.3-2.8-6c-2.5,0.3-3.9,3-4.3,7s0.4,6.3,2.9,6
				C631.7,577.1,633.1,574.4,633.5,570.5z"/>
			<path class="st4" d="M642.8,576.8c0.3-2.5,2-4.7,4.2-5c2.1-0.3,3.5,1.5,3.3,4c-0.3,2.5-2,4.8-4.2,5.1
				C643.9,581.2,642.5,579.4,642.8,576.8z"/>
			<path class="st4" d="M655.3,564c1.1-10.3,5.2-15.7,10.5-16.3c5.2-0.5,8.2,4.1,7.2,14c-1,10.1-5.1,15.9-10.3,16.7
				C657.3,579.2,654.2,574.3,655.3,564z M667.4,562.4c0.8-8-0.5-9.5-2.2-9.3c-1.8,0.2-3.4,2-4.2,10.1c-0.8,8.2,0.4,9.9,2.2,9.6
				C665,572.6,666.6,570.5,667.4,562.4z"/>
			<path class="st4" d="M675.9,570.3l5.1-0.7l1.6-16.4l-4.4,0.5l0.4-4.3c2.6-0.9,4.4-1.8,6.1-3.2l4.1-0.4l-2.2,23l4.2-0.6l-0.5,5.5
				l-14.9,2.2L675.9,570.3z"/>
		</g>
		<g>
			<path class="st5" d="M594.8,554.7l7.4-0.8l5.7,14.6l2.1,6.7h0.2c0-3.3-0.1-7.9,0.4-11.7l1.2-10.6l6.6-0.7l-3.4,31.7l-7.1,1.1
				l-5.6-14.6l-2.1-6.7H600c-0.1,3.6,0,8-0.4,11.9l-1.2,10.8l-6.9,1L594.8,554.7z"/>
			<path class="st5" d="M621,571.2c0.9-8,6.4-13.2,11.8-13.9c5.3-0.6,9.6,3.4,8.8,11.1c-0.8,7.8-6.2,13-11.5,13.8
				C624.7,583.1,620.1,579.2,621,571.2z M635,569.3c0.4-3.9-0.4-6.3-2.8-6c-2.5,0.3-3.9,3-4.3,7s0.4,6.3,2.9,6
				C633.2,575.9,634.6,573.3,635,569.3z"/>
			<path class="st5" d="M644.3,575.7c0.3-2.5,2-4.7,4.2-5c2.1-0.3,3.5,1.5,3.3,4c-0.3,2.5-2,4.8-4.2,5.1
				C645.4,580,644,578.2,644.3,575.7z"/>
			<path class="st5" d="M656.7,562.8c1.1-10.3,5.2-15.7,10.5-16.3c5.2-0.5,8.2,4.1,7.2,14c-1,10.1-5.1,15.9-10.3,16.7
				C658.8,578,655.7,573.1,656.7,562.8z M668.9,561.3c0.8-8-0.5-9.5-2.2-9.3c-1.8,0.2-3.4,2-4.2,10.1c-0.8,8.2,0.4,9.9,2.2,9.6
				C666.5,571.5,668.1,569.4,668.9,561.3z"/>
			<path class="st5" d="M677.4,569.1l5.1-0.7l1.6-16.4l-4.4,0.5l0.4-4.3c2.6-0.9,4.4-1.8,6.1-3.2l4.1-0.4l-2.2,23l4.2-0.6l-0.5,5.5
				l-14.9,2.2L677.4,569.1z"/>
		</g>
	</g>
	<g>
		<g>
			<path class="st6" d="M980.3,541.4l1.7-1.7c0.1,0.1-0.4,10.2-0.3,10.3c0.2,0.2,12.5-12.7,12.6-12.6c0.1,0.1-12.4,21.9-12.3,22.1
				c0.3,0.3,24.1-24.8,24.4-24.4c0.3,0.3-26.3,35.2-25.9,35.6c0.3,0.3,37.7-38.4,38.1-38.1c0.4,0.4-36.5,45.7-36.2,45.9
				c0.6,0.6,45.9-46.8,46.4-46.4c0.6,0.6-48.4,56.9-47.7,57.5c0.4,0.4,58.9-60.4,59.7-59.7c0.9,0.9-58.1,66.6-57.5,67.2
				c1,1,68.5-70.6,69.5-69.5c0.4,0.4-71.3,80.4-70.9,80.8c1.2,1.2,80.1-81,80.5-80.5c0.9,0.9-80.1,87.5-78.9,88.7
				c1,1,83.3-85.6,84.5-84.5c0.9,0.9-81.6,89.4-80.5,90.5c0.9,0.9,84.5-87,85.8-85.8c0.9,0.9-82.4,91.2-81.9,91.7
				c1.2,1.2,85.1-86,85.6-85.6c0.7,0.7-81.9,90-81.1,90.8c0.9,0.9,86.4-87.9,87.2-87.2c1.2,1.2-83.8,91.3-82.5,92.5
				c1.3,1.3,88.7-89.6,89.2-89.2c0.7,0.7-87.6,94.8-86.3,96.1c1.2,1.2,89.3-90.5,89.9-89.9c1.1,1.1-85.9,94.5-85.3,95.1
				s88.7-91.3,90-90c0.7,0.7-86,94.2-85,95.1c1.2,1.2,84.8-87.3,86.1-86.1c0.5,0.5-77.6,85.8-76.7,86.8c0.4,0.4,75.3-76.7,76-76
				c0.8,0.8-61.9,70.7-61.4,71.2c0.3,0.3,62.7-63.4,63.1-63.1c0.6,0.6-51.5,60.6-51.1,61.1c0.6,0.6,49-49.7,49.3-49.3
				c0.3,0.3-37.8,46.5-37.3,47c0.3,0.3,36.3-37.4,36.8-36.8c0.2,0.2-24.2,33.9-23.9,34.1c0.2,0.2,23.8-24.5,24.1-24.1
				c0.1,0.1-11.4,21.3-11.3,21.4c0.2,0.2,10.5-10.8,10.7-10.7"/>
		</g>
	</g>
	<path class="st0" d="M982,245.7c-25.9,0-50.4,6.2-72,17.1c-22-17.8-50-28.5-80.5-28.5c-45,0-84.6,23.3-107.4,58.5
		c-11.2-4.8-23.5-7.4-36.4-7.4c-39.3,0-72.9,24.5-86.4,59c-10.8-5.2-22.9-8-35.7-8c-46,0-83.2,37.3-83.2,83.2s37.2,83,83.1,83
		c32.3,0,60.3-18.4,74.1-45.3c14,8.5,30.5,13.4,48,13.4c4.6,0,9.1-0.3,13.5-1c4.2,54.4,49.7,97.3,105.2,97.3
		c31.2,0,59.2-13.5,78.5-35c27.3,21.5,61.7,34.3,99.1,34.3c88.5,0,160.3-71.8,160.3-160.3S1070.5,245.7,982,245.7z"/>
	<circle class="st4" cx="387.5" cy="406.8" r="107.9"/>
	<g>
		<polygon class="st5" points="297.1,505.6 268,504 265.7,484.6 296,496.5 		"/>
		<polygon class="st5" points="312.2,544 292.9,561.4 277.2,546.4 304.8,537 		"/>
		<polygon class="st5" points="284.3,532.7 222.9,540 216.8,520.7 281.5,523.7 		"/>
	</g>
</g>
<g id="圖層_9">
</g>
<g id="圖層_8">
	<path class="st7" d="M1106.8,617.7c-1.6-9.6-4.5-18.8-8.9-27.5c-1.3-2.5-5.5-1.1-4.2,1.5c4.2,8.4,7.2,17.1,8.7,26.4
		C1102.8,620.8,1107.3,620.5,1106.8,617.7z"/>
	<g>
		<g>
			<path class="st7" d="M435.9,597.9l-0.9,6.3l-23.4,3.3l-1.7,12.2l-9.1,1.4l1.7-12.3l-24.6,3.5l1-6.7l24.5-3.3l0.2-1.5l-18.4,2.4
				l0.8-5.8l18.4-2.3l0.2-1.5l-21.6,2.7l0.9-6.1l11-1.3c-0.4-1-1-2.2-1.4-3.1l4.6-1.3l-16.3,1.9l0.9-6.4l8.1-0.9
				c-0.6-1.9-1.7-4.1-2.6-5.9l8.5-3.2c1.4,2.1,3,5.1,3.5,7.1l-3,1.2l4.6-0.5l1.2-8.6l8.5-0.8l-1.2,8.5l3-0.3l1.2-8.5l8.5-0.8
				l-1.2,8.4l4-0.4L424,575c1.6-2.3,3.4-5.5,4.4-7.9l8.9,0.9c-1.9,2.4-3.6,4.7-5.2,6.6l6.7-0.7l-0.8,6l-16.1,1.8l6.5,0.7
				c-1.2,1.1-2.4,2.1-3.5,2.9l10.2-1.2l-0.8,5.8l-20.7,2.6l-0.2,1.5l18-2.3l-0.8,5.5l-18,2.4l-0.2,1.5L435.9,597.9z M401.4,612.7
				c-4.8,3.9-12.6,8-19.6,10.4c-1-1.5-3.2-3.8-4.8-5c6.7-1.7,14.2-4.4,18.2-6.9L401.4,612.7z M403.2,583.8c0.7,1.1,1.3,2.2,1.6,3.1
				l-3.7,1.1l16.9-2l-2.3-0.3c1.1-1.1,2.4-2.6,3.3-3.7L403.2,583.8z M419.7,607.2c4.3,1,10.8,2.7,14.3,4l-6.9,5
				c-3.1-1.2-9.5-3.2-14-4.4L419.7,607.2z"/>
			<path class="st7" d="M480.8,585.3c3.3,2.1,7.7,3.5,12.6,4c-1.9,1.7-4.5,4.8-5.9,6.9c-2.8-0.5-5.3-1.3-7.6-2.5l-2,15.3l-8.3,1.3
				l2.4-18.2l4.3-0.6c-2-1.4-3.7-3.1-5-5l-5.4,0.7c-2,2.3-4.2,4.4-6.7,6.5l4.7-0.6l-0.5,3.8c-0.7,5-3.3,12-15.4,17.4
				c-0.9-1.7-3.3-4.2-4.9-5.4c9.7-3.9,11.5-8.2,11.9-11.2l0.1-0.9c-3.1,2.2-6.5,4-9.9,5.6c-1-1.7-3.2-4.2-4.8-5.5
				c5.6-2.1,11-5.1,15.1-8.3l-7.7,1l3.1-23.1l40.3-4.1l-2.8,22.1L480.8,585.3z M458,574.2l8.1-0.9l0.3-2.6l-8.1,0.9L458,574.2z
				 M456.9,582.4l8.1-1l0.4-2.7l-8.1,0.9L456.9,582.4z M482.4,568.9l-7.8,0.8l-0.3,2.6l7.9-0.9L482.4,568.9z M481,579.5l0.3-2.6
				l-7.9,0.9l-0.3,2.6L481,579.5z"/>
			<path class="st7" d="M503,583c-1.3-1.4-4.2-3.5-6.4-4.9l4.6-4.6c2.2,1.2,5.2,3.1,6.6,4.4L503,583z M506.2,569.8
				c-1.2-1.7-4.1-4.1-6.3-5.8l4.7-4.3c2.2,1.5,5.2,3.7,6.6,5.2L506.2,569.8z M507.5,589.2c-2.3,5.3-4.9,11.1-7.5,16.1l-5.5-2.4
				c2.4-4.1,5.6-10.5,8.3-16.4L507.5,589.2z M542.4,569.6c-1.4,7.1-3.3,13.3-5.8,18.7c1.2,2.3,2.7,4.4,4.8,5.7
				c-1.3,1.3-3.7,4.3-4.8,6c-1.6-1.3-2.8-3-3.9-4.9c-1.7,2.5-3.6,4.7-5.9,6.7c-0.7-0.9-2.8-2.6-4-3.3c-0.3,0.8-0.6,1.3-0.9,1.8
				c-1,1.2-2,1.8-3.2,2.1c-1.1,0.4-2.7,0.7-4.5,0.9c0.1-1.7-0.2-4-0.8-5.3c1.1-0.1,1.9-0.1,2.5-0.2c0.5-0.1,0.9-0.2,1.2-0.7
				c0.3-0.4,0.5-1.3,0.9-3.1l-2.8,0.4c-1.3,3.3-3.7,7-7.8,10.2c-0.9-1.1-3-2.5-4.4-3.4c6.1-4.7,7.5-9.5,7.8-12.5l0.1-0.8l-3.7,0.5
				l0.7-5.7l6-0.8c-0.2-0.6-0.4-1.2-0.6-1.7l4.1-1.3l-8,1l2.1-17l4.7-0.5c0.5-1.5,1-3.2,1.2-4.5l7.3-0.1c-0.6,1.3-1.2,2.7-1.8,3.9
				l5.4-0.6l-1.4,11.1c2.3-4.6,4.1-10.2,5.5-15.8l5.9,0.4c-0.7,2.5-1.4,5-2.2,7.4l8.5-0.9l-0.7,6.1L542.4,569.6z M516.4,568.6
				l5.4-0.6l0.2-1.5l-5.4,0.6L516.4,568.6z M515.7,574.5l5.4-0.6l0.2-1.5l-5.4,0.6L515.7,574.5z M525,587.7c0,0-0.2,1.3-0.3,2
				c-0.6,4.1-1.2,6.8-1.8,8.6c3.1-2.5,5.6-5.6,7.6-9.1c-0.8-3.1-1.3-6.4-1.5-9.5c-0.3,0.5-0.6,0.9-1,1.4c-0.5-0.8-1.5-2.1-2.6-3.2
				l-5.7,0.7c0.3,0.8,0.7,1.6,1,2.4l5.9-0.8l-0.7,5.6l-9.2,1.2l-0.1,1.1l-0.1,0.7L525,587.7z M533.8,570.6c-0.1,0.3-0.3,0.6-0.4,0.9
				c0.1,3,0.3,6.1,0.9,9.1c1.1-3.2,1.9-6.7,2.7-10.4L533.8,570.6z"/>
			<path class="st7" d="M584.8,590.4l-17.1,2.6l-0.3,2.7l-6.1,0.9l2.8-23.7c-0.9,1.1-1.8,2.2-2.7,3.2c-0.3-0.4-0.8-1-1.3-1.6l0.1,4
				l-4.1,1.7l-1.2,9.9c-0.4,3.1-1,4.9-2.7,6.2c-1.8,1.4-3.9,1.9-7,2.4c0.1-1.8-0.4-4.6-1-6.4c1.4-0.1,3-0.3,3.5-0.5
				c0.6-0.1,0.8-0.2,0.8-0.9l1-8.2l-4,1.6l-0.6-6.3c1.6-0.5,3.4-1.1,5.4-1.8l0.9-7.4l-4.7,0.5l0.7-6.2l4.7-0.5l1-8.1l6.3-0.6
				l-0.9,8.1l4.1-0.4l-0.6,5.1c3-4,5.7-8.8,7.6-13.5l5.7,1.1c-0.9,2-1.8,4-2.8,5.9l4.4-0.5c-0.3-1.5-0.9-3.4-1.5-4.8l5.6-2.8
				c0.9,1.7,1.7,4.1,2,5.7l-2.8,1.5l7.6-0.8l-0.7,5.8l-6,0.7l-0.3,2.9l5.6-0.7l-0.6,5.6l-5.6,0.7l-0.3,3l5.6-0.7l-0.6,5.6l-5.6,0.8
				l-0.4,3.2l7-1L584.8,590.4z M558.9,573c-0.5-0.6-1-1.1-1.5-1.4c1.2-1.2,2.4-2.6,3.5-4l-3.4,0.4l-0.7,5.8L558.9,573z M575,565.6
				l-4.2,0.5l-0.3,3l4.2-0.5L575,565.6z M574,574.3l-4.2,0.5l-0.4,3l4.2-0.6L574,574.3z M568.4,586.9l4.2-0.6l0.4-3.3l-4.2,0.6
				L568.4,586.9z"/>
		</g>
	</g>
	<polyline class="st5" points="1089.3,544.6 1106.6,494.3 1158.1,487 1089.3,544.6 	"/>
	<polygon class="st3" points="1098.4,484.5 1155.2,475.2 1085.1,540.4 	"/>
	<polyline class="st3" points="1096.2,493.9 328.6,553.5 302.4,459 1207.3,402.6 1175.5,487.8 1138.6,490.6 	"/>
	<g>
		<g id="XMLID_25_">
			<g id="XMLID_56_">
				<path id="XMLID_68_" class="st4" d="M567.5,460.2c-2.4,4.7-5.1,9.5-8.4,14l-6.1,44.4l-7.4,0.5l4.5-33.4
					c-1.8,2.1-3.5,3.8-5.2,5.6c-0.5-1.8-2.1-5.8-3-7.7c6.8-6.3,14.1-16.1,18.8-25.6L567.5,460.2z M573.7,498.9
					c-3.4,5.8-8.3,12.3-12.2,16.5c-1.2-1.1-3.9-2.9-5.5-3.7c3.8-3.8,8-9.5,10.8-14.3L573.7,498.9z M584.7,494.1l-3.2,22.7l-7.8,0.5
					l3.1-22.6l-17.1,1.2l1-7l17.1-1.2l0.8-5.8l-12.9,1l3.1-22.4l34.4-2.6l-3.1,22.4l-13.7,1.1l-0.8,5.8l17-1.2l-1,7L584.7,494.1z
					 M574.1,475.4l19.2-1.5l1.2-8.8l-19.2,1.5L574.1,475.4z M592.4,495.3c3.1,4,6.4,9.3,7.7,13l-6.7,4.1c-1.3-3.7-4.5-9.3-7.2-13.5
					L592.4,495.3z"/>
				<path id="XMLID_67_" class="st4" d="M656.4,495.1c-2,3.2-3.9,6.3-5.7,8.9l10.3-0.8l-0.9,6.2l-37.1,2.7l0.9-6.2l9.9-0.7
					c-0.1-2.3-0.8-5.5-2-8l6.3-2.1l-7.7,0.5l2.2-15.4c-0.8,0.5-1.4,1.1-2.3,1.6c-0.8-1.4-2.5-3.7-3.8-4.8c2.5-1.6,5-4,7.2-6.6
					c-1.3-1.1-3.1-2.3-4.7-3.2l-0.3,2.2l-22.7,1.8l0.9-6.2l10.4-0.8c-0.8-2.3-2.1-5.5-3.3-7.8l5.7-3.6c1.4,2.5,3.1,5.9,3.7,8.2
					l-4.4,3.2l10.4-0.8l-0.5,3.6l4.5-4.9c1.4,0.7,3,1.5,4.4,2.3c0.7-1.4,1.6-2.9,2.2-4.4l-7.8,0.5l0.9-6l10.4-0.8l1.3-0.4l4.3,1.1
					c-1.9,5.5-4.2,10.6-7,15l11.2-0.8c-1.9-4.7-3-10-3.6-16.1l6.5-1.6c0.1,1.4,0.3,2.7,0.6,4.1c1.4-1.2,2.9-2.6,3.9-3.7l3.9,3.8
					c-2.2,1.8-4.6,3.6-6.6,5.1c0.2,0.8,0.5,1.6,0.9,2.3c1.7-1.2,3.7-2.7,4.8-3.8l3.8,3.8c-2.1,1.5-4.2,3-6.4,4.3
					c1.5,2.5,3.4,4.4,5.8,5.8c-1.8,1.4-4.6,4.3-5.9,6c-0.6-0.4-1.2-1-1.9-1.4l-2.3,16.2l-6,0.4L656.4,495.1z M621.2,509.9l-12.6,1
					l-0.4,2.7l-5.9,0.4l3.1-22.3l18.5-1.4L621.2,509.9z M625.5,478.6l-18.1,1.4l0.8-5.9l18.1-1.4L625.5,478.6z M607,482.8l18.1-1.4
					l-0.8,5.9l-18.1,1.4L607,482.8z M610.6,497.5l-1,7.3l6.6-0.5l1-7.3L610.6,497.5z M639.1,473.8c-1.5,1.9-3.1,3.8-5.1,5.4
					l25.1-1.9c-1.6-1.4-2.8-3.2-4-5.1l-0.4,2.5l-15.9,1.2L639.1,473.8L639.1,473.8z M637.9,489.4l13.2-1l0.7-4.9l-13.2,1
					L637.9,489.4z M638.8,495.1c1.2,2.6,2.3,6,2.4,8.2l-4.5,1.5l7.3-0.5c1.6-2.9,3.7-7,5-10L638.8,495.1z"/>
				<path id="XMLID_66_" class="st4" d="M691.2,464.8l-21.5,1.6l0.9-6l9.3-0.7c-0.2-2.3-1-5.8-2.2-8.4l5.8-2.3
					c1.1,2.6,2.3,6.2,2.6,8.4l-5,2.2l11-0.8L691.2,464.8z M683.4,505.1l-12.3,1l-0.4,2.7l-5.4,0.4l3.2-22.2l17.7-1.4L683.4,505.1z
					 M687.9,473.8l-16.7,1.2l0.9-5.9l16.7-1.2L687.9,473.8z M670.6,478l16.7-1.2l-0.9,5.8l-16.7,1.2L670.6,478z M673.2,492.6
					l-1.1,7.7l6.7-0.5l1.1-7.7L673.2,492.6z M725.3,493.3c-2.1,1.5-4.5,2.9-6.9,4c2.1,1.4,4.5,2.2,7.6,2.7c-1.6,1.5-3.8,4.1-4.8,5.8
					c-8.4-1.9-12.8-7.1-14.9-14.7h-0.7c-1.4,1.2-3.1,2.5-4.8,3.6l-0.8,5.1l7.8-1.8c-0.3,1.8-0.6,4.3-0.6,5.8
					c-10.7,2.7-12.9,3.6-14.2,4.4c-0.3-1.1-1.7-3.3-2.6-4.1c1.2-1,3.1-2.9,3.8-5.8c-2.2,1.1-4.3,2.1-6.6,2.9c-0.5-1.2-2-3.6-2.9-4.5
					c4-1.2,8.1-2.9,11.8-4.9l-9.8,0.7l0.8-5.2l9.3-0.7l0.3-2.1l-6.3,0.4l0.7-4.7l6.3-0.4l0.3-2.2l-7.1,0.5l0.7-4.7l7.1-0.5l0.4-2.6
					l-6.3,0.4l1.7-11.4l15.6-1.2l-1.7,11.4l-2.5,0.1l-0.4,2.9l6.9-0.5l0.4-2.9l-2.1,0.1l1.7-11.4l15.9-1.2l-1.7,11.4l-6.7,0.5
					l-0.4,2.9l8-0.5l-0.7,4.7l-8,0.5l-0.3,2.2l7.3-0.5l-0.7,4.7l-7.3,0.5l-0.3,2.1l9.6-0.7l-0.8,5.2l-13.8,1
					c0.6,1.4,1.2,2.6,2.1,3.7c2.5-1.4,5.2-3,6.9-4.3L725.3,493.3z M731.1,454.7l-38.2,2.9l0.8-5.5l15.5-1.2
					c-0.2-1.1-0.7-2.3-0.9-3.2l6.9-2.5c0.8,1.5,1.4,3.4,1.7,5.1l15.1-1.1L731.1,454.7L731.1,454.7z M699.3,466.1l4.1-0.3l0.5-3.4
					l-4.1,0.3L699.3,466.1z M704.9,479.1l6.9-0.5l0.3-2.2l-6.9,0.5L704.9,479.1z M703.9,485.9l6.9-0.5l0.3-2.1l-6.9,0.5L703.9,485.9
					z M717.5,464.7l4.4-0.3l0.5-3.4l-4.4,0.3L717.5,464.7z"/>
				<path id="XMLID_65_" class="st4" d="M752.6,494.6c-5,4-13.3,8-20.4,10.2c-0.8-1.5-2.4-4-3.7-5.2c6.7-1.4,14.6-4.3,18.9-6.9
					L752.6,494.6z M789,481l-1,6.3l-25.5,1.9l-2.3,14.8l-7.7,0.5l2.3-14.8l-25,1.9l0.9-6.3l25.1-1.9l0.4-2.9l-18.9,1.4l0.8-5.6
					l18.9-1.4l0.4-2.9l-22.1,1.6l0.9-5.9l12.1-1c-0.3-1.5-1-3.2-1.8-4.5l4.6-1.4l-16.7,1.5l0.9-6l8.9-0.7c-0.6-2.3-1.8-5.4-2.9-7.7
					l7-2.7c1.5,2.6,3.1,6.3,3.5,8.8l-3.4,1.4l6-0.4l1.6-10.6l7.2-0.5l-1.6,10.6l4.9-0.4l1.6-10.6l7.4-0.5l-1.6,10.6l5.8-0.4
					l-2.2-0.5c1.9-2.7,4.4-6.9,5.6-9.8l7.9,1.2c-2.3,3.2-4.6,6.2-6.5,8.7l8.5-0.7l-0.9,6l-17.4,1.4l6,1.1c-1.6,1.6-3.2,3.2-4.7,4.5
					l12.6-1l-0.9,5.9l-22.7,1.8l-0.4,2.9l19.6-1.5l-0.9,5.6l-19.6,1.5l-0.4,2.9L789,481z M754.8,460.8c0.9,1.5,1.6,3.3,1.9,4.7
					l-3.8,1.1l17.8-1.4l-2.2-0.5c1.3-1.5,3-3.6,4.1-5.2L754.8,460.8z M770.3,490.5c4.9,1.5,12.2,4.3,16.2,6l-6.2,4.7
					c-3.4-1.9-10.6-4.7-15.8-6.6L770.3,490.5z"/>
				<path id="XMLID_64_" class="st4" d="M837.8,466.2c4.1,3.6,10,6.3,16.6,7.4c-1.8,1.6-4.8,4.8-6.2,7c-3.6-1-7.2-2.5-10.2-4.4
					l-3.3,20.6l-8.1,0.5l3.6-22.9l4.9-0.4c-2.6-2.1-4.8-4.4-6.4-7.3l-6.8,0.5c-2.7,3-5.8,5.8-9.1,8.4l5.5-0.4l-0.7,4.5
					c-1,6.2-4.2,14.6-17.9,20.3c-0.8-1.8-3-4.5-4.4-5.9c11.5-4.4,13.7-10,14.4-14.2l0.4-2.3c-4.1,2.9-8.5,5.1-12.8,7
					c-0.8-1.8-2.7-4.5-4.1-6c6.8-2.3,13.8-6.3,19.2-10.6l-10.4,0.8l4.4-27.9l46.9-3.6l-4.4,27.7L837.8,466.2z M812,451.7l11.5-0.8
					l0.7-4.7l-11.5,0.8L812,451.7z M810.3,462.1l11.5-0.8l0.7-4.7l-11.5,0.8L810.3,462.1z M843.7,444.6l-11.5,0.8l-0.7,4.7l11.5-0.8
					L843.7,444.6z M842,455.1l-11.5,0.8l-0.7,4.7l11.5-0.8L842,455.1z"/>
				<path id="XMLID_63_" class="st4" d="M907.2,432.9c-0.5,0.5-1,1.1-1.5,1.6c3.8,3.6,9.9,7,15.7,8.8c-1.5,1.8-3.3,5.1-4.2,7
					c-3.1-1.4-6.4-3.2-9.3-5.2l-0.6,3.6l-15.9,1.2l0.5-2.9c-3.7,2.6-7.4,4.9-11,6.9c-0.2-1.1-1-3.2-1.8-4.9l-0.6,3.6l-5.2,0.4
					l-1.6,9.9l5.8-1.8l-0.1,7c-2.3,0.7-4.5,1.5-6.8,2.2l-2.5,15.3c-0.6,3.6-1.4,5.5-3.7,6.7c-2.1,1.4-5.1,1.8-9.1,2.1
					c0.2-1.9-0.3-4.9-1-6.9c2.1-0.1,4.3-0.3,4.9-0.3c0.8,0,1.1-0.3,1.3-1.2l2.1-13.3l-5.8,1.8l-0.9-7.3c2.3-0.7,4.9-1.4,7.9-2.2
					l1.9-11.5l-7,0.5l1.1-7.1l7-0.5l2-12.5l7.7-0.5l-2,12.5l5.2-0.4l-0.2,1.4c8-3.8,16.4-9.8,21.6-16.2L907.2,432.9z M886.4,473.1
					c-0.2,0.8-0.6,1.6-0.8,2.5l26.7-2.1l-2.9,17.4l-6.7,0.5l0.3-1.7l-14.4,1.1l-0.3,1.9l-6.5,0.5l2-12.5c-2,4.7-4.5,9.1-7.9,12.8
					c-1-1.1-4-3.2-5.7-3.7c7.2-7.7,9.5-18.3,10.7-25.7l1.7-10.7l31.5-2.3l-3.4,20.3L886.4,473.1z M904.9,466.5l0.4-2.6l-17,1.2
					c-0.1,0.8-0.3,1.6-0.5,2.6L904.9,466.5z M889.5,458.1l-0.4,2.5l17-1.2l0.4-2.5L889.5,458.1z M905.8,443.6
					c-1.7-1.4-3.2-2.7-4.7-4.1c-1.8,1.6-3.7,3.3-5.7,4.8L905.8,443.6z M890.3,480.6l-0.8,4.7l14.4-1.1l0.8-4.7L890.3,480.6z"/>
				<path id="XMLID_62_" class="st4" d="M958.4,459.5c-2.7,1.4-5.3,2.7-8.2,4l24.4-1.8l-4.2,24.7l-8,0.5l0.3-1.8l-25.1,1.9l-0.3,1.6
					l-7.6,0.5l3.2-19c-3.8,1.4-7.5,2.5-11.3,3.6c-0.4-1.5-1.5-4.5-2.4-5.9c7.7-1.9,15.5-4.4,23-7.4l-20.1,1.5l1.1-6.6l21.2-1.6
					l0.6-3.7l-15.9,1.2l1.1-6.3l15.9-1.2l0.6-3.6l7.8-0.5l-0.6,3.6l14.5-1.1l-0.9,5.4c3.7-2.5,7-4.9,9.8-7.7l5.2,3.2
					c-3.4,3-7.2,6-11.3,8.8l10.7-0.8l-1.1,6.6L958.4,459.5z M937.4,438.8l-11.9,1l1.1-6.6l12-1l0.6-3.6l7.8-0.5l-0.6,3.4l8.3-0.7
					l-1.1,6.6l-8.3,0.7l-0.7,4l-7.8,0.5L937.4,438.8z M965.4,468.1l-25.1,1.9l-0.5,3.2l25.1-1.9L965.4,468.1L965.4,468.1z
					 M963.5,479.4l0.6-3.3L939,478l-0.6,3.3L963.5,479.4z M952,453.4l6.8-0.5c2.4-1.4,4.7-2.7,7-4.3l-13.2,1L952,453.4L952,453.4z
					 M964.9,436.7l-8.9,0.7l1.1-6.6l8.9-0.7l0.6-3.5l7.8-0.5l-0.6,3.6l11.4-0.8l-1.1,6.6l-11.4,0.8l-0.7,4l-7.8,0.5L964.9,436.7z"/>
				<path id="XMLID_61_" class="st4" d="M1030.9,464.4c-2.1,2.9-4.5,5.2-7.2,7.4c6.7,1.1,12.7,2.3,17.4,3.6l-8,6
					c-4.5-1.5-10.7-2.9-17.9-4.3c-8.1,4-18.3,6.5-31.2,8.2c-0.1-2.2-0.8-4.8-1.8-6.5c8.1-1,15-2.1,20.8-3.8c-4-0.5-8.2-1.1-12.5-1.5
					c1.8-1.9,4-4.1,6-6.6l-12.5,1l1.1-6.2l16.6-1.2c1.6-2.1,3-4.3,4.4-6.2l-16,1.2l3.2-18.5l14.2-1.1l0.6-3.7l-17.4,1.2l1.2-6.7
					l57.4-4.3l-1.2,6.8l-17.8,1.4l-0.6,3.7l15.7-1.2l-3.2,18.4l-34.9,2.6l6.7,1.1c-1,1.5-1.9,3-3.1,4.5l15.9-1.2
					c0.7-1.2,1.4-2.5,2-3.7l7.4,1.2c-0.2,0.7-0.6,1.2-1,1.9l9.9-0.7l-1.1,6.3L1030.9,464.4z M999,448.6l7-0.5l1-6l-7,0.5L999,448.6z
					 M1005.8,466.4c-0.6,0.8-1.5,1.8-2.2,2.6c3.7,0.4,7.5,1,11.2,1.5c2.5-1.5,4.8-3.2,6.8-5.2L1005.8,466.4z M1015.3,435.3l7.5-0.5
					l0.6-3.7l-7.5,0.5L1015.3,435.3z M1020.6,447.1l1-6l-7.5,0.5l-1,6L1020.6,447.1z M1029,440.3l-1.1,6l7.9-0.5l1.1-6L1029,440.3z"
					/>
				<path id="XMLID_60_" class="st4" d="M1073.4,420.6c-2.4,4.7-5.4,9.4-8.7,14l-8,44.9l-7.5,0.5l5.9-33.4c-1.8,2.1-3.6,4-5.4,5.6
					c-0.4-1.9-1.8-5.9-2.7-7.7c7-6.3,14.3-16,19.3-25.6L1073.4,420.6z M1093.9,435.2l-6,33.5c-0.7,3.7-1.8,5.9-4.3,7.4
					c-2.5,1.4-5.7,1.9-10,2.3c0.1-2.2-0.5-5.6-1.2-7.6c2.7-0.1,5.5-0.4,6.3-0.4s1.3-0.4,1.4-1.2l6-33.5l-7.7,0.5
					c-2.5,3.8-5.4,7.6-8,10.5c-1.2-1.2-3.8-3.6-5.4-4.7c5.9-5.9,11.5-15.3,15.4-24.5l7.4,1.1c-1.4,3.4-3.1,6.7-4.8,10l22.7-1.6
					l1.3-0.4l5.4,0.7c-1.8,5.4-4,11.6-5.5,15.5l-6.5-0.5c0.7-2.1,1.6-4.8,2.5-7.7L1093.9,435.2z M1080.8,447.8
					c-3.4,8.4-8.2,16.9-12.8,22.5c-1.3-1.1-4.3-2.9-5.9-3.7c4.5-4.8,8.7-12.4,11.5-19.9L1080.8,447.8z M1101.4,444
					c2.2,6.5,3.5,14.9,3.3,20.8l-7.9,3.2c0.3-5.8-0.8-14.4-2.8-21L1101.4,444z"/>
				<path id="XMLID_59_" class="st4" d="M1113.8,465.9c0.7-3.7,4.1-6.7,8-7c3.8-0.3,6.3,2.2,5.6,5.9c-0.7,3.7-4.1,6.6-7.9,6.9
					C1115.6,472.1,1113.1,469.8,1113.8,465.9z M1120.9,432.5l1.5-9.7l12.2-1l-2.1,9.9l-6.4,22.5l-6.8,0.5L1120.9,432.5z"/>
				<path id="XMLID_58_" class="st4" d="M1134.8,464.4c0.7-3.7,4.1-6.7,8-7c3.8-0.3,6.3,2.2,5.6,5.9c-0.7,3.7-4.1,6.6-7.9,6.9
					C1136.5,470.6,1134.1,468.3,1134.8,464.4z M1142,431l1.5-9.7l12.2-1l-2.1,9.9l-6.4,22.5l-6.8,0.5L1142,431z"/>
				<path id="XMLID_57_" class="st4" d="M1155.8,462.9c0.7-3.7,4.1-6.7,8-7c3.8-0.3,6.3,2.2,5.6,5.9c-0.7,3.7-4.1,6.6-8,6.9
					C1157.5,469.1,1155.1,466.8,1155.8,462.9z M1163.1,429.6l1.5-9.7l12.2-1l-2.1,9.9l-6.5,22.5l-6.8,0.5L1163.1,429.6z"/>
			</g>
			<g id="XMLID_31_">
				<path id="XMLID_41_" class="st4" d="M390.7,519.6l-1,7.9l-56.5,4.3l1-7.9L390.7,519.6z M392.4,477.2l-1,7.8l-49.5,3.7l0.9-7.8
					L392.4,477.2z M384.7,498.4l-1,7.8l-39.8,3l0.9-7.8L384.7,498.4z"/>
				<path id="XMLID_36_" class="st4" d="M422.4,471c-1.9,4.3-4.3,8.5-6.7,12.8l-5.8,46l-7.4,0.5l4.2-33.2c-1.7,2.1-3.4,4.1-5.1,5.9
					c-0.3-1.8-1.7-6.3-2.7-8.1c6.2-6.3,12.3-16.1,16.4-25.7L422.4,471z M462.1,469.1l-7.3,56.7l-7.4,0.5l0.4-3.2l-24.5,1.9l-0.5,3.7
					l-7,0.5l7.2-57.4L462.1,469.1z M448.8,516.4l5.2-40.2l-24.6,1.9l-5.1,40.2L448.8,516.4z M442.6,490.7l-0.7,5.6l6.3-0.4
					l-2.2,17.3l-18,1.4l2.2-17.3l5.8-0.4l0.7-5.6l-7.6,0.5l0.7-5.6l7.6-0.5l0.8-6.6l6-0.4l-0.8,6.6l7.8-0.5l-0.7,5.6L442.6,490.7z
					 M441.9,501.5l-6.6,0.5l-0.9,6.9l6.6-0.5L441.9,501.5z"/>
				<path id="XMLID_32_" class="st4" d="M514.8,512.1c-0.6,4.7-2,7-5.2,8.4c-3.4,1.6-7.9,2.1-14.6,2.6c-0.1-2.2-1.3-5.8-2.2-7.7
					c4.5-0.1,10-0.5,11.4-0.7c1.5-0.1,2.2-0.7,2.4-2.1l1.3-9.5l-28,2.1c-2.6,7.4-6.8,14.6-13.6,20.2c-1-1.5-3.7-4.1-5.3-5.1
					c11-9.1,13.4-21.6,14.7-31.5l2.8-21.4l42.6-3.2l-6.4,47.7L514.8,512.1L514.8,512.1z M508.9,495.8l1.1-8l-26.2,1.9
					c-0.3,2.5-0.8,5.2-1.4,8L508.9,495.8z M485.7,474.5l-1,8l26.2-1.9l1.1-8L485.7,474.5z"/>
			</g>
		</g>
		<g id="XMLID_79_">
			<g id="XMLID_84_">
				<path id="XMLID_104_" class="st7" d="M564.3,460.2c-2.4,4.7-5.1,9.5-8.4,14l-6.1,44.4l-7.4,0.5l4.5-33.4
					c-1.8,2.1-3.5,3.8-5.2,5.6c-0.5-1.8-2.1-5.8-3-7.7c6.8-6.3,14.1-16.1,18.8-25.6L564.3,460.2z M570.4,498.9
					c-3.4,5.8-8.3,12.3-12.2,16.5c-1.2-1.1-3.9-2.9-5.5-3.7c3.8-3.8,8-9.5,10.8-14.3L570.4,498.9z M581.4,494.1l-3.2,22.7l-7.8,0.5
					l3.1-22.6l-17.1,1.2l1-7l17.1-1.2l0.8-5.8l-12.9,1l3.1-22.4l34.4-2.6l-3.1,22.4l-13.7,1.1l-0.8,5.8l17-1.2l-1,7L581.4,494.1z
					 M570.9,475.4l19.2-1.5l1.2-8.8l-19.2,1.5L570.9,475.4z M589.2,495.3c3.1,4,6.4,9.3,7.7,13l-6.7,4.1c-1.3-3.7-4.5-9.3-7.2-13.5
					L589.2,495.3z"/>
				<path id="XMLID_100_" class="st7" d="M653.2,495.1c-2,3.2-3.9,6.3-5.7,8.9l10.3-0.8l-0.9,6.2l-37.1,2.7l0.9-6.2l9.9-0.7
					c-0.1-2.3-0.8-5.5-2-8l6.3-2.1l-7.7,0.5l2.2-15.4c-0.8,0.5-1.4,1.1-2.3,1.6c-0.8-1.4-2.5-3.7-3.8-4.8c2.5-1.6,5-4,7.2-6.6
					c-1.3-1.1-3.1-2.3-4.7-3.2l-0.3,2.2l-22.7,1.8l0.9-6.2l10.4-0.8c-0.8-2.3-2.1-5.5-3.3-7.8l5.7-3.6c1.4,2.5,3.1,5.9,3.7,8.2
					l-4.4,3.2l10.4-0.8l-0.5,3.6l4.5-4.9c1.4,0.7,3,1.5,4.4,2.3c0.7-1.4,1.6-2.9,2.2-4.4l-7.8,0.5l0.9-6l10.4-0.8l1.3-0.4l4.3,1.1
					c-1.9,5.5-4.2,10.6-7,15l11.2-0.8c-1.9-4.7-3-10-3.6-16.1l6.5-1.6c0.1,1.4,0.3,2.7,0.6,4.1c1.4-1.2,2.9-2.6,3.9-3.7l3.9,3.8
					c-2.2,1.8-4.6,3.6-6.6,5.1c0.2,0.8,0.5,1.6,0.9,2.3c1.7-1.2,3.7-2.7,4.8-3.8l3.8,3.8c-2.1,1.5-4.2,3-6.4,4.3
					c1.5,2.5,3.4,4.4,5.8,5.8c-1.8,1.4-4.6,4.3-5.9,6c-0.6-0.4-1.2-1-1.9-1.4l-2.3,16.2l-6,0.4L653.2,495.1z M618,509.9l-12.6,1
					l-0.4,2.7l-5.9,0.4l3.1-22.3l18.5-1.4L618,509.9z M622.3,478.6l-18.1,1.4l0.8-5.9l18.1-1.4L622.3,478.6z M603.8,482.8l18.1-1.4
					l-0.8,5.9l-18.1,1.4L603.8,482.8z M607.4,497.5l-1,7.3l6.6-0.5l1-7.3L607.4,497.5z M635.9,473.8c-1.5,1.9-3.1,3.8-5.1,5.4
					l25.1-1.9c-1.6-1.4-2.8-3.2-4-5.1l-0.4,2.5l-15.9,1.2L635.9,473.8L635.9,473.8z M634.6,489.4l13.2-1l0.7-4.9l-13.2,1
					L634.6,489.4z M635.6,495.1c1.2,2.6,2.3,6,2.4,8.2l-4.5,1.5l7.3-0.5c1.6-2.9,3.7-7,5-10L635.6,495.1z"/>
				<path id="XMLID_99_" class="st7" d="M688,464.8l-21.5,1.6l0.9-6l9.3-0.7c-0.2-2.3-1-5.8-2.2-8.4l5.8-2.3
					c1.1,2.6,2.3,6.2,2.6,8.4l-5,2.2l11-0.8L688,464.8z M680.2,505.1l-12.3,1l-0.4,2.7l-5.4,0.4l3.2-22.2l17.7-1.4L680.2,505.1z
					 M684.6,473.8l-16.7,1.2l0.9-5.9l16.7-1.2L684.6,473.8z M667.4,478l16.7-1.2l-0.9,5.8l-16.7,1.2L667.4,478z M669.9,492.6
					l-1.1,7.7l6.7-0.5l1.1-7.7L669.9,492.6z M722.1,493.3c-2.1,1.5-4.5,2.9-6.9,4c2.1,1.4,4.5,2.2,7.6,2.7c-1.6,1.5-3.8,4.1-4.8,5.8
					c-8.4-1.9-12.8-7.1-14.9-14.7h-0.8c-1.4,1.2-3.1,2.5-4.8,3.6l-0.8,5.1l7.8-1.8c-0.3,1.8-0.6,4.3-0.6,5.8
					c-10.7,2.7-12.9,3.6-14.2,4.4c-0.3-1.1-1.7-3.3-2.6-4.1c1.2-1,3.1-2.9,3.8-5.8c-2.2,1.1-4.3,2.1-6.6,2.9c-0.5-1.2-2-3.6-2.9-4.5
					c4-1.2,8.1-2.9,11.8-4.9l-9.8,0.7l0.8-5.2l9.3-0.7l0.3-2.1l-6.3,0.4l0.7-4.7l6.3-0.4l0.3-2.2l-7.1,0.5l0.7-4.7l7.1-0.5l0.4-2.6
					l-6.3,0.4l1.7-11.4l15.6-1.2l-1.7,11.4l-2.5,0.1l-0.4,2.9l6.9-0.5l0.4-2.9l-2.1,0.1l1.7-11.4l15.9-1.2l-1.7,11.4l-6.7,0.5
					l-0.4,2.9l8-0.5l-0.7,4.7l-8,0.5l-0.3,2.2l7.3-0.5l-0.7,4.7l-7.3,0.5l-0.3,2.1l9.6-0.7l-0.8,5.2l-13.7,1.1
					c0.6,1.4,1.2,2.6,2.1,3.7c2.5-1.4,5.2-3,6.9-4.3L722.1,493.3z M727.8,454.7l-38.2,2.9l0.8-5.5l15.5-1.2
					c-0.2-1.1-0.7-2.3-0.9-3.2l6.9-2.5c0.8,1.5,1.4,3.4,1.7,5.1l15.1-1.1L727.8,454.7L727.8,454.7z M696.1,466.1l4.1-0.3l0.5-3.4
					l-4.1,0.3L696.1,466.1z M701.7,479.1l6.9-0.5l0.3-2.2l-6.9,0.5L701.7,479.1z M703,485.7l4.6-0.3l0.3-2.1l-6.9,0.5l-0.3,2.1
					L703,485.7 M714.3,464.7l4.4-0.3l0.5-3.4l-4.4,0.3L714.3,464.7z"/>
				<path id="XMLID_98_" class="st7" d="M749.4,494.6c-5,4-13.3,8-20.4,10.2c-0.8-1.5-2.4-4-3.7-5.2c6.7-1.4,14.6-4.3,18.9-6.9
					L749.4,494.6z M785.8,481l-1,6.3l-25.5,1.9L757,504l-7.7,0.5l2.3-14.8l-25,1.9l0.9-6.3l25.1-1.9l0.4-2.9l-18.9,1.4l0.8-5.6
					l18.9-1.4l0.4-2.9l-22.1,1.6l0.9-5.9l12.1-1c-0.3-1.5-1-3.2-1.8-4.5l4.6-1.4l-16.7,1.5l0.9-6l8.9-0.7c-0.6-2.3-1.8-5.4-2.9-7.7
					l7-2.7c1.5,2.6,3.1,6.3,3.5,8.8l-3.4,1.4l6-0.4l1.6-10.6l7.2-0.5l-1.6,10.6l4.9-0.4l1.6-10.6l7.4-0.5l-1.6,10.6l5.8-0.4
					l-2.2-0.5c1.9-2.7,4.4-6.9,5.6-9.8l7.9,1.2c-2.3,3.2-4.6,6.2-6.5,8.7l8.5-0.7l-0.9,6l-17.4,1.4l6,1.1c-1.6,1.6-3.2,3.2-4.7,4.5
					l12.6-1l-0.9,5.9l-22.7,1.8l-0.4,2.9l19.6-1.5l-0.9,5.6l-19.6,1.5l-0.4,2.9L785.8,481z M751.6,460.8c0.9,1.5,1.6,3.3,1.9,4.7
					l-3.8,1.1l17.8-1.4l-2.2-0.5c1.3-1.5,3-3.6,4.1-5.2L751.6,460.8z M767.1,490.5c4.9,1.5,12.2,4.3,16.2,6l-6.2,4.7
					c-3.4-1.9-10.6-4.7-15.8-6.6L767.1,490.5z"/>
				<path id="XMLID_96_" class="st7" d="M834.6,466.2c4.1,3.6,10,6.3,16.6,7.4c-1.8,1.6-4.8,4.8-6.2,7c-3.6-1-7.2-2.5-10.2-4.4
					l-3.3,20.6l-8.1,0.5l3.6-22.9l4.9-0.4c-2.6-2.1-4.8-4.4-6.4-7.3l-6.8,0.5c-2.7,3-5.8,5.8-9.1,8.4l5.5-0.4l-0.7,4.5
					c-1,6.2-4.2,14.6-17.9,20.3c-0.8-1.8-3-4.5-4.4-5.9c11.5-4.4,13.7-10,14.4-14.2l0.4-2.3c-4.1,2.9-8.5,5.1-12.8,7
					c-0.8-1.8-2.7-4.5-4.1-6c6.8-2.3,13.8-6.3,19.2-10.6l-10.4,0.8l4.4-27.9l46.9-3.6l-4.4,27.7L834.6,466.2z M808.8,451.7l11.5-0.8
					l0.7-4.7l-11.5,0.8L808.8,451.7z M807.1,462.1l11.5-0.8l0.7-4.7l-11.5,0.8L807.1,462.1z M840.5,444.6l-11.5,0.8l-0.7,4.7
					l11.5-0.8L840.5,444.6z M838.8,455.1l-11.5,0.8l-0.7,4.7l11.5-0.8L838.8,455.1z"/>
				<path id="XMLID_95_" class="st7" d="M904,432.9c-0.5,0.5-1,1.1-1.5,1.6c3.8,3.6,9.9,7,15.7,8.8c-1.5,1.8-3.3,5.1-4.2,7
					c-3.1-1.4-6.4-3.2-9.3-5.2l-0.6,3.6l-15.9,1.2l0.5-2.9c-3.7,2.6-7.4,4.9-11,6.9c-0.2-1.1-1-3.2-1.8-4.9l-0.6,3.6l-5.2,0.4
					l-1.6,9.9l5.8-1.8l-0.1,7c-2.3,0.7-4.5,1.5-6.8,2.2l-2.5,15.3c-0.6,3.6-1.4,5.5-3.7,6.7c-2.1,1.4-5.1,1.8-9.1,2.1
					c0.2-1.9-0.3-4.9-1-6.9c2.1-0.1,4.3-0.3,4.9-0.3c0.8,0,1.1-0.3,1.3-1.2l2.1-13.3l-5.8,1.8l-0.9-7.3c2.3-0.7,4.9-1.4,7.9-2.2
					l1.9-11.5l-7,0.5l1.1-7.1l7-0.5l2-12.5l7.7-0.5l-2,12.5l5.2-0.4l-0.2,1.4c8-3.8,16.4-9.8,21.6-16.2L904,432.9z M883.2,473.1
					c-0.2,0.8-0.6,1.6-0.8,2.5l26.7-2.1l-2.9,17.4l-6.7,0.5l0.3-1.7l-14.4,1.1l-0.3,1.9l-6.5,0.5l2-12.5c-2,4.7-4.5,9.1-7.9,12.8
					c-1-1.1-4-3.2-5.7-3.7c7.2-7.7,9.5-18.3,10.7-25.7l1.7-10.7l31.5-2.3l-3.4,20.3L883.2,473.1z M901.7,466.5l0.4-2.6l-17,1.2
					c-0.1,0.8-0.3,1.6-0.5,2.6L901.7,466.5z M886.3,458.1l-0.4,2.5l17-1.2l0.4-2.5L886.3,458.1z M902.6,443.6
					c-1.7-1.4-3.2-2.7-4.7-4.1c-1.8,1.6-3.7,3.3-5.7,4.8L902.6,443.6z M887.1,480.6l-0.8,4.7l14.4-1.1l0.8-4.7L887.1,480.6z"/>
				<path id="XMLID_94_" class="st7" d="M955.2,459.5c-2.7,1.4-5.3,2.7-8.2,4l24.4-1.8l-4.2,24.7l-8,0.5l0.3-1.8l-25.1,1.9l-0.3,1.6
					l-7.6,0.5l3.2-19c-3.8,1.4-7.5,2.5-11.3,3.6c-0.4-1.5-1.5-4.5-2.4-5.9c7.7-1.9,15.5-4.4,23-7.4l-20.1,1.5l1.1-6.6l21.2-1.6
					l0.6-3.7l-15.9,1.2l1.1-6.3l15.9-1.2l0.6-3.6l7.8-0.5l-0.6,3.6l14.5-1.1l-0.9,5.4c3.7-2.5,7-4.9,9.8-7.7l5.2,3.2
					c-3.4,3-7.2,6-11.3,8.8l10.7-0.8l-1.1,6.6L955.2,459.5z M934.2,438.8l-11.9,1l1.1-6.6l12-1l0.6-3.6l7.8-0.5l-0.6,3.4l8.3-0.7
					l-1.1,6.6l-8.3,0.7l-0.7,4l-7.8,0.5L934.2,438.8z M962.2,468.1l-25.1,1.9l-0.5,3.2l25.1-1.9L962.2,468.1L962.2,468.1z
					 M960.3,479.4l0.6-3.3l-25.1,1.9l-0.6,3.3L960.3,479.4z M948.8,453.4l6.8-0.5c2.4-1.4,4.7-2.7,7-4.3l-13.2,1L948.8,453.4
					L948.8,453.4z M961.7,436.7l-8.9,0.7l1.1-6.6l8.9-0.7l0.6-3.5l7.8-0.5l-0.6,3.6l11.4-0.8l-1.1,6.6l-11.4,0.8l-0.7,4l-7.8,0.5
					L961.7,436.7z"/>
				<path id="XMLID_93_" class="st7" d="M1027.7,464.4c-2.1,2.9-4.5,5.2-7.2,7.4c6.7,1.1,12.7,2.3,17.4,3.6l-8,6
					c-4.5-1.5-10.7-2.9-17.9-4.3c-8.1,4-18.3,6.5-31.2,8.2c-0.1-2.2-0.8-4.8-1.8-6.5c8.1-1,15-2.1,20.8-3.8c-4-0.5-8.2-1.1-12.5-1.5
					c1.8-1.9,4-4.1,6-6.6l-12.5,1l1.1-6.2l16.6-1.2c1.6-2.1,3-4.3,4.4-6.2l-16,1.2l3.2-18.5l14.2-1.1l0.6-3.7l-17.4,1.2l1.2-6.7
					l57.4-4.3l-1.2,6.8l-17.8,1.4l-0.6,3.7l15.7-1.2l-3.2,18.4l-34.9,2.6l6.7,1.1c-1,1.5-1.9,3-3.1,4.5l15.9-1.2
					c0.7-1.2,1.4-2.5,2-3.7l7.4,1.2c-0.2,0.7-0.6,1.2-1,1.9l9.9-0.7l-1.1,6.3L1027.7,464.4z M995.8,448.6l7-0.5l1-6l-7,0.5
					L995.8,448.6z M1002.6,466.4c-0.6,0.8-1.5,1.8-2.2,2.6c3.7,0.4,7.5,1,11.2,1.5c2.5-1.5,4.8-3.2,6.8-5.2L1002.6,466.4z
					 M1012.1,435.3l7.5-0.5l0.6-3.7l-7.5,0.5L1012.1,435.3z M1017.4,447.1l1-6l-7.5,0.5l-1,6L1017.4,447.1z M1025.8,440.3l-1.1,6
					l7.9-0.5l1.1-6L1025.8,440.3z"/>
				<path id="XMLID_92_" class="st7" d="M1070.2,420.6c-2.4,4.7-5.4,9.4-8.7,14l-8,44.9l-7.5,0.5l5.9-33.4c-1.8,2.1-3.6,4-5.4,5.6
					c-0.4-1.9-1.8-5.9-2.7-7.7c7-6.3,14.3-16,19.3-25.6L1070.2,420.6z M1090.6,435.2l-6,33.5c-0.7,3.7-1.8,5.9-4.3,7.4
					c-2.5,1.4-5.7,1.9-10,2.3c0.1-2.2-0.5-5.6-1.2-7.6c2.7-0.1,5.5-0.4,6.3-0.4s1.3-0.4,1.4-1.2l6-33.5l-7.7,0.5
					c-2.5,3.8-5.4,7.6-8,10.5c-1.2-1.2-3.8-3.6-5.4-4.7c5.9-5.9,11.5-15.3,15.4-24.5l7.4,1.1c-1.4,3.4-3.1,6.7-4.8,10l22.7-1.6
					l1.3-0.4l5.4,0.7c-1.8,5.4-4,11.6-5.5,15.5l-6.5-0.5c0.7-2.1,1.6-4.8,2.5-7.7L1090.6,435.2z M1077.6,447.8
					c-3.4,8.4-8.2,16.9-12.8,22.5c-1.3-1.1-4.3-2.9-5.9-3.7c4.5-4.8,8.7-12.4,11.5-19.9L1077.6,447.8z M1098.2,444
					c2.2,6.5,3.5,14.9,3.3,20.8l-7.9,3.2c0.3-5.8-0.8-14.4-2.8-21L1098.2,444z"/>
				<path id="XMLID_90_" class="st7" d="M1110.6,465.9c0.7-3.7,4.1-6.7,8-7c3.8-0.3,6.3,2.2,5.6,5.9c-0.7,3.7-4.1,6.6-7.9,6.9
					C1112.3,472.1,1109.9,469.8,1110.6,465.9z M1117.7,432.5l1.5-9.7l12.2-1l-2.1,9.9l-6.4,22.5l-6.8,0.5L1117.7,432.5z"/>
				<path id="XMLID_89_" class="st7" d="M1131.6,464.4c0.7-3.7,4.1-6.7,8-7c3.8-0.3,6.3,2.2,5.6,5.9c-0.7,3.7-4.1,6.6-7.9,6.9
					C1133.3,470.6,1130.9,468.3,1131.6,464.4z M1138.8,431l1.5-9.7l12.2-1l-2.1,9.9l-6.4,22.5l-6.8,0.5L1138.8,431z"/>
				<path id="XMLID_88_" class="st7" d="M1152.6,462.9c0.7-3.7,4.1-6.7,8-7c3.8-0.3,6.3,2.2,5.6,5.9c-0.7,3.7-4.1,6.6-8,6.9
					C1154.3,469.1,1151.9,466.8,1152.6,462.9z M1159.8,429.6l1.5-9.7l12.2-1l-2.1,9.9l-6.5,22.5l-6.8,0.5L1159.8,429.6z"/>
			</g>
			<g id="XMLID_80_">
				<path id="XMLID_83_" class="st5" d="M387.5,519.6l-1,7.9l-56.5,4.3l1-7.9L387.5,519.6z M389.2,477.2l-1,7.8l-49.5,3.7l0.9-7.8
					L389.2,477.2z M381.5,498.4l-1,7.8l-39.8,3l0.9-7.8L381.5,498.4z"/>
				<path id="XMLID_82_" class="st5" d="M419.2,471c-1.9,4.3-4.3,8.5-6.7,12.8l-5.8,46l-7.4,0.5l4.2-33.2c-1.7,2.1-3.4,4.1-5.1,5.9
					c-0.3-1.8-1.7-6.3-2.7-8.1c6.2-6.3,12.3-16.1,16.4-25.7L419.2,471z M458.9,469.1l-7.3,56.7l-7.4,0.5l0.4-3.2l-24.5,1.9l-0.5,3.7
					l-7,0.5l7.2-57.4L458.9,469.1z M445.6,516.4l5.2-40.2l-24.6,1.9l-5.1,40.2L445.6,516.4z M439.4,490.7l-0.7,5.6l6.3-0.4
					l-2.2,17.3l-18,1.4l2.2-17.3l5.8-0.4l0.7-5.6l-7.6,0.5l0.7-5.6l7.6-0.5l0.8-6.6l6-0.4l-0.8,6.6l7.8-0.5l-0.7,5.6L439.4,490.7z
					 M438.7,501.5l-6.6,0.5l-0.9,6.9l6.6-0.5L438.7,501.5z"/>
				<path id="XMLID_81_" class="st5" d="M511.5,512.1c-0.6,4.7-2,7-5.2,8.4c-3.4,1.6-7.9,2.1-14.6,2.6c-0.1-2.2-1.3-5.8-2.2-7.7
					c4.5-0.1,10-0.5,11.4-0.7c1.5-0.1,2.2-0.7,2.4-2.1l1.3-9.5l-28,2.1c-2.6,7.4-6.8,14.6-13.6,20.2c-1-1.5-3.7-4.1-5.3-5.1
					c11-9.1,13.4-21.6,14.7-31.5l2.8-21.4l42.6-3.2l-6.4,47.7L511.5,512.1L511.5,512.1z M505.7,495.8l1.1-8l-26.2,1.9
					c-0.3,2.5-0.8,5.2-1.4,8L505.7,495.8z M482.5,474.5l-1,8l26.2-1.9l1.1-8L482.5,474.5z"/>
			</g>
		</g>
	</g>
	<g>
		<g id="XMLID_105_">
			<path class="st7" d="M1089.3,544.6"/>
		</g>
		<g>
			<circle id="XMLID_78_" class="st5" cx="355.3" cy="540.9" r="3.4"/>
			<circle id="XMLID_77_" class="st5" cx="428.3" cy="535.4" r="3.4"/>
			<circle id="XMLID_76_" class="st5" cx="486.8" cy="530" r="3.4"/>
		</g>
	</g>
	<g>
		<polygon class="st3" points="1098.7,569.6 1098.7,641.2 1022.1,658.5 995,623.9 992.6,554.8 992.5,552.3 1061.6,540 		"/>
		<polygon class="st8" points="1098.7,570.1 1098.7,641.2 1022.9,658.3 1022.1,658.5 995,623.9 992.6,554.8 1020.9,580.7 		"/>
		<polygon class="st8" points="1098.7,570.3 1098.7,641.2 1022.9,658.3 1020.9,580.7 1097.5,570.8 		"/>
	</g>
	<path class="st7" d="M1003.3,601.4c-5.5,13.2-8.6,26.9-9.5,41.1c-0.2,2.9,4.3,2.5,4.5-0.3c0.8-13.4,3.9-26.4,9-38.8
		C1008.4,600.8,1004.4,598.8,1003.3,601.4z"/>
	<path class="st7" d="M1067.9,608c-0.2,0.8-0.5,2.1-1.5,2.3c-0.9,0.3-1.7-0.7-2.2-1.2c-0.9-0.9-2.2,0.6-1.3,1.5
		c1.1,1.1,2.5,2.2,4.2,1.6c1.7-0.6,2.3-2.3,2.8-3.8C1070.2,607.1,1068.2,606.8,1067.9,608z"/>
	<path class="st7" d="M1055.8,595.9c-0.5-1.2-1.9-1.9-3.1-1.5c-0.3-0.1-0.7-0.1-1,0.3c-1.1,1.6-0.7,3.9,1.2,4.6
		c0.9,0.3,2,0.2,2.6-0.6C1056.1,597.9,1056.1,596.8,1055.8,595.9z"/>
	<path class="st7" d="M1074.6,592c-0.5-1.2-1.9-1.9-3.1-1.5c-0.3-0.1-0.7-0.1-1,0.3c-1.1,1.6-0.7,3.9,1.2,4.6c0.9,0.3,2,0.2,2.6-0.6
		C1074.9,594,1074.9,592.9,1074.6,592z"/>
</g>
<g id="圖層_4">
</g>
<g id="圖層_11" class="st9">
	<g id="XMLID_4_" class="st10">
		
			<pattern  id="XMLID_110_" xlink:href="#XMLID_119_" patternTransform="matrix(0.7071 -0.7071 0.7071 0.7071 -678.3072 3839.7307)">
		</pattern>
		<path id="XMLID_55_" class="st11" d="M645.1,634.2l-32,2.5v4c0,5.4-1.1,8.1-5.2,10c-4,1.8-8.9,2.2-15.2,2.7
			c-0.5-3.3-2.3-7.4-3.8-10.2c3.6-0.1,8.9-0.5,10.2-0.5c1.4-0.1,1.8-0.4,1.8-1.4v-3.6l-34.6,2.7v-9.9l34.3-2.6v-1.6
			c2.3-1.2,4.9-3,7.3-4.8l-24.5,1.8v-8.7l36-2.7l2.6-0.8l7,5.9c-4,3.2-8.8,6.6-13.7,9.6l29.8-2.2V634.2L645.1,634.2L645.1,634.2z
			 M579.4,622.5l-11.8,1v-19l6.2-0.4l-1.5-25.8c5.2-1.4,13.1-4.4,18-6.5l4.9,6.7c-3.3,1.5-7.1,2.9-11,4l0.1,1.6l10.3-0.8v7.6
			l-9.9,0.7l0.1,1.9l9.8-0.7v3.4c1.6-0.8,3.2-1.8,4.8-2.7c-1.4-0.8-2.9-1.5-4.1-2.1l5.6-5.1c1.5,0.7,3,1.4,4.7,2.2
			c1.2-1.1,2.2-2.3,3-3.6l8,1.8c-1.2,1.8-2.6,3.7-4.3,5.4c1.8,1.1,3.4,2.2,4.7,3.3l-6,5.6c-1.1-1.1-2.6-2.2-4.5-3.4
			c-1.9,1.6-4,3-5.9,4.3l25.7-1.9l0.3-2.1l-8.9,0.7v-7.5l9.6-0.7l0.1-1.9l-9.2,0.7v-7.6l9.8-0.7l0.1-1.9l-10.4,0.8v-7.6l22.7-1.8
			c-0.4,9.3-1.1,20.3-1.9,28.7l6.3-0.4v18.8l-12.4,1v-10l-52.9,4v10H579.4z M585.3,603.2l13.1-1c-1.1-1.1-2.6-2.6-3.8-3.7v1.9
			l-9.3,0.7L585.3,603.2L585.3,603.2z M610.3,585.4c-1-0.8-2.3-1.8-3.8-2.9c-2.1,1.6-4.3,3-6.3,4.3c-1.4-1.4-4.5-3.8-6.3-4.9
			c2.1-1,4-2.1,5.9-3.4c-1.4-0.7-2.6-1.4-4-1.9l5.5-4.9c1.5,0.5,3,1.4,4.5,2.1c1.1-1,1.9-2.1,2.6-3l7.8,1.8c-1.1,1.6-2.5,3.3-4,4.8
			c1.4,1,2.6,1.9,3.7,2.6L610.3,585.4z"/>
		<g id="XMLID_44_">
			
				<pattern  id="XMLID_111_" xlink:href="#XMLID_120_" patternTransform="matrix(0.7071 -0.7071 0.7071 0.7071 -678.3072 3839.7307)">
			</pattern>
			<path id="XMLID_46_" class="st12" d="M674.6,563.1l-14.4,1.1v-25l46.6-3.6c-0.8-2.2-1.8-4.3-2.6-6l17.6-6.3
				c1.9,3.2,3.8,7.3,5.1,10.9l43.3-3.3v25L756,557v12.1l-9.8,0.7c6.7,5.1,13.6,10.9,17.6,15.5l-14,10.6c-1.6-2.1-3.8-4.5-6.5-7
				c-53.6,8.2-60.9,9.5-66.4,12c-0.8-3.2-3.3-10.6-5.1-14.8c3-0.7,5.6-2.3,8.9-5.1c1.6-1.1,4.5-3.4,8.1-6.7l-14.3,1.1L674.6,563.1
				L674.6,563.1L674.6,563.1z M770.8,619.9v15.7L660.5,644v-15.7l45.3-3.4v-7.1l-34.5,2.6V605l34.5-2.6V595l18.5-1.4v7.4l37.2-2.9
				v15.4l-37.2,2.9v7.1L770.8,619.9z M677.8,554v5.8l73.9-5.6v-5.8L677.8,554z M730.5,577.6c-1.5-1.2-3-2.3-4.4-3.4l4.5-3.3l-19,1.4
				c-3.2,3-6.9,6.3-10.6,9.3L730.5,577.6z"/>
			
				<pattern  id="XMLID_112_" xlink:href="#XMLID_121_" patternTransform="matrix(0.7071 -0.7071 0.7071 0.7071 -678.3072 3839.7307)">
			</pattern>
			<path id="XMLID_45_" class="st13" d="M890.3,609.6c0,9.2-1.8,14.3-7.7,17.6c-5.9,3.3-14,4.1-25,4.9c-0.7-5.1-3.4-13.1-5.9-17.7
				c6.2-0.1,14.7-0.7,17-1c2.2-0.1,3.2-1,3.2-2.9v-19.4c-3.2,4-6.7,8.7-8.7,12.1c-11.4-6.6-19.1-16.3-24.2-28.3
				c-5.4,14.3-13.5,25.4-26.1,33.1c-1.4-2.3-3.8-5.6-6.5-8.5v37l-18.3,1.4v-90.1l43.3-3.3c-0.4-2.3-0.7-4.8-0.7-7.1l-20.1,1.5v-15.5
				l35.9-2.7c0.3,7.8,0.8,15.5,2.1,22.7l41.6-3.2L890.3,609.6L890.3,609.6z M806.6,590.7c9.3-6.7,15.5-16.5,19.2-28.3l-19.2,1.5
				V590.7z M853.2,560.3c3.8,10.2,9.8,18.5,18.7,23.9v-25.3L853.2,560.3z"/>
		</g>
		
			<pattern  id="XMLID_113_" xlink:href="#XMLID_122_" patternTransform="matrix(0.7071 -0.7071 0.7071 0.7071 -678.3072 3839.7307)">
		</pattern>
		<path id="XMLID_43_" class="st14" d="M1067,594.5c5.2-1.2,10.6-2.5,15.7-3.7l0.7,10.7c-15.2,4-31.7,8.1-43.8,11.1l-2.7-11.4
			c5.1-1,11.4-2.5,18.1-4v-10l-15.2,1.1v-10.9l15.2-1.1v-6.9l12-1v6.9l14.7-1.1v10.9l-14.7,1.1V594.5L1067,594.5L1067,594.5z
			 M1037.8,537.6l45.7-3.4v10.7l-10.7,0.8c4.1,5.2,8.5,11.5,10.4,16.2l-9.6,6.9c-0.4-1-0.8-2.2-1.5-3.4c-22.4,3.3-26.2,3.8-29.1,5.4
			c-0.7-2.3-2.7-7.8-4-11c1.4-0.5,2.7-1.9,4.1-4c0.8-1.2,2.5-4.3,4-8l-9.3,0.7V537.6L1037.8,537.6z M1066.7,555.9
			c-1.4-2.1-2.7-4-4.1-5.8l5.9-4l-7.7,0.5c-1.8,3.6-4,7.3-6.2,10.6L1066.7,555.9z M1097.9,589.6l-11.7,0.8v-52.8l11.7-0.8V589.6z
			 M1114.9,527.7v67c0,6.2-1.1,9.5-4.8,11.7c-3.7,2.2-8.8,3-15.9,3.6c-0.5-3.3-2.5-8.5-4.3-11.5c4.4-0.1,9.1-0.5,10.6-0.7
			c1.5-0.1,2.1-0.7,2.1-2.2v-67L1114.9,527.7z"/>
		<g id="XMLID_39_">
			
				<pattern  id="XMLID_114_" xlink:href="#XMLID_123_" patternTransform="matrix(0.7071 -0.7071 0.7071 0.7071 -678.3072 3839.7307)">
			</pattern>
			<path id="XMLID_42_" class="st15" d="M1242.9,575.7c-0.1-6-1.5-14-3.3-21.8V587c0,7.1-0.8,11.5-5.1,14.4
				c-4.3,2.9-9.8,3.7-17.2,4.1c-0.4-4.3-2.1-10.7-4.1-15c-3,6-7.1,11.3-12.5,15.9c-2.1-4.1-6.7-9.8-10.4-12.5
				c13.5-10.7,16.5-25.1,17.4-47.1c-1.9,12.5-5.5,25.1-10,33.7c-2.5-1.8-8.2-4.7-11.4-6c1.2-2.1,2.2-4.5,3.2-7.1l-6.7,3.2
				c-0.5-3.2-1.6-7.1-3-11.1v31.6c0,7-1,11.4-5.1,14.3c-4.1,2.9-9.3,3.4-16.5,4c-0.3-4.4-2.1-10.7-4-14.8c-2.9,6.5-7,12-12.4,16.9
				c-2.1-4.3-6.9-10-10.7-12.9c12.9-10.9,15.7-25.7,16.5-48.1c-1.6,11.5-4.8,24.3-8.4,32.4c-2.5-1.6-8.2-4.4-11.3-5.6
				c3.3-7.6,5.4-18.7,6.6-28.7l12.9,1.6c0.1-2.7,0.1-5.5,0.1-8.7l-16.5,1.1v-17.5l22.3-1.6v-8.9L1136,516v-16.8l17.3-1.4v-13.3
				l17.6-1.4v13.3l15.7-1.2V512l-15.7,1.2v8.9l17.9-1.4v17.4l-9.1,0.7v7.8l6.3-2.7c2.5,4.1,4.8,9.2,6.3,13.9
				c1.2-5.1,2.1-10.4,2.7-15.8l12.6,1.4l0.1-6.7l-16.3,1.2v-17.3l22.4-1.6v-8.9l-19.4,1.5v-16.8l19.4-1.5V480l17.4-1.4v13.3l18-1.4
				v16.8l-18,1.4v8.9l22.5-1.6v17.4l-14.4,1v6.6l9.1-2.7c4.3,10.3,7.3,24,7.8,33.2L1242.9,575.7z M1162.3,540.2
				c-0.3,22.4-1.6,40.1-8.2,54.1c3.6-0.1,7.4-0.4,8.7-0.7c1.4-0.1,1.6-0.4,1.6-1.6v-51.9L1162.3,540.2z M1222.2,535.7
				c-0.4,22.8-1.8,40.8-8.9,54.8c4-0.1,8.2-0.5,9.6-0.5c1.4-0.1,1.6-0.5,1.6-1.8v-52.6L1222.2,535.7z"/>
			
				<pattern  id="XMLID_115_" xlink:href="#XMLID_124_" patternTransform="matrix(0.7071 -0.7071 0.7071 0.7071 -678.3072 3839.7307)">
			</pattern>
			<path id="XMLID_40_" class="st16" d="M1299.8,557.3c-0.1-1.4-0.4-3.2-0.7-4.9c-23.9,5.2-28.7,7-32,8.8
				c-0.8-3.4-3.7-11.5-5.8-16.1c3.7-1.2,6.5-4.3,10.6-9.6c1.4-1.5,3.7-4.8,6.3-8.9c-7.6,1.6-10.2,2.5-12.1,3.6
				c-1-3.3-3.7-11.3-5.6-15.5c2.6-1,4.8-3.7,7.3-7.7c2.3-3.8,9.5-19,13.2-33.1l17,5.5c-3.8,10.4-9.6,22-15.5,31.6l5.6-0.7
				c3.3-6,6.6-12.6,9.1-19.1l15.4,8.5c-0.7,1.5-1.5,2.9-2.2,4.4l13.3-6.3c4,6.9,8.4,15.8,10.4,21.8l-15.1,7.7
				c-1.6-5.8-5.9-15-9.3-22c-4.3,8.1-9.2,16.2-14.7,23.9l11.3-4c2.9,8.8,5.8,20.2,6.6,27.2L1299.8,557.3z M1280.2,565.5
				c-0.7,12.6-2.5,25.8-5.2,34.5c-3.2-1.5-9.9-2.9-13.6-3.7c3-8.1,4.4-20.5,4.9-31.9L1280.2,565.5z M1293.5,562.1
				c1.5,9.5,2.6,21.6,3,29.7l-13.6,3.7c0-8.4-1.1-20.6-2.2-30.1L1293.5,562.1z M1296.4,538.2c-0.7-2.9-1.5-5.6-2.1-8.1
				c-2.3,3.3-4.9,6.7-7.4,9.9L1296.4,538.2z M1362.5,544.8c6.9,10.3,16.2,20.2,25.4,26.1c-4.1,3.4-9.8,10.3-12.8,15.1
				c-7.1-6.2-14-15.7-19.6-26.2v34.3l-18.7,1.4v-32.6c-5.1,11-11.3,21.2-17.4,28.4c-2.5-3.4-7-8.2-10.9-11.4l-8.5,3.7
				c-1-5.9-3.4-15-5.5-21.7l11.8-4.7c1.6,5.1,3.7,11.1,5.1,16.2c7-7.3,13.9-16.6,19-26l-17.7,1.4v-17.2l24.2-1.8v-11.4l3.3-0.3
				c-1.4-5.9-4.5-14.4-7-21l12.8-4.8c-11.3,1.8-22.7,3.3-33.2,4.5c-0.5-4.4-2.6-10.9-4.4-14.8c23.5-3.2,49.6-7.8,68.3-12.9l8.1,15.4
				c-10.7,2.7-23.1,5.4-35.7,7.4c2.9,6.5,6,14.7,7.7,20.3l-14.4,5.5l12-1c4.9-7.6,10.4-19.1,13.9-28.6l16.1,3.6
				c-4.3,10.4-10.6,23.4-15.1,31.3c-3.2-1.9-9.3-4.3-13.6-5.8v10.9l27.9-2.1v17.2L1362.5,544.8z"/>
		</g>
		<g id="XMLID_35_">
			<g id="XMLID_37_">
				
					<pattern  id="XMLID_116_" xlink:href="#XMLID_125_" patternTransform="matrix(0.7071 -0.7071 0.7071 0.7071 -678.3072 3839.7307)">
				</pattern>
				<polygon id="XMLID_38_" class="st17" points="986.4,574.3 1004.9,582.6 986.4,593.7 				"/>
			</g>
		</g>
		<g id="XMLID_30_">
			<g id="XMLID_33_">
				
					<pattern  id="XMLID_117_" xlink:href="#XMLID_126_" patternTransform="matrix(0.7071 -0.7071 0.7071 0.7071 -678.3072 3839.7307)">
				</pattern>
				<polygon id="XMLID_34_" class="st18" points="954.7,576.9 973,585.2 954.7,596.3 				"/>
			</g>
		</g>
		<g id="XMLID_27_">
			<g id="XMLID_28_">
				
					<pattern  id="XMLID_118_" xlink:href="#XMLID_127_" patternTransform="matrix(0.7071 -0.7071 0.7071 0.7071 -678.3072 3839.7307)">
				</pattern>
				<polygon id="XMLID_29_" class="st19" points="922.8,579.4 941.1,587.8 922.8,598.9 				"/>
			</g>
		</g>
		<g id="XMLID_53_">
			<g id="XMLID_54_">
				<polygon id="XMLID_211_" class="st20" points="981.9,574.3 1000.3,582.6 981.9,593.7 				"/>
			</g>
		</g>
		<g id="XMLID_50_">
			<g id="XMLID_51_">
				<polygon id="XMLID_52_" class="st20" points="950,576.9 968.4,585.2 950,596.3 				"/>
			</g>
		</g>
		<g id="XMLID_47_">
			<g id="XMLID_48_">
				<polygon id="XMLID_49_" class="st20" points="918.2,579.4 936.6,587.8 918.2,598.9 				"/>
			</g>
		</g>
	</g>
</g>
<g id="圖層_5">
	<g id="XMLID_170_">
		<g>
			<path id="XMLID_205_" class="st21" d="M407.4,442.5l-32,2.5v4c0,5.4-1.1,8.1-5.2,10c-4,1.8-8.9,2.2-15.2,2.7
				c-0.5-3.3-2.3-7.4-3.8-10.2c3.6-0.1,8.9-0.5,10.2-0.5c1.4-0.1,1.8-0.4,1.8-1.4V446l-34.6,2.7v-9.9l34.3-2.6v-1.6
				c2.3-1.2,4.9-3,7.3-4.8l-24.5,1.8v-8.7l36-2.7l2.6-0.8l7,5.9c-4,3.2-8.8,6.6-13.7,9.6l29.8-2.2L407.4,442.5L407.4,442.5
				L407.4,442.5z M341.7,430.8l-11.8,1v-19l6.2-0.4l-1.5-25.8c5.2-1.4,13.1-4.4,18-6.5l4.9,6.7c-3.3,1.5-7.1,2.9-11,4l0.1,1.6
				l10.3-0.8v7.6l-9.9,0.7l0.1,1.9l9.8-0.7v3.4c1.6-0.8,3.2-1.8,4.8-2.7c-1.4-0.8-2.9-1.5-4.1-2.1l5.6-5.1c1.5,0.7,3,1.4,4.7,2.2
				c1.2-1.1,2.2-2.3,3-3.6l8,1.8c-1.2,1.8-2.6,3.7-4.3,5.4c1.8,1.1,3.4,2.2,4.7,3.3l-6,5.6c-1.1-1.1-2.6-2.2-4.5-3.4
				c-1.9,1.6-4,3-5.9,4.3l25.7-1.9l0.3-2.1l-8.9,0.7v-7.5l9.6-0.7l0.1-1.9l-9.2,0.7v-7.6l9.8-0.7l0.1-1.9l-10.4,0.8v-7.6l22.7-1.8
				c-0.4,9.3-1.1,20.3-1.9,28.7l6.3-0.4v18.8l-12.4,1v-10l-52.9,4v10L341.7,430.8L341.7,430.8z M347.6,411.5l13.1-1
				c-1.1-1.1-2.6-2.6-3.8-3.7v1.9l-9.3,0.7L347.6,411.5L347.6,411.5z M372.6,393.7c-1-0.8-2.3-1.8-3.8-2.9c-2.1,1.6-4.3,3-6.3,4.3
				c-1.4-1.4-4.5-3.8-6.3-4.9c2.1-1,4-2.1,5.9-3.4c-1.4-0.7-2.6-1.4-4-1.9l5.5-4.9c1.5,0.5,3,1.4,4.5,2.1c1.1-1,1.9-2.1,2.6-3
				l7.8,1.8c-1.1,1.6-2.5,3.3-4,4.8c1.4,1,2.6,1.9,3.7,2.6L372.6,393.7z"/>
			<g id="XMLID_195_">
				<path id="XMLID_200_" class="st21" d="M436.9,371.4l-14.4,1.1v-25l46.6-3.6c-0.8-2.2-1.8-4.3-2.6-6l17.6-6.3
					c1.9,3.2,3.8,7.3,5.1,10.9l43.3-3.3v25l-14.2,1.1v12.1l-9.8,0.7c6.7,5.1,13.6,10.9,17.6,15.5l-14,10.6c-1.6-2.1-3.8-4.5-6.5-7
					c-53.6,8.2-60.9,9.5-66.4,12c-0.8-3.2-3.3-10.6-5.1-14.8c3-0.7,5.6-2.3,8.9-5.1c1.6-1.1,4.5-3.4,8.1-6.7l-14.3,1.1v-12.3
					L436.9,371.4L436.9,371.4z M533.1,428.2v15.7l-110.3,8.4v-15.7l45.3-3.4v-7.1l-34.5,2.6v-15.4l34.5-2.6v-7.4l18.5-1.4v7.4
					l37.2-2.9v15.4l-37.2,2.9v7.1L533.1,428.2z M440.1,362.3v5.8l73.9-5.6v-5.8L440.1,362.3z M492.8,385.9c-1.5-1.2-3-2.3-4.4-3.4
					l4.5-3.3l-19,1.4c-3.2,3-6.9,6.3-10.6,9.3L492.8,385.9z"/>
				<path id="XMLID_196_" class="st21" d="M652.6,417.9c0,9.2-1.8,14.3-7.7,17.6c-5.9,3.3-14,4.1-25,4.9c-0.7-5.1-3.4-13.1-5.9-17.7
					c6.2-0.1,14.7-0.7,17-1c2.2-0.1,3.2-1,3.2-2.9v-19.4c-3.2,4-6.7,8.7-8.7,12.1c-11.4-6.6-19.1-16.3-24.2-28.3
					c-5.4,14.3-13.5,25.4-26.1,33.1c-1.4-2.3-3.8-5.6-6.5-8.5v37l-18.3,1.4v-90.1l43.3-3.3c-0.4-2.3-0.7-4.8-0.7-7.1l-20.1,1.5
					v-15.5l35.9-2.7c0.3,7.8,0.8,15.5,2.1,22.7l41.6-3.2L652.6,417.9L652.6,417.9z M568.9,399c9.3-6.7,15.5-16.5,19.2-28.3
					l-19.2,1.5V399z M615.5,368.6c3.8,10.2,9.8,18.5,18.7,23.9v-25.3L615.5,368.6z"/>
			</g>
			<path id="XMLID_189_" class="st21" d="M829.3,402.8c5.2-1.2,10.6-2.5,15.7-3.7l0.7,10.7c-15.2,4-31.7,8.1-43.8,11.1l-2.7-11.4
				c5.1-1,11.4-2.5,18.1-4v-10l-15.2,1.1v-10.9l15.2-1.1v-6.9l12-1v6.9l14.7-1.1v10.9l-14.7,1.1V402.8L829.3,402.8L829.3,402.8z
				 M800.1,345.9l45.7-3.4v10.7l-10.7,0.8c4.1,5.2,8.5,11.5,10.4,16.2l-9.6,6.9c-0.4-1-0.8-2.2-1.5-3.4c-22.4,3.3-26.2,3.8-29.1,5.4
				c-0.7-2.3-2.7-7.8-4-11c1.4-0.5,2.7-1.9,4.1-4c0.8-1.2,2.5-4.3,4-8l-9.3,0.7L800.1,345.9L800.1,345.9z M829,364.2
				c-1.4-2.1-2.7-4-4.1-5.8l5.9-4l-7.7,0.5c-1.8,3.6-4,7.3-6.2,10.6L829,364.2z M860.2,397.9l-11.7,0.8v-52.8l11.7-0.8V397.9z
				 M877.2,336v67c0,6.2-1.1,9.5-4.8,11.7c-3.7,2.2-8.8,3-15.9,3.6c-0.5-3.3-2.5-8.5-4.3-11.5c4.4-0.1,9.1-0.5,10.6-0.7
				c1.5-0.1,2.1-0.7,2.1-2.2v-67L877.2,336z"/>
			<g id="XMLID_178_">
				<path id="XMLID_185_" class="st21" d="M1005.2,384c-0.1-6-1.5-14-3.3-21.8v33.1c0,7.1-0.8,11.5-5.1,14.4s-9.8,3.7-17.2,4.1
					c-0.4-4.3-2.1-10.7-4.1-15c-3,6-7.1,11.3-12.5,15.9c-2.1-4.1-6.7-9.8-10.4-12.5c13.5-10.7,16.5-25.1,17.4-47.1
					c-1.9,12.5-5.5,25.1-10,33.7c-2.5-1.8-8.2-4.7-11.4-6c1.2-2.1,2.2-4.5,3.2-7.1l-6.7,3.2c-0.5-3.2-1.6-7.1-3-11.1v31.6
					c0,7-1,11.4-5.1,14.3s-9.3,3.4-16.5,4c-0.3-4.4-2.1-10.7-4-14.8c-2.9,6.5-7,12-12.4,16.9c-2.1-4.3-6.9-10-10.7-12.9
					c12.9-10.9,15.7-25.7,16.5-48.1c-1.6,11.5-4.8,24.3-8.4,32.4c-2.5-1.6-8.2-4.4-11.3-5.6c3.3-7.6,5.4-18.7,6.6-28.7l12.9,1.6
					c0.1-2.7,0.1-5.5,0.1-8.7l-16.5,1.1v-17.5l22.3-1.6v-8.9l-17.3,1.4v-16.8l17.3-1.4v-13.3l17.6-1.4v13.3l15.7-1.2v16.8l-15.7,1.2
					v8.9l17.9-1.4v17.4l-9.1,0.7v7.8l6.3-2.7c2.5,4.1,4.8,9.2,6.3,13.9c1.2-5.1,2.1-10.4,2.7-15.8l12.6,1.4l0.1-6.7l-16.3,1.2v-17.3
					l22.4-1.6v-8.9l-19.4,1.5v-16.8l19.4-1.5v-13.3l17.4-1.4v13.3l18-1.4v16.8l-18,1.4v8.9l22.5-1.6v17.4l-14.4,1v6.6l9.1-2.7
					c4.3,10.3,7.3,24,7.8,33.2L1005.2,384z M924.6,348.5c-0.3,22.4-1.6,40.1-8.2,54.1c3.6-0.1,7.4-0.4,8.7-0.7
					c1.4-0.1,1.6-0.4,1.6-1.6v-51.9L924.6,348.5z M984.5,344c-0.4,22.8-1.8,40.8-8.9,54.8c4-0.1,8.2-0.5,9.6-0.5
					c1.4-0.1,1.6-0.5,1.6-1.8v-52.6L984.5,344z"/>
				<path id="XMLID_179_" class="st21" d="M1062.1,365.6c-0.1-1.4-0.4-3.2-0.7-4.9c-23.9,5.2-28.7,7-32,8.8
					c-0.8-3.4-3.7-11.5-5.8-16.1c3.7-1.2,6.5-4.3,10.6-9.6c1.4-1.5,3.7-4.8,6.3-8.9c-7.6,1.6-10.2,2.5-12.1,3.6
					c-1-3.3-3.7-11.3-5.6-15.5c2.6-1,4.8-3.7,7.3-7.7c2.3-3.8,9.5-19,13.2-33.1l17,5.5c-3.8,10.4-9.6,22-15.5,31.6l5.6-0.7
					c3.3-6,6.6-12.6,9.1-19.1l15.4,8.5c-0.7,1.5-1.5,2.9-2.2,4.4l13.3-6.3c4,6.9,8.4,15.8,10.4,21.8l-15.1,7.7
					c-1.6-5.8-5.9-15-9.3-22c-4.3,8.1-9.2,16.2-14.7,23.9l11.3-4c2.9,8.8,5.8,20.2,6.6,27.2L1062.1,365.6z M1042.5,373.8
					c-0.7,12.6-2.5,25.8-5.2,34.5c-3.2-1.5-9.9-2.9-13.6-3.7c3-8.1,4.4-20.5,4.9-31.9L1042.5,373.8z M1055.8,370.4
					c1.5,9.5,2.6,21.6,3,29.7l-13.6,3.7c0-8.4-1.1-20.6-2.2-30.1L1055.8,370.4z M1058.7,346.5c-0.7-2.9-1.5-5.6-2.1-8.1
					c-2.3,3.3-4.9,6.7-7.4,9.9L1058.7,346.5z M1124.8,353.1c6.9,10.3,16.2,20.2,25.4,26.1c-4.1,3.4-9.8,10.3-12.8,15.1
					c-7.1-6.2-14-15.7-19.6-26.2v34.3l-18.7,1.4v-32.6c-5.1,11-11.3,21.2-17.4,28.4c-2.5-3.4-7-8.2-10.9-11.4l-8.5,3.7
					c-1-5.9-3.4-15-5.5-21.7l11.8-4.7c1.6,5.1,3.7,11.1,5.1,16.2c7-7.3,13.9-16.6,19-26l-17.7,1.4v-17.2l24.2-1.8v-11.4l3.3-0.3
					c-1.4-5.9-4.5-14.4-7-21l12.8-4.8c-11.3,1.8-22.7,3.3-33.2,4.5c-0.5-4.4-2.6-10.9-4.4-14.8c23.5-3.2,49.6-7.8,68.3-12.9
					l8.1,15.4c-10.7,2.7-23.1,5.4-35.7,7.4c2.9,6.5,6,14.7,7.7,20.3l-14.4,5.5l12-1c4.9-7.6,10.4-19.1,13.9-28.6l16.1,3.6
					c-4.3,10.4-10.6,23.4-15.1,31.3c-3.2-1.9-9.3-4.3-13.6-5.8v10.9l27.9-2.1v17.2L1124.8,353.1z"/>
			</g>
		</g>
		<g id="XMLID_171_">
			<g id="XMLID_172_">
				<polygon id="XMLID_173_" class="st21" points="745.6,369.8 764.1,378.1 745.6,389.2 				"/>
			</g>
		</g>
		<g id="XMLID_2_">
			<g id="XMLID_8_">
				<polygon id="XMLID_10_" class="st21" points="713.9,372.4 732.2,380.7 713.9,391.8 				"/>
			</g>
		</g>
		<g id="XMLID_11_">
			<g id="XMLID_12_">
				<polygon id="XMLID_13_" class="st21" points="682,374.9 700.3,383.3 682,394.4 				"/>
			</g>
		</g>
		<g id="XMLID_14_">
			<g id="XMLID_15_">
				<polygon id="XMLID_21_" class="st22" points="743.5,367.7 762,376 743.5,387.1 				"/>
			</g>
		</g>
		<g id="XMLID_6_">
			<g id="XMLID_7_">
				<polygon id="XMLID_9_" class="st22" points="711.8,370.3 730.1,378.6 711.8,389.7 				"/>
			</g>
		</g>
		<g id="XMLID_1_">
			<g id="XMLID_3_">
				<polygon id="XMLID_5_" class="st22" points="679.9,372.8 698.2,381.2 679.9,392.3 				"/>
			</g>
		</g>
	</g>
</g>
<g id="圖層_3">
	<g id="XMLID_69_">
		<path id="XMLID_86_" class="st23" d="M399.1,431.4l-32,2.3v4c0,5.4-1.1,8.1-5.2,10c-4,1.8-8.9,2.2-15.2,2.7
			c-0.5-3.3-2.3-7.4-3.8-10.2c3.6-0.1,8.9-0.5,10.2-0.5c1.4-0.1,1.8-0.4,1.8-1.4v-3.5l-34.3,2.6v-9.9l34.3-2.6v-1.6
			c2.3-1.2,4.9-3,7.3-4.8l-24.5,1.9v-8.7l36-2.7l2.6-0.8l7,5.9c-4,3.2-8.8,6.6-13.7,9.6l29.8-2.2v9.9L399.1,431.4L399.1,431.4z
			 M333.4,419.6l-11.8,1v-19l6.2-0.4l-1.5-25.7c5.2-1.4,13.1-4.4,18-6.5l4.9,6.7c-3.3,1.5-7.1,2.9-11,4l0.1,1.6l10.3-0.8v7.6
			l-9.9,0.7l0.1,1.9l9.8-0.7v3.4c1.6-0.8,3.2-1.8,4.8-2.7c-1.4-0.8-2.9-1.5-4.1-2.1l5.6-5.1c1.5,0.7,3,1.4,4.7,2.2
			c1.2-1.1,2.2-2.3,3-3.6l8,1.8c-1.2,1.8-2.6,3.7-4.3,5.4c1.8,1.1,3.4,2.2,4.7,3.3l-6,5.6c-1.1-1.1-2.6-2.2-4.5-3.4
			c-1.9,1.6-4,3-5.9,4.3l25.7-1.9l0.3-2.1l-8.9,0.7v-7.4l9.6-0.7l0.1-1.9l-9.2,0.7v-7.7l9.8-0.7l0.1-1.9l-10.4,0.8v-7.6l22.7-1.8
			c-0.4,9.3-1.1,20.3-1.9,28.7l6.3-0.4v18.8l-12.4,1v-10l-52.6,4v9.9L333.4,419.6L333.4,419.6z M339.5,400.2l13.1-1
			c-1.1-1.1-2.6-2.6-3.8-3.7v1.9l-9.3,0.7L339.5,400.2z M364.3,382.5c-1-0.8-2.3-1.8-3.8-2.9c-2.1,1.6-4.3,3-6.3,4.3
			c-1.4-1.4-4.5-3.8-6.3-4.9c2.1-1,4-2.1,5.9-3.4c-1.4-0.7-2.6-1.4-4-1.9l5.5-4.9c1.5,0.5,3,1.4,4.5,2.1c1.1-1,1.9-2.1,2.6-3
			l7.8,1.8c-1.1,1.6-2.5,3.3-4,4.8c1.4,1,2.6,1.9,3.7,2.6L364.3,382.5z"/>
		<g id="XMLID_74_">
			<path id="XMLID_85_" class="st3" d="M428.8,360.1l-14.4,1.1v-25l46.6-3.6c-0.8-2.2-1.8-4.3-2.6-6l17.6-6.3
				c1.9,3.2,3.8,7.3,5.1,10.9l43.3-3.3v25l-14.2,1.1v12.2l-9.8,0.7c6.7,5.1,13.6,10.9,17.6,15.5L503.8,393c-1.6-2.1-3.8-4.5-6.5-7
				c-53.6,8.2-60.9,9.5-66.4,12c-0.8-3.2-3.3-10.6-5.1-14.8c3-0.7,5.6-2.3,8.9-5.1c1.6-1.1,4.5-3.4,8.1-6.7l-14.3,1.1v-12.2h0.3
				L428.8,360.1L428.8,360.1z M524.8,416.9v15.7L414.5,441v-15.7l45.3-3.4v-7.1l-34.5,2.6v-15.2l34.5-2.6v-7.4l18.5-1.4v7.3
				l37.2-2.9v15.4l-37.2,2.9v7.1L524.8,416.9z M431.8,351.1v5.8l74-5.6v-5.8L431.8,351.1z M484.7,374.8c-1.5-1.2-3-2.3-4.4-3.4
				l4.5-3.3l-19,1.4c-3.2,3-6.9,6.3-10.6,9.3L484.7,374.8z"/>
			<path id="XMLID_75_" class="st3" d="M644.5,406.8c0,9.2-1.8,14.3-7.7,17.6c-5.9,3.3-14,4.1-25,4.9c-0.7-5.1-3.4-13.1-5.9-17.7
				c6.2-0.1,14.7-0.7,17-1c2.2-0.1,3.2-1,3.2-2.9v-19.6c-3.2,4-6.7,8.7-8.7,12.1c-11.4-6.6-19.1-16.3-24.2-28.3
				c-5.4,14.3-13.5,25.4-26.1,33.1c-1.4-2.3-3.8-5.6-6.5-8.5v37l-18.3,1.4v-90l43.3-3.3c-0.4-2.3-0.7-4.8-0.7-7.1l-20.1,1.5v-15.5
				l35.9-2.7c0.3,7.8,0.8,15.5,2.1,22.7l41.6-3.2L644.5,406.8L644.5,406.8L644.5,406.8z M560.7,387.8c9.3-6.7,15.5-16.5,19.2-28.3
				l-19.2,1.5V387.8z M607.4,357.5c3.8,10.2,9.8,18.5,18.7,23.9V356L607.4,357.5z"/>
		</g>
		<path id="XMLID_73_" class="st23" d="M821.1,391.5c5.2-1.2,10.6-2.5,15.7-3.7l0.7,10.7c-15.2,4-31.7,8.1-43.8,11.1l-2.7-11.4
			c5.1-1,11.4-2.5,18.1-4v-10l-15.2,1.1v-10.7l15.2-1.1v-6.9l12-1v6.9l14.7-1.1v10.9l-14.7,1.1V391.5L821.1,391.5z M792,334.7
			l45.7-3.4V342l-10.7,0.8c4.1,5.2,8.5,11.5,10.4,16.2l-9.5,6.8c-0.4-1-0.8-2.2-1.5-3.4c-22.4,3.3-26.2,3.8-29.1,5.4
			c-0.7-2.3-2.7-7.8-4-11c1.4-0.5,2.7-1.9,4.1-4c0.8-1.2,2.5-4.3,4-8l-9.3,0.7v-10.8L792,334.7L792,334.7z M820.9,352.9
			c-1.4-2.1-2.7-4-4.1-5.8l5.9-4l-7.7,0.5c-1.8,3.6-4,7.3-6.2,10.6L820.9,352.9z M851.9,386.6l-11.7,0.8v-52.8l11.7-0.8V386.6z
			 M868.9,324.8V392c0,6.2-1.1,9.5-4.8,11.7c-3.7,2.2-8.8,3-15.9,3.6c-0.5-3.3-2.5-8.5-4.3-11.5c4.4-0.1,9.1-0.5,10.6-0.7
			c1.5-0.1,2.1-0.7,2.1-2.2v-67L868.9,324.8z"/>
		<g id="XMLID_70_">
			<path id="XMLID_72_" class="st3" d="M997,372.8c-0.1-6-1.5-14-3.3-21.8v33.1c0,7.1-0.8,11.5-5.1,14.4s-9.8,3.7-17.2,4.1
				c-0.4-4.3-2.1-10.7-4.1-15c-3,6-7.1,11.3-12.5,15.9c-2.1-4.1-6.7-9.8-10.4-12.5c13.5-10.7,16.5-25.1,17.4-47.1
				c-1.9,12.5-5.5,25.1-10,33.7c-2.5-1.8-8.2-4.7-11.4-6c1.2-2.1,2.2-4.5,3.2-7.1l-6.7,3.2c-0.5-3.2-1.6-7.1-3-11.1v31.7
				c0,7-1,11.4-5.1,14.3s-9.3,3.4-16.5,4c-0.3-4.4-2.1-10.7-4-14.8c-2.9,6.5-7,12-12.4,16.9c-2.1-4.3-6.9-10-10.7-12.9
				c12.9-10.9,15.7-25.7,16.5-48.1c-1.6,11.5-4.8,24.3-8.4,32.4c-2.5-1.6-8.2-4.4-11.3-5.6c3.3-7.6,5.4-18.7,6.6-28.7l12.9,1.6
				c0.1-2.7,0.1-5.5,0.1-8.7l-16.6,1.2v-17.4l22.3-1.6v-9.1l-17.3,1.4v-16.8l17.3-1.4v-13.2l17.6-1.4v13.3l15.7-1.2v16.8l-15.7,1.2
				v8.9l17.9-1.4v17.4l-9.1,0.7v7.8l6.3-2.7c2.5,4.1,4.8,9.2,6.3,13.9c1.2-5.1,2.1-10.4,2.7-15.8l12.6,1.4l0.1-6.7l-16.3,1.2v-17.4
				l22.4-1.6v-8.9l-19.4,1.5V292l19.4-1.5v-13.3l17.4-1.4v13.3l18-1.4v16.8l-18,1.4v8.9l22.5-1.6v17.4l-14.4,1.1v6.6l9.1-2.7
				c4.3,10.3,7.3,24,7.8,33.2L997,372.8z M916.5,337.4c-0.3,22.4-1.6,40.1-8.2,54.1c3.6-0.1,7.4-0.4,8.7-0.7
				c1.4-0.1,1.6-0.4,1.6-1.6v-52.1L916.5,337.4z M976.2,332.7c-0.4,22.8-1.8,40.8-8.9,54.8c4-0.1,8.2-0.5,9.6-0.5
				c1.4-0.1,1.6-0.5,1.6-1.8v-52.6L976.2,332.7z"/>
			<path id="XMLID_71_" class="st3" d="M1053.9,354.3c-0.1-1.4-0.4-3.2-0.7-4.9c-23.9,5.2-28.7,7-31.9,8.8
				c-0.8-3.4-3.7-11.5-5.8-16.1c3.7-1.2,6.5-4.3,10.6-9.6c1.4-1.5,3.7-4.8,6.3-8.9c-7.6,1.6-10.2,2.5-12.1,3.6
				c-1-3.3-3.7-11.3-5.6-15.5c2.6-1,4.8-3.7,7.3-7.7c2.3-3.8,9.5-19,13.2-33.1l17,5.5c-3.8,10.4-9.6,22-15.5,31.6l5.6-0.7
				c3.3-6,6.6-12.6,9.1-19.1l15.4,8.5c-0.7,1.5-1.5,2.9-2.2,4.4l13.3-6.3c4,6.9,8.4,15.8,10.4,21.8l-15.1,7.7
				c-1.6-5.8-5.9-15-9.3-22c-4.3,8.1-9.2,16.2-14.7,23.9l11.3-4c2.9,8.8,5.8,20.2,6.6,27.2L1053.9,354.3z M1034.3,362.5
				c-0.7,12.6-2.5,25.8-5.2,34.5c-3.2-1.5-9.9-2.9-13.6-3.7c3-8.1,4.4-20.5,4.9-31.9L1034.3,362.5z M1047.7,359.1
				c1.5,9.5,2.6,21.6,3,29.7l-13.6,3.7c0-8.4-1.1-20.6-2.2-30.1L1047.7,359.1z M1050.4,335.3c-0.7-2.9-1.5-5.6-2.1-8.1
				c-2.3,3.3-4.9,6.7-7.4,9.9L1050.4,335.3z M1116.6,341.9c6.9,10.3,16.2,20.2,25.4,26.1c-4.1,3.4-9.8,10.3-12.8,15.1
				c-7.1-6.2-14-15.7-19.6-26.2v34.3l-18.7,1.4v-32.7c-5.1,11-11.3,21.2-17.4,28.4c-2.5-3.4-7-8.2-10.9-11.4l-8.5,3.7
				c-1-5.9-3.4-15-5.5-21.7l11.8-4.7c1.6,5.1,3.7,11.1,5.1,16.2c7-7.3,13.9-16.6,19-26l-17.7,1.4v-17.2l24.2-1.8v-11.4l3.3-0.3
				c-1.4-5.9-4.5-14.4-7-21l12.8-4.8c-11.3,1.8-22.7,3.3-33.2,4.5c-0.5-4.4-2.6-10.9-4.4-14.8c23.5-3.2,49.6-7.8,68.3-12.9l8.1,15.4
				c-10.7,2.7-23.1,5.4-35.7,7.4c2.9,6.5,6,14.7,7.7,20.3l-14.3,5.8l12-1c4.9-7.6,10.4-19.1,13.9-28.6l16.1,3.6
				c-4.3,10.4-10.6,23.4-15.1,31.3c-3.2-1.9-9.3-4.3-13.6-5.8v10.9l27.9-2.1v16.8L1116.6,341.9z"/>
		</g>
	</g>
</g>
<g id="圖層_13">
	<g id="XMLID_87_">
		<path id="XMLID_108_" class="st7" d="M394.7,427l-32,2.3v4c0,5.4-1.1,8.1-5.2,10c-4,1.8-8.9,2.2-15.2,2.7
			c-0.5-3.3-2.3-7.4-3.8-10.2c3.6-0.1,8.9-0.5,10.2-0.5c1.4-0.1,1.8-0.4,1.8-1.4v-3.5l-34.3,2.6v-9.9l34.3-2.6v-1.6
			c2.3-1.2,4.9-3,7.3-4.8l-24.5,1.9v-8.7l36-2.7l2.6-0.8l7,5.9c-4,3.2-8.8,6.6-13.7,9.6l29.8-2.2v9.9L394.7,427L394.7,427z
			 M329,415.2l-11.8,1v-19l6.2-0.4l-1.5-25.7c5.2-1.4,13.1-4.4,18-6.5l4.9,6.7c-3.3,1.5-7.1,2.9-11,4l0.1,1.6l10.3-0.8v7.6l-9.9,0.7
			l0.1,1.9l9.8-0.7v3.4c1.6-0.8,3.2-1.8,4.8-2.7c-1.4-0.8-2.9-1.5-4.1-2.1l5.6-5.1c1.5,0.7,3,1.4,4.7,2.2c1.2-1.1,2.2-2.3,3-3.6
			l8,1.8c-1.2,1.8-2.6,3.7-4.3,5.4c1.8,1.1,3.4,2.2,4.7,3.3l-6,5.6c-1.1-1.1-2.6-2.2-4.5-3.4c-1.9,1.6-4,3-5.9,4.3l25.7-1.9l0.3-2.1
			l-8.9,0.7V384l9.6-0.7l0.1-1.9l-9.2,0.7v-7.7l9.8-0.7l0.1-1.9l-10.4,0.8V365l22.7-1.8c-0.4,9.3-1.1,20.3-1.9,28.7l6.3-0.4v18.8
			l-12.4,1v-10l-52.6,4v9.9L329,415.2L329,415.2z M335.1,395.8l13.1-1c-1.1-1.1-2.6-2.6-3.8-3.7v1.9l-9.3,0.7L335.1,395.8
			L335.1,395.8z M359.9,378.1c-1-0.8-2.3-1.8-3.8-2.9c-2.1,1.6-4.3,3-6.3,4.3c-1.4-1.4-4.5-3.8-6.3-4.9c2.1-1,4-2.1,5.9-3.4
			c-1.4-0.7-2.6-1.4-4-1.9l5.5-4.9c1.5,0.5,3,1.4,4.5,2.1c1.1-1,1.9-2.1,2.6-3l7.8,1.8c-1.1,1.6-2.5,3.3-4,4.8
			c1.4,1,2.6,1.9,3.7,2.6L359.9,378.1z"/>
		<g id="XMLID_103_">
			<path id="XMLID_107_" class="st7" d="M456.6,328.2c-0.8-2.2-1.8-4.3-2.6-6l17.6-6.3c1.9,3.2,3.8,7.3,5.1,10.9l43.3-3.3v25
				l-14.2,1.1v12.2l-9.8,0.7c6.7,5.1,13.6,10.9,17.6,15.5l-14.2,10.6c-1.6-2.1-3.8-4.5-6.5-7c-53.6,8.2-60.9,9.5-66.4,12
				c-0.8-3.2-3.3-10.6-5.1-14.8c3-0.7,5.6-2.3,8.9-5.1c1.6-1.1,4.5-3.4,8.1-6.7l-14.3,1.1v-12.2h0.3v-0.2l-14.4,1.1v-25L456.6,328.2
				 M520.4,412.5v15.7l-110.3,8.4v-15.7l45.3-3.4v-7.1l-34.5,2.6v-15.2l34.5-2.6v-7.4l18.5-1.4v7.3l37.2-2.9v15.4l-37.2,2.9v7.1
				L520.4,412.5z M427.4,346.7v5.8l74-5.6v-5.8L427.4,346.7z M480.3,370.4c-1.5-1.2-3-2.3-4.4-3.4l4.5-3.3l-19,1.4
				c-3.2,3-6.9,6.3-10.6,9.3L480.3,370.4z"/>
			<path id="XMLID_106_" class="st7" d="M640.1,402.4c0,9.2-1.8,14.3-7.7,17.6c-5.9,3.3-14,4.1-25,4.9c-0.7-5.1-3.4-13.1-5.9-17.7
				c6.2-0.1,14.7-0.7,17-1c2.2-0.1,3.2-1,3.2-2.9v-19.6c-3.2,4-6.7,8.7-8.7,12.1c-11.4-6.6-19.1-16.3-24.2-28.3
				c-5.4,14.3-13.5,25.4-26.1,33.1c-1.4-2.3-3.8-5.6-6.5-8.5v37l-18.3,1.4v-90l43.3-3.3c-0.4-2.3-0.7-4.8-0.7-7.1l-20.1,1.5v-15.5
				l35.9-2.7c0.3,7.8,0.8,15.5,2.1,22.7l41.6-3.2L640.1,402.4L640.1,402.4z M556.3,383.4c9.3-6.7,15.5-16.5,19.2-28.3l-19.2,1.5
				V383.4z M603,353.1c3.8,10.2,9.8,18.5,18.7,23.9v-25.4L603,353.1z"/>
		</g>
		<path id="XMLID_102_" class="st7" d="M816.7,387.1c5.2-1.2,10.6-2.5,15.7-3.7l0.7,10.7c-15.2,4-31.7,8.1-43.8,11.1l-2.7-11.4
			c5.1-1,11.4-2.5,18.1-4v-10l-15.2,1.1v-10.7l15.2-1.1v-6.9l12-1v6.9l14.7-1.1v10.9l-14.7,1.1V387.1L816.7,387.1z M787.6,330.3
			l45.7-3.4v10.7l-10.7,0.8c4.1,5.2,8.5,11.5,10.4,16.2l-9.5,6.8c-0.4-1-0.8-2.2-1.5-3.4c-22.4,3.3-26.2,3.8-29.1,5.4
			c-0.7-2.3-2.7-7.8-4-11c1.4-0.5,2.7-1.9,4.1-4c0.8-1.2,2.5-4.3,4-8l-9.3,0.7v-10.8H787.6z M816.5,348.5c-1.4-2.1-2.7-4-4.1-5.8
			l5.9-4l-7.7,0.5c-1.8,3.6-4,7.3-6.2,10.6L816.5,348.5z M847.5,382.2l-11.7,0.8v-52.8l11.7-0.8V382.2z M864.5,320.4v67.2
			c0,6.2-1.1,9.5-4.8,11.7c-3.7,2.2-8.8,3-15.9,3.6c-0.5-3.3-2.5-8.5-4.3-11.5c4.4-0.1,9.1-0.5,10.6-0.7c1.5-0.1,2.1-0.7,2.1-2.2
			v-67L864.5,320.4z"/>
		<g id="XMLID_91_">
			<path id="XMLID_101_" class="st7" d="M992.6,368.4c-0.1-6-1.5-14-3.3-21.8v33.1c0,7.1-0.8,11.5-5.1,14.4
				c-4.3,2.9-9.8,3.7-17.2,4.1c-0.4-4.3-2.1-10.7-4.1-15c-3,6-7.1,11.3-12.5,15.9c-2.1-4.1-6.7-9.8-10.4-12.5
				c13.5-10.7,16.5-25.1,17.4-47.1c-1.9,12.5-5.5,25.1-10,33.7c-2.5-1.8-8.2-4.7-11.4-6c1.2-2.1,2.2-4.5,3.2-7.1l-6.7,3.2
				c-0.5-3.2-1.6-7.1-3-11.1v31.7c0,7-1,11.4-5.1,14.3s-9.3,3.4-16.5,4c-0.3-4.4-2.1-10.7-4-14.8c-2.9,6.5-7,12-12.4,16.9
				c-2.1-4.3-6.9-10-10.7-12.9c12.9-10.9,15.7-25.7,16.5-48.1c-1.6,11.5-4.8,24.3-8.4,32.4c-2.5-1.6-8.2-4.4-11.3-5.6
				c3.3-7.6,5.4-18.7,6.6-28.7l12.9,1.6c0.1-2.7,0.1-5.5,0.1-8.7l-16.6,1.2v-17.4l22.3-1.6v-9.1l-17.3,1.4V292l17.3-1.4v-13.2
				l17.6-1.4v13.3l15.7-1.2v16.8l-15.7,1.2v8.9l17.9-1.4V331l-9.1,0.7v7.8l6.3-2.7c2.5,4.1,4.8,9.2,6.3,13.9
				c1.2-5.1,2.1-10.4,2.7-15.8l12.6,1.4l0.1-6.7l-16.3,1.2v-17.4l22.4-1.6v-8.9l-19.4,1.5v-16.8l19.4-1.5v-13.3l17.4-1.4v13.3
				l18-1.4v16.8l-18,1.4v8.9l22.5-1.6v17.4l-14.4,1.1v6.6l9.1-2.7c4.3,10.3,7.3,24,7.8,33.2L992.6,368.4z M912.1,333
				c-0.3,22.4-1.6,40.1-8.2,54.1c3.6-0.1,7.4-0.4,8.7-0.7c1.4-0.1,1.6-0.4,1.6-1.6v-52.1L912.1,333z M971.8,328.3
				c-0.4,22.8-1.8,40.8-8.9,54.8c4-0.1,8.2-0.5,9.6-0.5c1.4-0.1,1.6-0.5,1.6-1.8v-52.6L971.8,328.3z"/>
			<path id="XMLID_97_" class="st7" d="M1049.5,349.9c-0.1-1.4-0.4-3.2-0.7-4.9c-23.9,5.2-28.7,7-31.9,8.8
				c-0.8-3.4-3.7-11.5-5.8-16.1c3.7-1.2,6.5-4.3,10.6-9.6c1.4-1.5,3.7-4.8,6.3-8.9c-7.6,1.6-10.2,2.5-12.1,3.6
				c-1-3.3-3.7-11.3-5.6-15.5c2.6-1,4.8-3.7,7.3-7.7c2.3-3.8,9.5-19,13.2-33.1l17,5.5c-3.8,10.4-9.6,22-15.5,31.6l5.6-0.7
				c3.3-6,6.6-12.6,9.1-19.1l15.4,8.5c-0.7,1.5-1.5,2.9-2.2,4.4l13.3-6.3c4,6.9,8.4,15.8,10.4,21.8l-15.1,7.7
				c-1.6-5.8-5.9-15-9.3-22c-4.3,8.1-9.2,16.2-14.7,23.9l11.3-4c2.9,8.8,5.8,20.2,6.6,27.2L1049.5,349.9z M1029.9,358.1
				c-0.7,12.6-2.5,25.8-5.2,34.5c-3.2-1.5-9.9-2.9-13.6-3.7c3-8.1,4.4-20.5,4.9-31.9L1029.9,358.1z M1043.3,354.7
				c1.5,9.5,2.6,21.6,3,29.7l-13.6,3.7c0-8.4-1.1-20.6-2.2-30.1L1043.3,354.7z M1046,330.9c-0.7-2.9-1.5-5.6-2.1-8.1
				c-2.3,3.3-4.9,6.7-7.4,9.9L1046,330.9z M1112.2,337.5c6.9,10.3,16.2,20.2,25.4,26.1c-4.1,3.4-9.8,10.3-12.8,15.1
				c-7.1-6.2-14-15.7-19.6-26.2v34.3l-18.7,1.4v-32.7c-5.1,11-11.3,21.2-17.4,28.4c-2.5-3.4-7-8.2-10.9-11.4l-8.5,3.7
				c-1-5.9-3.4-15-5.5-21.7l11.8-4.7c1.6,5.1,3.7,11.1,5.1,16.2c7-7.3,13.9-16.6,19-26l-17.7,1.4v-17.2l24.2-1.8V311l3.3-0.3
				c-1.4-5.9-4.5-14.4-7-21l12.8-4.8c-11.3,1.8-22.7,3.3-33.2,4.5c-0.5-4.4-2.6-10.9-4.4-14.8c23.5-3.2,49.6-7.8,68.3-12.9l8.1,15.4
				c-10.7,2.7-23.1,5.4-35.7,7.4c2.9,6.5,6,14.7,7.7,20.3l-14.3,5.8l12-1c4.9-7.6,10.4-19.1,13.9-28.6l16.1,3.6
				c-4.3,10.4-10.6,23.4-15.1,31.3c-3.2-1.9-9.3-4.3-13.6-5.8V321l27.9-2.1v16.8L1112.2,337.5z"/>
		</g>
	</g>
	<g id="XMLID_16_">
		<path id="XMLID_26_" class="st24" d="M394.7,427l-32,2.3v4c0,5.4-1.1,8.1-5.2,10c-4,1.8-8.9,2.2-15.2,2.7
			c-0.5-3.3-2.3-7.4-3.8-10.2c3.6-0.1,8.9-0.5,10.2-0.5c1.4-0.1,1.8-0.4,1.8-1.4v-3.5l-34.3,2.6v-9.9l34.3-2.6v-1.6
			c2.3-1.2,4.9-3,7.3-4.8l-24.5,1.9v-8.7l36-2.7l2.6-0.8l7,5.9c-4,3.2-8.8,6.6-13.7,9.6l29.8-2.2v9.9L394.7,427L394.7,427z
			 M329,415.2l-11.8,1v-19l6.2-0.4l-1.5-25.7c5.2-1.4,13.1-4.4,18-6.5l4.9,6.7c-3.3,1.5-7.1,2.9-11,4l0.1,1.6l10.3-0.8v7.6l-9.9,0.7
			l0.1,1.9l9.8-0.7v3.4c1.6-0.8,3.2-1.8,4.8-2.7c-1.4-0.8-2.9-1.5-4.1-2.1l5.6-5.1c1.5,0.7,3,1.4,4.7,2.2c1.2-1.1,2.2-2.3,3-3.6
			l8,1.8c-1.2,1.8-2.6,3.7-4.3,5.4c1.8,1.1,3.4,2.2,4.7,3.3l-6,5.6c-1.1-1.1-2.6-2.2-4.5-3.4c-1.9,1.6-4,3-5.9,4.3l25.7-1.9l0.3-2.1
			l-8.9,0.7V384l9.6-0.7l0.1-1.9l-9.2,0.7v-7.7l9.8-0.7l0.1-1.9l-10.4,0.8V365l22.7-1.8c-0.4,9.3-1.1,20.3-1.9,28.7l6.3-0.4v18.8
			l-12.4,1v-10l-52.6,4v9.9L329,415.2L329,415.2z M335.1,395.8l13.1-1c-1.1-1.1-2.6-2.6-3.8-3.7v1.9l-9.3,0.7L335.1,395.8
			L335.1,395.8z M359.9,378.1c-1-0.8-2.3-1.8-3.8-2.9c-2.1,1.6-4.3,3-6.3,4.3c-1.4-1.4-4.5-3.8-6.3-4.9c2.1-1,4-2.1,5.9-3.4
			c-1.4-0.7-2.6-1.4-4-1.9l5.5-4.9c1.5,0.5,3,1.4,4.5,2.1c1.1-1,1.9-2.1,2.6-3l7.8,1.8c-1.1,1.6-2.5,3.3-4,4.8
			c1.4,1,2.6,1.9,3.7,2.6L359.9,378.1z"/>
		<g id="XMLID_22_">
			<path id="XMLID_24_" class="st24" d="M456.6,328.2c-0.8-2.2-1.8-4.3-2.6-6l17.6-6.3c1.9,3.2,3.8,7.3,5.1,10.9l43.3-3.3v25
				l-14.2,1.1v12.2l-9.8,0.7c6.7,5.1,13.6,10.9,17.6,15.5l-14.2,10.6c-1.6-2.1-3.8-4.5-6.5-7c-53.6,8.2-60.9,9.5-66.4,12
				c-0.8-3.2-3.3-10.6-5.1-14.8c3-0.7,5.6-2.3,8.9-5.1c1.6-1.1,4.5-3.4,8.1-6.7l-14.3,1.1v-12.2h0.3v-0.2l-14.4,1.1v-25L456.6,328.2
				 M520.4,412.5v15.7l-110.3,8.4v-15.7l45.3-3.4v-7.1l-34.5,2.6v-15.2l34.5-2.6v-7.4l18.5-1.4v7.3l37.2-2.9v15.4l-37.2,2.9v7.1
				L520.4,412.5z M427.4,346.7v5.8l74-5.6v-5.8L427.4,346.7z M480.3,370.4c-1.5-1.2-3-2.3-4.4-3.4l4.5-3.3l-19,1.4
				c-3.2,3-6.9,6.3-10.6,9.3L480.3,370.4z"/>
			<path id="XMLID_23_" class="st24" d="M640.1,402.4c0,9.2-1.8,14.3-7.7,17.6c-5.9,3.3-14,4.1-25,4.9c-0.7-5.1-3.4-13.1-5.9-17.7
				c6.2-0.1,14.7-0.7,17-1c2.2-0.1,3.2-1,3.2-2.9v-19.6c-3.2,4-6.7,8.7-8.7,12.1c-11.4-6.6-19.1-16.3-24.2-28.3
				c-5.4,14.3-13.5,25.4-26.1,33.1c-1.4-2.3-3.8-5.6-6.5-8.5v37l-18.3,1.4v-90l43.3-3.3c-0.4-2.3-0.7-4.8-0.7-7.1l-20.1,1.5v-15.5
				l35.9-2.7c0.3,7.8,0.8,15.5,2.1,22.7l41.6-3.2L640.1,402.4L640.1,402.4z M556.3,383.4c9.3-6.7,15.5-16.5,19.2-28.3l-19.2,1.5
				V383.4z M603,353.1c3.8,10.2,9.8,18.5,18.7,23.9v-25.4L603,353.1z"/>
		</g>
		<path id="XMLID_20_" class="st24" d="M816.7,387.1c5.2-1.2,10.6-2.5,15.7-3.7l0.7,10.7c-15.2,4-31.7,8.1-43.8,11.1l-2.7-11.4
			c5.1-1,11.4-2.5,18.1-4v-10l-15.2,1.1v-10.7l15.2-1.1v-6.9l12-1v6.9l14.7-1.1v10.9l-14.7,1.1V387.1L816.7,387.1z M787.6,330.3
			l45.7-3.4v10.7l-10.7,0.8c4.1,5.2,8.5,11.5,10.4,16.2l-9.5,6.8c-0.4-1-0.8-2.2-1.5-3.4c-22.4,3.3-26.2,3.8-29.1,5.4
			c-0.7-2.3-2.7-7.8-4-11c1.4-0.5,2.7-1.9,4.1-4c0.8-1.2,2.5-4.3,4-8l-9.3,0.7v-10.8H787.6z M816.5,348.5c-1.4-2.1-2.7-4-4.1-5.8
			l5.9-4l-7.7,0.5c-1.8,3.6-4,7.3-6.2,10.6L816.5,348.5z M847.5,382.2l-11.7,0.8v-52.8l11.7-0.8V382.2z M864.5,320.4v67.2
			c0,6.2-1.1,9.5-4.8,11.7c-3.7,2.2-8.8,3-15.9,3.6c-0.5-3.3-2.5-8.5-4.3-11.5c4.4-0.1,9.1-0.5,10.6-0.7c1.5-0.1,2.1-0.7,2.1-2.2
			v-67L864.5,320.4z"/>
		<g id="XMLID_17_">
			<path id="XMLID_19_" class="st24" d="M992.6,368.4c-0.1-6-1.5-14-3.3-21.8v33.1c0,7.1-0.8,11.5-5.1,14.4
				c-4.3,2.9-9.8,3.7-17.2,4.1c-0.4-4.3-2.1-10.7-4.1-15c-3,6-7.1,11.3-12.5,15.9c-2.1-4.1-6.7-9.8-10.4-12.5
				c13.5-10.7,16.5-25.1,17.4-47.1c-1.9,12.5-5.5,25.1-10,33.7c-2.5-1.8-8.2-4.7-11.4-6c1.2-2.1,2.2-4.5,3.2-7.1l-6.7,3.2
				c-0.5-3.2-1.6-7.1-3-11.1v31.7c0,7-1,11.4-5.1,14.3s-9.3,3.4-16.5,4c-0.3-4.4-2.1-10.7-4-14.8c-2.9,6.5-7,12-12.4,16.9
				c-2.1-4.3-6.9-10-10.7-12.9c12.9-10.9,15.7-25.7,16.5-48.1c-1.6,11.5-4.8,24.3-8.4,32.4c-2.5-1.6-8.2-4.4-11.3-5.6
				c3.3-7.6,5.4-18.7,6.6-28.7l12.9,1.6c0.1-2.7,0.1-5.5,0.1-8.7l-16.6,1.2v-17.4l22.3-1.6v-9.1l-17.3,1.4V292l17.3-1.4v-13.2
				l17.6-1.4v13.3l15.7-1.2v16.8l-15.7,1.2v8.9l17.9-1.4V331l-9.1,0.7v7.8l6.3-2.7c2.5,4.1,4.8,9.2,6.3,13.9
				c1.2-5.1,2.1-10.4,2.7-15.8l12.6,1.4l0.1-6.7l-16.3,1.2v-17.4l22.4-1.6v-8.9l-19.4,1.5v-16.8l19.4-1.5v-13.3l17.4-1.4v13.3
				l18-1.4v16.8l-18,1.4v8.9l22.5-1.6v17.4l-14.4,1.1v6.6l9.1-2.7c4.3,10.3,7.3,24,7.8,33.2L992.6,368.4z M912.1,333
				c-0.3,22.4-1.6,40.1-8.2,54.1c3.6-0.1,7.4-0.4,8.7-0.7c1.4-0.1,1.6-0.4,1.6-1.6v-52.1L912.1,333z M971.8,328.3
				c-0.4,22.8-1.8,40.8-8.9,54.8c4-0.1,8.2-0.5,9.6-0.5c1.4-0.1,1.6-0.5,1.6-1.8v-52.6L971.8,328.3z"/>
			<path id="XMLID_18_" class="st24" d="M1049.5,349.9c-0.1-1.4-0.4-3.2-0.7-4.9c-23.9,5.2-28.7,7-31.9,8.8
				c-0.8-3.4-3.7-11.5-5.8-16.1c3.7-1.2,6.5-4.3,10.6-9.6c1.4-1.5,3.7-4.8,6.3-8.9c-7.6,1.6-10.2,2.5-12.1,3.6
				c-1-3.3-3.7-11.3-5.6-15.5c2.6-1,4.8-3.7,7.3-7.7c2.3-3.8,9.5-19,13.2-33.1l17,5.5c-3.8,10.4-9.6,22-15.5,31.6l5.6-0.7
				c3.3-6,6.6-12.6,9.1-19.1l15.4,8.5c-0.7,1.5-1.5,2.9-2.2,4.4l13.3-6.3c4,6.9,8.4,15.8,10.4,21.8l-15.1,7.7
				c-1.6-5.8-5.9-15-9.3-22c-4.3,8.1-9.2,16.2-14.7,23.9l11.3-4c2.9,8.8,5.8,20.2,6.6,27.2L1049.5,349.9z M1029.9,358.1
				c-0.7,12.6-2.5,25.8-5.2,34.5c-3.2-1.5-9.9-2.9-13.6-3.7c3-8.1,4.4-20.5,4.9-31.9L1029.9,358.1z M1043.3,354.7
				c1.5,9.5,2.6,21.6,3,29.7l-13.6,3.7c0-8.4-1.1-20.6-2.2-30.1L1043.3,354.7z M1046,330.9c-0.7-2.9-1.5-5.6-2.1-8.1
				c-2.3,3.3-4.9,6.7-7.4,9.9L1046,330.9z M1112.2,337.5c6.9,10.3,16.2,20.2,25.4,26.1c-4.1,3.4-9.8,10.3-12.8,15.1
				c-7.1-6.2-14-15.7-19.6-26.2v34.3l-18.7,1.4v-32.7c-5.1,11-11.3,21.2-17.4,28.4c-2.5-3.4-7-8.2-10.9-11.4l-8.5,3.7
				c-1-5.9-3.4-15-5.5-21.7l11.8-4.7c1.6,5.1,3.7,11.1,5.1,16.2c7-7.3,13.9-16.6,19-26l-17.7,1.4v-17.2l24.2-1.8V311l3.3-0.3
				c-1.4-5.9-4.5-14.4-7-21l12.8-4.8c-11.3,1.8-22.7,3.3-33.2,4.5c-0.5-4.4-2.6-10.9-4.4-14.8c23.5-3.2,49.6-7.8,68.3-12.9l8.1,15.4
				c-10.7,2.7-23.1,5.4-35.7,7.4c2.9,6.5,6,14.7,7.7,20.3l-14.3,5.8l12-1c4.9-7.6,10.4-19.1,13.9-28.6l16.1,3.6
				c-4.3,10.4-10.6,23.4-15.1,31.3c-3.2-1.9-9.3-4.3-13.6-5.8V321l27.9-2.1v16.8L1112.2,337.5z"/>
		</g>
	</g>
</g>
<g id="圖層_12">
</g>
<g id="圖層_6">
</g>
</svg>
