<?xml version="1.0" encoding="utf-8"?>
<!-- Generator: Adobe Illustrator 19.0.0, SVG Export Plug-In . SVG Version: 6.00 Build 0)  -->
<svg version="1.1" id="圖層_1" xmlns="http://www.w3.org/2000/svg" xmlns:xlink="http://www.w3.org/1999/xlink" x="0px" y="0px"
	 viewBox="-52.1 208.2 1079.9 425.7" style="enable-background:new -52.1 208.2 1079.9 425.7;" xml:space="preserve">
<style type="text/css">
	.st0{fill:#F9E153;}
	.st1{fill:none;stroke:#FFFFFF;stroke-width:2.8346;stroke-miterlimit:10;}
	.st2{fill:#103D65;}
	.st3{fill:none;stroke:#103D65;stroke-width:1.4173;stroke-miterlimit:10;}
	.st4{fill:none;stroke:#103D65;stroke-width:2.8346;stroke-miterlimit:10;}
	.st5{fill:#FFFFFF;stroke:#103D65;stroke-width:1.4173;stroke-miterlimit:10;}
	.st6{fill:#103D65;stroke:#FFFFFF;stroke-width:2.8346;stroke-miterlimit:10;}
	.st7{fill:#FFFFFF;}
</style>
<path id="XMLID_213_" class="st0" d="M833.9,489.2l-855.1,51.2v-16.6c0-116.5,90.8-212.9,207.1-219.9l357.4-21.4l34.1-2l33.2-2
	l329.9-19.8c28.2-1.7,52,20.7,52,49v13C992.6,410,923,483.8,833.9,489.2z"/>
<g id="XMLID_439_">
	<g id="XMLID_210_">
		<g id="XMLID_237_">
			<line id="XMLID_323_" class="st1" x1="687.2" y1="370.3" x2="687.2" y2="510.7"/>
			<line id="XMLID_324_" class="st1" x1="687.2" y1="370.3" x2="832.2" y2="505.5"/>
			<line id="XMLID_325_" class="st1" x1="687.2" y1="370.3" x2="934" y2="476.3"/>
			<line id="XMLID_332_" class="st1" x1="944.7" y1="433.1" x2="687.2" y2="370.3"/>
			<line id="XMLID_333_" class="st1" x1="962.1" y1="407.5" x2="687.2" y2="370.3"/>
			<line id="XMLID_5_" class="st1" x1="928.9" y1="383.4" x2="687.2" y2="370.3"/>
			<path id="XMLID_9_" class="st1" d="M928.9,383.4"/>
			<path id="XMLID_6_" class="st1" d="M992.6,386.8"/>
			<line id="XMLID_3_" class="st1" x1="956.4" y1="365.5" x2="687.2" y2="370.3"/>
			<line id="XMLID_334_" class="st1" x1="992.6" y1="342" x2="687.2" y2="370.3"/>
			<line id="XMLID_335_" class="st1" x1="992.6" y1="314" x2="687.2" y2="370.3"/>
			<line id="XMLID_336_" class="st1" x1="992.6" y1="272.2" x2="687.2" y2="370.3"/>
			<line id="XMLID_440_" class="st1" x1="865.4" y1="263.1" x2="687.2" y2="370.3"/>
			<line id="XMLID_441_" class="st1" x1="739.5" y1="270.7" x2="687.2" y2="370.3"/>
			<line id="XMLID_442_" class="st1" x1="687.2" y1="370.3" x2="638" y2="276.9"/>
			<line id="XMLID_443_" class="st1" x1="687.2" y1="370.3" x2="541.3" y2="282.7"/>
			<line id="XMLID_444_" class="st1" x1="687.2" y1="370.3" x2="434" y2="289.1"/>
			<line id="XMLID_338_" class="st1" x1="687.2" y1="370.3" x2="247.8" y2="289.4"/>
			<line id="XMLID_339_" class="st1" x1="687.2" y1="370.3" x2="88.6" y2="314"/>
			<line id="XMLID_340_" class="st1" x1="687.2" y1="370.3" x2="150.7" y2="360.7"/>
			<line id="XMLID_341_" class="st1" x1="687.2" y1="370.3" x2="160.6" y2="398.9"/>
			<line id="XMLID_342_" class="st1" x1="687.2" y1="370.3" x2="209.6" y2="434.9"/>
			<line id="XMLID_343_" class="st1" x1="687.2" y1="370.3" x2="294.1" y2="466.1"/>
			<line id="XMLID_344_" class="st1" x1="687.2" y1="370.3" x2="407.7" y2="490.2"/>
			<line id="XMLID_345_" class="st1" x1="687.2" y1="370.3" x2="542.1" y2="505.5"/>
		</g>
	</g>
</g>
<path id="XMLID_217_" class="st2" d="M785.5,548.7L30.9,593.9c-28.2,1.7-52-20.7-52-49v-50.2L992.6,328.8v0
	C992.6,445.3,901.8,541.7,785.5,548.7z"/>
<g id="XMLID_170_">
	<path id="XMLID_205_" class="st3" d="M127.8,443.1l-32,2.5v4c0,5.4-1.1,8.1-5.2,10c-4,1.8-8.9,2.2-15.2,2.7
		c-0.5-3.3-2.3-7.4-3.8-10.2c3.6-0.1,8.9-0.5,10.2-0.5c1.4-0.1,1.8-0.4,1.8-1.4v-3.6L49,449.3v-9.9l34.3-2.6v-1.6
		c2.3-1.2,4.9-3,7.3-4.8l-24.5,1.8v-8.7l36-2.7l2.6-0.8l7,5.9c-4,3.2-8.8,6.6-13.7,9.6l29.8-2.2v9.9H127.8z M62.1,431.4l-11.8,1v-19
		l6.2-0.4l-1.5-25.8c5.2-1.4,13.1-4.4,18-6.5l4.9,6.7c-3.3,1.5-7.1,2.9-11,4l0.1,1.6l10.3-0.8v7.6l-9.9,0.7l0.1,1.9l9.8-0.7v3.4
		c1.6-0.8,3.2-1.8,4.8-2.7c-1.4-0.8-2.9-1.5-4.1-2.1l5.6-5.1c1.5,0.7,3,1.4,4.7,2.2c1.2-1.1,2.2-2.3,3-3.6l8,1.8
		c-1.2,1.8-2.6,3.7-4.3,5.4c1.8,1.1,3.4,2.2,4.7,3.3l-6,5.6c-1.1-1.1-2.6-2.2-4.5-3.4c-1.9,1.6-4,3-5.9,4.3l25.7-1.9l0.3-2.1
		l-8.9,0.7V400l9.6-0.7l0.1-1.9l-9.2,0.7v-7.6l9.8-0.7l0.1-1.9l-10.4,0.8v-7.6l22.7-1.8c-0.4,9.3-1.1,20.3-1.9,28.7l6.3-0.4v18.8
		l-12.4,1v-10l-52.9,4V431.4z M68,412.1l13.1-1c-1.1-1.1-2.6-2.6-3.8-3.7v1.9l-9.3,0.7L68,412.1z M93,394.3c-1-0.8-2.3-1.8-3.8-2.9
		c-2.1,1.6-4.3,3-6.3,4.3c-1.4-1.4-4.5-3.8-6.3-4.9c2.1-1,4-2.1,5.9-3.4c-1.4-0.7-2.6-1.4-4-1.9l5.5-4.9c1.5,0.5,3,1.4,4.5,2.1
		c1.1-1,1.9-2.1,2.6-3l7.8,1.8c-1.1,1.6-2.5,3.3-4,4.8c1.4,1,2.6,1.9,3.7,2.6L93,394.3z"/>
	<g id="XMLID_195_">
		<path id="XMLID_200_" class="st4" d="M157.3,372l-14.4,1.1v-25l46.6-3.6c-0.8-2.2-1.8-4.3-2.6-6l17.6-6.3
			c1.9,3.2,3.8,7.3,5.1,10.9l43.3-3.3v25l-14.2,1.1V378l-9.8,0.7c6.7,5.1,13.6,10.9,17.6,15.5l-14,10.6c-1.6-2.1-3.8-4.5-6.5-7
			c-53.6,8.2-60.9,9.5-66.4,12c-0.8-3.2-3.3-10.6-5.1-14.8c3-0.7,5.6-2.3,8.9-5.1c1.6-1.1,4.5-3.4,8.1-6.7l-14.3,1.1V372z
			 M253.5,428.8v15.7l-110.3,8.4v-15.7l45.3-3.4v-7.1l-34.5,2.6v-15.4l34.5-2.6v-7.4l18.5-1.4v7.4l37.2-2.9v15.4l-37.2,2.9v7.1
			L253.5,428.8z M160.5,362.9v5.8l73.9-5.6v-5.8L160.5,362.9z M213.2,386.5c-1.5-1.2-3-2.3-4.4-3.4l4.5-3.3l-19,1.4
			c-3.2,3-6.9,6.3-10.6,9.3L213.2,386.5z"/>
		<path id="XMLID_196_" class="st4" d="M373,418.5c0,9.2-1.8,14.3-7.7,17.6c-5.9,3.3-14,4.1-25,4.9c-0.7-5.1-3.4-13.1-5.9-17.7
			c6.2-0.1,14.7-0.7,17-1c2.2-0.1,3.2-1,3.2-2.9V400c-3.2,4-6.7,8.7-8.7,12.1c-11.4-6.6-19.1-16.3-24.2-28.3
			c-5.4,14.3-13.5,25.4-26.1,33.1c-1.4-2.3-3.8-5.6-6.5-8.5v37l-18.3,1.4v-90.1l43.3-3.3c-0.4-2.3-0.7-4.8-0.7-7.1l-20.1,1.5v-15.5
			l35.9-2.7c0.3,7.8,0.8,15.5,2.1,22.7l41.6-3.2L373,418.5L373,418.5z M289.3,399.6c9.3-6.7,15.5-16.5,19.2-28.3l-19.2,1.5V399.6z
			 M335.9,369.2c3.8,10.2,9.8,18.5,18.7,23.9v-25.3L335.9,369.2z"/>
	</g>
	<path id="XMLID_189_" class="st3" d="M549.7,403.4c5.2-1.2,10.6-2.5,15.7-3.7l0.7,10.7c-15.2,4-31.7,8.1-43.8,11.1l-2.7-11.4
		c5.1-1,11.4-2.5,18.1-4v-10l-15.2,1.1v-10.9l15.2-1.1v-6.9l12-1v6.9l14.7-1.1v10.9l-14.7,1.1v8.2H549.7z M520.5,346.5l45.7-3.4
		v10.7l-10.7,0.8c4.1,5.2,8.5,11.5,10.4,16.2l-9.6,6.9c-0.4-1-0.8-2.2-1.5-3.4c-22.4,3.3-26.2,3.8-29.1,5.4c-0.7-2.3-2.7-7.8-4-11
		c1.4-0.5,2.7-1.9,4.1-4c0.8-1.2,2.5-4.3,4-8l-9.3,0.7V346.5z M549.4,364.8c-1.4-2.1-2.7-4-4.1-5.8l5.9-4l-7.7,0.5
		c-1.8,3.6-4,7.3-6.2,10.6L549.4,364.8z M580.6,398.5l-11.7,0.8v-52.8l11.7-0.8V398.5z M597.6,336.6v67c0,6.2-1.1,9.5-4.8,11.7
		c-3.7,2.2-8.8,3-15.9,3.6c-0.5-3.3-2.5-8.5-4.3-11.5c4.4-0.1,9.1-0.5,10.6-0.7c1.5-0.1,2.1-0.7,2.1-2.2v-67L597.6,336.6z"/>
	<g id="XMLID_178_">
		<path id="XMLID_185_" class="st4" d="M725.6,384.6c-0.1-6-1.5-14-3.3-21.8v33.1c0,7.1-0.8,11.5-5.1,14.4
			c-4.3,2.9-9.8,3.7-17.2,4.1c-0.4-4.3-2.1-10.7-4.1-15c-3,6-7.1,11.3-12.5,15.9c-2.1-4.1-6.7-9.8-10.4-12.5
			c13.5-10.7,16.5-25.1,17.4-47.1c-1.9,12.5-5.5,25.1-10,33.7c-2.5-1.8-8.2-4.7-11.4-6c1.2-2.1,2.2-4.5,3.2-7.1l-6.7,3.2
			c-0.5-3.2-1.6-7.1-3-11.1V400c0,7-1,11.4-5.1,14.3c-4.1,2.9-9.3,3.4-16.5,4c-0.3-4.4-2.1-10.7-4-14.8c-2.9,6.5-7,12-12.4,16.9
			c-2.1-4.3-6.9-10-10.7-12.9c12.9-10.9,15.7-25.7,16.5-48.1c-1.6,11.5-4.8,24.3-8.4,32.4c-2.5-1.6-8.2-4.4-11.3-5.6
			c3.3-7.6,5.4-18.7,6.6-28.7l12.9,1.6c0.1-2.7,0.1-5.5,0.1-8.7l-16.5,1.1V334l22.3-1.6v-8.9l-17.3,1.4v-16.8l17.3-1.4v-13.3
			l17.6-1.4v13.3l15.7-1.2v16.8l-15.7,1.2v8.9l17.9-1.4v17.4l-9.1,0.7v7.8l6.3-2.7c2.5,4.1,4.8,9.2,6.3,13.9
			c1.2-5.1,2.1-10.4,2.7-15.8l12.6,1.4l0.1-6.7l-16.3,1.2v-17.3l22.4-1.6v-8.9l-19.4,1.5v-16.8l19.4-1.5v-13.3l17.4-1.4v13.3l18-1.4
			v16.8l-18,1.4v8.9l22.5-1.6v17.4l-14.4,1v6.6l9.1-2.7c4.3,10.3,7.3,24,7.8,33.2L725.6,384.6z M645,349.1
			c-0.3,22.4-1.6,40.1-8.2,54.1c3.6-0.1,7.4-0.4,8.7-0.7c1.4-0.1,1.6-0.4,1.6-1.6V349L645,349.1z M704.9,344.6
			c-0.4,22.8-1.8,40.8-8.9,54.8c4-0.1,8.2-0.5,9.6-0.5c1.4-0.1,1.6-0.5,1.6-1.8v-52.6L704.9,344.6z"/>
		<path id="XMLID_179_" class="st4" d="M782.5,366.2c-0.1-1.4-0.4-3.2-0.7-4.9c-23.9,5.2-28.7,7-32,8.8c-0.8-3.4-3.7-11.5-5.8-16.1
			c3.7-1.2,6.5-4.3,10.6-9.6c1.4-1.5,3.7-4.8,6.3-8.9c-7.6,1.6-10.2,2.5-12.1,3.6c-1-3.3-3.7-11.3-5.6-15.5c2.6-1,4.8-3.7,7.3-7.7
			c2.3-3.8,9.5-19,13.2-33.1l17,5.5c-3.8,10.4-9.6,22-15.5,31.6l5.6-0.7c3.3-6,6.6-12.6,9.1-19.1l15.4,8.5c-0.7,1.5-1.5,2.9-2.2,4.4
			l13.3-6.3c4,6.9,8.4,15.8,10.4,21.8l-15.1,7.7c-1.6-5.8-5.9-15-9.3-22c-4.3,8.1-9.2,16.2-14.7,23.9l11.3-4
			c2.9,8.8,5.8,20.2,6.6,27.2L782.5,366.2z M762.9,374.4c-0.7,12.6-2.5,25.8-5.2,34.5c-3.2-1.5-9.9-2.9-13.6-3.7
			c3-8.1,4.4-20.5,4.9-31.9L762.9,374.4z M776.2,371c1.5,9.5,2.6,21.6,3,29.7l-13.6,3.7c0-8.4-1.1-20.6-2.2-30.1L776.2,371z
			 M779.1,347.1c-0.7-2.9-1.5-5.6-2.1-8.1c-2.3,3.3-4.9,6.7-7.4,9.9L779.1,347.1z M845.2,353.7c6.9,10.3,16.2,20.2,25.4,26.1
			c-4.1,3.4-9.8,10.3-12.8,15.1c-7.1-6.2-14-15.7-19.6-26.2V403l-18.7,1.4v-32.6c-5.1,11-11.3,21.2-17.4,28.4
			c-2.5-3.4-7-8.2-10.9-11.4l-8.5,3.7c-1-5.9-3.4-15-5.5-21.7l11.8-4.7c1.6,5.1,3.7,11.1,5.1,16.2c7-7.3,13.9-16.6,19-26l-17.7,1.4
			v-17.2l24.2-1.8v-11.4l3.3-0.3c-1.4-5.9-4.5-14.4-7-21l12.8-4.8c-11.3,1.8-22.7,3.3-33.2,4.5c-0.5-4.4-2.6-10.9-4.4-14.8
			c23.5-3.2,49.6-7.8,68.3-12.9l8.1,15.4c-10.7,2.7-23.1,5.4-35.7,7.4c2.9,6.5,6,14.7,7.7,20.3l-14.4,5.5l12-1
			c4.9-7.6,10.4-19.1,13.9-28.6l16.1,3.6c-4.3,10.4-10.6,23.4-15.1,31.3c-3.2-1.9-9.3-4.3-13.6-5.8v10.9l27.9-2.1v17.2L845.2,353.7z
			"/>
	</g>
	<g id="XMLID_171_">
		<g id="XMLID_172_">
			<polygon id="XMLID_173_" class="st1" points="469.1,383.2 487.6,391.5 469.1,402.6 			"/>
		</g>
	</g>
	<g id="XMLID_2_">
		<g id="XMLID_8_">
			<polygon id="XMLID_10_" class="st1" points="437.4,385.8 455.7,394.1 437.4,405.2 			"/>
		</g>
	</g>
	<g id="XMLID_11_">
		<g id="XMLID_12_">
			<polygon id="XMLID_13_" class="st1" points="405.5,388.3 423.8,396.7 405.5,407.8 			"/>
		</g>
	</g>
	<g id="XMLID_53_">
		<g id="XMLID_54_">
			<polygon id="XMLID_211_" class="st4" points="464.6,383.2 483,391.5 464.6,402.6 			"/>
		</g>
	</g>
	<g id="XMLID_50_">
		<g id="XMLID_51_">
			<polygon id="XMLID_52_" class="st4" points="432.7,385.8 451.1,394.1 432.7,405.2 			"/>
		</g>
	</g>
	<g id="XMLID_47_">
		<g id="XMLID_48_">
			<polygon id="XMLID_49_" class="st4" points="400.9,388.3 419.3,396.7 400.9,407.8 			"/>
		</g>
	</g>
</g>
<g id="XMLID_102_">
	<path id="XMLID_41_" class="st5" d="M120.2,442.6l-32,2.3v4c0,5.4-1.1,8.1-5.2,10c-4,1.8-8.9,2.2-15.2,2.7
		c-0.5-3.3-2.3-7.4-3.8-10.2c3.6-0.1,8.9-0.5,10.2-0.5c1.4-0.1,1.8-0.4,1.8-1.4V446l-34.3,2.6v-9.9l34.3-2.6v-1.6
		c2.3-1.2,4.9-3,7.3-4.8l-24.5,1.9v-8.7l36-2.7l2.6-0.8l7,5.9c-4,3.2-8.8,6.6-13.7,9.6l29.8-2.2v9.9H120.2z M54.5,430.8l-11.8,1v-19
		l6.2-0.4l-1.5-25.7c5.2-1.4,13.1-4.4,18-6.5l4.9,6.7c-3.3,1.5-7.1,2.9-11,4l0.1,1.6l10.3-0.8v7.6l-9.9,0.7l0.1,1.9l9.8-0.7v3.4
		c1.6-0.8,3.2-1.8,4.8-2.7c-1.4-0.8-2.9-1.5-4.1-2.1l5.6-5.1c1.5,0.7,3,1.4,4.7,2.2c1.2-1.1,2.2-2.3,3-3.6l8,1.8
		c-1.2,1.8-2.6,3.7-4.3,5.4c1.8,1.1,3.4,2.2,4.7,3.3l-6,5.6c-1.1-1.1-2.6-2.2-4.5-3.4c-1.9,1.6-4,3-5.9,4.3l25.7-1.9l0.3-2.1
		l-8.9,0.7v-7.4l9.6-0.7l0.1-1.9l-9.2,0.7V390l9.8-0.7l0.1-1.9l-10.4,0.8v-7.6l22.7-1.8c-0.4,9.3-1.1,20.3-1.9,28.7l6.3-0.4v18.8
		l-12.4,1v-10l-52.6,4v9.9H54.5z M60.6,411.4l13.1-1c-1.1-1.1-2.6-2.6-3.8-3.7v1.9l-9.3,0.7L60.6,411.4z M85.4,393.7
		c-1-0.8-2.3-1.8-3.8-2.9c-2.1,1.6-4.3,3-6.3,4.3c-1.4-1.4-4.5-3.8-6.3-4.9c2.1-1,4-2.1,5.9-3.4c-1.4-0.7-2.6-1.4-4-1.9l5.5-4.9
		c1.5,0.5,3,1.4,4.5,2.1c1.1-1,1.9-2.1,2.6-3l7.8,1.8c-1.1,1.6-2.5,3.3-4,4.8c1.4,1,2.6,1.9,3.7,2.6L85.4,393.7z"/>
	<g id="XMLID_31_">
		<path id="XMLID_36_" class="st6" d="M149.9,371.3l-14.4,1.1v-25l46.6-3.6c-0.8-2.2-1.8-4.3-2.6-6l17.6-6.3
			c1.9,3.2,3.8,7.3,5.1,10.9l43.3-3.3v25l-14.2,1.1v12.2l-9.8,0.7c6.7,5.1,13.6,10.9,17.6,15.5l-14.2,10.6c-1.6-2.1-3.8-4.5-6.5-7
			c-53.6,8.2-60.9,9.5-66.4,12c-0.8-3.2-3.3-10.6-5.1-14.8c3-0.7,5.6-2.3,8.9-5.1c1.6-1.1,4.5-3.4,8.1-6.7l-14.3,1.1v-12.2H149.9z
			 M245.9,428.1v15.7l-110.3,8.4v-15.7l45.3-3.4v-7.1l-34.5,2.6v-15.2l34.5-2.6v-7.4l18.5-1.4v7.3l37.2-2.9v15.4l-37.2,2.9v7.1
			L245.9,428.1z M152.9,362.3v5.8l74-5.6v-5.8L152.9,362.3z M205.8,386c-1.5-1.2-3-2.3-4.4-3.4l4.5-3.3l-19,1.4
			c-3.2,3-6.9,6.3-10.6,9.3L205.8,386z"/>
		<path id="XMLID_32_" class="st6" d="M365.6,418c0,9.2-1.8,14.3-7.7,17.6c-5.9,3.3-14,4.1-25,4.9c-0.7-5.1-3.4-13.1-5.9-17.7
			c6.2-0.1,14.7-0.7,17-1c2.2-0.1,3.2-1,3.2-2.9v-19.6c-3.2,4-6.7,8.7-8.7,12.1c-11.4-6.6-19.1-16.3-24.2-28.3
			c-5.4,14.3-13.5,25.4-26.1,33.1c-1.4-2.3-3.8-5.6-6.5-8.5v37l-18.3,1.4v-90l43.3-3.3c-0.4-2.3-0.7-4.8-0.7-7.1l-20.1,1.5v-15.5
			l35.9-2.7c0.3,7.8,0.8,15.5,2.1,22.7l41.6-3.2V418z M281.8,399c9.3-6.7,15.5-16.5,19.2-28.3l-19.2,1.5V399z M328.5,368.7
			c3.8,10.2,9.8,18.5,18.7,23.9v-25.4L328.5,368.7z"/>
	</g>
	<path id="XMLID_25_" class="st5" d="M542.2,402.7c5.2-1.2,10.6-2.5,15.7-3.7l0.7,10.7c-15.2,4-31.7,8.1-43.8,11.1l-2.7-11.4
		c5.1-1,11.4-2.5,18.1-4v-10l-15.2,1.1v-10.7l15.2-1.1v-6.9l12-1v6.9l14.7-1.1v10.9l-14.7,1.1v8.1H542.2z M513.1,345.9l45.7-3.4
		v10.7l-10.7,0.8c4.1,5.2,8.5,11.5,10.4,16.2L549,377c-0.4-1-0.8-2.2-1.5-3.4c-22.4,3.3-26.2,3.8-29.1,5.4c-0.7-2.3-2.7-7.8-4-11
		c1.4-0.5,2.7-1.9,4.1-4c0.8-1.2,2.5-4.3,4-8l-9.3,0.7V345.9z M542,364.1c-1.4-2.1-2.7-4-4.1-5.8l5.9-4l-7.7,0.5
		c-1.8,3.6-4,7.3-6.2,10.6L542,364.1z M573,397.8l-11.7,0.8v-52.8L573,345V397.8z M590,336v67.2c0,6.2-1.1,9.5-4.8,11.7
		s-8.8,3-15.9,3.6c-0.5-3.3-2.5-8.5-4.3-11.5c4.4-0.1,9.1-0.5,10.6-0.7c1.5-0.1,2.1-0.7,2.1-2.2v-67L590,336z"/>
	<g id="XMLID_14_">
		<path id="XMLID_21_" class="st6" d="M718.1,384c-0.1-6-1.5-14-3.3-21.8v33.1c0,7.1-0.8,11.5-5.1,14.4c-4.3,2.9-9.8,3.7-17.2,4.1
			c-0.4-4.3-2.1-10.7-4.1-15c-3,6-7.1,11.3-12.5,15.9c-2.1-4.1-6.7-9.8-10.4-12.5c13.5-10.7,16.5-25.1,17.4-47.1
			c-1.9,12.5-5.5,25.1-10,33.7c-2.5-1.8-8.2-4.7-11.4-6c1.2-2.1,2.2-4.5,3.2-7.1l-6.7,3.2c-0.5-3.2-1.6-7.1-3-11.1v31.7
			c0,7-1,11.4-5.1,14.3c-4.1,2.9-9.3,3.4-16.5,4c-0.3-4.4-2.1-10.7-4-14.8c-2.9,6.5-7,12-12.4,16.9c-2.1-4.3-6.9-10-10.7-12.9
			c12.9-10.9,15.7-25.7,16.5-48.1c-1.6,11.5-4.8,24.3-8.4,32.4c-2.5-1.6-8.2-4.4-11.3-5.6c3.3-7.6,5.4-18.7,6.6-28.7l12.9,1.6
			c0.1-2.7,0.1-5.5,0.1-8.7l-16.6,1.2v-17.4l22.3-1.6V323l-17.3,1.4v-16.8l17.3-1.4V293l17.6-1.4v13.3l15.7-1.2v16.8l-15.7,1.2v8.9
			l17.9-1.4v17.4l-9.1,0.7v7.8l6.3-2.7c2.5,4.1,4.8,9.2,6.3,13.9c1.2-5.1,2.1-10.4,2.7-15.8l12.6,1.4l0.1-6.7l-16.3,1.2V329
			l22.4-1.6v-8.9l-19.4,1.5v-16.8l19.4-1.5v-13.3l17.4-1.4v13.3l18-1.4v16.8l-18,1.4v8.9l22.5-1.6v17.4l-14.4,1.1v6.6l9.1-2.7
			c4.3,10.3,7.3,24,7.8,33.2L718.1,384z M637.6,348.6c-0.3,22.4-1.6,40.1-8.2,54.1c3.6-0.1,7.4-0.4,8.7-0.7c1.4-0.1,1.6-0.4,1.6-1.6
			v-52.1L637.6,348.6z M697.3,343.9c-0.4,22.8-1.8,40.8-8.9,54.8c4-0.1,8.2-0.5,9.6-0.5c1.4-0.1,1.6-0.5,1.6-1.8v-52.6L697.3,343.9z
			"/>
		<path id="XMLID_15_" class="st6" d="M775,365.5c-0.1-1.4-0.4-3.2-0.7-4.9c-23.9,5.2-28.7,7-31.9,8.8c-0.8-3.4-3.7-11.5-5.8-16.1
			c3.7-1.2,6.5-4.3,10.6-9.6c1.4-1.5,3.7-4.8,6.3-8.9c-7.6,1.6-10.2,2.5-12.1,3.6c-1-3.3-3.7-11.3-5.6-15.5c2.6-1,4.8-3.7,7.3-7.7
			c2.3-3.8,9.5-19,13.2-33.1l17,5.5c-3.8,10.4-9.6,22-15.5,31.6l5.6-0.7c3.3-6,6.6-12.6,9.1-19.1l15.4,8.5c-0.7,1.5-1.5,2.9-2.2,4.4
			l13.3-6.3c4,6.9,8.4,15.8,10.4,21.8l-15.1,7.7c-1.6-5.8-5.9-15-9.3-22c-4.3,8.1-9.2,16.2-14.7,23.9l11.3-4
			c2.9,8.8,5.8,20.2,6.6,27.2L775,365.5z M755.4,373.7c-0.7,12.6-2.5,25.8-5.2,34.5c-3.2-1.5-9.9-2.9-13.6-3.7
			c3-8.1,4.4-20.5,4.9-31.9L755.4,373.7z M768.8,370.3c1.5,9.5,2.6,21.6,3,29.7l-13.6,3.7c0-8.4-1.1-20.6-2.2-30.1L768.8,370.3z
			 M771.5,346.5c-0.7-2.9-1.5-5.6-2.1-8.1c-2.3,3.3-4.9,6.7-7.4,9.9L771.5,346.5z M837.7,353.1c6.9,10.3,16.2,20.2,25.4,26.1
			c-4.1,3.4-9.8,10.3-12.8,15.1c-7.1-6.2-14-15.7-19.6-26.2v34.3l-18.7,1.4v-32.7c-5.1,11-11.3,21.2-17.4,28.4
			c-2.5-3.4-7-8.2-10.9-11.4l-8.5,3.7c-1-5.9-3.4-15-5.5-21.7l11.8-4.7c1.6,5.1,3.7,11.1,5.1,16.2c7-7.3,13.9-16.6,19-26l-17.7,1.4
			v-17.2l24.2-1.8v-11.4l3.3-0.3c-1.4-5.9-4.5-14.4-7-21l12.8-4.8c-11.3,1.8-22.7,3.3-33.2,4.5c-0.5-4.4-2.6-10.9-4.4-14.8
			c23.5-3.2,49.6-7.8,68.3-12.9l8.1,15.4c-10.7,2.7-23.1,5.4-35.7,7.4c2.9,6.5,6,14.7,7.7,20.3l-14.3,5.8l12-1
			c4.9-7.6,10.4-19.1,13.9-28.6l16.1,3.6c-4.3,10.4-10.6,23.4-15.1,31.3c-3.2-1.9-9.3-4.3-13.6-5.8v10.9l27.9-2.1v16.8L837.7,353.1z
			"/>
	</g>
</g>
<g id="XMLID_85_">
	<g id="XMLID_7_">
		<path id="XMLID_164_" class="st7" d="M278,473.5c-1.8,4.7-3.8,9.5-6.5,14v44.6l-7.4,0.5v-33.5c-1.5,2.1-3,3.8-4.5,5.6
			c-0.7-1.8-2.9-5.8-4.1-7.7c6-6.3,12-16.1,15.4-25.6L278,473.5z M289.5,512.2c-2.6,5.8-6.6,12.4-10,16.6c-1.4-1.1-4.3-2.9-6-3.7
			c3.3-3.8,6.7-9.5,8.9-14.4L289.5,512.2z M299.9,507.4v22.8l-7.8,0.5V508l-17,1.2v-7l17-1.2v-5.8l-12.8,1v-22.4l34.2-2.6v22.4
			l-13.6,1.1v5.8l16.9-1.2v7L299.9,507.4z M286.7,488.7l19.1-1.5v-8.8l-19.1,1.5V488.7z M307.9,508.6c3.7,4,7.7,9.3,9.6,13.1
			l-6.2,4.1c-1.8-3.7-5.8-9.3-9.2-13.6L307.9,508.6z"/>
		<path id="XMLID_155_" class="st7" d="M375.6,508.4c-1.5,3.2-3,6.3-4.4,8.9l10.3-0.8v6.2l-37,2.7v-6.2l9.9-0.7
			c-0.4-2.3-1.6-5.5-3.2-8l6-2.1l-7.7,0.5v-15.4c-0.7,0.5-1.2,1.1-2.1,1.6c-1-1.4-3-3.7-4.5-4.8c2.3-1.6,4.4-4,6.3-6.6
			c-1.5-1.1-3.4-2.3-5.2-3.2v2.2l-22.5,1.8v-6.2l10.3-0.8c-1.1-2.3-2.9-5.5-4.4-7.8l5.2-3.6c1.8,2.5,4,5.9,4.9,8.2l-4,3.2l10.3-0.8
			v3.6l3.8-4.9c1.5,0.7,3.2,1.5,4.7,2.3c0.5-1.4,1.2-2.9,1.6-4.4l-7.8,0.5v-6l10.3-0.8l1.2-0.4l4.5,1.1c-1.1,5.5-2.7,10.6-4.9,15
			l11.1-0.8c-2.6-4.7-4.5-10-5.9-16.1l6.3-1.6c0.3,1.4,0.7,2.7,1.2,4.1c1.2-1.2,2.5-2.6,3.4-3.7l4.5,3.8c-1.9,1.8-4.1,3.6-5.9,5.1
			c0.3,0.8,0.7,1.6,1.2,2.3c1.5-1.2,3.3-2.7,4.3-3.8l4.4,3.8c-1.9,1.5-3.8,3-5.8,4.3c1.9,2.5,4.1,4.4,6.7,5.8c-1.6,1.4-4,4.3-5.1,6
			c-0.7-0.4-1.4-1-2.1-1.4v16.2l-6,0.4L375.6,508.4z M342.3,523.3l-12.5,1v2.7l-5.9,0.4v-22.4l18.4-1.4V523.3z M342.1,491.9l-18,1.4
			v-5.9l18-1.4V491.9z M324.1,496.1l18-1.4v5.9l-18,1.4V496.1z M329.8,510.8v7.3l6.6-0.5v-7.3L329.8,510.8z M355.1,487.1
			c-1.2,1.9-2.6,3.8-4.3,5.4l24.9-1.9c-1.8-1.4-3.3-3.2-4.8-5.1v2.5l-15.8,1.2V487.1z M356.1,502.7l13.1-1v-4.9l-13.1,1V502.7z
			 M357.9,508.4c1.6,2.6,3.2,6,3.6,8.2l-4.3,1.5l7.3-0.5c1.2-2.9,2.7-7,3.6-10L357.9,508.4z"/>
		<path id="XMLID_143_" class="st7" d="M408,478.1l-21.3,1.6v-6l9.2-0.7c-0.5-2.3-1.9-5.8-3.4-8.4l5.5-2.3c1.5,2.6,3.2,6.2,3.8,8.4
			l-4.7,2.2l10.9-0.8V478.1z M406.2,518.5l-12.2,1v2.7l-5.4,0.4v-22.3l17.6-1.4V518.5z M406,487.1l-16.6,1.2v-5.9l16.6-1.2V487.1z
			 M389.3,491.3l16.6-1.2v5.8l-16.6,1.2V491.3z M394,505.9v7.7l6.7-0.5v-7.7L394,505.9z M446.6,506.6c-1.9,1.5-4.1,2.9-6.3,4
			c2.3,1.4,4.9,2.2,8.1,2.7c-1.4,1.5-3.2,4.1-4,5.8c-8.7-1.9-14-7.1-17.2-14.8h-0.8c-1.2,1.2-2.7,2.5-4.3,3.6v5.1l7.6-1.8
			c0,1.8,0,4.3,0.3,5.8c-10.4,2.7-12.5,3.6-13.6,4.4c-0.5-1.1-2.2-3.3-3.2-4.1c1.1-1,2.7-2.9,3-5.8c-2.1,1.1-4,2.1-6.2,2.9
			c-0.7-1.2-2.5-3.6-3.6-4.5c3.8-1.2,7.7-2.9,11.1-4.9l-9.8,0.7v-5.2l9.2-0.7v-2.1l-6.3,0.4v-4.7l6.3-0.4v-2.2l-7.1,0.5v-4.7
			l7.1-0.5v-2.6l-6.3,0.4v-11.4l15.5-1.2v11.4l-2.5,0.1v2.9l6.9-0.5v-2.9l-2.1,0.1V471l15.8-1.2v11.4l-6.7,0.5v2.9l8-0.5v4.7l-8,0.5
			v2.2l7.3-0.5v4.7l-7.3,0.5v2.1l9.5-0.7v5.2l-13.6,1.1c0.8,1.4,1.6,2.6,2.7,3.7c2.3-1.4,4.8-3,6.3-4.3L446.6,506.6z M446.5,468
			l-37.9,2.9v-5.5l15.4-1.2c-0.4-1.1-1-2.3-1.4-3.2l6.5-2.5c1,1.5,1.9,3.4,2.5,5.1l15-1.1V468z M416.4,479.4l4.1-0.3v-3.4l-4.1,0.3
			V479.4z M423.9,492.4l6.9-0.5v-2.2l-6.9,0.5V492.4z M423.9,499.2l6.9-0.5v-2.1l-6.9,0.5V499.2z M434.4,478l4.4-0.3v-3.4l-4.4,0.3
			V478z"/>
		<path id="XMLID_138_" class="st7" d="M476.7,506.6c-4.4,4-12.2,8-19,10.2c-1-1.5-3-4-4.5-5.2c6.5-1.4,14-4.3,18-6.9L476.7,506.6z
			 M511.2,493v6.3l-25.3,1.9v14.8l-7.7,0.5v-14.8l-24.9,1.9v-6.3l24.9-1.9v-2.9l-18.8,1.4v-5.6l18.8-1.4v-2.9l-22,1.6v-5.9l12-1
			c-0.5-1.5-1.5-3.2-2.5-4.5l4.4-1.4l-16.5,1.5v-6l8.8-0.7c-1-2.3-2.6-5.4-4.1-7.7l6.6-2.7c1.9,2.6,4.1,6.3,4.9,8.8l-3.2,1.4l6-0.4
			v-10.6l7.1-0.5v10.6l4.9-0.4v-10.6l7.3-0.5v10.6l5.8-0.4l-2.3-0.5c1.5-2.7,3.3-6.9,4.1-9.8l8.1,1.2c-1.8,3.2-3.6,6.2-5.2,8.7
			l8.4-0.7v6l-17.2,1.4l6.2,1.1c-1.4,1.6-2.7,3.2-4,4.5l12.5-1v5.9l-22.5,1.8v2.9l19.5-1.5v5.6l-19.5,1.5v2.9L511.2,493z
			 M473.7,472.8c1.1,1.5,2.1,3.3,2.6,4.7l-3.6,1.1l17.7-1.4l-2.3-0.5c1.1-1.5,2.5-3.6,3.3-5.2L473.7,472.8z M493.9,502.5
			c5.2,1.5,12.9,4.3,17.2,6l-5.5,4.7c-3.7-1.9-11.4-4.7-16.9-6.6L493.9,502.5z"/>
		<path id="XMLID_132_" class="st7" d="M560.1,479.5c4.7,3.6,11.1,6.3,17.9,7.4c-1.6,1.6-4,4.8-5.1,7c-3.8-1-7.6-2.5-11-4.4v20.6
			l-8.1,0.5v-22.9l4.9-0.4c-2.9-2.1-5.5-4.4-7.6-7.3l-6.7,0.5c-2.2,3-4.9,5.8-7.8,8.4l5.5-0.4v4.5c0,6.2-1.9,14.6-14.8,20.3
			c-1.1-1.8-3.7-4.5-5.4-5.9c10.9-4.4,12.2-10,12.2-14.2v-2.3c-3.7,2.9-7.7,5.1-11.8,7c-1.1-1.8-3.4-4.5-5.1-6
			c6.5-2.3,12.9-6.3,17.6-10.6l-10.3,0.8v-27.8l46.4-3.6v27.6L560.1,479.5z M531.9,465l11.4-0.8v-4.7l-11.4,0.8V465z M531.9,475.4
			l11.4-0.8v-4.7l-11.4,0.8V475.4z M562.6,458l-11.4,0.8v4.7l11.4-0.8V458z M562.6,468.4l-11.4,0.8v4.7l11.4-0.8V468.4z"/>
		<path id="XMLID_125_" class="st7" d="M627.3,446.3c-0.4,0.5-0.8,1.1-1.2,1.6c4.4,3.6,11.1,7,17.2,8.8c-1.2,1.8-2.5,5.1-3,7
			c-3.3-1.4-6.9-3.2-10.2-5.2v3.6l-15.7,1.2v-2.9c-3.3,2.6-6.6,4.9-9.9,6.9c-0.4-1.1-1.5-3.2-2.6-4.9v3.6l-5.1,0.4v9.9l5.5-1.8l1,7
			c-2.2,0.7-4.3,1.5-6.5,2.2V499c0,3.6-0.5,5.5-2.6,6.7c-1.9,1.4-4.8,1.8-8.8,2.1c-0.1-1.9-1.1-4.9-2.1-6.9c2.1-0.1,4.3-0.3,4.9-0.3
			c0.8,0,1.1-0.3,1.1-1.2v-13.3l-5.5,1.8l-2.1-7.3c2.2-0.7,4.7-1.4,7.6-2.2v-11.5l-6.9,0.5v-7.1l6.9-0.5v-12.4l7.6-0.5v12.4l5.1-0.4
			v1.4c7.4-3.8,14.8-9.8,19-16.1L627.3,446.3z M613.1,486.4c-0.1,0.8-0.3,1.6-0.4,2.5l26.5-2.1v17.4l-6.7,0.5V503l-14.3,1.1v1.9
			l-6.5,0.5v-12.5c-1.2,4.7-3,9.1-5.8,12.8c-1.2-1.1-4.5-3.2-6.3-3.7c6-7.7,6.6-18.3,6.6-25.7v-10.7l31.2-2.3v20.3L613.1,486.4z
			 M630.6,479.8v-2.6l-16.9,1.2c0,0.8,0,1.6-0.1,2.6L630.6,479.8z M613.7,471.4v2.5l16.9-1.2v-2.5L613.7,471.4z M627.7,457
			c-1.9-1.4-3.7-2.7-5.4-4.1c-1.5,1.6-3.2,3.3-4.9,4.8L627.7,457z M618.2,493.9v4.7l14.3-1.1v-4.7L618.2,493.9z"/>
		<path id="XMLID_118_" class="st7" d="M684.7,472.8c-2.5,1.4-4.9,2.7-7.6,4l24.2-1.8v24.7l-8,0.5v-1.8l-24.9,1.9v1.6l-7.6,0.5v-19
			c-3.6,1.4-7.1,2.5-10.7,3.6c-0.7-1.5-2.3-4.5-3.4-5.9c7.4-1.9,14.8-4.4,21.8-7.4l-19.9,1.5v-6.6l21-1.6v-3.7l-15.7,1.2v-6.3
			l15.7-1.2v-3.6l7.7-0.5v3.6l14.3-1.1v5.4c3.3-2.5,6.2-4.9,8.5-7.7l5.8,3.2c-2.9,3-6.2,6-9.8,8.8l10.6-0.8v6.6L684.7,472.8z
			 M660.2,452.2l-11.8,1v-6.6l11.8-1V442l7.7-0.5v3.4l8.2-0.7v6.6l-8.2,0.7v4l-7.7,0.5V452.2z M693.2,481.4l-24.9,1.9v3.2l24.9-1.9
			L693.2,481.4L693.2,481.4z M693.2,492.7v-3.3l-24.9,1.9v3.3L693.2,492.7z M677.3,466.7l6.7-0.5c2.2-1.4,4.3-2.7,6.3-4.3l-13.1,1
			V466.7z M687.4,450.1l-8.8,0.7v-6.6l8.8-0.7V440l7.7-0.5v3.6l11.3-0.8v6.6l-11.3,0.8v4l-7.7,0.5V450.1z"/>
		<path id="XMLID_111_" class="st7" d="M759.2,477.7c-1.6,2.9-3.6,5.2-5.9,7.4c6.9,1.1,13.2,2.3,18.1,3.6l-7,6
			c-4.8-1.5-11.3-2.9-18.7-4.3c-7.4,4-17.3,6.5-29.9,8.2c-0.5-2.2-1.6-4.8-2.9-6.5c8-1,14.7-2.1,20.2-3.8c-4.1-0.5-8.4-1.1-12.8-1.5
			c1.5-1.9,3.3-4.1,4.9-6.6l-12.4,1V475l16.5-1.2c1.2-2.1,2.3-4.3,3.3-6.2l-15.8,1.2v-18.4l14-1.1v-3.7l-17.2,1.2v-6.7l56.7-4.3v6.7
			l-17.6,1.4v3.7l15.5-1.2v18.3l-34.5,2.6l6.9,1.1c-0.7,1.5-1.4,3-2.3,4.5l15.7-1.2c0.5-1.2,1-2.5,1.4-3.7l7.6,1.2
			c-0.1,0.7-0.4,1.2-0.7,1.9l9.8-0.7v6.3L759.2,477.7z M724.4,461.9l6.9-0.5v-6l-6.9,0.5V461.9z M734.3,479.7
			c-0.5,0.8-1.2,1.8-1.8,2.6c3.8,0.4,7.7,1,11.5,1.5c2.2-1.5,4.3-3.2,5.9-5.2L734.3,479.7z M738.5,448.7l7.4-0.5v-3.7l-7.4,0.5
			V448.7z M745.8,460.4v-6l-7.4,0.5v6L745.8,460.4z M753.1,453.7v6l7.8-0.5v-6L753.1,453.7z"/>
		<path id="XMLID_106_" class="st7" d="M798,434.1c-1.6,4.7-3.7,9.3-6.2,13.9v44.8l-7.4,0.5V460c-1.4,2.1-2.9,4-4.4,5.6
			c-0.7-1.9-2.9-5.9-4.1-7.7c5.9-6.3,11.5-15.9,14.8-25.4L798,434.1z M821.1,448.6V482c0,3.7-0.7,5.9-3,7.4
			c-2.3,1.4-5.4,1.9-9.6,2.3c-0.3-2.2-1.5-5.6-2.6-7.6c2.7-0.1,5.5-0.4,6.3-0.4c0.8,0,1.2-0.4,1.2-1.2v-33.4l-7.6,0.5
			c-1.8,3.8-4,7.6-6.2,10.4c-1.4-1.2-4.5-3.6-6.3-4.7c4.9-5.9,8.8-15.2,11.1-24.3l7.6,1.1c-0.8,3.4-1.9,6.6-3,9.9l22.4-1.6l1.2-0.4
			l5.5,0.7c-0.8,5.4-1.9,11.5-2.7,15.4l-6.6-0.5c0.3-2.1,0.7-4.8,1.1-7.7L821.1,448.6z M810.3,461.1c-1.9,8.4-5.2,16.9-8.8,22.4
			c-1.5-1.1-4.8-2.9-6.6-3.7c3.7-4.8,6.5-12.4,8-19.8L810.3,461.1z M830.3,457.4c3.4,6.5,6.2,14.8,7.1,20.7l-7.4,3.2
			c-0.7-5.8-3.4-14.4-6.6-20.9L830.3,457.4z"/>
		<path id="XMLID_103_" class="st7" d="M849.8,476.9c0-3.7,2.9-6.7,6.7-7c3.8-0.3,6.7,2.2,6.7,5.9c0,3.7-2.9,6.6-6.7,6.9
			C852.7,483.1,849.8,480.8,849.8,476.9z M850.9,443.7l-0.3-9.6l12-1l-0.3,9.8l-2.3,22.4l-6.7,0.5L850.9,443.7z"/>
	</g>
	<g id="XMLID_86_">
		<path id="XMLID_97_" class="st0" d="M108,533v8l-56.5,4.3v-8L108,533z M104.4,490.5v7.8l-49.3,3.7v-7.8L104.4,490.5z M99.3,511.7
			v7.8l-39.7,3v-7.8L99.3,511.7z"/>
		<path id="XMLID_91_" class="st0" d="M133.7,484.3c-1.4,4.3-3.2,8.5-5.1,12.8v46.2l-7.4,0.5v-33.4c-1.4,2.1-2.9,4.1-4.4,5.9
			c-0.5-1.8-2.5-6.3-3.7-8.1c5.4-6.3,10.3-16.1,13.3-25.7L133.7,484.3z M173.4,482.4v56.9l-7.4,0.5v-3.2l-24.5,1.9v3.7l-7,0.5v-57.6
			L173.4,482.4z M166.1,529.8v-40.3l-24.5,1.9v40.3L166.1,529.8z M156.6,504v5.6l6.3-0.4v17.4l-18,1.4v-17.4l5.8-0.4v-5.6l-7.6,0.5
			v-5.6l7.6-0.5v-6.6l6-0.4v6.6l7.8-0.5v5.6L156.6,504z M157.2,514.8l-6.6,0.5v6.9l6.6-0.5V514.8z"/>
		<path id="XMLID_87_" class="st0" d="M232,525.5c0,4.7-1.1,7-4.1,8.5c-3.2,1.6-7.7,2.1-14.4,2.6c-0.4-2.2-2.1-5.8-3.3-7.8
			c4.5-0.1,10-0.5,11.4-0.7c1.5-0.1,2.1-0.7,2.1-2.1v-9.5l-27.9,2.1c-1.6,7.4-4.9,14.7-11,20.3c-1.2-1.5-4.3-4.1-6-5.1
			c9.9-9.2,10.7-21.7,10.7-31.6v-21.4l42.3-3.2v47.8H232z M223.9,509.1v-8l-26.1,1.9c0,2.5-0.1,5.2-0.4,8L223.9,509.1z M197.8,487.8
			v8l26.1-1.9v-8L197.8,487.8z"/>
	</g>
</g>
<g id="XMLID_216_">
	<polygon id="XMLID_101_" class="st0" points="860,506.6 266.1,549.9 266.1,546.7 	"/>
	<polygon id="XMLID_1523_" class="st0" points="266.1,559.3 860,516.1 860,519.2 	"/>
</g>
<circle id="XMLID_1_" class="st0" cx="79.1" cy="563.2" r="3.4"/>
<circle id="XMLID_56_" class="st0" cx="152.1" cy="557.7" r="3.4"/>
<circle id="XMLID_57_" class="st0" cx="210.6" cy="552.3" r="3.4"/>
</svg>
