<?xml version="1.0" encoding="UTF-8"?>
<svg width="38px" height="38px" viewBox="0 0 38 38" version="1.1" xmlns="http://www.w3.org/2000/svg" xmlns:xlink="http://www.w3.org/1999/xlink">
    <!-- Generator: Sketch 51 (57462) - http://www.bohemiancoding.com/sketch -->
    <title>line (1) copy 2</title>
    <desc>Created with Sketch.</desc>
    <defs/>
    <g id="Page-1" stroke="none" stroke-width="1" fill="none" fill-rule="evenodd">
        <g id="line-(1)-copy-2" transform="translate(1.000000, 1.000000)" fill-rule="nonzero">
            <circle id="Oval" stroke="#EFEEF0" cx="18" cy="18" r="18"/>
            <g id="Group-24" transform="translate(9.000000, 9.000000)">
                <path d="M18.1877709,8.18700876 C18.2296556,7.96611727 18.2504109,7.78031662 18.2599471,7.63453073 C18.2757162,7.39394351 18.257828,7.03680237 18.2513458,6.92492308 C18.0297687,3.07066587 14.0309722,0 9.13053451,0 C4.08786367,0 0,3.25148025 0,7.2624308 C0,10.9490872 3.45348626,13.9939492 7.92772304,14.462284 C8.20128194,14.4908927 8.39842634,14.7378997 8.36813479,15.011147 L8.17765951,16.7257984 C8.134466,17.1149763 8.53685749,17.3981961 8.88963565,17.2279152 C12.6697845,15.4035659 14.9301825,13.5267363 16.2799018,11.9008403 C16.5255376,11.6049056 17.3264562,10.4828716 17.4897564,10.1881211 C17.8364263,9.56234495 18.075393,8.89032126 18.1877709,8.18700876 Z" id="Shape" stroke="#EFEEF0"/>
                <g id="Group" transform="translate(2.587912, 5.212912)" fill="#EFEEF0">
                    <path d="M0.934176511,3.52616106 L0.934176511,0.467088255 C0.934176511,0.209111435 0.725065076,0 0.467088255,0 C0.209111435,0 0,0.209111435 0,0.467088255 L0,3.99318698 C0,4.2511638 0.209111435,4.46027524 0.467088255,4.46027524 L2.33531662,4.46027524 C2.59329344,4.46027524 2.80240488,4.2511638 2.80240488,3.99318698 C2.80240488,3.73521016 2.59329344,3.52609873 2.33531662,3.52609873 L0.934176511,3.52609873 L0.934176511,3.52616106 Z" id="Shape"/>
                    <path d="M3.99769111,4.46027524 L3.79356593,4.46027524 C3.59199622,4.46027524 3.42857143,4.29685045 3.42857143,4.09528073 L3.42857143,0.364994505 C3.42857143,0.163424794 3.59199622,0 3.79356593,0 L3.99769111,0 C4.19926082,0 4.36268561,0.163424794 4.36268561,0.364994505 L4.36268561,4.09528073 C4.36268561,4.2969751 4.19926082,4.46027524 3.99769111,4.46027524 Z" id="Shape"/>
                    <path d="M7.85158259,0.467053322 L7.85158259,2.62118158 C7.85158259,2.62118158 5.98640831,0.188321179 5.95792428,0.156346763 C5.86885714,0.0563098466 5.73746909,-0.00514585396 5.59174554,0.000339036152 C5.33775773,0.00999992214 5.14285714,0.232013315 5.14285714,0.486250437 L5.14285714,3.99315205 C5.14285714,4.25112887 5.35196858,4.46024031 5.6099454,4.46024031 C5.86792222,4.46024031 6.07703365,4.25112887 6.07703365,3.99315205 L6.07703365,1.85211273 C6.07703365,1.85211273 7.97056731,4.30610243 7.99842806,4.33252963 C8.08107538,4.41075164 8.19195742,4.4591184 8.31443252,4.46017798 C8.57384289,4.46254645 8.78582143,4.23311599 8.78582143,3.97376795 L8.78582143,0.46711565 C8.78582143,0.20913883 8.57670999,2.73946686e-05 8.31873317,2.73946686e-05 C8.06075635,-3.49336281e-05 7.85158259,0.209076502 7.85158259,0.467053322 Z" id="Shape"/>
                    <path d="M12.2309763,0.467088255 C12.2309763,0.209111435 12.0218649,0 11.763888,0 L9.89565968,0 C9.63768286,0 9.42857143,0.209111435 9.42857143,0.467088255 L9.42857143,3.99318698 C9.42857143,4.2511638 9.63768286,4.46027524 9.89565968,4.46027524 L11.763888,4.46027524 C12.0218649,4.46027524 12.2309763,4.2511638 12.2309763,3.99318698 C12.2309763,3.73521016 12.0218649,3.52609873 11.763888,3.52609873 L10.3627479,3.52609873 L10.3627479,2.69713238 L11.763888,2.69713238 C12.0218649,2.69713238 12.2309763,2.48802095 12.2309763,2.23004413 C12.2309763,1.97206731 12.0218649,1.76295587 11.763888,1.76295587 L10.3627479,1.76295587 L10.3627479,0.933989526 L11.763888,0.933989526 C12.0218649,0.934051854 12.2309763,0.724940419 12.2309763,0.467088255 Z" id="Shape"/>
                </g>
            </g>
        </g>
    </g>
</svg>