<?xml version="1.0" encoding="UTF-8"?>
<!-- Generator: Adobe Illustrator 16.0.0, SVG Export Plug-In . SVG Version: 6.00 Build 0)  -->
<!DOCTYPE svg PUBLIC "-//W3C//DTD SVG 1.1//EN" "http://www.w3.org/Graphics/SVG/1.1/DTD/svg11.dtd">
<svg version="1.1" id="圖層_1" xmlns="http://www.w3.org/2000/svg" xmlns:xlink="http://www.w3.org/1999/xlink" x="0px" y="0px" width="100px" height="22.746px" viewBox="0 38.65 100 22.746" enable-background="new 0 38.65 100 22.746" xml:space="preserve">
<g id="XMLID_417_">
	<g id="XMLID_123_">
		
			<linearGradient id="XMLID_4_" gradientUnits="userSpaceOnUse" x1="527.0332" y1="-706.0142" x2="539.2905" y2="-714.058" gradientTransform="matrix(0.4719 0 0 -0.4719 -247.3362 -284.3819)">
			<stop offset="0" style="stop-color:#8FC662"/>
			<stop offset="1" style="stop-color:#4AB128"/>
		</linearGradient>
		<path id="XMLID_139_" fill="url(#XMLID_4_)" d="M7.645,52.053c-0.33-1.038-0.896-1.888-1.652-2.548    c-0.236-0.188-0.472-0.33-0.755-0.566c-0.094-0.094-0.236-0.142-0.33-0.236l0,0c-0.095-0.047-0.189-0.142-0.283-0.188l0,0    c-0.047,0-0.047-0.047-0.095-0.047c-0.094-0.094-0.236-0.142-0.33-0.236c-0.047-0.047-0.094-0.095-0.189-0.142    c-0.094-0.047-0.142-0.095-0.236-0.142c-1.274-0.897-2.171-1.699-2.643-2.36l-0.897,2.737l-0.094,0.331l0,0L0,49.127l0,0    c0,0.047,0,0.094,0.047,0.189c0.188,0.661,1.274,1.604,3.634,3.303c0.047,0.047,0.094,0.047,0.142,0.094    c0.094,0.048,0.188,0.096,0.236,0.189c0.094,0.047,0.188,0.142,0.236,0.188c1.558,1.133,2.643,1.982,3.115,2.69    c0,0,0,0.047,0.047,0.047C7.928,54.648,8.07,53.327,7.645,52.053z"/>
		<path id="XMLID_138_" fill="#B5B8B9" d="M7.173,56.488c-0.142-0.565-1.133-1.557-3.021-2.878c0,0.047-0.047,0.095-0.047,0.142    c-0.944,2.926-1.227,4.482-0.897,4.908c0.047,0.047,0.094,0.047,0.189,0.047C4.153,58.707,5.663,57.621,7.173,56.488z"/>
		<path id="XMLID_137_" fill="#B5B8B9" d="M4.719,47.9c0.613-0.236,1.321-2.359,1.793-3.87H6.088c-3.021,0-4.483,0.236-4.767,0.708    C1.18,45.399,3.445,47.05,4.719,47.9z"/>
		<path id="XMLID_136_" fill="#B5B8B9" d="M12.081,42.851c0.283,0.519,1.416,1.604,3.162,1.604c0.425,0,0.896-0.047,1.321-0.189    c-0.094-0.236-0.142-0.472-0.236-0.708l-0.142-0.377c-0.661-2.171-1.463-4.389-2.171-4.53    C13.355,38.745,12.553,41.293,12.081,42.851z"/>
		<path id="XMLID_135_" fill="#B5B8B9" d="M16.187,56.631H16.14c-0.708,0-2.124,0.943-3.634,2.076    c0.047,0.047,0.094,0.047,0.142,0.094c2.218,1.652,3.586,2.407,4.2,2.407c0.094,0,0.142,0,0.236-0.047    C17.556,60.689,16.659,58.094,16.187,56.631z"/>
		<path id="XMLID_134_" d="M7.503,56.584L7.503,56.584L7.503,56.584z"/>
		<path id="XMLID_133_" d="M18.311,49.08L18.311,49.08L18.311,49.08L18.311,49.08z"/>
		
			<linearGradient id="XMLID_5_" gradientUnits="userSpaceOnUse" x1="559.8008" y1="-710.0308" x2="565.1635" y2="-727.6515" gradientTransform="matrix(0.4719 0 0 -0.4719 -247.3362 -284.3819)">
			<stop offset="0" style="stop-color:#EA603C"/>
			<stop offset="1" style="stop-color:#BC0038"/>
		</linearGradient>
		<path id="XMLID_132_" fill="url(#XMLID_5_)" d="M19.773,53.469c-0.802-2.171-0.991-2.832-1.321-3.87    c-0.047-0.188-0.094-0.283-0.142-0.519l0,0c-0.802,0.661-1.416,1.557-1.793,2.548c-0.236,0.566-0.425,1.274-0.377,2.077    c0,0.047,0,0.047,0,0.094s0,0.047,0,0.095v0.047c0,0.897,0.236,1.746,0.566,2.501c0.047,0.095,0.047,0.189,0.094,0.283    c0.047,0.142,0.094,0.33,0.142,0.473c0.519,1.51,0.85,2.689,0.802,3.492l1.793-1.322l0.519-0.377l0.283-0.236l0.425-0.33l0,0    C21.284,57.904,20.528,55.64,19.773,53.469z"/>
		<path id="XMLID_131_" opacity="0.3" enable-background="new    " d="M8.353,56.253c0.283-0.188,0.519-0.378,0.755-0.566    C8.872,55.875,8.589,56.064,8.353,56.253z"/>
		
			<linearGradient id="XMLID_7_" gradientUnits="userSpaceOnUse" x1="553.9453" y1="-718.2603" x2="534.9852" y2="-731.4748" gradientTransform="matrix(0.4719 0 0 -0.4719 -247.3362 -284.3819)">
			<stop offset="0" style="stop-color:#41BBE5"/>
			<stop offset="1" style="stop-color:#2A62AE"/>
		</linearGradient>
		<path id="XMLID_130_" fill="url(#XMLID_7_)" d="M12.034,54.885c-1.085,0-2.077,0.33-2.926,0.85    c-0.236,0.188-0.472,0.377-0.755,0.566c-0.094,0.094-0.189,0.141-0.331,0.235l0,0c-0.094,0.048-0.188,0.142-0.283,0.188l0,0    c-0.047,0-0.047,0.047-0.095,0.047c-0.094,0.095-0.188,0.143-0.33,0.236c-0.047,0.047-0.095,0.095-0.189,0.142    c-0.094,0.048-0.142,0.095-0.236,0.188c-1.227,0.944-2.265,1.605-3.021,1.841l2.36,1.651l0.283,0.236l0,0l0.424,0.283l0,0    c0.047,0,0.095,0.047,0.189,0.047c0.661,0,1.888-0.755,4.153-2.548c0.047-0.048,0.095-0.048,0.142-0.095    c0.094-0.047,0.142-0.142,0.236-0.188c0.095-0.048,0.142-0.142,0.236-0.188c1.51-1.18,2.643-1.936,3.492-2.219h0.047    C14.583,55.356,13.355,54.885,12.034,54.885z"/>
		<path id="XMLID_129_" opacity="0.3" enable-background="new    " d="M7.74,54.885c0.047-0.143,0.094-0.283,0.141-0.426    L7.74,54.885z"/>
		<path id="XMLID_128_" opacity="0.3" enable-background="new    " d="M11.232,43.794c-0.047,0.142-0.095,0.283-0.142,0.424    C11.137,44.077,11.185,43.936,11.232,43.794z"/>
		
			<linearGradient id="XMLID_9_" gradientUnits="userSpaceOnUse" x1="543.8047" y1="-687.0669" x2="543.8047" y2="-703.0168" gradientTransform="matrix(0.4719 0 0 -0.4719 -247.3362 -284.3819)">
			<stop offset="0" style="stop-color:#AC1288"/>
			<stop offset="1" style="stop-color:#8F4F9C"/>
		</linearGradient>
		<path id="XMLID_127_" fill="url(#XMLID_9_)" d="M10.288,38.697H9.91l0,0H9.391l0,0c-0.519,0.095-1.18,1.51-2.076,4.578    c0,0.047-0.047,0.095-0.047,0.189c-0.047,0.094-0.047,0.189-0.094,0.283c-0.047,0.094-0.047,0.189-0.095,0.283    c-0.566,1.84-1.038,3.162-1.557,3.87c0.094,0,0.189,0,0.283,0h0.236c2.313-0.047,4.294-1.557,5.002-3.681    c0.047-0.142,0.094-0.283,0.142-0.424c0.047-0.189,0.094-0.331,0.142-0.52l0,0c0.047-0.141,0.047-0.236,0.094-0.33l0,0l0,0    c0-0.047,0.047-0.094,0.047-0.142c0.047-0.094,0.047-0.236,0.094-0.331c0.047-0.142,0.094-0.236,0.094-0.33    c0-0.047,0.047-0.094,0.047-0.142c0.472-1.558,0.944-2.69,1.369-3.304H10.288z"/>
		<path id="XMLID_126_" d="M12.458,44.077L12.458,44.077C12.458,44.125,12.458,44.077,12.458,44.077L12.458,44.077z"/>
		<path id="XMLID_125_" opacity="0.5" fill="#89AADB" enable-background="new    " d="M18.5,47.806    c-0.189,0.047-0.378,0.094-0.566,0.142C18.169,47.9,18.358,47.853,18.5,47.806C18.546,47.806,18.5,47.806,18.5,47.806L18.5,47.806    z"/>
		
			<linearGradient id="XMLID_11_" gradientUnits="userSpaceOnUse" x1="575.3652" y1="-700.0547" x2="552.9257" y2="-700.0547" gradientTransform="matrix(0.4719 0 0 -0.4719 -247.3362 -284.3819)">
			<stop offset="0" style="stop-color:#F4D340"/>
			<stop offset="1" style="stop-color:#EEA700"/>
		</linearGradient>
		<path id="XMLID_124_" fill="url(#XMLID_11_)" d="M21.755,44.077c-0.283-0.047-0.613-0.047-0.896-0.047    c-1.274,0-2.313,0.236-3.162,0.472c-0.141,0.047-0.236,0.095-0.377,0.095c-0.094,0.047-0.188,0.047-0.283,0.094l0,0h-0.047    c-0.095,0-0.142,0.047-0.236,0.047c-0.52,0.142-0.991,0.236-1.51,0.236c-0.708,0-1.321-0.142-1.793-0.377    c-0.283-0.142-0.566-0.283-0.802-0.472c-0.047-0.047-0.142-0.094-0.189-0.142c0,0,0,0,0,0.047c0.378,2.076,2.077,3.634,4.153,3.87    c0.142,0,0.33,0.047,0.472,0.047c0.283,0,0.566-0.047,0.85-0.095c0.188-0.047,0.377-0.094,0.566-0.142l0,0l0,0    c0.566-0.141,1.038-0.188,1.604-0.141c0.613,0.047,1.321,0.188,2.359,0.424l2.548-3.303    C23.879,44.408,22.794,44.172,21.755,44.077z"/>
	</g>
	<g id="XMLID_75_">
		<g id="XMLID_115_">
			<path id="XMLID_116_" fill="#F8F9FA" d="M27.985,48.985l-0.613,3.728l-0.802-0.519c0,0,0.566-3.067,0.613-3.256L27.985,48.985z      M30.958,48.089c0,0-0.283-0.047-0.283,0.283c0,0.188,0,5.097,0,5.097v0.283c0,0.377-0.094,0.66-0.236,0.85     c-0.142,0.188-0.472,0.283-0.896,0.283h-0.661l-0.188-1.086l0.661,0.047c0.283,0,0.377-0.141,0.377-0.377v-5.191     c0,0,0.047-0.236-0.236-0.236c-0.236,0-0.189,0.236-0.189,0.236c0,0.283,0,0.236,0,0.378c0,0.094,0,0.141,0,0.236     c0,1.557-0.142,2.737-0.377,3.586s-0.708,1.698-1.416,2.596l-0.85-0.661c0.661-0.707,1.085-1.463,1.321-2.265     c0.236-0.803,0.377-2.124,0.377-3.729c0-0.425-0.33-0.377-0.33-0.377h-1.321V47.05h1.935c0,0,0.283,0.047,0.283-0.33     c0-0.094,0-0.189,0-0.331c0-0.33-0.331-0.33-0.331-0.33h-1.557v-0.991h1.652c0,0,0.283,0,0.283-0.283s0-0.802,0-0.802h1.038v0.85     c0,0-0.047,0.236,0.236,0.236s0.944,0,0.944,0s0.566-0.047,0.566,0.519c0,0.519-0.566,0.472-0.566,0.472h-0.802     c0,0-0.283-0.047-0.33,0.33v0.378c0,0,0,0.236,0.283,0.236c0.33,0,0.991,0,0.991,0s0.519-0.047,0.519,0.472     s-0.519,0.519-0.519,0.519h-0.377V48.089z M31.949,50.967L31.1,51.25l-0.425-2.076l0.802-0.189L31.949,50.967z M33.176,49.221     l-0.52,3.823l-0.849-0.708l0.472-3.256L33.176,49.221z M36.244,48.089c-0.283,0-0.236,0.283-0.236,0.283v5.285v0.283     c0,0.378-0.094,0.661-0.236,0.85s-0.472,0.283-0.896,0.283h-0.661l-0.236-1.085l0.661,0.047c0.283,0,0.377-0.142,0.377-0.378     v-5.38c0,0,0-0.188-0.283-0.188s-0.236,0.188-0.236,0.188c0,0.283,0,0.236,0,0.425c0,0.094,0,0.142,0,0.236     c0,1.558-0.142,2.738-0.378,3.587c-0.236,0.849-0.755,1.746-1.463,2.643l-0.849-0.661c0.661-0.755,1.132-1.511,1.416-2.265     c0.236-0.803,0.377-3.351,0.377-3.823c0-0.377-0.33-0.33-0.33-0.33h-1.038v-0.991h1.557c0,0,0.33,0.047,0.33-0.283     c0-0.094,0-0.188,0-0.33c0-0.378-0.33-0.331-0.33-0.331h-1.321v-0.991c0,0,1.132,0,1.463,0c0.33,0,0.283-0.283,0.283-0.283     v-0.803h1.038v0.803c0,0,0,0.236,0.236,0.236c0.283,0,1.416,0,1.416,0s0.472,0,0.472,0.472c0,0.519-0.472,0.519-0.472,0.519     h-1.321c0,0-0.236-0.047-0.236,0.236c0,0.142,0,0.33,0,0.472c0,0.283,0.331,0.283,0.331,0.283h1.557c0,0,0.472-0.047,0.519,0.472     c0,0.519-0.519,0.519-0.519,0.519S36.432,48.089,36.244,48.089z M36.621,53.469l-0.331-4.2l0.897-0.142l0.425,4.059     L36.621,53.469z"/>
		</g>
		<g id="XMLID_105_">
			<polygon id="XMLID_114_" fill="#F8F9FA" points="40.491,52.194 39.972,55.12 38.934,55.12 39.453,52.053    "/>
			<path id="XMLID_113_" fill="#F8F9FA" d="M42.614,45.776l0.897,0.377l-2.454,3.964c0,0-0.236,0.33,0,0.283     c0.425-0.047,1.463-0.142,1.463-0.189c-0.047-0.094-0.33-0.896-0.33-0.896l0.802-0.236l0.896,2.17l-0.896,0.331l-0.189-0.472     l-3.021,0.33c0,0-0.755,0.094-0.424-0.52l1.793-2.737l-1.416,0.142c0,0-0.755,0.094-0.566-0.472c0-0.047,1.746-3.775,1.746-3.775     l1.038,0.283l-1.321,2.737c0,0-0.142,0.283,0.189,0.236c0.283-0.047,0.944-0.142,0.944-0.142"/>
			<polygon id="XMLID_112_" fill="#F8F9FA" points="41.01,54.885 40.868,52.1 41.765,51.959 42.001,54.742    "/>
			<polygon id="XMLID_111_" fill="#F8F9FA" points="42.567,54.035 42.331,51.864 43.134,51.676 43.511,53.799    "/>
			<path id="XMLID_110_" fill="#F8F9FA" d="M43.558,45.257v-0.991h5.994c0,0,0.613,0,0.613,0.472c0,0.566-0.613,0.519-0.613,0.519     H43.558z"/>
			<path id="XMLID_109_" fill="#F8F9FA" d="M45.871,50.779c-0.283,0-2.076,0-2.076,0V49.74h2.17c0,0,0.236,0,0.236-0.236     s0-0.802,0-0.802h1.085v0.85c0,0,0,0.188,0.188,0.188c0.189,0,2.077,0,2.077,0s0.519,0,0.519,0.52s-0.519,0.52-0.519,0.52     s-1.604,0-1.935,0c-0.33,0-0.142,0.235-0.142,0.235l2.548,4.153h-1.416l-1.321-2.549v2.596h-1.085v-2.596l-1.935,2.596h-1.274     l2.878-4.105C46.06,50.92,46.154,50.779,45.871,50.779z"/>
			<polygon id="XMLID_108_" fill="#F8F9FA" points="44.455,48.844 43.747,46.673 44.785,46.39 45.541,48.561    "/>
			<polygon id="XMLID_107_" fill="#F8F9FA" points="46.343,48.277 46.06,46.248 47.098,46.106 47.428,48.183    "/>
			<polygon id="XMLID_106_" fill="#F8F9FA" points="49.929,46.343 48.891,48.938 47.806,48.419 48.938,45.965    "/>
		</g>
		<g id="XMLID_96_">
			<path id="XMLID_97_" fill="#F8F9FA" d="M52.949,45.446c0,0,0.566,0.047,0.236-0.472l-0.377-0.755l1.085-0.142l0.378,0.708     c0,0,0.283,0.661,0.754,0.661c0.473,0,0.52,0,0.52,0s0.613-0.047,0.613,0.519c0,0.566-0.613,0.52-0.613,0.52h-4.105v-1.039     H52.949z M51.816,47.239h3.257c0,0,0.613,0,0.613,0.519s-0.613,0.472-0.613,0.472h-3.257V47.239z M51.816,48.985h3.304     c0,0,0.614-0.047,0.614,0.519c0,0.519-0.614,0.472-0.614,0.472h-3.304V48.985z M51.816,50.92h3.209c0,0,0.661-0.047,0.661,0.708     c0,1.038,0,3.54,0,3.54h-1.085v-0.566h-1.652v0.66h-1.085V50.92H51.816z M54.602,51.864h-1.652v1.698h1.652V51.864z      M61.208,45.116c0,0.849,0,1.888,0,1.888c0,0.283,0.048,0.472,0.095,0.519c0.094,0.094,0.236,0.094,0.424,0.094h0.236     c0,0,0.566,0,0.566,0.472c0,0.472-0.566,0.519-0.566,0.519H61.35c-0.425,0-0.755-0.094-0.99-0.283     c-0.236-0.189-0.331-0.566-0.331-1.133v-1.84H58.33v0.377c0,0.661-0.096,1.227-0.331,1.652c-0.188,0.425-0.661,0.991-1.368,1.604     l-0.896-0.802c0.613-0.472,1.037-0.896,1.227-1.274c0.188-0.377,0.283-1.038,0.283-1.935v-0.661H60.5     C60.5,44.408,61.208,44.313,61.208,45.116z M61.822,50.165c0,0.85-0.048,1.794-0.426,2.501c-0.519,0.896-1.037,1.228-1.037,1.228     c0.565,0.235,1.557,0.235,1.557,0.235s0.566-0.047,0.566,0.52c0,0.52-0.613,0.52-0.613,0.52s-1.463,0.047-2.596-0.566     c-0.85,0.519-3.115,0.519-3.115,0.519v-1.085c0,0,0.991,0.141,1.982-0.236c0,0-0.52-0.566-0.85-1.227     c-0.377-0.756-0.472-1.841-0.472-1.841h1.085c0,0,0,0.708,0.189,1.133c0.141,0.378,0.52,1.132,1.227,1.463     c0,0,0.756-0.425,1.086-1.133s0.235-1.982,0.235-1.982h-4.294v-0.991h4.482C60.783,49.316,61.822,49.174,61.822,50.165z"/>
		</g>
		<g id="XMLID_88_">
			<path id="XMLID_89_" fill="#F8F9FA" d="M69.23,45.965c0,0.472-0.52,0.52-0.52,0.52h-4.859v-1.039h1.698     c0,0,0.519,0.047,0.331-0.283c-0.143-0.283-0.473-0.991-0.473-0.991l1.18-0.142l0.52,1.085c0.141,0.377,0.52,0.33,0.52,0.33     h1.084C68.664,45.446,69.23,45.446,69.23,45.965z M64.229,47.287h4.105c0,0,0.52-0.047,0.52,0.519s-0.473,0.472-0.473,0.472     h-4.105v-0.991H64.229z M64.229,49.08h4.059c0,0,0.566,0,0.566,0.472c0,0.472-0.566,0.472-0.566,0.472h-4.059V49.08z      M64.275,50.967h3.775c0,0,0.708-0.047,0.708,0.709c0,0.66,0,3.444,0,3.444h-1.18v-0.519h-2.171v0.66h-1.18v-4.295H64.275z      M67.579,51.911h-2.171v1.746h2.171V51.911z M72.817,44.077v3.068c0,0,0,0.425,0.425,0.425c0.33,0,1.321,0,1.321,0     s0.566-0.047,0.566,0.519c0,0.613-0.566,0.566-0.566,0.566s-0.896,0-1.321,0s-0.377,0.472-0.377,0.472v6.182h-1.181     c0,0,0-5.804,0-6.276c0-0.425-0.425-0.377-0.425-0.377h-1.887V47.57c0,0,1.415,0,1.887,0c0.425,0,0.378-0.425,0.378-0.425v-3.068     H72.817z"/>
		</g>
		<g id="XMLID_82_">
			<path id="XMLID_83_" fill="#F8F9FA" d="M84.521,50.496c0,0,0.707-0.047,0.707,0.471c0.047,0.614-0.707,0.756-0.707,0.756     l-1.982,0.66h4.247c0,0,0.661-0.047,0.708,0.473c0,0.519-0.708,0.519-0.708,0.519h-4.247v0.472v0.236     c0,0.66-0.377,0.991-1.086,0.991h-1.887v-0.944l1.51,0.047c0.236,0,0.33-0.141,0.33-0.377v-0.472h-5.145v-0.944h5.145     c0,0,0.047-0.283,0.189-0.424c0.141-0.143,0.235-0.189,0.707-0.283l1.227-0.283h-5.002v-0.897H84.521z M86.173,50.023h-8.589     v1.746h-1.039c0,0,0-1.604,0-2.218c0-0.566,0.52-0.472,0.52-0.472v-4.578l2.549-0.33l0.52,0.896l-2.029,0.331v0.613h1.84v0.802     h-1.84v0.661h1.84v0.85h-1.84v0.802h7.551v-0.802h-1.699v-0.85h1.699v-0.661h-1.699v-0.802h1.699v-0.661h-1.842v-0.944h2.172     c0,0,0.66-0.047,0.66,0.755s0,3.917,0,3.917s0.566-0.047,0.566,0.566c0,0.661,0,2.077,0,2.077h-1.086v-1.699H86.173z      M82.066,45.729l-1.32,0.802l-0.613-0.802l1.18-0.613l-0.661-0.614l0.613-0.566l0.802,0.755l0.803-0.566l0.566,0.614     l-0.708,0.472l0.708,0.661l-0.708,0.519L82.066,45.729z M82.114,48.183l-1.228,0.708l-0.519-0.755l1.085-0.613l-0.613-0.614     l0.756-0.472l0.66,0.661l0.943-0.613l0.52,0.661l-0.803,0.519l0.613,0.661l-0.707,0.566L82.114,48.183z"/>
		</g>
		<g id="XMLID_76_">
			<path id="XMLID_77_" fill="#F8F9FA" d="M92.26,45.304c0,0-0.565,2.266-0.66,2.596c-0.094,0.377,0.095,0.85,0.095,0.85     l0.708,2.265c0,0,0.424,1.18-0.803,1.558l-1.463,0.094v-1.133c0,0,0.803,0,0.85,0c0.472-0.047,0.33-0.519,0.33-0.519     l-0.755-2.077c0,0-0.235-0.472-0.095-0.991c0.095-0.331,0.613-2.313,0.613-2.313h-1.273v9.722h-1.086V44.502c0,0,2.076,0,2.832,0     C92.449,44.502,92.26,45.304,92.26,45.304z M93.771,50.59c-0.565,0-1.18,0-1.18,0v-1.038h6.371c0,0,0.613-0.047,0.565,0.566     c0,0.519-0.565,0.519-0.565,0.519h-1.274c0,0-0.472,0-0.472,0.52c0,0.613,0,2.549,0,2.549c0,0.283,0.142,0.424,0.425,0.424h1.84     c0,0,0.473,0,0.473,0.52s-0.473,0.52-0.473,0.52h-2.17c-0.426,0-0.709-0.095-0.896-0.283c-0.189-0.189-0.283-0.566-0.283-1.133     v-2.596c0,0,0.047-0.473-0.473-0.473c-0.377,0-0.377,0.473-0.377,0.473c-0.095,1.038-0.236,1.746-0.709,2.454     c-0.471,0.708-1.227,1.274-2.313,1.746l-0.707-0.991c0.99-0.33,1.651-0.755,2.076-1.321c0.33-0.472,0.52-1.085,0.566-1.841     C94.148,51.109,94.242,50.59,93.771,50.59z M98.396,48.419h-4.908v-0.566h-0.944V45.21c0,0,2.172,0,2.502,0     c0.283,0,0.142-0.236,0.142-0.236l-0.378-0.708l1.133-0.142l0.425,0.85c0,0,0.142,0.283,0.425,0.283c0.52,0,1.51,0,1.935,0     c0.566,0,0.52,0.566,0.52,0.566V47.9h-0.897v0.519H98.396z M98.207,46.248h-4.531v1.18h4.531V46.248z"/>
		</g>
	</g>
	<g id="XMLID_2_">
		<path id="XMLID_72_" fill="#F8F9FA" d="M28.929,58.896h-1.416l-0.378,0.85h-0.472l1.321-2.879h0.472l1.321,2.879h-0.472    L28.929,58.896z M28.221,57.244l-0.519,1.273h1.085L28.221,57.244z"/>
		<path id="XMLID_69_" fill="#F8F9FA" d="M30.014,57.621h0.425v0.283l0,0c0.142-0.235,0.472-0.33,0.802-0.33    c0.613,0,1.132,0.425,1.132,1.133s-0.519,1.133-1.132,1.133c-0.331,0-0.661-0.143-0.802-0.33l0,0v1.085h-0.425V57.621z     M31.194,57.904c-0.566,0-0.802,0.378-0.802,0.803c0,0.472,0.331,0.803,0.802,0.803c0.472,0,0.755-0.283,0.755-0.803    C31.949,58.282,31.713,57.904,31.194,57.904z"/>
		<path id="XMLID_66_" fill="#F8F9FA" d="M32.798,57.621h0.425v0.283l0,0c0.142-0.235,0.472-0.33,0.802-0.33    c0.614,0,1.133,0.425,1.133,1.133s-0.519,1.133-1.133,1.133c-0.33,0-0.661-0.143-0.802-0.33l0,0v1.085h-0.425V57.621z     M33.931,57.904c-0.566,0-0.802,0.378-0.802,0.803c0,0.472,0.33,0.803,0.802,0.803c0.472,0,0.755-0.283,0.755-0.803    C34.733,58.282,34.498,57.904,33.931,57.904z"/>
		<path id="XMLID_63_" fill="#F8F9FA" d="M35.866,58.801c0.047,0.426,0.424,0.661,0.802,0.661c0.236,0,0.519-0.095,0.661-0.378    h0.424c-0.188,0.52-0.661,0.709-1.085,0.709c-0.802,0-1.227-0.52-1.227-1.133s0.425-1.133,1.227-1.133    c0.566,0,1.132,0.33,1.132,1.18v0.047h-1.935V58.801z M37.376,58.471c-0.047-0.377-0.377-0.613-0.755-0.613    s-0.708,0.236-0.755,0.613H37.376z"/>
		<path id="XMLID_60_" fill="#F8F9FA" d="M40.113,59.462L40.113,59.462c-0.189,0.235-0.519,0.331-0.802,0.331    c-0.614,0-1.133-0.426-1.133-1.133c0-0.709,0.519-1.133,1.133-1.133c0.33,0,0.661,0.094,0.802,0.33l0,0v-1.086h0.425v2.926h-0.425    V59.462z M39.358,59.462c0.566,0,0.802-0.378,0.802-0.802c0-0.473-0.331-0.803-0.802-0.803c-0.472,0-0.755,0.283-0.755,0.803    C38.556,59.084,38.792,59.462,39.358,59.462z"/>
		<path id="XMLID_58_" fill="#F8F9FA" d="M43.134,59.745h-0.425v-0.33l0,0c-0.189,0.282-0.519,0.378-0.85,0.378    c-0.519,0-0.896-0.236-0.896-0.756v-1.463h0.424v1.369c0,0.33,0.189,0.472,0.614,0.472c0.377,0,0.708-0.236,0.708-0.614v-1.227    h0.425V59.745z"/>
		<path id="XMLID_56_" fill="#F8F9FA" d="M47.381,57.904c-0.047-0.424-0.377-0.755-0.991-0.755c-0.661,0-1.132,0.378-1.132,1.181    c0,0.565,0.283,1.085,1.085,1.085c0.519,0,0.896-0.236,0.991-0.803h0.425c-0.047,0.661-0.613,1.181-1.463,1.181    c-0.708,0-1.51-0.426-1.51-1.511c0-0.85,0.519-1.511,1.51-1.511c0.566,0,1.369,0.236,1.463,1.133H47.381z"/>
		<path id="XMLID_53_" fill="#F8F9FA" d="M49.41,57.527c0.802,0,1.227,0.52,1.227,1.133s-0.424,1.133-1.227,1.133    s-1.227-0.52-1.227-1.133S48.561,57.527,49.41,57.527z M49.41,57.857c-0.566,0-0.802,0.425-0.802,0.803    c0,0.377,0.236,0.802,0.802,0.802s0.802-0.425,0.802-0.802C50.212,58.282,49.977,57.857,49.41,57.857z"/>
		<path id="XMLID_51_" fill="#F8F9FA" d="M54.224,58.377c0-0.378-0.235-0.52-0.519-0.52c-0.378,0-0.709,0.189-0.709,0.566v1.273    h-0.424V58.33c0-0.379-0.236-0.52-0.52-0.52c-0.377,0-0.707,0.236-0.707,0.613v1.227H50.92v-2.123h0.426v0.33l0,0    c0.188-0.283,0.519-0.377,0.849-0.377c0.283,0,0.566,0.094,0.708,0.377c0.189-0.236,0.472-0.377,0.85-0.377    c0.236,0,0.803,0.094,0.803,0.754v1.463h-0.426v-1.32H54.224z"/>
		<path id="XMLID_48_" fill="#F8F9FA" d="M55.12,57.621h0.425v0.283l0,0c0.142-0.235,0.473-0.33,0.803-0.33    c0.613,0,1.133,0.425,1.133,1.133s-0.52,1.133-1.133,1.133c-0.33,0-0.661-0.143-0.803-0.33l0,0v1.085H55.12V57.621z     M56.301,57.904c-0.566,0-0.803,0.378-0.803,0.803c0,0.472,0.33,0.803,0.803,0.803c0.471,0,0.754-0.283,0.754-0.803    C57.055,58.282,56.819,57.904,56.301,57.904z"/>
		<path id="XMLID_46_" fill="#F8F9FA" d="M60.028,59.745h-0.425v-0.33l0,0c-0.188,0.282-0.52,0.378-0.85,0.378    c-0.52,0-0.896-0.236-0.896-0.756v-1.463h0.425v1.369c0,0.33,0.188,0.472,0.613,0.472c0.378,0,0.708-0.236,0.708-0.614v-1.227    h0.425V59.745z"/>
		<path id="XMLID_44_" fill="#F8F9FA" d="M60.689,56.961h0.424v0.66h0.613v0.33h-0.613v1.322c0,0.188,0.143,0.236,0.33,0.236    c0.096,0,0.189,0,0.283-0.048v0.331c-0.141,0.047-0.283,0.047-0.471,0.047c-0.378,0-0.566-0.189-0.566-0.52v-1.369h-0.426v-0.33    h0.426V56.961z"/>
		<path id="XMLID_41_" fill="#F8F9FA" d="M62.341,58.801c0.047,0.426,0.425,0.661,0.802,0.661c0.236,0,0.52-0.095,0.661-0.378h0.425    c-0.189,0.52-0.66,0.709-1.086,0.709c-0.802,0-1.227-0.52-1.227-1.133s0.425-1.133,1.227-1.133c0.566,0,1.133,0.33,1.133,1.18    v0.047h-1.935V58.801z M63.852,58.471c-0.048-0.377-0.379-0.613-0.756-0.613s-0.708,0.236-0.755,0.613H63.852z"/>
		<path id="XMLID_39_" fill="#F8F9FA" d="M64.7,57.621h0.425v0.378l0,0c0.189-0.33,0.473-0.472,0.708-0.472c0.095,0,0.142,0,0.235,0    v0.472c-0.094-0.048-0.188-0.048-0.283-0.048c-0.377,0-0.66,0.236-0.66,0.709v1.085H64.7V57.621z"/>
		<path id="XMLID_36_" fill="#F8F9FA" d="M67.768,56.866h1.463c0.85,0,1.274,0.566,1.274,1.416c0,0.802-0.33,1.463-1.228,1.463    h-1.51V56.866z M69.23,59.367c0.708,0,0.85-0.566,0.85-1.085s-0.188-1.038-0.896-1.038H68.24v2.123H69.23z"/>
		<path id="XMLID_33_" fill="#F8F9FA" d="M71.213,58.801c0.047,0.426,0.425,0.661,0.803,0.661c0.235,0,0.519-0.095,0.66-0.378h0.425    c-0.188,0.52-0.661,0.709-1.085,0.709c-0.803,0-1.228-0.52-1.228-1.133s0.425-1.133,1.228-1.133c0.566,0,1.133,0.33,1.133,1.18    v0.047h-1.936V58.801z M72.77,58.471c-0.047-0.377-0.377-0.613-0.754-0.613c-0.378,0-0.709,0.236-0.756,0.613H72.77z"/>
		<path id="XMLID_31_" fill="#F8F9FA" d="M73.855,59.084c0,0.189,0.142,0.426,0.66,0.426c0.52,0,0.661-0.189,0.661-0.331    s-0.095-0.235-0.378-0.283l-0.66-0.095c-0.33-0.047-0.566-0.235-0.566-0.566c0-0.424,0.378-0.66,0.943-0.66    c0.709,0,0.992,0.283,1.039,0.708H75.13c0-0.235-0.235-0.378-0.614-0.378c-0.235,0-0.565,0.095-0.565,0.33    c0,0.143,0.047,0.236,0.33,0.283l0.566,0.095c0.519,0.095,0.755,0.283,0.755,0.566c0,0.472-0.425,0.708-1.086,0.708    c-0.471,0-1.037-0.142-1.085-0.755h0.425V59.084z"/>
		<path id="XMLID_28_" fill="#F8F9FA" d="M75.979,56.819h0.426v0.425h-0.426V56.819z M75.979,57.621h0.426v2.124h-0.426V57.621z"/>
		<path id="XMLID_25_" fill="#F8F9FA" d="M78.764,57.621h0.425v1.936c0,0.755-0.378,1.085-1.228,1.085    c-0.472,0-0.99-0.095-1.085-0.661h0.425c0.094,0.283,0.33,0.331,0.707,0.331c0.566,0,0.803-0.283,0.803-0.661v-0.33l0,0    c-0.236,0.33-0.566,0.377-0.803,0.377c-0.565,0-1.18-0.282-1.18-1.085c0-0.802,0.614-1.085,1.18-1.085    c0.331,0,0.661,0.094,0.803,0.377l0,0v-0.283H78.764z M78.008,57.904c-0.519,0-0.802,0.33-0.802,0.756    c0,0.424,0.283,0.755,0.802,0.755c0.473,0,0.803-0.331,0.803-0.755C78.764,58.234,78.48,57.904,78.008,57.904z"/>
		<path id="XMLID_23_" fill="#F8F9FA" d="M79.66,57.621h0.425v0.33l0,0c0.188-0.282,0.519-0.377,0.85-0.377    c0.519,0,0.896,0.236,0.896,0.756v1.463h-0.425v-1.369c0-0.33-0.188-0.473-0.613-0.473c-0.377,0-0.708,0.236-0.708,0.614v1.228    H79.66V57.621z"/>
		<path id="XMLID_21_" fill="#F8F9FA" d="M83.719,56.866h0.425v2.879h-0.425V56.866z"/>
		<path id="XMLID_19_" fill="#F8F9FA" d="M84.71,57.621h0.425v0.33l0,0c0.188-0.282,0.52-0.377,0.85-0.377    c0.519,0,0.896,0.236,0.896,0.756v1.463h-0.425v-1.369c0-0.33-0.188-0.473-0.614-0.473c-0.377,0-0.707,0.236-0.707,0.614v1.228    H84.71V57.621z"/>
		<path id="XMLID_17_" fill="#F8F9FA" d="M87.636,59.084c0,0.189,0.142,0.426,0.661,0.426c0.519,0,0.66-0.189,0.66-0.331    s-0.094-0.235-0.377-0.283l-0.661-0.095c-0.331-0.047-0.566-0.235-0.566-0.566c0-0.424,0.378-0.66,0.944-0.66    c0.707,0,0.99,0.283,1.037,0.708H88.91c0-0.235-0.236-0.378-0.613-0.378c-0.236,0-0.566,0.095-0.566,0.33    c0,0.143,0.047,0.236,0.33,0.283l0.566,0.095c0.52,0.095,0.755,0.283,0.755,0.566c0,0.472-0.425,0.708-1.085,0.708    c-0.473,0-1.039-0.142-1.086-0.755h0.425V59.084z"/>
		<path id="XMLID_15_" fill="#F8F9FA" d="M89.9,56.961h0.426v0.66h0.613v0.33h-0.613v1.322c0,0.188,0.141,0.236,0.33,0.236    c0.094,0,0.188,0,0.283-0.048v0.331c-0.143,0.047-0.283,0.047-0.473,0.047c-0.377,0-0.566-0.189-0.566-0.52v-1.369h-0.424v-0.33    H89.9V56.961z"/>
		<path id="XMLID_12_" fill="#F8F9FA" d="M91.223,56.819h0.424v0.425h-0.424V56.819z M91.223,57.621h0.424v2.124h-0.424V57.621z"/>
		<path id="XMLID_10_" fill="#F8F9FA" d="M92.308,56.961h0.425v0.66h0.613v0.33h-0.613v1.322c0,0.188,0.142,0.236,0.33,0.236    c0.095,0,0.189,0,0.283-0.048v0.331c-0.141,0.047-0.283,0.047-0.472,0.047c-0.378,0-0.566-0.189-0.566-0.52v-1.369h-0.425v-0.33    h0.425V56.961z"/>
		<path id="XMLID_8_" fill="#F8F9FA" d="M95.753,59.745h-0.425v-0.33l0,0c-0.189,0.282-0.52,0.378-0.85,0.378    c-0.52,0-0.896-0.236-0.896-0.756v-1.463h0.425v1.369c0,0.33,0.188,0.472,0.613,0.472c0.378,0,0.708-0.236,0.708-0.614v-1.227    h0.425V59.745z"/>
		<path id="XMLID_6_" fill="#F8F9FA" d="M96.414,56.961h0.424v0.66h0.613v0.33h-0.613v1.322c0,0.188,0.142,0.236,0.33,0.236    c0.095,0,0.189,0,0.283-0.048v0.331c-0.141,0.047-0.283,0.047-0.472,0.047c-0.378,0-0.565-0.189-0.565-0.52v-1.369h-0.426v-0.33    h0.426V56.961z"/>
		<path id="XMLID_3_" fill="#F8F9FA" d="M98.064,58.801c0.048,0.426,0.426,0.661,0.803,0.661c0.236,0,0.52-0.095,0.66-0.378h0.426    c-0.189,0.52-0.661,0.709-1.086,0.709c-0.803,0-1.227-0.52-1.227-1.133s0.424-1.133,1.227-1.133c0.566,0,1.133,0.33,1.133,1.18    v0.047h-1.936V58.801z M99.575,58.471c-0.048-0.377-0.378-0.613-0.755-0.613s-0.708,0.236-0.756,0.613H99.575z"/>
	</g>
</g>
<g id="XMLID_191_">
</g>
<g id="XMLID_192_">
</g>
<g id="XMLID_193_">
</g>
<g id="XMLID_194_">
</g>
<g id="XMLID_195_">
</g>
<g id="XMLID_196_">
</g>
</svg>