<?xml version="1.0" encoding="utf-8"?>
<!-- Generator: Adobe Illustrator 19.0.0, SVG Export Plug-In . SVG Version: 6.00 Build 0)  -->
<svg version="1.1" id="Layer_1" xmlns="http://www.w3.org/2000/svg" xmlns:xlink="http://www.w3.org/1999/xlink" x="0px" y="0px"
	 viewBox="276.2 -261.3 373.8 373.8" style="enable-background:new 276.2 -261.3 373.8 373.8;" xml:space="preserve">
<style type="text/css">
	.st0{fill:none;stroke:#EFEEF0;stroke-width:14.1732;stroke-linecap:round;stroke-linejoin:round;}
</style>
<g>
	<g>
		<g>
			<g>
				<g>
					<path class="st0" d="M428.9-138.7c1.1,1.1,8.7-10.6,9.7-9.7c0.7,0.7-0.6,15.1,0.3,16c0.3,0.3,8.4-10.9,9.7-9.7
						c1,1-0.6,15.1,0.3,16c0.9,0.9,8.5-10.9,9.7-9.7c0.4,0.4-0.5,15.4,0.3,16c0.3,0.3,8.5-10.8,9.7-9.7c1.4,1.4-1,14.7,0.3,16
						c1.1,1.1,8.9-10.3,9.7-9.7c0.7,0.7-0.1,15.7,0.3,16c1.1,1.1,9.2-10.1,9.7-9.7c0.3,0.3-0.7,15,0.3,16c1.2,1.2,8.7-10.7,9.7-9.7
						c1.3,1.3-0.6,15.1,0.3,16c1.1,1.1,8.6-10.7,9.7-9.7c0.5,0.5-0.7,15,0.3,16c0.3,0.3,9.1-10.3,9.7-9.7c0.3,0.3-0.4,15.4,0.3,16
						c0.7,0.7,9-10.3,9.7-9.7"/>
					<path class="st0" d="M413.3-142c1.5,1.5,9.7-12.3,11-11c2,2-13.2,25.7-11.3,27.6c0.9,0.9,12.4-14.2,13.3-13.3
						c1.8,1.8-15.6,27.3-13.3,29.6c1.4,1.4,12.1-14.6,13.3-13.3c2.7,2.7-15.8,27.2-13.3,29.6c1.4,1.4,12.6-14.1,13.3-13.3
						c2.6,2.6-16.1,26.8-13.3,29.6c1.5,1.5,12.1-14.5,13.3-13.3c1.3,1.3-14.1,28.9-13.3,29.6c1.4,1.4,13-13.7,13.3-13.3
						c1.5,1.5-15.9,27.1-13.3,29.6c1.3,1.3,12.8-13.9,13.3-13.3c3.1,3.1-16,26.9-13.3,29.6c0.9,0.9,12.1-14.5,13.3-13.3
						c3,3-15.5,27.5-13.3,29.6c0.5,0.5,12-14.7,13.3-13.3c0.9,0.9-10.8,23.7-9.1,25.4c0.7,0.7,8.7-10.2,9.5-9.5
						c0.3,0.3,3,12.7,3.2,13c2.6,2.6,37.3-45.9,41.5-41.5c0.8,0.8,0,14,1.1,15.1c2,2,42.3-46.5,44.4-44.4c0.6,0.6,0.3,14.3,1.1,15.1
						c1.8,1.8,21-26,23.5-23.5"/>
					<path class="st0" d="M367.1-210.4c1.3,1.3,31.3-33,32.2-32.2c1.3,1.3,2.1,12.2,3.1,13.1c2,2,17.9-22.5,20.2-20.2
						c0.6,0.6,2.2,11.8,3.3,13c2,2,15.4-17.3,16.3-16.3c0.9,0.9,2.8,12.6,3.2,13.1c0.9,0.9,12.8-15.6,14.2-14.2c1,1,1.8,12,3,13.3
						c1.4,1.4,11.4-14.3,12.8-12.8c0.5,0.5,2.3,13.2,2.7,13.6c1.3,1.3,10.6-13.4,12-12c0.9,0.9,1,12.6,2.3,13.9
						c0.8,0.8,10.4-12.2,11.3-11.3c0.5,0.5,1.6,13.8,2,14.3c1.4,1.4,9.9-11.6,10.8-10.8c1.1,1.1,0.6,13.6,1.7,14.6
						c0.5,0.5,10-10.7,10.3-10.3c0.7,0.7,0,13.7,1.3,15c0.7,0.7,9.1-11.1,10.1-10.1c1.1,1.1-0.3,14.1,0.9,15.4
						c1.2,1.2,9.1-10.6,9.8-9.8c1.1,1.1-0.4,14.9,0.5,15.8c1,1,8.7-10.7,9.7-9.7c1.1,1.1-1,15.1,0.1,16.2c0.7,0.7,9.2-9.9,9.5-9.5
						c1.5,1.5-1.3,15.9-0.5,16.7c1,1,9.2-9.7,9.5-9.5c1.2,1.2-1.6,16.5-0.9,17.2c0.3,0.3,8.3-10.6,9.4-9.4
						c0.6,0.6-2.2,16.9-1.4,17.7c0.5,0.5,8.5-10.3,9.5-9.5c1.5,1.5-3,17.3-2,18.3c0.8,0.8,8.4-10.6,9.5-9.5
						c1.8,1.8-4.1,17.4-2.6,18.9c0.5,0.5,9.1-10.1,9.6-9.6c0.9,0.9-3.8,19.1-3.3,19.5c0.4,0.4,8.7-10.8,9.7-9.7
						c1.7,1.7-5.4,19-4.1,20.4c0.8,0.8,8.8-11.1,9.9-9.9c1.6,1.6-6.1,20.2-4.9,21.2c1.2,1.2,9.5-10.9,10.2-10.2
						c1.6,1.6-7.2,21-6,22.2c0.9,0.9,10.2-10.9,10.6-10.6c2.1,2.1-8.9,21.7-7.2,23.5c0.3,0.3,9.6-12.4,11-11
						c1.1,1.1-10.1,23.3-8.5,24.8c0.7,0.7,11.3-11.9,11.6-11.6c1.6,1.6-11.2,25.6-10.3,26.5c1.4,1.4,11-13.7,12.4-12.4
						c3,3-14.6,26.5-12.4,28.7c1.7,1.7,12.8-14.1,13.5-13.5c3.2,3.2-18.2,28.9-15.4,31.7c1.1,1.1,13.9-16.2,15.1-15.1
						c0.8,0.8-22,34.3-20,36.2c1.8,1.8,16.2-19.5,17.9-17.9c5,5-33.4,40.4-28.8,45c1.6,1.6,21.4-26.4,23.9-23.9"/>
					<path class="st0" d="M316.9-179.1c2.3,2.3,39.6-43.2,41.4-41.4c4.3,4.3-70.1,69.8-61.8,78c5.1,5.1,37.9-42.2,40-40
						c3,3-50.2,62.1-48,64.2c0.6,0.6,20.6-21.8,21.2-21.2c2.2,2.2-27.8,38.3-25,41.3c0.5,0.5,16.2-17.3,16.8-16.8
						c2.6,2.6-19,33.7-18.2,34.5c1.4,1.4,12.6-16.4,14.5-14.5c0.9,0.9-15.4,29.6-14.3,30.6c1.4,1.4,11.8-14.4,13.1-13.1
						c2.8,2.8-12.5,27.1-11.7,27.9c0.5,0.5,10.6-13.6,12.1-12.1c1.4,1.4-11.4,24.2-9.7,25.9c0.8,0.8,10.7-12.1,11.4-11.4
						c1.5,1.5-10,22.5-8,24.3c0.6,0.6,10.1-11.6,10.8-10.8c1.4,1.4-7.4,22.2-6.7,23c0.8,0.8,9.3-11.6,10.4-10.4
						c0.9,0.9-7,20.5-5.6,21.9c0.7,0.7,9.6-10.6,10.1-10.1c0.4,0.4-5.5,20.1-4.7,20.9c0.6,0.6,9.4-10.3,9.9-9.9
						c0.5,0.5-5.4,18.5-3.8,20.1c0.7,0.7,8.9-10.4,9.7-9.7c1.4,1.4-4.1,18.4-3,19.3c0.8,0.8,9.1-10,9.6-9.6
						c1.5,1.5-3.2,17.9-2.4,18.7c0.9,0.9,8.4-10.5,9.5-9.5c0.5,0.5-2.8,17-1.8,18.1c0.9,0.9,9-9.9,9.4-9.4
						c1.6,1.6-2.7,16.1-1.3,17.5c0.2,0.2,8.9-9.9,9.4-9.4c0.6,0.6-2,15.8-0.7,17c0.5,0.5,9.2-9.8,9.5-9.5c1.4,1.4-0.8,16-0.3,16.5
						c0.7,0.7,8.4-10.8,9.6-9.6c0.7,0.7-0.6,15.3,0.2,16.1c1.1,1.1,9.2-10.1,9.7-9.7c1,1,0.2,15.2,0.6,15.7
						c0.3,0.3,9.5-10.4,9.9-9.9c1.3,1.3,0.3,14.5,1,15.2c0.9,0.9,9.9-10.4,10.1-10.1c1.1,1.1,0.3,13.8,1.4,14.9
						c0.3,0.3,9.9-11.1,10.5-10.5c1.1,1.1,1.5,14.1,1.8,14.5c0.3,0.3,9.8-12,11-11c1.3,1.3,1.2,13.3,2.1,14.1
						c0.4,0.4,10.8-12.1,11.5-11.5c0.9,0.9,1.9,13.2,2.5,13.7c0.5,0.5,11.2-13.3,12.2-12.2c0.5,0.5,1.6,12.3,2.8,13.5
						c1.1,1.1,12.4-14.2,13.3-13.3c1.2,1.2,2,12.3,3,13.3c1.2,1.2,12.9-16.8,14.8-14.8c0.5,0.5,2.2,12,3.2,13.1
						c0.7,0.7,15.2-19.5,17.4-17.4c0.7,0.7,2.1,11.7,3.3,13c0.8,0.8,19.6-25.3,22.5-22.5c1.1,1.1,1.6,12.1,2.8,13.5
						c11.9,11.9,79.9-103.2,91.5-91.5"/>
				</g>
			</g>
		</g>
	</g>
</g>
</svg>
