<?xml version="1.0" encoding="utf-8"?>
<!-- Generator: Adobe Illustrator 19.0.0, SVG Export Plug-In . SVG Version: 6.00 Build 0)  -->
<svg version="1.1" id="Layer_1" xmlns="http://www.w3.org/2000/svg" xmlns:xlink="http://www.w3.org/1999/xlink" x="0px" y="0px"
	 viewBox="-41 164.9 512 716.5" style="enable-background:new -41 164.9 512 716.5;" xml:space="preserve">
<style type="text/css">
	.st0{fill:none;stroke:#EFEEF0;stroke-width:14.1732;stroke-linecap:round;stroke-linejoin:round;}
	.st1{fill:#EFEEF0;}
</style>
<g>
	<g>
		<g>
			<g>
				<g>
					<path class="st0" d="M164.7,325.9c1.7,1.7,12.8-15.7,14.3-14.3c1,1-0.9,22.4,0.4,23.7c0.5,0.5,12.4-16.1,14.3-14.3
						c1.5,1.5-0.9,22.4,0.4,23.7c1.3,1.3,12.5-16.1,14.3-14.3c0.6,0.6-0.7,22.7,0.4,23.7c0.5,0.5,12.6-16,14.3-14.3
						c2,2-1.5,21.8,0.4,23.7c1.7,1.7,13.2-15.3,14.3-14.3c1.1,1.1-0.1,23.2,0.4,23.7c1.6,1.6,13.6-14.9,14.3-14.3
						c0.5,0.5-1.1,22.2,0.4,23.7c1.8,1.8,12.8-15.8,14.3-14.3c1.9,1.9-0.9,22.4,0.4,23.7c1.7,1.7,12.7-15.8,14.3-14.3
						c0.8,0.8-1.1,22.2,0.4,23.7c0.4,0.4,13.4-15.2,14.3-14.3c0.5,0.5-0.6,22.7,0.4,23.7c1.1,1.1,13.3-15.2,14.3-14.3"/>
					<path class="st0" d="M141.6,321c2.2,2.2,14.3-18.2,16.3-16.3c3,3-19.5,38-16.7,40.8c1.3,1.3,18.4-21,19.7-19.7
						c2.6,2.6-23.1,40.4-19.7,43.8c2.1,2.1,17.9-21.6,19.7-19.7c4,4-23.3,40.2-19.7,43.8c2.1,2.1,18.7-20.8,19.7-19.7
						c3.8,3.8-23.8,39.7-19.7,43.8c2.2,2.2,17.9-21.5,19.7-19.7c1.9,1.9-20.8,42.7-19.7,43.8c2.1,2.1,19.2-20.2,19.7-19.7
						c2.2,2.2-23.5,40-19.7,43.8c1.9,1.9,19-20.5,19.7-19.7c4.6,4.6-23.7,39.8-19.7,43.8c1.4,1.4,17.9-21.5,19.7-19.7
						c4.5,4.5-22.9,40.6-19.7,43.8c0.7,0.7,17.7-21.8,19.7-19.7c1.3,1.3-15.9,35-13.4,37.5c1.1,1.1,12.8-15.1,14-14
						c0.5,0.5,4.4,18.8,4.8,19.2c3.8,3.8,55.1-67.8,61.4-61.4c1.2,1.2,0,20.7,1.7,22.4c2.9,2.9,62.5-68.8,65.7-65.7
						c0.9,0.9,0.5,21.2,1.7,22.4c2.7,2.7,31.1-38.4,34.8-34.8"/>
					<path class="st0" d="M73.2,219.8c1.9,1.9,46.3-48.8,47.6-47.6c1.9,1.9,3.1,18,4.6,19.4c2.9,2.9,26.4-33.3,29.9-29.9
						c0.9,0.9,3.2,17.4,4.9,19.2c2.9,2.9,22.7-25.6,24.1-24.1c1.3,1.3,4.2,18.7,4.8,19.3c1.4,1.4,18.9-23,21-21
						c1.5,1.5,2.6,17.8,4.4,19.6c2,2,16.9-21.1,19-19c0.7,0.7,3.4,19.5,4,20.1c1.9,1.9,15.7-19.8,17.7-17.7
						c1.4,1.4,1.5,18.7,3.4,20.6c1.2,1.2,15.4-18.1,16.7-16.7c0.7,0.7,2.3,20.4,3,21.1c2,2,14.7-17.2,15.9-15.9
						c1.6,1.6,0.9,20.1,2.5,21.6c0.7,0.7,14.8-15.8,15.3-15.3c1,1,0,20.3,1.9,22.2c1.1,1.1,13.5-16.4,14.9-14.9
						c1.7,1.7-0.5,20.9,1.3,22.8c1.8,1.8,13.4-15.6,14.5-14.5c1.7,1.7-0.6,22,0.7,23.4c1.5,1.5,12.8-15.8,14.3-14.3
						c1.7,1.7-1.5,22.4,0.1,24c1,1,13.6-14.6,14.1-14.1c2.2,2.2-1.9,23.5-0.7,24.7c1.5,1.5,13.6-14.4,14-14
						c1.8,1.8-2.4,24.4-1.3,25.4c0.5,0.5,12.2-15.7,13.9-13.9c0.9,0.9-3.2,25-2.1,26.1c0.7,0.7,12.6-15.3,14-14
						c2.2,2.2-4.5,25.6-3,27c1.2,1.2,12.4-15.7,14-14c2.6,2.6-6,25.8-3.9,27.9c0.8,0.8,13.4-14.9,14.2-14.2
						c1.3,1.3-5.6,28.2-4.9,28.9c0.6,0.6,12.8-16,14.4-14.4c2.5,2.5-8,28.1-6.1,30.1c1.2,1.2,13-16.4,14.7-14.7
						c2.4,2.4-9,29.8-7.3,31.4c1.8,1.8,14.1-16.1,15.1-15.1c2.3,2.3-10.6,31-8.8,32.8c1.3,1.3,15.1-16.1,15.6-15.6
						c3.1,3.1-13.1,32.1-10.6,34.7c0.4,0.4,14.2-18.3,16.3-16.3c1.7,1.7-14.9,34.4-12.6,36.7c1.1,1.1,16.7-17.6,17.2-17.2
						c2.3,2.3-16.5,37.9-15.2,39.2c2,2,16.3-20.3,18.3-18.3c4.4,4.4-21.6,39.2-18.3,42.4c2.5,2.5,18.9-20.8,19.9-19.9
						c4.7,4.7-26.9,42.7-22.8,46.8c1.7,1.7,20.6-24,22.3-22.3c1.2,1.2-32.5,50.7-29.6,53.6c2.6,2.6,23.9-28.9,26.4-26.4
						c7.4,7.4-49.4,59.7-42.6,66.6c2.4,2.4,31.6-39.1,35.4-35.4"/>
					<path class="st0" d="M-1,266.1c3.4,3.4,58.6-63.9,61.2-61.2c6.3,6.3-103.6,103.2-91.4,115.4c7.6,7.6,56.1-62.4,59.2-59.2
						c4.5,4.5-74.2,91.8-71,95c0.9,0.9,30.5-32.2,31.3-31.3c3.3,3.3-41.1,56.7-36.9,61c0.7,0.7,23.9-25.6,24.8-24.8
						c3.9,3.9-28.1,49.8-26.9,51c2,2,18.7-24.2,21.4-21.4c1.3,1.3-22.7,43.8-21.2,45.3c2,2,17.5-21.3,19.4-19.4
						c4.1,4.1-18.5,40.1-17.3,41.3c0.8,0.8,15.7-20.1,17.9-17.9c2,2-16.8,35.8-14.3,38.3c1.2,1.2,15.8-17.9,16.8-16.8
						c2.2,2.2-14.8,33.2-11.9,36c0.9,0.9,14.9-17.2,16-16c2.1,2.1-11,32.9-9.9,34c1.2,1.2,13.7-17.1,15.4-15.4
						c1.4,1.4-10.4,30.3-8.3,32.4c1.1,1.1,14.2-15.7,14.9-14.9c0.6,0.6-8.1,29.7-6.9,30.9c0.9,0.9,13.9-15.3,14.6-14.6
						c0.7,0.7-8,27.3-5.6,29.7c1,1,13.2-15.4,14.3-14.3c2,2-6,27.2-4.5,28.6c1.2,1.2,13.5-14.8,14.2-14.2c2.2,2.2-4.7,26.5-3.6,27.6
						c1.3,1.3,12.4-15.5,14-14c0.8,0.8-4.1,25.2-2.6,26.7c1.4,1.4,13.3-14.6,13.9-13.9c2.4,2.4-4,23.8-1.9,25.9
						c0.3,0.3,13.2-14.7,13.9-13.9c0.9,0.9-2.9,23.4-1.1,25.2c0.7,0.7,13.6-14.5,14-14c2,2-1.2,23.6-0.4,24.4
						c1.1,1.1,12.4-15.9,14.2-14.2c1.1,1.1-0.9,22.6,0.3,23.8c1.6,1.6,13.6-15,14.3-14.3c1.5,1.5,0.3,22.5,0.9,23.2
						c0.4,0.4,14-15.4,14.7-14.7c1.9,1.9,0.4,21.4,1.5,22.5c1.4,1.4,14.6-15.4,15-15c1.6,1.6,0.5,20.4,2.1,22
						c0.4,0.4,14.7-16.4,15.5-15.5c1.6,1.6,2.2,20.9,2.6,21.4c0.5,0.5,14.5-17.8,16.2-16.2c1.9,1.9,1.8,19.6,3.1,20.9
						c0.6,0.6,16-17.9,17-17c1.3,1.3,2.8,19.5,3.7,20.3c0.8,0.8,16.6-19.6,18.1-18.1c0.7,0.7,2.3,18.2,4.1,20
						c1.6,1.6,18.4-21,19.7-19.7c1.8,1.8,3,18.2,4.4,19.6c1.8,1.8,19.1-24.8,21.9-21.9c0.7,0.7,3.2,17.7,4.8,19.3
						c1,1,22.5-28.8,25.7-25.7c1,1,3.1,17.3,4.9,19.2c1.2,1.2,29-37.4,33.2-33.2c1.7,1.7,2.3,17.9,4.2,19.9
						c17.6,17.6,118.1-152.6,135.3-135.3"/>
				</g>
			</g>
		</g>
	</g>
</g>
<g>
	<path class="st1" d="M-31.5,814.2c0.1-0.5,0.4-0.7,0.9-0.7c0.5,0.1,0.9,0,1.3-0.1c-1-1-1.7-2.4-1.9-4.2c-0.3-1.7-0.9-3.2-1.9-4.4
		c0.3-0.6,0.5-1.3,0.7-1.9c0.2-0.6,0.7-0.9,1.6-0.8c-0.4-2.8-0.3-5.5,0.2-8c0.5-2.5,1.3-4.8,2.4-7c1.1-2.2,2.4-4.4,3.9-6.5
		c1.5-2.1,2.9-4.3,4.4-6.5c1.2-0.3,1.9-0.2,2.1,0.3c0.3,0.5,0.7,0.4,1.4-0.3c2.1-1.4,3.5-3,4.3-4.8c0.8-1.7,1.2-3.7,1.2-5.7
		c1.2-3.4,2.5-6.7,4-10c1.5-3.3,3.2-6.4,5.1-9.2c1.9-2.8,4-5.3,6.2-7.5c2.2-2.1,4.6-3.8,7.2-4.9c1.8-1.6,4.1-3,6.9-4.3
		c2.8-1.3,5.8-2.3,8.9-3c3.2-0.7,6.4-1.1,9.8-1.2c3.4-0.1,6.5,0.3,9.3,1.1c0.6,0.3,1,0.1,1.2-0.5c0.1-0.6,0.5-0.9,1-0.9
		c6.5,0.8,12.3,2.1,17.4,3.9c5.1,1.8,9.5,4.3,13.1,7.6c2.5,3.9,4.8,8.1,7,12.5c2.2,4.5,3.9,9.1,5.1,14c1.2,4.9,1.8,9.9,1.6,15
		c-0.1,5.2-1.2,10.4-3.3,15.5c-4.5,5.7-10,10.3-16.5,13.7c-6.5,3.4-13.4,6.3-20.9,8.5c-7.4,2.3-15.1,4.1-23.1,5.5
		c-8,1.4-15.7,3-23.2,4.7c0.1,3.5,0.1,7.2,0,11.2c-0.1,3.9-0.6,7.9-1.3,11.8c-0.7,3.9-1.7,7.8-3.1,11.5c-1.4,3.8-3.2,7.2-5.5,10.5
		c-2.6-0.1-5.3,0.1-8.1,0.8c-2.8,0.6-5.3,1.3-7.5,1.9c-1-0.6-2-1.3-3-1.8c-1-0.6-2.2-0.9-3.6-1.1c0.4-1.6,0-3.2-1.1-4.9
		c-1.1-1.7-2.2-3.3-3.3-4.9c-1.1-1.6-1.8-3.2-2.1-4.9c-0.3-1.6,0.4-3.1,2.2-4.4c-1-0.9-1.6-2.3-1.6-4.3c0.5,0.5,1.2,0.8,1.9,0.8
		c-0.3-2.3,0-5.1,0.9-8.3c0.8-3.2,1.6-6.4,2.1-9.6c0.6-3.2,0.7-6.1,0.3-8.7C-27.2,817.3-28.7,815.4-31.5,814.2z M19,768.8
		c-0.5,1.4-0.9,2.7-1.3,3.8c-0.3,1.1-0.7,2.1-1.1,3c-0.4,0.9-0.8,1.8-1.3,2.7c-0.5,0.9-0.9,1.9-1.5,3.1c0.3,0.8,0.8,1.4,1.6,1.7
		s1.3,1,1.6,1.7c1.8-0.9,3.6-1.6,5.4-2c1.8-0.5,3.6-0.8,5.4-1.1c1.8-0.3,3.6-0.6,5.4-1c1.8-0.4,3.7-1,5.6-1.9c1.9-0.9,4-1.6,6.1-2.2
		c2.1-0.6,4.2-1.2,6.3-1.8c2.1-0.6,4.1-1.4,6-2.2c1.9-0.8,3.6-2,5-3.4c-1.8-1.7-4.5-3.2-8.2-4.5c-3.6-1.3-7.5-2.1-11.7-2.4
		c-4.2-0.3-8.4,0-12.6,0.9C25.8,764.1,22.1,766,19,768.8z"/>
	<path class="st1" d="M98,861.8c-0.5-0.5-1-1.1-1.4-1.8c-0.4-0.7-0.7-1.6-1-2.8c-1.8-2.2-3.2-4.7-4.3-7.6c-1-2.8-1.7-5.8-2.1-8.8
		c-0.4-3-0.5-6.1-0.2-9.2c0.3-3.1,0.7-6,1.4-8.7c0.4-1.3,0.7-2.7,1-4.1c0.6-2.5,1.3-4.9,1.9-7.3c0.6-2.4,1.6-4.4,2.9-5.9
		c-0.5-1.4-0.5-3,0.2-4.7c0.6-1.7,1.3-3.2,1.9-4.7c0.3-0.4,0.5-0.7,0.6-1.1c0.1-0.3,0.3-0.6,0.4-0.9c1.6-4.5,3.1-8.9,4.6-13.1
		c1.5-4.2,2.9-8.2,4.4-12.1c2.6-7.1,5.1-14.1,7.5-21c2.4-6.9,4.6-14.2,6.5-21.9c1-0.8,1.9-1.3,2.7-1.6c0.3-0.1,0.6-0.3,1-0.4
		c0.4-0.1,0.8-0.2,1.4-0.2c2.7,1.4,5.9,2.8,9.6,4c3.7,1.2,6.8,1.8,9.4,1.8l3.3,2.9c1.7,1.9,3.1,4,4.4,6.1c1.2,2.1,1.6,4.9,1.1,8.2
		c-0.8,1.2-1.4,1.9-1.9,2.1c-0.8,3-1.6,5.6-2.5,7.9c-0.9,2.3-1.8,4.4-2.7,6.5c-1,2.3-2,4.7-2.9,7c-0.9,2.3-1.7,5.2-2.3,8.5
		c-0.8,0.9-1.3,1.7-1.5,2.3c-0.2,0.6-0.4,1.3-0.7,1.9c-0.3,0.8-0.6,1.6-1,2.4c-0.4,0.8-1,1.6-1.7,2.2c-0.5,4-1.3,7.3-2.3,9.8
		c-1,2.5-2.1,5-3.1,7.5c-1.8,4.5-3.5,9-5,13.5c-1.6,4.5-2.5,9.5-2.7,15.2c1.6-0.4,3-0.6,4.3-0.6c1.7,0,3.3,0.3,4.9,0.8
		c4.7-2.3,9.7-3.8,15.2-4.3c5.5-0.5,11-0.8,16.4-1c4.5,0,8.7-0.2,12.6-0.6c1.3,0.9,2.1,1.4,2.5,1.5c0.4,0.1,1,0.1,1.9,0.1
		c0.4,0,0.8,0,1.2,0s0.9,0.1,1.6,0.2c1.8,1.8,3.6,3.1,5.2,3.8c1.7,0.7,3.5,1.4,5.4,2c1.7,0.6,3.3,1.3,4.9,2c1.6,0.7,3.2,1.6,4.8,2.8
		l1.7,9.9c1,1.4,1.5,2.4,1.4,2.9c0,1-0.3,1.9-0.8,2.7l0.4,2.5c-2.5,0.5-4.1,1.1-4.9,1.6c-0.8,0.6-1.6,1.3-2.5,2.2
		c-1.4,0.1-2.8,0.2-4.1,0.2c-2.6,0-5.2,0.4-8,1.2c-3.9-1.4-8.2-2.1-12.8-2.1c-1.8,0-3.7,0.1-5.5,0.2c-1.9,0.1-3.7,0.3-5.5,0.6
		c-1.9,0.3-3.9,0.5-5.8,0.7s-3.9,0.3-5.8,0.3c-1.6,0.3-2.7,0.5-3.3,0.6c-0.6,0.1-1.3,0.3-1.9,0.6c-4.4,1.4-9.2,2.8-14.3,4.3
		c-5.1,1.4-10.3,2.1-15.4,2.1c-7.6,0-13.8-1.9-18.4-5.8c-0.5-1.2-0.9-1.9-1.2-2.3C98.5,862.7,98.2,862.3,98,861.8z"/>
	<path class="st1" d="M207.6,850.5l2.5-1.9l0.2-4.1c3.2-7.9,6.6-15.5,10-22.7c3.4-7.2,7-14.7,10.8-22.3c1.2-2.5,2.4-4.9,3.6-7.4
		c1.2-2.5,2.4-5,3.6-7.6c-0.1-0.5-0.2-1.1-0.2-1.6c0-0.6,0.1-1.3,0.4-2c1.8-2.6,3.3-4.9,4.4-7s2.2-4.2,3.2-6.4
		c1.2-2.6,2.4-5.2,3.8-7.8c1.4-2.6,3.1-5.1,5.1-7.6l1.4-1.9l2.1,0.2c0.5-0.3,1.1-0.5,1.6-0.7c0.6-0.2,1.3-0.3,2.2-0.3l3.5,0.6
		c4.3-1.9,8.1-4.8,11.4-8.4s6.6-8.1,10-13.3l2.3-3.3l3.1,1.9c0.6,0.4,1.7,0.8,3.1,1.2c1.4,0.4,2.9,0.8,4.5,1.4
		c2.7,0.6,5.4,1.4,8,2.2c2.6,0.8,4.6,2,6,3.4l1,1.7c0.3,1.4,0.5,2.7,0.7,3.9s0.4,2.3,0.7,3.5c0.5,2.7,1,5.4,1.4,8.1
		c0.4,2.7,0.6,5.6,0.8,8.8c0.6,2.6,1.3,5.2,1.8,7.9c0.6,2.7,1.1,5.3,1.6,7.9c0.6,3.8,1.4,7.3,2.1,10.8c0.8,3.4,1.8,6.7,3.1,9.8
		c1.3,0,2.1,0.1,2.3,0.2c1.6-0.6,3.4-1,5.4-1.2l2.5-0.2l0.8,2.3c0.3,0.4,0.6,0.8,1,1.2c0.4,0.4,0.8,0.8,1.4,1.2
		c2.1,0.1,3.6,0.6,4.6,1.3c1,0.7,1.8,1.4,2.4,2c0.3,0.3,0.6,0.6,1,0.9c0.4,0.3,0.7,0.6,1,0.7l3.5,1.4l-1.9,3.7
		c-1.4,2.7-3.6,5.4-6.5,8s-6.2,4.7-9.8,6.4c0.3,0.9,0.4,1.7,0.5,2.5c0.1,0.8,0.2,1.7,0.5,2.7c0.5,2.6,0.9,5.3,1.3,8.1
		c0.3,2.8,0.3,5.7-0.1,8.6c-1.3,3.4-2.8,6.4-4.6,9c-1.7,2.7-3.8,5-6.2,7.2s-5.1,3.9-8.1,5.2c-3,1.4-6.1,2.1-9.3,2.2
		c-1.8-0.4-3.1-0.8-4-1.4c-0.8-0.5-1.6-1-2.2-1.6c-1-0.8-1.9-1.3-2.5-1.6l-2.5-1.2l0.8-2.9c0.4-1,0.4-1.9-0.1-2.7
		c-0.5-0.8-1.4-1.8-2.8-3.1c-0.5-0.4-1-0.8-1.4-1.3c-0.4-0.5-0.8-0.9-1.4-1.5l-3.9-4.5l6.4-1.7c3.9-1,6.5-2.4,7.8-4
		c1.3-1.6,1.8-4.5,1.6-8.6c-3.2-0.6-5.9-0.7-8-0.3c-2.1,0.5-4.1,0.9-6.2,1.5c-3,0.8-5.9,1.5-8.7,2c-2.8,0.6-6,0.9-9.3,0.9
		c-2.2,0-4.5-0.2-7-0.6l-2.1-0.2l-0.6-2.1c0-0.3-0.2-0.5-0.5-0.9c-0.3-0.3-0.6-0.6-0.9-0.9c-0.6-0.8-1.4-1.8-2.3-3.1
		c-0.9-1.3-1.1-2.9-0.6-4.9c-0.9-1.4-1.4-2.9-1.6-4.5c-0.5,1-0.9,2-1.3,3s-0.6,1.9-0.9,2.8l-0.8,2.5l-2.5,0.4
		c-0.3,0.3-0.5,0.6-0.7,1.2c-0.2,0.5-0.2,0.9-0.1,1.2l0.8,2.1l-1.9,1.7c-0.3,0.4-0.6,0.7-1,1c-0.4,0.3-0.7,0.5-1,0.8
		c-0.3,1.4-0.6,2.8-1.1,4.1c-0.5,1.3-0.9,2.6-1.5,3.9c-0.6,2.1-1.3,4.1-1.8,6c-0.6,1.9-0.9,3.9-0.9,5.8l-0.8,2.5
		c-0.6,1-1.5,1.8-2.4,2.3c-1,0.5-1.9,1-2.8,1.4c-1.3,0.5-2.2,1-2.7,1.6l-0.6,2.5l-2.9,0.4c-1.7,0.4-2.9,0.6-3.6,0.8
		c-0.7,0.1-1.5,0.2-2.4,0.2l-2.5-0.2c-1.6-1.6-2.8-2.7-3.8-3.6s-2.1-1.6-3.4-2.2l-1.2-1.6c-0.5-1-0.8-2-1-2.8
		c-0.1-0.8-0.3-1.7-0.6-2.6c-0.3-1.7-0.6-2.8-1.2-3.5L207.6,850.5z M269.6,800c-1.8,2.6-3.6,5.3-5.2,8.2c0.9-0.1,1.8-0.2,2.6-0.2
		c0.8,0,1.7-0.1,2.6-0.2c4.5-0.3,8.7-0.6,12.6-1c3.9-0.4,8.1-1,12.6-1.9c-1-4.8-2.2-9.7-3.4-14.7c-1.2-5-2.6-10-4-15l-1,1.9
		c-3.2,3.5-6.3,7.2-9.3,11.3c-3,4-5.4,7.8-7.4,11.5L269.6,800z"/>
	<path class="st1" d="M375.1,875.3c-11.4-1.6-18.3-7.6-20.8-18l0.2-2.1c0.5-1.6,1.1-3.3,1.7-5.2c0.6-2.2,1.4-4.4,2.1-6.5
		c0.8-2.1,2.1-4,3.9-5.7c0.4-1.2,1.1-2.9,2.2-5.3c1.1-2.4,2.9-6,5.5-10.8c2.1-3.8,3.7-6.7,4.9-8.9c1.2-2.2,2.2-3.9,3-5
		c-1.3-2.3-3.1-4.6-5.4-6.8c-2.1-3.9-3.9-7.6-5.3-11.2c-1.5-3.6-2.6-6.8-3.4-9.6c-0.1-3.1-0.6-6.3-1.6-9.5c-0.4-1.7-0.8-3.4-1.2-5
		c-0.4-1.7-0.6-3.4-0.6-5.2c-0.5-0.9-1-2.1-1.4-3.5l0.4-2.3c0.6-1,0.8-2.4,0.5-4.2c-0.3-1.7-0.7-3.5-1.3-5.3
		c-0.4-1.7-0.7-3.5-1.1-5.3c-0.3-1.9-0.4-3.7-0.3-5.5c0.1-1.8,0.6-3.6,1.5-5.2c0.8-1.7,2.3-3.1,4.4-4.3l1.9-1.4l1.9,1.2
		c1.4,0.9,2.8,1.7,4.1,2.3c1.3,0.7,2.6,1.3,3.9,1.9c1.6,0.8,3.1,1.6,4.7,2.4c1.6,0.8,3.2,1.8,5,2.8l1.9,1.4l-0.2,2.1
		c0,0.3,0.1,0.6,0.2,1c0.1,0.4,0.3,0.7,0.6,1l2.1,0.6l0.2,2.7v2.3c0,1.2,0.1,2,0.2,2.4c0.1,0.5,0.4,0.9,0.8,1.5l1,2.5
		c0,2.3,0.2,4.4,0.6,6.2c0.4,1.8,0.8,3.6,1.4,5.4c0.6,1.8,1.2,3.7,1.6,5.5c0.4,1.9,0.5,3.9,0.2,6.1c0.8-0.4,1.6-1,2.3-1.7
		c0.3-0.3,0.5-0.5,0.9-0.8c0.3-0.3,0.7-0.5,1.1-0.8l13.6-18.4l-0.4-2.3l4.9-4.7c1.3-1,2.5-2.1,3.7-3.2c1.2-1.1,2.1-2.4,2.9-3.8
		l1.2-1.7c5.8-7.8,13.3-12.5,22.5-14.4l3.3-0.8l1,3.1c0.6,1.8,1.9,3.4,3.8,4.8c1.9,1.4,3.9,2.7,6.1,4l2.1,1.4
		c0.8,1.6,1.2,2.7,1.2,3.5s-0.1,1.4-0.2,1.9l1,2.5c-1.4,3.8-3,6.4-4.7,8.1c-1.7,1.6-3.4,3.1-5.2,4.6c-1.4,1.2-2.7,2.3-3.9,3.5
		c-1.2,1.2-2.1,2.5-2.7,3.9l-1.6,1.9c-3.2,1.7-5.3,4.1-6.2,7.4l-0.8,2.7h-2.9c-0.1,0-0.5,0.3-1,0.9c-0.5,0.6-1.3,2-2.3,4.2
		c-1.2,1.6-2,2.6-2.4,3c-0.5,0.5-0.8,0.8-1.1,1.1c-0.3,0.6-0.5,1.2-0.7,1.7c-0.2,0.5-0.4,1.2-0.7,1.9l-1.2,1.6c-1.2,1-2,2-2.5,3
		c-0.5,1-1.1,2.1-1.7,3.4c-0.5,1.2-1.1,2.4-1.7,3.6c-0.6,1.2-1.6,2.4-2.7,3.6l0.4,2.1l-1.6,1.4c-1,0.9-1.9,2-2.7,3.4
		c-0.8,1.4-1.6,2.8-2.3,4.2c-0.8,1.6-1.6,3.1-2.5,4.7c-0.9,1.6-2.1,3-3.5,4.3c-0.9,2.3-1.7,4.1-2.4,5.4c-0.7,1.3-1.9,2.8-3.6,4.7
		c-1.6,6.2-5.2,12.9-11.1,20c-0.1,1.4-0.6,2.8-1.3,4.2c-0.7,1.4-1.5,2.6-2.2,3.8c-0.3,0.5-0.6,1.1-0.9,1.6c-0.3,0.6-0.6,1-0.7,1.3
		l-0.6,2.1c-0.8,1.4-1.6,2.6-2.4,3.5s-1.6,1.7-2.4,2.5c-0.4,0.3-0.7,0.6-1.1,1c-0.3,0.4-0.6,0.7-0.9,1L375.1,875.3z"/>
</g>
</svg>
