<?xml version="1.0" encoding="utf-8"?>
<!-- Generator: Adobe Illustrator 19.0.0, SVG Export Plug-In . SVG Version: 6.00 Build 0)  -->
<svg version="1.1" id="圖層_1" xmlns="http://www.w3.org/2000/svg" xmlns:xlink="http://www.w3.org/1999/xlink" x="0px" y="0px"
	 viewBox="0 0 100 100" style="enable-background:new 0 0 100 100;" xml:space="preserve">
<style type="text/css">
	.st0{fill:#103D65;}
</style>
<g id="XMLID_1_">
	<path id="XMLID_3_" class="st0" d="M16,46.1V32.5c-0.1-2,0.2-3.8,0.8-5.5s1.5-3.2,2.6-4.5s2.5-2.4,4.1-3.3c1.6-0.9,3.3-1.4,5.1-1.6
		v5.9c-2.3,0.8-3.8,1.9-4.6,3.4s-1.2,3.4-1.2,5.6h5.9v13.7L16,46.1L16,46.1z M35,46.1V32.5c-0.1-2,0.2-3.8,0.8-5.5s1.5-3.2,2.6-4.5
		s2.5-2.4,4.1-3.3c1.6-0.9,3.3-1.4,5.1-1.6v5.9c-2.3,0.8-3.8,1.9-4.6,3.4s-1.2,3.4-1.2,5.6h5.9v13.7L35,46.1L35,46.1z"/>
</g>
</svg>
