<?xml version="1.0" encoding="utf-8"?>
<!-- Generator: Adobe Illustrator 19.0.0, SVG Export Plug-In . SVG Version: 6.00 Build 0)  -->
<svg version="1.1" id="圖層_1" xmlns="http://www.w3.org/2000/svg" xmlns:xlink="http://www.w3.org/1999/xlink" x="0px" y="0px"
	 viewBox="0 0 393.2 189.2" style="enable-background:new 0 0 393.2 189.2;" xml:space="preserve">
<style type="text/css">
	.st0{fill:#FFFFFF;}
	.st1{fill:#295275;}
	.st2{fill:#103D65;}
</style>
<g id="XMLID_28_">
	<ellipse id="XMLID_265_" class="st0" cx="198.4" cy="95.8" rx="193" ry="87.9"/>
	<g id="XMLID_171_">
		<g id="XMLID_175_">
			<g id="XMLID_176_">
				<g id="XMLID_177_">
					<path id="XMLID_264_" class="st1" d="M384.4,96.6c0.2-1.1-1-0.7-1.2-0.9C383.3,97.6,384.7,96.6,384.4,96.6z"/>
					<path id="XMLID_263_" class="st1" d="M381.5,115.9l-0.2-0.6c0,0,0,0.2-0.1,0.5c-0.1,0.3-0.1,0.7-0.2,1.1
						c-0.2,0.8-0.3,1.6-0.3,1.6L381.5,115.9z"/>
					<path id="XMLID_262_" class="st1" d="M369.2,131c1.4,0.1,2.6-1.3,3.8-2.9c0.7-0.8,1.2-1.7,1.8-2.5c0.6-0.8,1.2-1.6,1.9-2.1
						l0.7-0.2l-0.4-2.2c-1.1,1.8-2.5,3.8-3.8,5.7C371.9,128.5,370.5,130.2,369.2,131z"/>
					<path id="XMLID_261_" class="st1" d="M358.4,134.3c1,0.2-1.3,1.9,2-1.3c-0.2,0.1-0.3,0.1-0.5,0.1
						C359.6,133.4,359.2,133.8,358.4,134.3z"/>
					<path id="XMLID_260_" class="st1" d="M360,133.2C361.5,131.9,358.5,133.4,360,133.2L360,133.2z"/>
					<path id="XMLID_259_" class="st1" d="M352.6,139c0,0,0.5-0.5,0.9-1c0.5-0.5,0.9-1.1,0.9-1.1c-0.7,0-2.8,1.2-2.2,0.4
						C350.1,139.1,350.8,139.2,352.6,139z"/>
					<path id="XMLID_258_" class="st1" d="M351.2,141.6l1-1C351.9,140.6,351.5,140.7,351.2,141.6z"/>
					<path id="XMLID_257_" class="st1" d="M354.4,138.5c0,0-0.1,0.1-0.3,0.3c-0.2,0.2-0.5,0.5-0.8,0.7c-0.5,0.5-1.1,1.1-1.1,1.1
						c0.5,0.1,0.9,0.6,1-0.9C353.4,140.3,353.6,139.5,354.4,138.5z"/>
					<path id="XMLID_256_" class="st1" d="M355.9,137.7c1.5-0.5,3.3-1.5,1.4,0.7c2.1-1.6,2.7-2.6,2.3-2.8
						C359.4,135.5,358,136.1,355.9,137.7z"/>
					<path id="XMLID_255_" class="st1" d="M369.8,133.2c0,0,0.5-0.2,1-0.5c0.3-0.1,0.5-0.3,0.7-0.4c0.2-0.1,0.3-0.2,0.3-0.2l0.8-1.8
						c-0.2,0.4-1,1.1-1.7,1.6C370.2,132.6,369.6,133,369.8,133.2z"/>
					<path id="XMLID_254_" class="st1" d="M337.3,146.6c0,0.5,1.3,0.6,1.8,1l1.6-1.4C339.6,146.4,337.7,147.1,337.3,146.6z"/>
					<path id="XMLID_253_" class="st1" d="M339.1,147.5c0,0-0.6,0.5-1.2,1c-0.6,0.5-1.2,1-1.2,1
						C339.2,148.5,339.4,147.9,339.1,147.5z"/>
					<path id="XMLID_252_" class="st1" d="M351.9,143.8c0,0,0.9-1,1.7-2c0.4-0.5,0.8-1,1.2-1.4c0.3-0.4,0.5-0.6,0.5-0.6
						s-0.2,0.3-0.6,0.7c-0.4,0.4-0.9,1-1.4,1.6c-1.1,1.1-2.1,2.3-2.1,2.3L351.9,143.8z"/>
					<polygon id="XMLID_251_" class="st1" points="326.7,151.4 327.9,149.8 325.7,152.4 					"/>
					<path id="XMLID_250_" class="st1" d="M319.6,154.4c0.9-1.2-2.1-0.7-1.1-1.6c-1.9,0.9-3.4,2.1-4.7,3.3
						C315.4,155.2,317.2,154.7,319.6,154.4z"/>
					<path id="XMLID_249_" class="st1" d="M311.6,157.9c0.8-0.5,1.5-1.1,2.3-1.8C313.1,156.6,312.3,157.2,311.6,157.9z"/>
					<path id="XMLID_248_" class="st1" d="M331.8,151.6c-0.3-0.1-1-0.6-2.7-0.2l1.6,0.6C331.1,152,331.4,151.8,331.8,151.6z"/>
					<path id="XMLID_247_" class="st1" d="M330.8,152.1L330.8,152.1c-1.3,0.5-2.1,0.8-2.5,1C328.6,153,329.3,152.7,330.8,152.1z"/>
					<path id="XMLID_246_" class="st1" d="M332.1,151.5c-0.1,0-0.2,0.1-0.3,0.1C332,151.7,332.1,151.7,332.1,151.5z"/>
					<path id="XMLID_245_" class="st1" d="M344.4,147c-1.3,1.4-4.3,3.9-0.6,3C344.6,148.7,342.5,149.1,344.4,147z"/>
					<path id="XMLID_244_" class="st1" d="M334.1,152.2l3.1-1.2c-0.2-0.3-0.9-0.4-0.3-1.1L334.1,152.2z"/>
					<polygon id="XMLID_243_" class="st1" points="332.8,153.3 334.1,152.2 333,152.7 					"/>
					<path id="XMLID_242_" class="st1" d="M317.3,157.1c-1.2,1-2.6,1.5-4.2,2.2c1.9-0.4,3.7-0.9,5.5-1.6
						C318.7,157.3,319.2,156.4,317.3,157.1z"/>
					<path id="XMLID_241_" class="st1" d="M323.9,154.9c-0.1,0.1-0.2,0.1-0.3,0.2C323.9,155.1,324,155.1,323.9,154.9z"/>
					<path id="XMLID_240_" class="st1" d="M296.5,164.5c0.1,0,0.2,0.1,0.3,0.1c0-0.1,0-0.1,0-0.2L296.5,164.5z"/>
					<path id="XMLID_239_" class="st1" d="M318.9,157.8c1.4-0.3,2.1-0.9,2.7-1.5c-0.9,0.5-2,1-3.1,1.4
						C318.5,157.9,318.5,158,318.9,157.8z"/>
					<path id="XMLID_238_" class="st1" d="M307.2,159.9c0.8,0,1.6,0,2.5-0.1C309,159.7,307.4,159.6,307.2,159.9z"/>
					<path id="XMLID_237_" class="st1" d="M323.1,154.9c0.1,0,0.1-0.1,0.2-0.1C322.7,154.7,322.8,154.8,323.1,154.9z"/>
					<path id="XMLID_236_" class="st1" d="M323.1,154.9c-0.6,0.4-1,0.9-1.5,1.4c0.8-0.4,1.5-0.8,2-1.2
						C323.5,155,323.3,155,323.1,154.9z"/>
					<path id="XMLID_235_" class="st1" d="M293.3,173.3c0-1.2,3.4-3.1,6.9-2.8c2.9-1.7-0.2-4.7-3.4-5.9c0,0.5,0.2,0.9-2.9,2.4
						c0.6,0.1,2.5,0,3.9,0.1c1.4,0,2.3,0.2,1.1,1.1c-4.1,1.7-3.6,0.5-5.8,0.5c2.1,0.9-4.9,3.4-3.5,5.1c0,0,0.9-0.4,1.8-0.8
						c0.9-0.4,1.8-0.8,1.8-0.8C293.4,172.5,292.2,173.3,293.3,173.3z"/>
					<path id="XMLID_234_" class="st1" d="M302.8,163l1.3-0.5c-1.5,0.2-2.7,0.1-4.9-0.2c-2,1.2-2.3,1.7-2.4,2.1l6.4-1.7L302.8,163z"
						/>
					<path id="XMLID_233_" class="st1" d="M309.8,160.6c-0.6,1.5-3.6,3-1.3,3.6c3.8-1.3,2.3-1.8,4.4-3.1c-6,2.3,1.5-1.2-3.1-0.4
						c1.1-0.6,2.2-1,3.2-1.4c-1.1,0.3-2.2,0.4-3.3,0.5c0.1,0,0.1,0,0.2,0l0,0c0,0,0,0,0,0c0.3,0.1,0.4,0.1,0.1,0.1
						c0,0-0.1,0-0.1,0.1C310,160.2,309.9,160.4,309.8,160.6c-1.8,0.3-0.4-0.2,0.1-0.5c0-0.1,0-0.1,0-0.2c0,0,0,0,0,0l-5.9,2.6
						C305.4,162.2,307,161.6,309.8,160.6z"/>
					<path id="XMLID_232_" class="st1" d="M342,154c-0.2,0-0.3-0.1-0.3-0.2C341.4,154.1,341.3,154.3,342,154z"/>
					<path id="XMLID_231_" class="st1" d="M339.3,154.5c0.3-0.4,0.5-0.9,1.9-1.5c1.3-0.3,0.3,0.5,0.5,0.9c0.7-0.7,2.5-2.3-0.4-1.5
						l-0.3,0.4c-2.5,0.8-6.2,0.8-5.8,0.5C336.3,153.8,337.2,154.3,339.3,154.5z"/>
					<path id="XMLID_230_" class="st1" d="M324.5,158.4c0,0-1.2,0.6-2.4,1.3c-0.6,0.3-1.2,0.6-1.6,0.9c-0.4,0.2-0.8,0.4-0.8,0.4
						s0.7,0,1.5,0c0.7,0,1.5,0,1.5,0l-0.4-0.5C325.3,159.5,324.4,159,324.5,158.4z"/>
					<polygon id="XMLID_229_" class="st1" points="295.7,164 296.1,162.6 293.6,165.1 					"/>
					<path id="XMLID_228_" class="st1" d="M289.1,165.9l0-1.2c0,0-0.4,0.3-0.8,0.6c-0.4,0.3-0.8,0.5-0.8,0.5s0.4,0,0.8,0
						C288.7,165.9,289.1,165.9,289.1,165.9z"/>
					<path id="XMLID_227_" class="st1" d="M49.1,32.5l1.3-1.1C49.8,31.9,49.4,32.2,49.1,32.5z"/>
					<path id="XMLID_226_" class="st1" d="M38.6,38.4l0,0.6C39,38.5,39.1,38.2,38.6,38.4z"/>
					<path id="XMLID_225_" class="st1" d="M119.8,168.8c-2-1.5-4.1-3.6-4.2-2.3l0.4,1.4C117.7,167.9,118.9,168.3,119.8,168.8z"/>
					<path id="XMLID_224_" class="st1" d="M14.4,122.7c0,0.2,0.1,0.5,0.1,0.8c0.7,0.2,1.3,0.4,1.9,0.6
						C15.8,123.7,15.1,123.2,14.4,122.7z"/>
					<path id="XMLID_223_" class="st1" d="M9.2,124.2l-1.1-3.3C8.3,121.7,8.6,122.7,9.2,124.2z"/>
					<path id="XMLID_222_" class="st1" d="M109.9,9.4l1.6-1.7C108.6,8.5,110,8.8,109.9,9.4z"/>
					<path id="XMLID_221_" class="st1" d="M218.8,176.4c-2-0.4-3.6-0.5-5-0.5C216.3,176.4,218.3,177.4,218.8,176.4z"/>
					<path id="XMLID_220_" class="st1" d="M51.4,46.1c0.7-0.7,0.9-1.1,0.8-1.3C51.4,45.4,51.1,45.9,51.4,46.1z"/>
					<path id="XMLID_219_" class="st1" d="M208.2,176c0.4,0.1,0.7,0.2,1.1,0.3c1.4-0.3,2.9-0.5,4.7-0.5
						C212.1,175.4,210.1,175.1,208.2,176z"/>
					<path id="XMLID_218_" class="st1" d="M339.9,28.2c0.1,0.1,0.3,0.2,0.4,0.4C340.4,28.5,340.2,28.4,339.9,28.2z"/>
					<path id="XMLID_217_" class="st1" d="M382.1,79.3c-0.3-0.5-0.8-1.3-1.2-2.1C381,77.6,381.3,78.3,382.1,79.3z"/>
					<path id="XMLID_216_" class="st1" d="M261.7,170.9C263.1,170.6,261.9,170.8,261.7,170.9L261.7,170.9z"/>
					<path id="XMLID_215_" class="st1" d="M269.6,174.5c-0.3,0.2-0.5,0.4-0.5,0.7C269.2,174.9,269.4,174.7,269.6,174.5z"/>
					<path id="XMLID_214_" class="st1" d="M193.4,183.7c0,0-0.1,0-0.1,0C193.7,184,193.6,183.9,193.4,183.7z"/>
					<path id="XMLID_213_" class="st1" d="M264,171.1c-0.6,0-1.2-0.1-1.9-0.1C262.4,171.1,262.9,171.2,264,171.1z"/>
					<path id="XMLID_212_" class="st1" d="M263.6,170.6c0.5,0,0.9-0.1,1.3-0.1C265,170.3,264.8,170.2,263.6,170.6z"/>
					<path id="XMLID_211_" class="st1" d="M259.7,171.3c0.8-0.1,1.6-0.2,2.4-0.2c-0.3,0-0.4-0.1-0.4-0.1
						C261.3,171,260.7,171.1,259.7,171.3z"/>
					<path id="XMLID_210_" class="st1" d="M217.7,4.6c0.1,0,0.2,0.1,0.3,0.1C219.6,4.3,218.9,4.3,217.7,4.6z"/>
					<path id="XMLID_209_" class="st1" d="M78.9,170.8c0.1,0,0.1,0,0.2,0c-0.1,0-0.1-0.1-0.2-0.1L78.9,170.8z"/>
					<path id="XMLID_208_" class="st1" d="M73.3,169.8c2.8-0.6,3.9,0,5.5,0.9l-0.5-4c0,0-1.2,0.8-2.5,1.5
						C74.6,169,73.3,169.8,73.3,169.8z"/>
					<path id="XMLID_201_" class="st1" d="M75.2,20.6c0,0-1,0.1-2,0.1c-1,0.1-2,0.2-2,0.2c3.8-3.4,7.3-3.9,3.2-4.1
						c0.2,1-0.6,1.8-1.9,2.5c-1.3,0.8-3,1.5-4.8,2.3c-0.9,0.4-1.8,0.7-2.6,1.1c-0.8,0.4-1.6,0.8-2.2,1.2c-1.2,0.8-2,1.7-1.7,2.6
						c0,0-0.7,0.1-1.3,0.1c-0.7,0.1-1.3,0.2-1.3,0.2c0.7-0.3,0.7-0.5,1.4-0.8c-2.7,0.2-3.2,1.3-3.9,2.5c-0.6,1.3-1.4,2.7-4.4,3.9
						c-2.1,0.8-3.8,1-2.6-0.1c0,0-1,0.8-2,1.6c-0.5,0.4-1,0.8-1.4,1.1c-0.4,0.3-0.6,0.5-0.6,0.5c-1.3,0.7-1.3-0.1,0-0.8
						c0,0-1.6,1-3.3,2.1c-0.8,0.5-1.6,1-2.2,1.5c-0.6,0.4-1,0.7-1,0.7l0-0.1c-0.6,1.1-2.2,3.2-3,4.2c-1.9,0.7,0.6-0.9-0.1-1
						l-2.9,3.2c-2,0.2,0.3-2.7,2.9-4.2c-2.7-0.5-3.3,0.3-4.3,1.5c-0.5,0.6-1,1.3-2,2.1c-0.9,0.8-2.3,1.7-4.4,2.7l2.9-3
						c-1.7,0-3.1,0.6-4.6,1.5c-1.5,0.9-3.1,2.2-5.4,3.3c0.7-0.1,3.1-1.1,4.9-1.5c0.9-0.2,1.7-0.2,2,0c0.4,0.2,0.3,0.7-0.5,1.7
						c-1.2,0.7-2.6,1.7-4,4c-1-1-2.5,1.1-4.7,3.4l-1.2-1.4c-1.9,3-1.1,3.4-1.8,5.5C10.1,64,8.5,63.9,6.9,64c-1.9,2.6-0.8,2,0.2,1.5
						c0.5-0.2,1.1-0.4,1.2-0.1c0.1,0.3-0.1,1-1,2.6c-0.8,1-1.6,2-2.1,3.1c-0.6,1.1-1,2.1-1.5,3.3c-0.5,1.1-0.7,2.4-1,3.7
						c-0.3,1.3-0.6,2.7-0.7,4.3c-1.6,3.4-0.9-0.9-1.8,0.2c0,0,0.1,0.9,0.2,1.8c0.1,0.4,0.1,0.9,0.2,1.2c0.1,0.3,0.1,0.6,0.1,0.6
						c-0.2,0.8-0.6,0.5-0.8,0.3c0,1.5,0.5,1.6,0.9,1.9c0.4,0.3,0.7,0.8,0.7,3c0.5,0.3,0.5,1,0.3,1.9c-0.1,0.5-0.3,1-0.4,1.6
						c-0.1,0.3-0.2,0.6-0.3,0.9c-0.1,0.3-0.1,0.7-0.2,1c-0.3,1.4-0.6,2.9-0.5,4.4c0.1,1.5,0.5,3,1.3,4.2c-0.3,1.4-1.2-0.4-1.8,0.1
						c0.3,0.9,0.8,1.6,1,2.3c0.3,0.6,0.6,1.2,0.8,1.6c0.5,0.9,0.8,1.6,1.2,2.2c0.4,0.6,0.8,1.1,1.4,1.8c0.6,0.7,1.2,1.5,2.4,2.6
						c0,0,0.3,1.2,0.6,2.5c0.3,1.3,0.7,2.5,0.7,2.5c-0.2-0.9-0.1-1.5,0.2-1.6c0.3-0.2,0.8,0,1.4,0.3c0.6,0.3,1.4,0.8,2.2,1.4
						c0.8,0.6,1.6,1.2,2.4,1.8c0-0.3-0.1-0.7-0.1-1c0-0.3,0-0.6-0.1-0.9c0-0.6-0.1-1-0.1-1.4c0,0,0.2,0.3,0.6,0.7
						c0.4,0.4,0.9,1,1.4,1.5c1.1,1,2.1,2.1,2.1,2.1c0.2,0.7-0.6,0.7-1.8,0.3c0.4,0.2,0.7,0.5,1,0.6c0.4,1.1,0.2,1.5-0.3,1.7
						c-0.5,0.2-1.3-0.1-2.2-0.4c-0.2-0.8-0.3-1.6-0.4-2.4c-1.8-0.5-3.6-1.1-4.3-0.3c0.4,0.2,1,0.8,1.6,1.5c-0.5-0.2-0.9-0.2-0.9,0
						c0,0.3,0.7,0.6,1.7,1.2c0,0-0.2,0.6-0.4,1.2c-0.2,0.6-0.4,1.2-0.4,1.2l0.8-0.2c0,0,0.2,0.5,0.6,1.2c0.4,0.7,1,1.6,1.6,2.5
						c0.6,0.9,1.1,1.8,1.6,2.5c0.5,0.6,0.8,1.1,0.8,1.1c1.4,0.7,2.8,1.4,4.3,2c1.5,0.5,3,1.1,4.5,1.7c0.4,0.2,0.8,0.3,1.2,0.5
						c0.4,0.2,0.8,0.3,1.2,0.5c0.8,0.3,1.6,0.7,2.5,1.1c1.7,0.8,3.5,1.7,5.5,2.8c-2.7-0.1-1.8,1.7-2.9,3.1c-0.5-1.5-2.1-2.3-3.9-3.3
						c-1.9-1-4.1-2-5.8-3.8c1.8,1.8,0.8,2.1,0.1,1.9c0,0,0.5,0.3,1.2,0.7c0.7,0.4,1.7,0.9,2.7,1.4c1,0.5,2,1,2.7,1.4
						c0.8,0.3,1.3,0.6,1.3,0.6c-1,1,0.9,1.9,2.4,3.7c0.2-3.3,6.4,2,9.8,2.9c-0.1,0.5-0.5,0.8-1.3,0.7c-0.4,0-0.9-0.2-1.5-0.4
						c-0.6-0.3-1.3-0.7-2.2-1.4c1.4,2.2,3.2,2.2,4.9,2.2c1.8,0,3.4,0,5,1.8c-0.9-0.4-1.3-0.8-1.9-0.6c2.5,0.4,7.4,3.7,5.8,3.8
						l-0.9-0.5c1.5,0.9,3.4,1.8,5.5,2.8c1,0.5,2.1,1,3.2,1.4c1.1,0.4,2.2,0.8,3.2,1.2c2.1,0.7,4.1,1.3,5.7,1.5
						c1.6,0.2,2.7,0.2,3.2-0.3c0,0.3-1.9,2.4-2.4,2.7c0,0,0.9-0.2,2.2-0.5c0.7-0.1,1.4-0.3,2.3-0.5c0.8-0.2,1.7-0.4,2.6-0.7
						c1.7-0.5,3.5-0.9,4.8-1.2c1.3-0.3,2.2-0.6,2.2-0.6c-0.8,0.8-0.7,2.7-1,4.3c-0.3,1.6-1.2,3-4.1,2.6c1.4,0.8,3.2,1.8,6.7,2.1
						c-1-0.6-1.7-3.7-0.2-3.4c3.2,3.4,2.3,2.1,6.6,5.4c-1.5-0.9,1.2-3.5,3.7-2.7c-0.5,0.4-0.7,3.1-1.7,3.2c0,0,1.8-0.3,3.5-0.6
						c1.8-0.4,3.5-0.7,3.5-0.7c-1.7,0.1-1,2.5,0.2,3.8c-0.2-0.4,1.1,0,2.7,0.5c1.6,0.5,3.6,1,4.5,1l-2.5-1.3
						c3.5,1.1,5.5,0.4,7.5-0.3c2-0.7,4-1.6,7.5-0.8c-1,0.5-2.9,3.5,0.6,4.7c1-0.6,3.2-2.2,5.9-3.7c1.4-0.7,2.9-1.4,4.4-1.9
						c1.6-0.5,3.2-0.9,4.8-1l1,1.1c0,0,1.2-0.1,2.5-0.2c1.2-0.1,2.5-0.2,2.5-0.2c-3.3,2-12.5,5.9-17.5,6.9c2.6,1.2,0.6,1.2,4.6,1.9
						c1.3,1.1-2.4,0.9-3.6,0.7c0,0,2.3,0.6,4.7,1.1c2.4,0.5,4.7,1,4.7,1c-0.1-1,1.8-1.2,3.7-1.3c1.9-0.2,3.8-0.3,3.7-1.1
						c0,0-2.6,0.2-5.3,0.3c-2.6,0.1-5.3,0.2-5.3,0.2c-0.1-1,1.6-2.1,4.2-2.8c1.3-0.4,2.7-0.6,4.3-0.7c1.6-0.1,3.2-0.1,4.9,0.2
						c1.6,1-1.7,3.2-1.6,3.8c1-0.5,6.5-0.4,7.1,0.1c0,0-0.7,0.2-1.5,0.4c-0.7,0.2-1.5,0.3-1.5,0.3c3.7,1.2,6.4-1.9,10.7,0.4
						c1.5,0.2,4.4,2.8,4.8,1.7c-2.4-2.4-2.2-9.1-0.5-10.6c0.3,0.1,2.2,0.8,4.3,1.6c2.1,0.8,4.4,1.7,5.2,2.3c2.4,1.8-4.1,3.8-2,5.4
						c0.1-0.5,1.6-1.1,2.2-1.2c1.6,0.5-0.8,1.6,2.8,1.5c0.7-1.9,7.2,0.5,1.8-1.5c3.5-0.4,3.7,0.5,7.7,0.6c-1.2-1.3,3.8-4.1,7.2-4.6
						c-0.2,0.5,0.6,1.1,0.9,1.4c1.8,0.1,3.3,0.2,4.8,0.3c1.4,0.1,2.8,0.2,4.1,0.3c2.7,0.2,5.3,0.5,8.5,0.3c0.6,0.4,3.8,0.9,2.5,1.8
						c0.9-0.4,1.8-1.1,3.8-1.2c4,1.5-4.5,0.4-1.4,2.3c0.1-0.6,1.4-1,3-1.4c1.6-0.4,3.6-0.8,5-1.3c-1-1.7-6.7,0.1-9.6,0.8
						c-0.1-1.2,1.2-2.5,3.2-3.6c2.1-1.2,5-2.2,8.3-3c5.4-0.9,2.4,1.4,3.4,1c10.2-0.4,8.2-4.9,16.8-4c3.5,1.1,0.5,3,1.4,4
						c-4.3,1.1-6.9-0.2-9.8,0.1l3.7,0.3c-1.3,0.6-4.3,1.4-5.9,1c1.5,0.6,5.8,0.2,10.7-0.3c4.9-0.6,10.5-1.2,14.5-1.2
						c1.3-0.7,3.6-1.6,2.4-2l-2.4,0.6c-2.4-0.9,4.4-2.4,1.2-2.5c3.2-1.3,6.6-3.4,11.3-3.5l1.2,1.5c-0.2-0.5-3.2-0.4-4.4,0.3
						c0.9-0.6,2.8-0.3,4.6-0.2c1.9,0,3.7-0.1,4.5-1.5l-3.5-0.5c1.5-0.8,3.2-1.8,5-2.7c1.8-0.9,3.7-1.7,5.8-1.9
						c-2.2-1.2-0.9,0.4-4.2-0.9c1.5,0.9-1,1.5-3.4,2c-2.4,0.5-4.6,0.9-2.3,1.8c-1.7-0.8-3-0.8-4.4-0.7c-1.4,0-3,0.2-5-0.5
						c0.2,0.5,1.6,0.8-1.9,1.2c-0.1,0.2-0.4,0.5-0.7,0.6c-0.1,0-0.1,0-0.2,0c0.1,0,0.1,0,0.2,0c-0.1,0.1-0.1,0.1,0.1,0
						c0.8,0.1,1.6,0.3,1.9,0.5c-1.5,1.6-6.9,2.4-8.7,3.4c-2.1,0,0.8-0.8-0.4-1.2c0,0-0.7,0.4-1.3,0.7c-0.7,0.4-1.3,0.7-1.3,0.7
						c-0.5-1.2-5.7-1.4-1-2.8l-4.3,0.5c-2.6-0.4-6.1-0.3-8.2,0.5c-2.1-0.1-5,1.9-3.3,0.8c0,0-0.4,0.1-1,0.2
						c-0.6,0.1-1.5,0.3-2.3,0.5c-1.7,0.3-3.4,0.7-3.4,0.7l-0.1-0.3c-6.7,0.4-13.7,3-21.5,0.9c-2.3,0.4-4.6,0.8-8.4,0.5l-0.7-1.1
						c-2.9,0.4-8.7-1.2-10,0c-1.5-1.5-5-1.8-8.8-1.8c-3.8,0-7.8,0.2-10.3-0.2l-0.3,1.4c-3.5-0.3-6.9-0.2-11.3,0l0.1,1.3
						c-1.9,0.3-4.3-0.2-7-0.8c-2.7-0.6-5.5-1.5-8.5-1.8c0.5-0.4,1.9-0.1,3,0.3c-1.7-0.9-3.5-1.4-5.3-1.6c-1.8-0.3-3.7-0.3-5.6-0.2
						c-3.7,0.1-7.4,0.1-10.4-1.5c-1.7,0.2-2.8-0.2-3.8-0.8c0.1,0,0.3,0,0.4,0c-0.2,0-0.4-0.1-0.6-0.1c-0.7-0.4-1.3-0.8-2-1.1
						c0.6,0.4,1.2,0.8,1.7,1c-1.2-0.2-3.1-0.4-5-0.5l-0.5-1.5c-0.1,0-0.3,0-0.4-0.1c-1.6-0.9-1.6,0.3-0.8,1.5c-1,0-1.8,0.1-2.6,0.2
						c-0.9-2.5-4.9-0.3-6.3-3.2c-0.7,0.4-3,0-5.3-0.2c-2.3-0.2-4.6-0.4-5.4,0.6c0-0.3-0.5-0.6,0.5-0.4c-1.9-0.9-3.8-1.6-5.8-1.6
						l-0.3-1.9l-5,0.8c-2.3-1.9-3.1-2.9-0.1-3.2c-3.4-0.1-4.7-0.4-5.9-0.6c-1.2-0.2-2.3-0.4-5.2-0.5l0.7-0.9
						c-0.9-0.3-2.3-0.5-3.5-0.7c-1.2-0.2-2.3-0.5-2.6-1.2c-0.8-0.9-2.5-1.9-4.6-3.1c-1.1-0.6-2.3-1.2-3.5-1.9c-0.6-0.3-1.3-0.6-2-1
						c-0.7-0.4-1.3-0.7-2-1.1c-5.6-2.9-11.7-6.7-15.7-10.6c-0.1,2-0.9,0.9-2-0.4c-0.5-0.7-1.1-1.4-1.6-1.8c-0.5-0.5-1.1-0.7-1.5-0.2
						c0-1-0.9-2.3,0.9-1.7c-1.2-0.7-2.2-1.5-3-2.2c-0.8-0.8-1.5-1.5-2.1-2.2c-0.6-0.7-1.3-1.2-2-1.8c-0.7-0.5-1.5-1-2.6-1.3
						c0.1-1,1.6,0,1.6-0.7c-0.4-0.2-1.7-0.8-1.8-1.5c0-0.7,1,0.1,1.9,0.5c-0.5-0.5-1-0.9-1.4-1.2c-0.4-0.3-0.8-0.6-1.2-0.8
						c-0.7-0.4-1.4-0.6-2.1-0.7c-1.3-0.1-2.3,0.5-3.4,1c-0.5-1.5-0.9-2.5-1.6-3.2c-0.3-0.4-0.7-0.7-1.2-0.9
						c-0.4-0.3-0.9-0.5-1.5-0.8c0.1-1.3-0.1-3,1.9-0.2c-0.4-0.9-1.9-3.5-3-6c-0.3-0.6-0.6-1.2-0.9-1.7c-0.2-0.6-0.5-1.1-0.8-1.5
						c-0.5-0.8-1-1.4-1.5-1.3c0.2-0.7-0.6-2.6-1-3.1c-0.1-0.5-0.2-1-0.4-1.4c-0.1-0.4-0.1-0.8-0.1-1.2c-0.1-0.7-0.2-1.3-0.2-1.9
						c-0.2-1.1-0.2-2.3-0.4-4.4L9,97.7c-1.1-0.8-1.4-1.7-1.2-2.9c0.1-0.6,0.2-1.2,0.4-1.9c0.1-0.7,0.2-1.5,0.3-2.3l0.2,0.1
						c1.4-3.8,1.6-4.6,1.6-5.5c0-0.4,0.1-0.9,0.3-1.6c0.3-0.7,1-1.8,2.1-3.4l-1.4-0.1c-0.6-0.4-0.7-1.1-0.3-1.8
						c0.4-0.7,1.1-1.5,1.9-2.4c0.8-0.9,1.8-1.7,2.7-2.7c0.4-0.5,0.8-1,1.2-1.5c0.4-0.5,0.7-1,0.9-1.6c0,0-0.4,0.2-0.8,0.5
						c-0.2,0.1-0.4,0.2-0.6,0.3c-0.2,0.1-0.3,0.1-0.3,0.1c0.4-1.3,2.3-2.2,4.2-2.9c2.1-0.6,4.2-1,5.1-1.8c0.5-0.2-0.3,0.9-0.6,1.6
						c0.7-0.5,1.2-0.8,1.5-1.1c0.4-0.3,0.6-0.5,0.7-0.7c0.3-0.4,0.1-0.6-0.2-0.9c-0.5-0.5-1.4-1,0.2-2.9c0.7,0,0.9,0.7,1.2,1
						c0.2,0.2,0.4,0.3,0.7,0.2c0.3-0.1,0.7-0.3,1.4-0.8c0.4-0.1,1-0.7,1.6-1.6c0.6-0.9,1.3-2,2.2-3.1c0.9-1.1,1.9-2.3,2.9-3.2
						c1.1-0.9,2.3-1.6,3.5-1.9c-1.2,0-2.5,0-0.9-1.9c0.7-0.6,1.7-1.1,2.7-1.5c1.1-0.4,2.2-0.9,3.4-1.3c2.3-0.9,4.4-1.9,5.3-3.7
						c0.5-0.1,0.7,0,0.8,0.2c1.1-0.9,3-2.2,4.7-3.5c1.7-1.3,3.4-2.5,3.9-3.4c1.1,0.8,2.5,0.5,4.2-0.1c1.6-0.6,3.4-1.7,5.2-2.8
						c3.5-2.1,6.8-4.1,7.5-2c0,0,2-0.8,4-1.6c1-0.4,2-0.8,2.8-1.1c0.8-0.3,1.3-0.5,1.3-0.5l-0.1,0.5c5.3-1.4,6.9-3,8.5-4.6
						c1.3-0.1,0.5,0.6,0.5,0.8c2-0.4,3.6-0.7,4.8-1c1.3-0.3,2.3-0.6,3.3-0.9c1-0.4,1.9-0.8,2.9-1.4c1-0.6,2.2-1.3,3.8-2.2l1,1.2
						c1.6-1.2,11.9-0.5,19.4-3.4c0,0.2-0.2,0.5-0.8,0.8c2.1-0.8,4.6-1.2,7.1-1.4c2.5-0.2,5-0.2,7.4-0.2c4.7-0.1,8.6-0.5,9.9-3.1
						l5.8-1.9c-7.7,0.4,0.9-2.3-2.3-2.8c3-0.7,8,0.9,4.3,1.4l-0.6-0.2c-1.1,2.8,9.6,0.1,9.6,2c15.1-1.1,29.9,0.2,44,0.8l-1.6-2.1
						l4.9,0.3c1.3,0.6,1.7,1.7-1.8,1.5c1.8,1.2,5.9-0.7,6.1-1.1c6.8,1.2-2.8,2.3-0.7,2.4l2.9,0l-0.6-0.3c2.4-0.7,2.6-1.6,6.9-1.2
						c2.6,0.6,1.3,1.4,2.3,1.6c0,0.1,0.3,0.2,1.6,0.2c0,0,1.5,0.2,3.1,0.3c1.5,0.2,3.1,0.4,3.1,0.4l-2.3-1.9
						c2.8-0.5,5.8,0.7,3.1-1.4c1,0.8,2.9,1.4,5.3,1.9c2.4,0.6,5.2,1,8,1.3c5.5,0.8,10.9,1.4,12.1,2.1c2-0.2,3.9-0.2,6,0
						c2,0.3,4.1,0.8,6.4,1.3c-1.1-0.6-1.4-2.5,2.6-1.5c-1.1,1.7,0.6,2.5,2.9,3.3c2.3,0.8,5.3,1.6,6.5,3.4c-1.2-1.2,1.6-0.6,4.3-0.2
						c2.6,0.4,5.1,0.9,3.2-1c3.2,1.2-0.2,1.4,2,3c4.1,0.4,8.2,2,12.5,3.8c2.1,1,4.3,1.9,6.5,2.9c2.2,1,4.5,2,6.8,2.8
						c0.3-0.4-0.9-1.8,1.3-1.6l3.8,4.4c1.9,0.5,2.8-1.9,5.3,1.2c-0.3-0.6-0.7-1.5,0.6-1.1c4.1,2.6,8.3,5.1,12.5,7.6
						c2.1,1.2,4.1,2.6,6.2,3.8l3,2c1,0.7,2,1.4,3,2.1l2.9,2.2c1,0.8,1.8,1.6,2.8,2.4c1.9,1.6,3.4,3.4,5.1,5.2
						c3,3.7,5.5,7.8,6.7,12.3c-0.2-1.3-0.1-1.6,0.2-1.4c0.3,0.2,0.9,0.9,1.3,1.8c-0.3-1.2,1.1-0.6,1.6-1.1c0,0,0.5,1.9,0.9,3.9
						c0.3,1.9,0.5,3.9,0.5,3.9c0.6,0.2,1,0.7,1.3,1.5c0.3,0.8,0.7,1.7,0.9,2.7c0.3,1.9,0.7,3.7,1.6,4.1c0,0,0-0.2-0.1-0.4
						c-0.1-0.2-0.2-0.5-0.2-0.8c-0.2-0.6-0.4-1.2-0.4-1.2c1.3,1.4,2.3,0.2,3.3-1.6c0.2-0.5,0.5-1,0.7-1.4c0.2-0.5,0.4-0.9,0.6-1.4
						c0.5-0.8,1-1.5,1.7-1.5c-1.7-1.8-1.8-4.6-2.4-7.8c-0.4-1.6-0.8-3.3-1.6-4.8c-0.9-1.5-2-2.9-3.7-3.8c-0.2-0.8,0.1-0.6,0.6-0.4
						c0.4,0.2,0.9,0.5,0.9,0c-1-0.4-1.9-1-2.7-1.9c-0.4-0.5-0.9-1-1.3-1.6c-0.4-0.7-1-1.3-1.5-2.2l0.5,0.1c-0.9-1-1.8-2-2.6-2.9
						c-0.8-0.9-1.6-1.7-2.4-2.5c-1.4-1.6-2.9-3-4.3-4.5c-1.4-1.5-2.9-2.9-4.6-4.6c-0.4-0.4-0.9-0.8-1.3-1.2c-0.5-0.4-1-0.8-1.5-1.2
						c-1-0.8-2.1-1.7-3.3-2.7l0,1.6c-2-1.7-2.3-2.2-3.1-3.2c-1.8,0.1-0.3,1.1,1.2,2.1c1.5,1.1,3,2.3,1.3,2.4c-0.2-0.5-0.5-1.1-1-1.7
						c-0.5-0.6-1.2-1.1-1.9-1.7c-1.5-1.2-3.4-2.4-5.3-3.5c-3.8-2.3-7.5-4.3-7.9-6.3c-3.5-1.8,0.4,1.9-3.2,0.1l-0.6-1.2l-1.4,0.5
						c-2.3-1.3-3-2.8-2.8-3.5c0.5,0.3,1.7,0.6,2.4,0.8c-1.3-1.2-3.6-2.1-5.6-2.8c-2-0.7-3.8-1.2-4.3-1.5c0,0,0.8,0.5,1.7,1
						c0.8,0.5,1.7,1,1.7,1c-5.1-1.8-10.7-4-16.3-5.9c-2.8-1-5.7-1.8-8.4-2.5c-2.8-0.7-5.5-1.2-8.1-1.5l0.6,0.8c-4-0.5-5.4-1-7-1.7
						c-0.8-0.3-1.6-0.7-2.7-1.1c-1.1-0.3-2.6-0.7-4.8-1.1l0.3-0.1c-1.8,0.2-4.1,0-6.4-0.5c2.3-0.3-3.7-2.2-0.8-2.5
						c-8.6-0.5-4.4,0.1-10.3,1.4l-1.1-1.3c-2.1,0.6-2.3,1-6.6,0.7c3.6-0.4-2.5-2,1.6-2.6c-4.3-1.8-7.7-1.8-10.5-1.7
						c-2.8,0.1-4.9,0.1-6.8-1.8c-2.2,1.2-0.3,1.8,1.8,2.2c2.2,0.4,4.6,0.5,3.4,0.7c1.8,1.2-3.7,1.7-6.4,1.1
						c-1.4-0.2-2.5-1.2-4.2-2.3c-0.8-0.5-1.8-1.1-3-1.6c-1.2-0.4-2.7-0.8-4.5-0.9c0.7,0.1,0.8-0.1,1.5-0.1c-2.7-0.9-5.4,0.5-8.7-0.9
						c-2,1.6-4.3-0.4-5,1.9l6.7-0.1c-1.9,0.2-3.8,0.9-5.9,1.3c-1.1,0.2-2.2,0.4-3.5,0.4c-1.3,0-2.6-0.1-4.2-0.5
						c0.5-0.4,2.4-1,3.6-1.3c-1.8-0.7-3.5,0.3-5.4-0.4c0.3-1.1,2.3-1.2,4.8-1.1c2.5,0,5.4,0.2,7.4-0.5c-1.9-1.1-7.8,1.2-5.6-1.1
						c-3.1,3-7.2-0.7-12.2,1.6l0.4-1.3c-0.8,0.2-2.4,0.8-3.8,0.8l2.6-1.7c-4,1.4-7.7-1.4-11.6-0.5c4-0.1,4.5,0.3,4.3,0.9
						c-0.1,0.5-0.8,1.2,0.9,1.7c-4.9,0.9-6.4,0.1-7.9-0.9c-1.6-1-3.3-2.2-8.9-1.6c1.5-0.2,5.7,0.6,3.3,1.3c-2.1-0.2-4.9-0.6-6.3-1.3
						c-7.4,0.6,1.2,1.3-1.9,2.3c-2.6-1.5-3.6,0.9-6.7,1.6l-0.1-1.4c-8.4-0.3-2,3-9.6,2.5l3-2.1l-3.9,0.8l0.7-1.6
						c-4.2,1.5-5.5,1.4-9.7,1.4c1.1,0.9-0.3,2.5-3.9,3c-2.6-0.5,1.2-1.5-3.9-0.6c1.1-1,2.2-2.2,4.7-1.3c0.2-0.5,1.1-1,1.3-1.5
						c-2.8-0.6-6.9,0.7-8.7,0.9c0.7,0,1.6-0.1,2.1,0.1c0,0-0.5,0.2-1.1,0.4c-0.7,0.3-1.6,0.6-2.5,1c-1.8,0.8-3.6,1.5-3.6,1.5
						c-1.3-0.3-0.4-0.9,0.5-1.4c-1.5,0.4-2.5,1.2-4.7,1.6c0.4-1.2,0.1-2.3,3.2-3.3c0,0-1.8,0.6-3.5,1.2c-1.7,0.6-3.5,1.2-3.5,1.2
						c-0.6-0.4-3.9-0.6-3.1-1.2c-1,0-2.1,0.3-3.3,0.6c-1.2,0.4-2.4,0.9-3.6,1.4c-2.5,1-5.2,2.1-7.9,2.3c-0.2,0.3-0.7,0.6-1.8,1
						c-1.2,0.2-2.5,0.4-3.7,0.5c-1.2,0.2-2.4,0.3-3.7,0.6c-2.5,0.5-5,1.2-7.7,2.8l-3.8-1c-4.4,1.8,5.1,1.1-2.1,4.1
						c-5.1,2.3-2.5-1-4.5-0.9c-0.6,0.5-1.3,1-2,1.6c-0.8,0.6-1.6,1.2-2.6,1.8c-1.9,1.2-4.2,2-6.9,2.2C72.4,21.4,73.8,21.3,75.2,20.6
						z M24.3,49.6c0.7-1,2-3.1,3.1-3C27.3,48.6,26.1,48.6,24.3,49.6z M17.7,131c-0.9-0.3-1.6-1.5-2.2-2.9
						C16.3,128.8,17,129.7,17.7,131z M245.9,174.3c0,0-0.1,0-0.1,0.1C243.3,174.1,244.2,174.2,245.9,174.3z M250.9,174.2
						c0.5-0.3,0.4-0.4,0.2-0.6c-0.3,0.4-1.4,0.6-2.7,0.6C248.8,174.6,249.4,174.7,250.9,174.2z M233.1,14.8l-0.9-0.4
						C234.4,14.2,233.7,14.5,233.1,14.8z"/>
					<path id="XMLID_200_" class="st1" d="M9.8,124c0-0.4,0.2-0.6,0.4-0.8C9.7,122.9,9.5,123.1,9.8,124z"/>
					<path id="XMLID_199_" class="st1" d="M109.6,9.7c0.1,0,0.1,0,0.2,0c0.1-0.1,0.1-0.2,0.1-0.3L109.6,9.7z"/>
					<path id="XMLID_198_" class="st1" d="M172.8,188.4c-1-0.3-1.6-0.5-2-0.8C170.8,187.9,171.2,188.2,172.8,188.4z"/>
					<path id="XMLID_197_" class="st1" d="M276.5,167.6l-3,1c1.5-0.4,2.1-0.2,2.9-0.1C276.2,168.1,275.5,167.8,276.5,167.6z"/>
					<path id="XMLID_196_" class="st1" d="M305.6,168.9c0.4-0.3,1-0.3,1.4-0.6l-0.3-0.6C304.7,168.4,303.5,169.3,305.6,168.9z"/>
					<path id="XMLID_195_" class="st1" d="M280.3,171.4c0.5,1.1,2.4,0.3,4.5-0.5c-0.1,0-0.3,0.1-0.4,0.1
						C284.8,169.3,282.6,170.4,280.3,171.4z"/>
					<path id="XMLID_194_" class="st1" d="M285.4,170.8c0.7-0.2,1.3-0.4,2-0.5C287.5,169.6,286.5,170.4,285.4,170.8z"/>
					<path id="XMLID_193_" class="st1" d="M257.1,172.6c1.1,0.1,0.4-1.6,1.1-1.2C259.1,169.8,251.4,174.3,257.1,172.6z"/>
					<path id="XMLID_192_" class="st1" d="M282.9,174.7l-1.1-1.2l-1,1.4c0,0,0.5,0,1.1-0.1C282.4,174.8,282.9,174.7,282.9,174.7z"/>
					<path id="XMLID_191_" class="st1" d="M265.1,177.1l3.6-0.3c-0.1-0.2,0.3-0.4,0.9-0.6C267.4,176.6,265,176.7,265.1,177.1z"/>
					<path id="XMLID_190_" class="st1" d="M269.6,176.2c1.2-0.2,2.2-0.4,2.8-0.7C271.8,175.6,270.5,175.9,269.6,176.2z"/>
					<polygon id="XMLID_189_" class="st1" points="278.2,176.2 277,176.1 274.5,176.5 					"/>
					<path id="XMLID_188_" class="st1" d="M226.3,181.4l-3.9,0.6c-0.4,0.5,0.7,0.7,2.2,0.5C225.5,182.1,227,181.8,226.3,181.4z"/>
					<path id="XMLID_187_" class="st1" d="M238.7,184.3c-1.1-0.2-1.2-0.5-1.9-0.9l0,1.8c0,0,0.5-0.2,0.9-0.4
						C238.2,184.5,238.7,184.3,238.7,184.3z"/>
					<path id="XMLID_186_" class="st1" d="M227.1,185.6c-0.4,0.5-5.7,1.7-0.6,1.3C226.8,186.5,230.8,185.8,227.1,185.6z"/>
					<polygon id="XMLID_185_" class="st1" points="167,183.2 168,183.2 168.1,180.4 					"/>
					<path id="XMLID_184_" class="st1" d="M113.2,182.4c4.6,1.6,1.5-1.5,5.6,0.2c1.2-0.4-3.3-1.4-2.1-1.7
						C113.7,181,112.3,180.3,113.2,182.4z"/>
					<path id="XMLID_183_" class="st1" d="M116.7,180.9c0.5,0,1-0.1,1.5-0.1C117.4,180.8,117,180.8,116.7,180.9z"/>
					<polygon id="XMLID_182_" class="st1" points="383.7,88.9 383.5,91.4 384.2,89.7 					"/>
					<path id="XMLID_181_" class="st1" d="M386.4,93.5c0,0-0.5,0.2-0.9,0.4c-0.5,0.2-0.9,0.3-0.9,0.3s0.4,0.4,0.9,0.7
						c0.4,0.4,0.9,0.8,0.9,0.8C386.3,95.2,386.1,94,386.4,93.5z"/>
					<path id="XMLID_180_" class="st1" d="M15,53.1l0.1,0.5c0.7,0,1.3-0.6,2.4-1.6L15,53.1z"/>
					<path id="XMLID_179_" class="st1" d="M51.8,29l-0.7,0.3c0,0,0.5,0.2,1,0.4c0.5,0.2,1,0.4,1,0.4L51.8,29z"/>
					<path id="XMLID_178_" class="st1" d="M84.4,13.7C83,14.1,81.4,15,80,15.3C83,14.1,85.4,15.5,84.4,13.7z"/>
				</g>
			</g>
		</g>
	</g>
</g>
<g id="XMLID_49_">
	<path id="XMLID_29_" class="st2" d="M58.8,91.2c0.1-0.7,0.2-1.3,0.3-1.7c0-0.4-0.1-0.9-0.5-1.4c0.2-0.7,0.3-1.3,0.5-1.7
		c0.1-0.4,0.1-1,0-1.7c0.4-1.2,1.1-2.2,1.9-3.1c0.9-0.8,1.8-1.5,2.8-2.1c1-0.6,2.1-1.1,3.2-1.5c1.1-0.4,2.1-0.7,3.1-1
		c0-0.2-0.1-0.3-0.3-0.3c-0.2,0-0.2-0.1-0.1-0.3c2.5-0.5,5-1.1,7.5-2c2.5-0.9,5.1-1.7,7.7-2.4s5.3-1.1,8.1-1.3
		c2.8-0.2,5.7,0.2,8.7,1.1c0.2,0.6,0.4,1.1,0.8,1.6c0.3,0.5,0.7,1,1,1.5s0.7,1,0.9,1.4c0.3,0.5,0.4,0.9,0.5,1.5
		c0.6,0.5,1,1.1,1.4,1.6c0.3,0.6,0.4,1.4,0.2,2.3c-0.5,0.4-1,0.7-1.6,1.1c-0.6,0.4-1.1,0.7-1.7,1c-2.1-0.5-4.2-0.7-6.2-0.6
		s-4,0.3-5.6,0.5c-0.5-0.6-1.1-0.8-1.8-0.8c-0.7,0-1.4,0.1-2.2,0.3s-1.5,0.4-2.3,0.6c-0.7,0.2-1.4,0.3-2.1,0.2
		c-0.5,0.5-1.2,0.8-2,0.9c-0.8,0.2-1.7,0.3-2.6,0.4c0,0.2,0,0.4,0.1,0.5c0.1,0.1,0.2,0.3,0.1,0.6c0.3,0.4,0.8,0.7,1.3,0.9
		c0.6,0.2,1.1,0.3,1.7,0.5c0.6,0.1,1.1,0.3,1.6,0.6c0.5,0.3,0.8,0.7,0.9,1.2c0.8,0,1.5,0.3,2.1,0.7c0.6,0.4,1.1,0.9,1.5,1.4
		s0.7,1.1,0.9,1.8c0.2,0.6,0.3,1.2,0.2,1.7c0.2,0.5,0.4,0.6,0.6,0.6c0.2-0.1,0.5,0,0.7,0.3c0.2,0.7,0.6,1.4,1.3,2.2
		c0.7,0.8,1.2,1.6,1.6,2.5c0.1,1.4,0.2,2.6,0.2,3.7s-0.1,2.2-0.6,3.3c-0.8,2-1.9,3.9-3.4,5.5c-1.5,1.6-3.2,3-5,4.3
		c-1.9,1.2-3.8,2.3-5.9,3.2s-4.1,1.7-6.2,2.3c-0.2,0-0.4,0-0.7,0c-0.3,0-0.3-0.1-0.2-0.4c-0.4,0.4-0.9,0.6-1.4,0.7
		c-0.5,0.1-1.1,0.1-1.7,0.1c-0.6,0-1.2-0.1-1.9-0.1c-0.6,0-1.2,0-1.8,0.1c-0.4-0.4-0.7-0.7-1-1.1c-0.3-0.4-0.5-0.8-0.7-1.3
		c-0.2,0-0.3-0.2-0.3-0.5c0-0.3-0.1-0.4-0.3-0.4c0-0.2,0-0.3,0.1-0.4c0-0.1,0.1-0.2,0.1-0.3c0.2-0.1,0.3-0.2,0.2-0.3
		c0-0.1-0.1-0.1-0.2-0.2c-0.1-0.1-0.2-0.1-0.3-0.2c-0.1-0.1-0.2-0.2-0.1-0.3c0.2-0.4,0.3-0.9,0.2-1.5c-0.1-0.6-0.1-1.2-0.2-1.8
		c0-0.6,0-1.2,0.1-1.7c0.1-0.5,0.5-1,1.2-1.4c1.9,0.2,3.7,0.1,5.4-0.3c1.7-0.4,3.3-0.9,4.8-1.5c1.5-0.6,2.9-1.4,4.3-2.1
		c1.4-0.8,2.7-1.5,4-2.1c0.1-0.5,0.4-0.9,0.7-1.2c0.3-0.3,0.6-0.6,0.9-0.9c0.3-0.3,0.6-0.6,0.9-1s0.5-0.8,0.6-1.3c0-0.2,0-0.3,0-0.4
		c0-0.1-0.1-0.2-0.2-0.2c-0.1-0.1-0.2-0.1-0.3-0.2c-0.1-0.1-0.1-0.2-0.1-0.4c-0.1,0-0.3-0.1-0.4-0.1c-0.1,0-0.2-0.1-0.3-0.1
		c-1.2-0.6-2.5-1.1-3.8-1.5c-1.3-0.4-2.5-0.9-3.4-1.4c-0.6,0.4-1.1,0.5-1.7,0.3c-0.6-0.2-1.2-0.4-2-0.6c-1.9-0.1-3.8-0.3-5.5-0.6
		s-3.4-0.8-5-1.5c-0.1-0.3-0.2-0.5-0.3-0.7s-0.5-0.3-1-0.2c-0.3-0.5-0.7-0.9-1-1.3C59.4,92.1,59.1,91.7,58.8,91.2z"/>
	<path id="XMLID_31_" class="st2" d="M100.4,83.3c0-0.4-0.1-0.7-0.2-1c-0.1-0.3-0.2-0.6-0.4-1c-0.2-0.6-0.4-1.2-0.6-1.8
		c-0.2-0.6-0.3-1.4-0.3-2.3c0.1-0.5,0.2-0.8,0.3-1s0.3-0.4,0.4-0.5l0.3-1.2h1c0.4,0,0.8,0.1,1.1,0.1c0.4,0,0.8,0,1.1,0
		c1.8,0,3.6-0.1,5.4-0.2c1.8-0.1,3.7-0.3,5.7-0.5c2.1-0.3,4.4-0.5,6.9-0.6c0.2-0.5,0.4-0.8,0.5-1s0.1-0.3,0.2-0.5l0.8-0.4
		c1.1,0,1.8,0.1,2.2,0.4c0.4,0.3,0.7,0.6,1,0.9c1.2-0.1,2.4-0.2,3.7-0.4c1.2-0.2,2.5-0.3,3.9-0.5c1.8-0.2,3.7-0.5,5.6-0.7
		c1.9-0.2,3.7-0.3,5.5-0.3c0.8,0,1.5,0,2.2,0.1c0.7,0,1.4,0.1,2,0.2l0.8,0.6c0.2,0.3,0.4,0.6,0.7,0.9s0.6,0.6,1,0.8
		c0.7,0.6,1.4,1.2,2,2.1c0.7,0.8,0.9,2.1,0.7,3.7l-0.3,0.7c-0.2,0.2-0.4,0.4-0.7,0.6l-0.7,0.9h-0.8c-0.5,0-0.8,0-1,0.1
		c-0.2,0.1-0.5,0.2-0.8,0.3c-0.2,0.1-0.4,0.2-0.6,0.2c-0.2,0.1-0.5,0.2-0.8,0.2c-0.5,0-0.9-0.1-1.2-0.1s-0.6,0-1,0
		c-1.4,0-2.9,0.1-4.5,0.3c-1.6,0.2-3.2,0.4-4.7,0.6c-1.1,0.1-2.2,0.3-3.2,0.4c-1,0.1-1.9,0.2-2.8,0.3c-0.5,1.2-0.9,2.3-1.2,3.2
		c-0.4,0.9-0.8,1.8-1.2,2.8c-0.4,0.9-0.8,1.9-1.2,2.8c-0.4,0.9-0.7,2-1,3.2c-0.6,0.8-1,1.6-1.4,2.4c-0.4,0.8-0.7,1.6-0.9,2.6
		c-0.7,0.8-1.2,1.6-1.5,2.6c-0.3,0.9-0.6,1.7-0.8,2.4l-0.3,1c-0.3,0.3-0.5,0.6-0.6,0.8c-0.1,0.2-0.2,0.4-0.4,0.6
		c-0.1,0.6-0.3,1.2-0.6,1.7c-0.1,0.2-0.2,0.5-0.3,0.7c-0.1,0.3-0.1,0.5-0.1,0.6c-0.1,0.5-0.2,0.9-0.4,1.2c0,0.3,0,0.6-0.1,0.8
		c0,0.3-0.1,0.6-0.1,0.8c-0.1,0.3-0.2,0.6-0.2,0.9c0,0.3,0,0.5,0.1,0.7c0.1,0.2,0.3,0.4,0.4,0.6c0.1,0.2,0.3,0.4,0.3,0.7
		c0.1,0.1,0.2,0.2,0.3,0.2c0.1,0,0.3,0.1,0.3,0.2c0.4,0.3,0.7,0.5,1,0.6l0.7,0.8c0.3,1.7,0,3-0.8,3.9c-0.8,1.1-2.2,1.6-4.2,1.6
		l-1-0.1c-0.3-0.3-0.5-0.5-0.6-0.6c-0.4-0.2-0.8-0.3-1-0.5c-0.3-0.1-0.5-0.3-0.8-0.7c-0.1-0.1-0.2-0.1-0.3-0.2
		c-0.1,0-0.3-0.1-0.3-0.2c-0.5-0.1-0.8-0.3-1.1-0.5l-0.8-0.4c0-0.5,0.1-0.8,0.1-1c-0.4-0.5-0.7-1.1-0.9-1.7
		c-0.2-0.6-0.4-1.2-0.5-1.9c-0.1-0.5-0.3-1-0.4-1.4c-0.1-0.4-0.3-0.8-0.5-1.1c-0.1-3.2,0.2-6,0.9-8.1c0.7-2.2,1.5-4.3,2.3-6.4
		c0.5-1.1,0.9-2.2,1.3-3.4c0.4-1.2,0.8-2.3,1.1-3.5l0.8-0.8c0.3-0.3,0.5-0.4,0.6-0.5c0-0.6,0.1-1.2,0.3-1.8c0.2-0.6,0.5-1.2,0.8-1.8
		c0.2-0.4,0.4-0.7,0.5-1.1c0.2-0.4,0.3-0.7,0.3-1c-0.3,0-0.6,0-0.9,0c-0.3,0-0.5,0.1-0.8,0.1c-0.6,0.1-1.2,0.2-1.7,0.2
		c-0.4,0-0.7,0-0.9-0.1c-0.4,0.2-0.7,0.3-1,0.3c-0.3,0-0.6,0-1,0h-0.8h-0.8c-0.6,0-1,0.1-1.3,0.2c-0.6,0-1.1,0-1.2,0
		c-0.2,0-0.4,0-0.6,0h-0.8h-0.8c-0.4,0-0.8,0-1.2-0.1c-0.5-0.1-0.9-0.2-1.5-0.5l-0.5-0.6c-0.3-0.5-0.5-0.8-0.8-0.8l-0.8-0.2V83.3z"
		/>
	<path id="XMLID_33_" class="st2" d="M145.9,120.1c-0.4-0.4-0.6-0.8-0.8-1.3c-0.2-0.5-0.5-0.9-1.1-1.2c-0.1-0.7-0.2-1.5-0.4-2.4
		c-0.2-0.9-0.3-1.8-0.5-2.8c-0.2-0.9-0.3-1.9-0.3-2.8c-0.1-0.9,0-1.8,0.1-2.6c0.1-0.4,0.2-0.8,0.5-1.2c0.2-0.4,0.4-0.7,0.6-1.1
		s0.4-0.7,0.5-1.1c0.1-0.4,0.1-0.7,0-1.1c0.3,0,0.5-0.2,0.5-0.5c0.1-0.3,0.3-0.3,0.7-0.2c0.3-1,0.7-2,1-2.8c0.4-0.9,0.8-1.7,1.2-2.6
		s0.8-1.7,1.3-2.5c0.4-0.9,0.8-1.8,1.2-2.9c-0.8-0.7-1.4-1.5-1.7-2.4c-0.3-0.9-0.6-1.7-0.8-2.6c-0.2-0.9-0.3-1.8-0.4-2.7
		c-0.1-0.9-0.3-1.8-0.6-2.7c0.6-0.8,1.2-1.5,2-2c0.8-0.5,1.7-1,2.6-1.3c0.9-0.3,2-0.6,3.1-0.8s2.3-0.5,3.5-0.7
		c2.2-0.7,4.2-1.2,6-1.6c1.8-0.4,3.5-0.7,5.1-1c1.7-0.3,3.4-0.5,5.2-0.7s3.9-0.5,6.2-0.9c0,0.1,0.1,0.2,0.2,0.2c0.1,0,0.3,0,0.5,0
		c0.1,0.3,0.4,0.5,0.8,0.5c0-0.1,0-0.3,0-0.4c0-0.1,0-0.2,0-0.3c0.1,0,0.2,0,0.4,0.1c0.2,0,0.3,0.1,0.4,0.1c0.1,0,0.2,0,0.3,0
		c0.1-0.1,0.1-0.2,0.1-0.5c0.6,1,1.3,1.8,2.1,2.4c0.9,0.6,1.8,1.2,2.9,1.6c0,0.4,0.1,0.7,0,0.9c0,0.2-0.1,0.4-0.1,0.5
		c0,0.2-0.1,0.3-0.1,0.6s0,0.5,0.1,0.9c-0.7,1.2-1.6,2.2-2.5,2.9c-0.9,0.7-2,1.2-3,1.6c-1.1,0.4-2.2,0.6-3.4,0.8
		c-1.2,0.2-2.4,0.4-3.6,0.6c-1.2,0.2-2.5,0.5-3.7,0.9c-1.2,0.4-2.5,0.9-3.7,1.7c-0.4-0.1-0.7-0.2-1-0.2c-0.3,0-0.6,0.1-0.9,0.2
		c-0.3,0.1-0.7,0.2-1.1,0.3c-0.4,0.1-0.9,0.1-1.4,0c-0.4,0.3-0.8,0.6-1.3,0.7s-1,0.3-1.5,0.4c0.2,0.5,0.3,1,0.3,1.5
		c0,0.5,0,0.9,0.2,1.3c1.9,0.2,4.1,0.2,6.4,0s4.7-0.4,6.9-0.5c0,0.2,0,0.4-0.1,0.5c-0.1,0.1-0.1,0.3-0.1,0.5c0.4,0.3,0.8,0.6,1.2,1
		c0.4,0.4,0.8,0.8,1.1,1.2c0.4,0.4,0.8,0.7,1.2,1c0.4,0.3,0.9,0.4,1.5,0.3c0.2,0.5,0.4,0.9,0.5,1.5c0.1,0.5,0,1-0.2,1.6
		c-0.9,0.6-1.8,1.2-2.7,1.8c-0.9,0.6-1.8,1.2-2.7,1.7c-0.9,0.5-2,0.9-3.1,1.2c-1.1,0.3-2.3,0.5-3.6,0.4c-0.2,0-0.4,0-0.6,0
		c-0.2,0-0.4-0.1-0.6-0.3c-0.5,0.2-1.1,0.3-1.8,0.2s-1.4,0-1.9,0.2c-0.6-0.2-1.4-0.3-2.3-0.3c-0.9,0-1.6-0.1-2.3-0.3
		c-0.8,1.2-1.6,2.5-2.4,3.8c-0.7,1.3-1.4,2.7-1.9,4.2c1.9,0.3,3.5,0.4,4.7,0.3c1.2,0,2.4-0.1,3.5-0.3s2.3-0.3,3.4-0.4
		s2.6-0.2,4.3-0.1c1.2-0.6,2.5-0.9,4-1.1c1.5-0.2,2.9-0.5,4.2-0.9c0.5,0.1,0.9,0.4,1.2,0.8c0.3,0.4,0.6,0.8,0.9,1.2
		c0.3,0.4,0.6,0.7,0.9,1c0.3,0.3,0.7,0.4,1.2,0.3c0.2,0.2,0.4,0.5,0.5,0.8c0.1,0.3,0.1,0.6,0.2,0.9s0.2,0.5,0.3,0.7
		c0.1,0.2,0.4,0.2,0.8,0.2c-0.9,1.8-1.9,3.2-2.9,4.2c-1.1,1-2.3,1.7-3.7,2.3c-1.4,0.5-2.9,0.9-4.6,1.2c-1.7,0.3-3.6,0.6-5.7,0.9
		c-0.5,0.1-0.9,0.1-1.3,0c-0.3-0.1-0.7-0.2-1.1-0.2c-1.3,0.2-2.8,0.5-4.6,0.7c-1.8,0.2-3.6,0.3-5.4,0.3c-1.8,0-3.5-0.3-5.2-0.7
		S147,121.2,145.9,120.1z"/>
	<path id="XMLID_35_" class="st2" d="M189.6,102.9c0-0.2,0.1-0.3,0.3-0.2c0.2,0,0.3,0,0.5,0c-0.4-0.4-0.6-0.9-0.7-1.5
		c-0.1-0.6-0.3-1.1-0.7-1.6c0.1-0.2,0.2-0.5,0.2-0.7c0.1-0.2,0.3-0.3,0.6-0.3c-0.1-1-0.1-2,0.1-2.8c0.2-0.9,0.5-1.7,0.9-2.5
		c0.4-0.8,0.9-1.6,1.4-2.3c0.5-0.8,1.1-1.5,1.6-2.3c0.4-0.1,0.7-0.1,0.8,0.1c0.1,0.2,0.3,0.1,0.5-0.1c0.7-0.5,1.2-1.1,1.5-1.7
		s0.4-1.3,0.4-2c0.4-1.2,0.9-2.4,1.4-3.6c0.5-1.2,1.1-2.3,1.8-3.3c0.7-1,1.4-1.9,2.2-2.7c0.8-0.8,1.6-1.4,2.6-1.8
		c0.6-0.6,1.5-1.1,2.5-1.5c1-0.5,2.1-0.8,3.2-1.1c1.1-0.3,2.3-0.4,3.5-0.4c1.2,0,2.3,0.1,3.3,0.4c0.2,0.1,0.4,0,0.4-0.2
		c0-0.2,0.2-0.3,0.3-0.3c2.3,0.3,4.4,0.7,6.2,1.4c1.8,0.6,3.4,1.5,4.7,2.7c0.9,1.4,1.7,2.9,2.5,4.5c0.8,1.6,1.4,3.3,1.8,5
		c0.4,1.7,0.6,3.5,0.6,5.4c0,1.8-0.4,3.7-1.2,5.5c-1.6,2-3.6,3.7-5.9,4.9c-2.3,1.2-4.8,2.2-7.5,3.1c-2.7,0.8-5.4,1.5-8.3,2
		c-2.8,0.5-5.6,1.1-8.3,1.7c0,1.2,0,2.6,0,4c0,1.4-0.2,2.8-0.5,4.2c-0.3,1.4-0.6,2.8-1.1,4.1c-0.5,1.3-1.1,2.6-2,3.7
		c-0.9,0-1.9,0-2.9,0.3c-1,0.2-1.9,0.5-2.7,0.7c-0.4-0.2-0.7-0.5-1.1-0.7s-0.8-0.3-1.3-0.4c0.1-0.6,0-1.1-0.4-1.7
		c-0.4-0.6-0.8-1.2-1.2-1.8c-0.4-0.6-0.6-1.2-0.8-1.7c-0.1-0.6,0.1-1.1,0.8-1.6c-0.4-0.3-0.6-0.8-0.6-1.5c0.2,0.2,0.4,0.3,0.7,0.3
		c-0.1-0.8,0-1.8,0.3-3c0.3-1.2,0.6-2.3,0.8-3.4c0.2-1.1,0.2-2.2,0.1-3.1C191.1,104,190.6,103.3,189.6,102.9z M207.6,86.7
		c-0.2,0.5-0.3,1-0.5,1.4c-0.1,0.4-0.2,0.8-0.4,1.1c-0.1,0.3-0.3,0.6-0.5,1c-0.2,0.3-0.3,0.7-0.5,1.1c0.1,0.3,0.3,0.5,0.6,0.6
		s0.5,0.3,0.6,0.6c0.6-0.3,1.3-0.6,1.9-0.7c0.6-0.2,1.3-0.3,1.9-0.4c0.6-0.1,1.3-0.2,1.9-0.3c0.6-0.1,1.3-0.4,2-0.7
		c0.7-0.3,1.4-0.6,2.2-0.8s1.5-0.4,2.3-0.7c0.7-0.2,1.5-0.5,2.1-0.8c0.7-0.3,1.3-0.7,1.8-1.2c-0.6-0.6-1.6-1.1-2.9-1.6
		c-1.3-0.5-2.7-0.8-4.2-0.9c-1.5-0.1-3,0-4.5,0.3C210.1,85,208.7,85.7,207.6,86.7z"/>
	<path id="XMLID_38_" class="st2" d="M268.3,114.2c0.1,0.4,0.2,0.7,0.2,1c0,0.3,0.1,0.7,0.2,1c-0.2,0.5-0.3,0.9-0.5,1.4
		c-0.1,0.4-0.3,0.9-0.4,1.3c-0.1,0.3-0.2,0.5-0.3,0.6c0,0.1-0.1,0.2-0.1,0.2c0,0,0,0.1,0,0.2c0,0.1,0,0.3,0,0.6l-0.3,0.8
		c-0.2,0.3-0.5,0.6-0.8,0.8c-0.3,0.2-0.6,0.3-1,0.5c-0.1,0.1-0.2,0.2-0.4,0.2c-0.2,0.1-0.3,0.1-0.4,0.2l-0.2,0.8l-0.9,0.1
		c-0.8,0.2-1.5,0.3-2,0.3h-0.8c-0.6-0.5-1-0.9-1.3-1.2c-0.3-0.3-0.7-0.5-1-0.8c-0.5-0.6-0.7-1.1-0.8-1.4c0-0.3-0.1-0.6-0.2-0.9
		c-0.1-0.6-0.2-1-0.3-1.2l-1-1l0.8-0.6l-0.8-1.3c0.6-0.4,1-0.7,1.2-0.9c0.3-0.2,0.5-0.4,0.7-0.6s0.4-0.5,0.6-0.8
		c0.2-0.3,0.6-0.9,1.1-1.6l0.6-0.9l0.9,0.5c0.2,0.1,0.6,0.3,1.2,0.4c0.6,0.1,1.2,0.2,1.6,0.3c0.8,0.2,1.5,0.4,2.2,0.5
		c0.7,0.1,1.2,0.4,1.7,0.7L268.3,114.2z"/>
	<path id="XMLID_40_" class="st2" d="M289.9,123.6c-1.8,0.3-3.5,0.2-5-0.3c-1.5-0.5-2.9-1.2-4.1-2.2c-1.2-1-2.2-2.2-3.1-3.6
		c-0.9-1.4-1.6-2.9-2.1-4.4c-0.4-3.3-0.3-6.3,0.3-8.9c0.6-2.7,1.5-5.2,2.6-7.4c1.1-2.3,2.4-4.4,3.8-6.3c1.4-2,2.8-3.8,4.2-5.7
		c0.3,0.1,0.5,0.1,0.7,0c0.2-0.2,0.4-0.4,0.5-0.6c0.2-0.2,0.3-0.5,0.5-0.7c0.2-0.2,0.4-0.4,0.7-0.5c0.2-0.4,0.4-0.8,0.7-1.1
		c0.3-0.3,0.6-0.6,0.9-0.9c0.3-0.3,0.6-0.6,0.9-0.8s0.5-0.6,0.7-1c0.4-0.1,0.8-0.3,1.1-0.5c0.3-0.3,0.6-0.5,0.9-0.8s0.6-0.5,0.9-0.8
		c0.3-0.3,0.7-0.5,1.1-0.6v-0.9c0.9-0.5,1.6-1.1,2-1.6c0.4-0.6,0.9-1.3,1.5-2.2c0.5-0.1,0.8-0.1,1.1-0.1c0.3,0,0.7,0,1.2-0.1
		c0.4-0.8,0.8-1.4,1.1-1.8c0.3-0.4,0.8-0.9,1.5-1.4c0.6,0.4,1.3,0.6,2,0.7c0.7,0.1,1.4,0.5,1.9,1.1c0,0.6,0.2,1.1,0.5,1.4
		c0.3,0.3,0.5,0.6,0.9,0.9c0.3,0.3,0.6,0.5,0.9,0.8c0.3,0.3,0.5,0.7,0.6,1.2c0.2,0,0.3,0,0.4-0.1c0.1-0.1,0.2-0.1,0.4-0.1
		c0.1,0.4,0.2,0.7,0.3,1c0.1,0.2,0.2,0.5,0.3,0.7c0.1,0.2,0.2,0.4,0.3,0.6c0.1,0.2,0.2,0.5,0.3,0.9c-0.2,0.6-0.4,1.2-0.6,1.8
		c-0.2,0.6-0.5,1.1-1,1.3c0,0.4,0.1,0.6,0.4,0.6c0.3,0,0.4,0.2,0.5,0.6c0,0.5-0.1,0.8-0.2,1.1c1.2,2.3,2.3,4.6,3.2,7.1
		c0.9,2.5,2,4.8,3.2,7c-0.1,0.7-0.1,1.4,0.1,2c0.2,0.6,0.3,1.3,0.6,1.9c0.2,0.6,0.4,1.2,0.6,1.8c0.2,0.6,0.4,1.2,0.5,1.9
		c0.1,0.8,0.1,1.7,0,2.7c-0.1,0.9-0.2,1.9-0.5,2.7c-0.3,0.9-0.6,1.7-1,2.4c-0.4,0.7-0.9,1.3-1.5,1.7c-0.1,0-0.3,0.1-0.8,0.4
		c-0.4,0.3-0.9,0.7-1.4,1.1c-0.5,0.5-1.1,1-1.6,1.5s-1,1-1.5,1.5c-0.6,0.4-1.2,0.6-1.8,0.8c-0.7,0.2-1.4,0.3-2,0.5
		c-0.6,0.4-1.2,0.8-2,1.1c-0.8,0.4-1.5,0.7-2.4,1c-0.8,0.3-1.6,0.5-2.4,0.7c-0.8,0.2-1.5,0.2-2.1,0.1c-1.5,0.6-3,1.1-4.4,1.3
		C293.6,124.2,291.9,124.1,289.9,123.6z M291.5,97.4c-0.4,1.1-0.8,2.1-1.3,3c-0.5,0.9-1,1.8-1.5,2.7c-0.5,0.9-0.9,1.9-1.2,2.9
		c-0.3,1-0.5,2.3-0.6,3.6c0.7,0.8,1.6,1.3,2.7,1.5c1,0.2,2.1,0.2,3.2,0.1s2.2-0.3,3.2-0.6c1.1-0.2,2-0.4,2.9-0.4
		c0-0.4,0.2-0.6,0.5-0.6c1.5-0.2,3-0.8,4.3-1.7c1.4-0.9,2.8-1.9,4.3-2.9c0.2-0.6,0.4-1.1,0.7-1.5s0.5-1,0.5-1.8
		c-0.2-0.5-0.3-0.9-0.3-1.1c0-0.3-0.1-0.7-0.1-1.3c-1-1.8-1.8-3.7-2.5-5.7c-0.7-2.1-1.5-4-2.5-5.7c-0.1,0.2-0.3,0.5-0.5,0.7
		c-0.2,0.2-0.5,0.2-0.8-0.1c-0.2,0.9-0.6,1.3-1.2,1.2c-0.6-0.1-1.1-0.4-1.6-0.8c-1.3,1.3-2.6,2.6-3.9,3.9c-1.3,1.3-2.5,2.7-3.5,4.4
		c-0.2,0.1-0.3,0.2-0.3,0.1C291.8,97.2,291.7,97.3,291.5,97.4z"/>
	<path id="XMLID_70_" class="st2" d="M335.6,72.2c0.5,1,1.2,1.8,2,2.5s1.6,1.3,2.4,1.9c1,1.8,1.6,3.8,1.8,6c0.2,2.2,0.5,4.6,0.8,7.3
		c0,2.1-0.1,4.1-0.4,6s-0.6,3.7-1.1,5.5c-0.4,1.8-0.9,3.5-1.5,5.3c-0.6,1.8-1.1,3.6-1.6,5.5c-0.6,0.7-1.1,1.7-1.5,2.9
		c-0.3,1.3-0.4,2.5-0.1,3.7c-0.6,0.7-1.2,1.5-1.8,2.1c-0.6,0.7-1.3,1.3-2,1.9c-0.3-0.3-0.6-0.4-1.1-0.5c-0.4,0-0.9,0-1.4,0
		c-0.5,0-0.9,0.1-1.3,0.1s-0.7,0.1-0.9,0c-0.2-0.4-0.5-0.8-0.9-1.2s-0.7-0.9-1-1.3c-0.3-0.5-0.5-0.9-0.7-1.4
		c-0.2-0.4-0.1-0.9,0.1-1.3c0-0.5-0.3-0.8-0.8-0.8c0.1-2.1,0.5-4.2,1-6.3c0.6-2.1,1.2-4.1,1.9-6c0.7-2,1.4-3.9,2-5.9
		s1.2-3.9,1.5-5.8c0.3-1.9,0.4-3.8,0.3-5.7c-0.2-1.9-0.7-3.8-1.6-5.8c0-0.6,0-1.2,0-1.6c0-0.4,0-0.8-0.1-1.2c0-0.3-0.1-0.7-0.1-1
		c0-0.3-0.1-0.7-0.3-1c0.2-0.6,0.4-1.2,0.5-1.8c0.1-0.6,0.1-1.1,0-1.5c0-0.3,0.1-0.6,0.3-0.8s0.3-0.4,0.5-0.6
		c0.2-0.2,0.4-0.4,0.5-0.6c0.2-0.2,0.3-0.5,0.3-0.8h1.5c0.5,0.4,0.9,0.8,1.3,1.1C334.5,71.9,335,72.2,335.6,72.2z"/>
</g>
</svg>
