<?xml version="1.0" encoding="utf-8"?>
<!-- Generator: Adobe Illustrator 16.0.0, SVG Export Plug-In . SVG Version: 6.00 Build 0)  -->
<!DOCTYPE svg PUBLIC "-//W3C//DTD SVG 1.1//EN" "http://www.w3.org/Graphics/SVG/1.1/DTD/svg11.dtd">
<svg version="1.1" id="圖層_1" xmlns="http://www.w3.org/2000/svg" xmlns:xlink="http://www.w3.org/1999/xlink" x="0px" y="0px"
	 width="193px" height="33px" viewBox="0 0 193 33" enable-background="new 0 0 193 33" xml:space="preserve">
<title>Group 41</title>
<desc>Created with Sketch.</desc>
<g id="Page-1">
	<g id="Group-41">
		<path id="_x30_800-885-222" fill="#F8F9FA" d="M39.216,9.324c0,1.512-0.162,2.826-0.486,3.942
			c-0.324,1.116-0.772,2.038-1.344,2.766c-0.572,0.728-1.248,1.27-2.028,1.626c-0.78,0.355-1.622,0.533-2.526,0.533
			s-1.742-0.178-2.514-0.533c-0.772-0.356-1.442-0.898-2.01-1.626c-0.568-0.728-1.012-1.65-1.332-2.766
			c-0.32-1.116-0.48-2.43-0.48-3.942c0-1.52,0.16-2.836,0.48-3.948c0.32-1.112,0.764-2.032,1.332-2.76
			c0.568-0.728,1.238-1.27,2.01-1.626c0.772-0.356,1.61-0.534,2.514-0.534s1.746,0.178,2.526,0.534
			c0.78,0.356,1.456,0.898,2.028,1.626c0.572,0.728,1.02,1.648,1.344,2.76S39.216,7.804,39.216,9.324z M36.156,9.324
			c0-1.256-0.092-2.296-0.276-3.12c-0.184-0.824-0.43-1.48-0.738-1.968c-0.308-0.488-0.662-0.83-1.062-1.026
			c-0.4-0.196-0.816-0.294-1.248-0.294c-0.424,0-0.834,0.098-1.23,0.294c-0.396,0.196-0.746,0.538-1.05,1.026
			c-0.304,0.488-0.546,1.144-0.726,1.968c-0.18,0.824-0.27,1.864-0.27,3.12c0,1.256,0.09,2.296,0.27,3.12
			c0.18,0.824,0.422,1.48,0.726,1.968c0.304,0.488,0.654,0.83,1.05,1.026s0.806,0.294,1.23,0.294c0.432,0,0.848-0.098,1.248-0.294
			s0.754-0.538,1.062-1.026c0.308-0.488,0.554-1.144,0.738-1.968C36.064,11.62,36.156,10.58,36.156,9.324z M47.776,15.876
			c0.488,0,0.916-0.07,1.284-0.21s0.678-0.334,0.93-0.582c0.252-0.248,0.442-0.544,0.57-0.888c0.128-0.344,0.192-0.716,0.192-1.116
			c0-0.952-0.264-1.672-0.792-2.16c-0.528-0.488-1.256-0.732-2.184-0.732c-0.928,0-1.656,0.244-2.184,0.732
			c-0.528,0.488-0.792,1.208-0.792,2.16c0,0.4,0.064,0.772,0.192,1.116c0.128,0.344,0.318,0.64,0.57,0.888s0.562,0.442,0.93,0.582
			C46.86,15.806,47.288,15.876,47.776,15.876z M47.776,2.688c-0.44,0-0.82,0.068-1.14,0.204c-0.32,0.136-0.586,0.318-0.798,0.546
			s-0.368,0.49-0.468,0.786s-0.15,0.608-0.15,0.936c0,0.344,0.042,0.678,0.126,1.002c0.084,0.324,0.226,0.612,0.426,0.864
			s0.464,0.454,0.792,0.606c0.328,0.152,0.732,0.228,1.212,0.228s0.884-0.076,1.212-0.228c0.328-0.152,0.592-0.354,0.792-0.606
			c0.2-0.252,0.342-0.54,0.426-0.864c0.084-0.324,0.126-0.658,0.126-1.002c0-0.328-0.052-0.64-0.156-0.936s-0.26-0.558-0.468-0.786
			s-0.472-0.41-0.792-0.546C48.596,2.756,48.216,2.688,47.776,2.688z M50.704,8.952c1.056,0.344,1.836,0.87,2.34,1.578
			s0.756,1.574,0.756,2.598c0,0.768-0.146,1.464-0.438,2.088s-0.702,1.156-1.23,1.596c-0.528,0.44-1.162,0.78-1.902,1.02
			s-1.558,0.359-2.454,0.359s-1.714-0.119-2.454-0.359c-0.74-0.24-1.374-0.58-1.902-1.02s-0.938-0.972-1.23-1.596
			s-0.438-1.32-0.438-2.088c0-1.024,0.252-1.89,0.756-2.598c0.504-0.708,1.284-1.234,2.34-1.578c-0.84-0.352-1.47-0.852-1.89-1.5
			s-0.63-1.428-0.63-2.34c0-0.656,0.134-1.268,0.402-1.836s0.642-1.062,1.122-1.482s1.054-0.748,1.722-0.984
			c0.668-0.236,1.402-0.354,2.202-0.354c0.8,0,1.534,0.118,2.202,0.354S51.22,1.374,51.7,1.794s0.854,0.914,1.122,1.482
			c0.268,0.568,0.402,1.18,0.402,1.836c0,0.912-0.21,1.692-0.63,2.34C52.174,8.1,51.544,8.6,50.704,8.952z M69.056,9.324
			c0,1.512-0.162,2.826-0.486,3.942c-0.324,1.116-0.772,2.038-1.344,2.766c-0.572,0.728-1.248,1.27-2.028,1.626
			c-0.78,0.355-1.622,0.533-2.526,0.533c-0.904,0-1.742-0.178-2.514-0.533c-0.772-0.356-1.442-0.898-2.01-1.626
			c-0.568-0.728-1.012-1.65-1.332-2.766c-0.32-1.116-0.48-2.43-0.48-3.942c0-1.52,0.16-2.836,0.48-3.948
			c0.32-1.112,0.764-2.032,1.332-2.76c0.568-0.728,1.238-1.27,2.01-1.626c0.772-0.356,1.61-0.534,2.514-0.534
			c0.904,0,1.746,0.178,2.526,0.534c0.78,0.356,1.456,0.898,2.028,1.626c0.572,0.728,1.02,1.648,1.344,2.76
			C68.894,6.488,69.056,7.804,69.056,9.324z M65.996,9.324c0-1.256-0.092-2.296-0.276-3.12c-0.184-0.824-0.43-1.48-0.738-1.968
			c-0.308-0.488-0.662-0.83-1.062-1.026c-0.4-0.196-0.816-0.294-1.248-0.294c-0.424,0-0.834,0.098-1.23,0.294
			c-0.396,0.196-0.746,0.538-1.05,1.026c-0.304,0.488-0.546,1.144-0.726,1.968c-0.18,0.824-0.27,1.864-0.27,3.12
			c0,1.256,0.09,2.296,0.27,3.12c0.18,0.824,0.422,1.48,0.726,1.968c0.304,0.488,0.654,0.83,1.05,1.026s0.806,0.294,1.23,0.294
			c0.432,0,0.848-0.098,1.248-0.294s0.754-0.538,1.062-1.026c0.308-0.488,0.554-1.144,0.738-1.968
			C65.904,11.62,65.996,10.58,65.996,9.324z M83.976,9.324c0,1.512-0.162,2.826-0.486,3.942c-0.324,1.116-0.772,2.038-1.344,2.766
			c-0.572,0.728-1.248,1.27-2.028,1.626c-0.78,0.355-1.622,0.533-2.526,0.533c-0.904,0-1.742-0.178-2.514-0.533
			c-0.772-0.356-1.442-0.898-2.01-1.626c-0.568-0.728-1.012-1.65-1.332-2.766c-0.32-1.116-0.48-2.43-0.48-3.942
			c0-1.52,0.16-2.836,0.48-3.948c0.32-1.112,0.764-2.032,1.332-2.76c0.568-0.728,1.238-1.27,2.01-1.626
			c0.772-0.356,1.61-0.534,2.514-0.534c0.904,0,1.746,0.178,2.526,0.534c0.78,0.356,1.456,0.898,2.028,1.626
			c0.572,0.728,1.02,1.648,1.344,2.76C83.814,6.488,83.976,7.804,83.976,9.324z M80.916,9.324c0-1.256-0.092-2.296-0.276-3.12
			c-0.184-0.824-0.43-1.48-0.738-1.968c-0.308-0.488-0.662-0.83-1.062-1.026c-0.4-0.196-0.816-0.294-1.248-0.294
			c-0.424,0-0.834,0.098-1.23,0.294c-0.396,0.196-0.746,0.538-1.05,1.026c-0.304,0.488-0.546,1.144-0.726,1.968
			c-0.18,0.824-0.27,1.864-0.27,3.12c0,1.256,0.09,2.296,0.27,3.12c0.18,0.824,0.422,1.48,0.726,1.968
			c0.304,0.488,0.654,0.83,1.05,1.026s0.806,0.294,1.23,0.294c0.432,0,0.848-0.098,1.248-0.294c0.4-0.196,0.754-0.538,1.062-1.026
			c0.308-0.488,0.554-1.144,0.738-1.968C80.824,11.62,80.916,10.58,80.916,9.324z M86.944,9.516h6.216v2.472h-6.216V9.516z
			 M102.488,15.876c0.488,0,0.916-0.07,1.283-0.21c0.369-0.14,0.679-0.334,0.931-0.582s0.442-0.544,0.569-0.888
			c0.129-0.344,0.192-0.716,0.192-1.116c0-0.952-0.264-1.672-0.792-2.16c-0.527-0.488-1.256-0.732-2.184-0.732
			s-1.656,0.244-2.184,0.732c-0.529,0.488-0.793,1.208-0.793,2.16c0,0.4,0.064,0.772,0.192,1.116
			c0.128,0.344,0.317,0.64,0.569,0.888s0.563,0.442,0.931,0.582S102,15.876,102.488,15.876z M102.488,2.688
			c-0.44,0-0.82,0.068-1.141,0.204c-0.32,0.136-0.586,0.318-0.798,0.546s-0.368,0.49-0.468,0.786s-0.15,0.608-0.15,0.936
			c0,0.344,0.043,0.678,0.127,1.002c0.084,0.324,0.226,0.612,0.426,0.864c0.199,0.252,0.463,0.454,0.791,0.606
			c0.328,0.152,0.732,0.228,1.213,0.228c0.479,0,0.884-0.076,1.212-0.228c0.327-0.152,0.592-0.354,0.792-0.606
			c0.199-0.252,0.342-0.54,0.426-0.864c0.084-0.324,0.126-0.658,0.126-1.002c0-0.328-0.052-0.64-0.155-0.936
			c-0.104-0.296-0.261-0.558-0.469-0.786s-0.473-0.41-0.792-0.546C103.309,2.756,102.928,2.688,102.488,2.688z M105.416,8.952
			c1.057,0.344,1.836,0.87,2.34,1.578s0.756,1.574,0.756,2.598c0,0.768-0.146,1.464-0.438,2.088s-0.702,1.156-1.23,1.596
			c-0.527,0.44-1.162,0.78-1.902,1.02c-0.739,0.24-1.558,0.359-2.453,0.359c-0.896,0-1.715-0.119-2.454-0.359
			c-0.74-0.24-1.374-0.58-1.902-1.02s-0.938-0.972-1.23-1.596c-0.292-0.624-0.438-1.32-0.438-2.088c0-1.024,0.252-1.89,0.757-2.598
			c0.504-0.708,1.283-1.234,2.34-1.578C98.721,8.6,98.09,8.1,97.67,7.452s-0.63-1.428-0.63-2.34c0-0.656,0.134-1.268,0.401-1.836
			c0.269-0.568,0.643-1.062,1.123-1.482c0.479-0.42,1.054-0.748,1.722-0.984s1.401-0.354,2.202-0.354c0.8,0,1.533,0.118,2.201,0.354
			s1.242,0.564,1.723,0.984s0.854,0.914,1.122,1.482s0.401,1.18,0.401,1.836c0,0.912-0.209,1.692-0.629,2.34
			S106.256,8.6,105.416,8.952z M117.408,15.876c0.488,0,0.916-0.07,1.283-0.21c0.369-0.14,0.679-0.334,0.931-0.582
			s0.442-0.544,0.569-0.888c0.129-0.344,0.192-0.716,0.192-1.116c0-0.952-0.264-1.672-0.792-2.16
			c-0.527-0.488-1.256-0.732-2.184-0.732s-1.656,0.244-2.184,0.732c-0.529,0.488-0.793,1.208-0.793,2.16
			c0,0.4,0.064,0.772,0.192,1.116c0.128,0.344,0.317,0.64,0.569,0.888s0.563,0.442,0.931,0.582S116.92,15.876,117.408,15.876z
			 M117.408,2.688c-0.44,0-0.82,0.068-1.141,0.204c-0.32,0.136-0.586,0.318-0.797,0.546c-0.213,0.228-0.369,0.49-0.469,0.786
			s-0.15,0.608-0.15,0.936c0,0.344,0.043,0.678,0.127,1.002c0.084,0.324,0.226,0.612,0.426,0.864
			c0.199,0.252,0.464,0.454,0.791,0.606c0.328,0.152,0.732,0.228,1.213,0.228s0.884-0.076,1.212-0.228
			c0.327-0.152,0.592-0.354,0.792-0.606c0.199-0.252,0.342-0.54,0.426-0.864c0.084-0.324,0.126-0.658,0.126-1.002
			c0-0.328-0.052-0.64-0.155-0.936c-0.104-0.296-0.261-0.558-0.469-0.786s-0.472-0.41-0.792-0.546
			C118.229,2.756,117.848,2.688,117.408,2.688z M120.336,8.952c1.057,0.344,1.836,0.87,2.34,1.578s0.756,1.574,0.756,2.598
			c0,0.768-0.146,1.464-0.438,2.088s-0.702,1.156-1.23,1.596c-0.527,0.44-1.162,0.78-1.902,1.02
			c-0.739,0.24-1.557,0.359-2.453,0.359s-1.715-0.119-2.454-0.359c-0.74-0.24-1.374-0.58-1.901-1.02
			c-0.529-0.44-0.939-0.972-1.23-1.596c-0.293-0.624-0.438-1.32-0.438-2.088c0-1.024,0.253-1.89,0.757-2.598s1.283-1.234,2.34-1.578
			c-0.84-0.352-1.471-0.852-1.891-1.5s-0.63-1.428-0.63-2.34c0-0.656,0.134-1.268,0.401-1.836c0.269-0.568,0.643-1.062,1.123-1.482
			c0.479-0.42,1.054-0.748,1.722-0.984s1.401-0.354,2.202-0.354c0.8,0,1.533,0.118,2.201,0.354s1.242,0.564,1.723,0.984
			s0.854,0.914,1.122,1.482s0.401,1.18,0.401,1.836c0,0.912-0.209,1.692-0.629,2.34S121.176,8.6,120.336,8.952z M130.24,6.948
			c0.384-0.08,0.752-0.138,1.104-0.174s0.692-0.054,1.02-0.054c0.912,0,1.717,0.136,2.412,0.408
			c0.697,0.272,1.281,0.648,1.752,1.128c0.473,0.48,0.828,1.042,1.068,1.686s0.36,1.338,0.36,2.082c0,0.92-0.162,1.76-0.485,2.52
			c-0.324,0.76-0.775,1.41-1.351,1.95c-0.576,0.54-1.259,0.958-2.046,1.254c-0.788,0.296-1.646,0.443-2.574,0.443
			c-0.544,0-1.061-0.056-1.548-0.168c-0.488-0.111-0.946-0.262-1.374-0.449c-0.428-0.188-0.824-0.404-1.188-0.648
			c-0.365-0.244-0.69-0.502-0.979-0.774l0.912-1.26c0.191-0.272,0.443-0.408,0.756-0.408c0.199,0,0.404,0.064,0.611,0.192
			c0.209,0.128,0.447,0.268,0.715,0.42c0.268,0.152,0.584,0.292,0.947,0.42c0.364,0.128,0.803,0.192,1.314,0.192
			c0.544,0,1.023-0.088,1.439-0.264c0.416-0.176,0.763-0.422,1.039-0.738c0.275-0.316,0.483-0.692,0.623-1.128
			c0.141-0.436,0.211-0.91,0.211-1.422c0-0.944-0.274-1.682-0.822-2.214c-0.549-0.532-1.358-0.798-2.43-0.798
			c-0.824,0-1.668,0.152-2.533,0.456l-1.848-0.528l1.44-8.424h8.567v1.26c0,0.424-0.131,0.768-0.396,1.032s-0.712,0.396-1.344,0.396
			h-4.765L130.24,6.948z M141.656,9.516h6.216v2.472h-6.216V9.516z M162.012,15.24c0.32,0,0.574,0.09,0.762,0.27
			c0.188,0.18,0.283,0.418,0.283,0.714V18h-11.904v-0.984c0-0.2,0.041-0.41,0.125-0.63c0.084-0.22,0.219-0.418,0.402-0.594
			l5.268-5.28c0.441-0.448,0.835-0.876,1.183-1.284c0.349-0.408,0.638-0.812,0.87-1.212s0.41-0.806,0.534-1.218
			s0.187-0.846,0.187-1.302c0-0.416-0.061-0.782-0.181-1.098s-0.29-0.582-0.511-0.798c-0.219-0.216-0.483-0.378-0.791-0.486
			c-0.309-0.108-0.654-0.162-1.038-0.162c-0.353,0-0.679,0.05-0.978,0.15c-0.301,0.1-0.566,0.24-0.799,0.42s-0.428,0.39-0.588,0.63
			c-0.16,0.24-0.279,0.504-0.359,0.792c-0.137,0.368-0.313,0.612-0.529,0.732c-0.215,0.12-0.527,0.148-0.936,0.084l-1.56-0.276
			c0.12-0.832,0.353-1.562,0.696-2.19s0.773-1.152,1.289-1.572c0.517-0.42,1.108-0.736,1.776-0.948s1.386-0.318,2.154-0.318
			c0.8,0,1.532,0.118,2.196,0.354s1.231,0.57,1.703,1.002c0.473,0.432,0.84,0.952,1.104,1.56s0.396,1.284,0.396,2.028
			c0,0.64-0.094,1.232-0.281,1.776c-0.188,0.544-0.44,1.064-0.756,1.56c-0.316,0.496-0.687,0.976-1.11,1.44
			c-0.425,0.464-0.868,0.936-1.332,1.416l-3.912,3.996c0.376-0.112,0.75-0.198,1.122-0.258s0.727-0.09,1.063-0.09H162.012z
			 M176.932,15.24c0.32,0,0.574,0.09,0.762,0.27c0.188,0.18,0.283,0.418,0.283,0.714V18h-11.904v-0.984c0-0.2,0.041-0.41,0.125-0.63
			c0.085-0.22,0.219-0.418,0.402-0.594l5.269-5.28c0.44-0.448,0.834-0.876,1.182-1.284c0.349-0.408,0.638-0.812,0.87-1.212
			s0.41-0.806,0.534-1.218s0.187-0.846,0.187-1.302c0-0.416-0.061-0.782-0.181-1.098s-0.29-0.582-0.51-0.798
			c-0.22-0.216-0.484-0.378-0.792-0.486c-0.309-0.108-0.654-0.162-1.038-0.162c-0.353,0-0.679,0.05-0.978,0.15
			c-0.301,0.1-0.566,0.24-0.799,0.42s-0.428,0.39-0.588,0.63c-0.16,0.24-0.279,0.504-0.359,0.792
			c-0.137,0.368-0.313,0.612-0.528,0.732c-0.216,0.12-0.528,0.148-0.937,0.084l-1.56-0.276c0.12-0.832,0.353-1.562,0.696-2.19
			s0.773-1.152,1.289-1.572c0.517-0.42,1.108-0.736,1.776-0.948c0.669-0.212,1.386-0.318,2.154-0.318c0.8,0,1.532,0.118,2.196,0.354
			s1.231,0.57,1.703,1.002c0.473,0.432,0.84,0.952,1.104,1.56s0.396,1.284,0.396,2.028c0,0.64-0.094,1.232-0.281,1.776
			c-0.188,0.544-0.44,1.064-0.756,1.56c-0.316,0.496-0.687,0.976-1.11,1.44c-0.424,0.464-0.868,0.936-1.332,1.416l-3.912,3.996
			c0.376-0.112,0.75-0.198,1.122-0.258s0.727-0.09,1.063-0.09H176.932z M191.852,15.24c0.32,0,0.574,0.09,0.762,0.27
			c0.189,0.18,0.283,0.418,0.283,0.714V18h-11.904v-0.984c0-0.2,0.042-0.41,0.126-0.63c0.084-0.22,0.218-0.418,0.401-0.594
			l5.269-5.28c0.44-0.448,0.834-0.876,1.183-1.284c0.348-0.408,0.637-0.812,0.869-1.212s0.41-0.806,0.534-1.218
			s0.187-0.846,0.187-1.302c0-0.416-0.061-0.782-0.181-1.098s-0.29-0.582-0.51-0.798c-0.22-0.216-0.483-0.378-0.792-0.486
			c-0.309-0.108-0.654-0.162-1.038-0.162c-0.353,0-0.679,0.05-0.978,0.15c-0.301,0.1-0.566,0.24-0.799,0.42
			c-0.231,0.18-0.428,0.39-0.588,0.63c-0.16,0.24-0.279,0.504-0.359,0.792c-0.137,0.368-0.313,0.612-0.528,0.732
			c-0.216,0.12-0.528,0.148-0.937,0.084l-1.56-0.276c0.12-0.832,0.353-1.562,0.696-2.19s0.773-1.152,1.289-1.572
			c0.517-0.42,1.109-0.736,1.777-0.948s1.385-0.318,2.153-0.318c0.8,0,1.532,0.118,2.196,0.354s1.232,0.57,1.703,1.002
			c0.473,0.432,0.84,0.952,1.104,1.56s0.396,1.284,0.396,2.028c0,0.64-0.094,1.232-0.281,1.776c-0.188,0.544-0.439,1.064-0.756,1.56
			c-0.316,0.496-0.687,0.976-1.11,1.44c-0.424,0.464-0.868,0.936-1.332,1.416l-3.912,3.996c0.376-0.112,0.75-0.198,1.122-0.258
			s0.727-0.09,1.063-0.09H191.852z"/>
		<path id="Mon-Sat-9:00-22:00-S-Copy" fill="#F8F9FA" d="M8.4,24.8V32H7.37v-4.936c0-0.08,0.002-0.167,0.007-0.262
			c0.005-0.096,0.013-0.191,0.022-0.287L5.085,30.79c-0.09,0.177-0.229,0.265-0.415,0.265H4.505c-0.19,0-0.328-0.088-0.415-0.265
			l-2.35-4.285c0.01,0.097,0.017,0.193,0.022,0.29c0.005,0.097,0.007,0.187,0.007,0.27V32H0.74v-7.2h0.875
			c0.103,0,0.183,0.009,0.24,0.028c0.057,0.018,0.108,0.074,0.155,0.167l2.31,4.185c0.05,0.098,0.098,0.196,0.143,0.298
			s0.086,0.206,0.123,0.313c0.04-0.106,0.083-0.212,0.127-0.317s0.093-0.206,0.143-0.303l2.275-4.175
			c0.047-0.093,0.099-0.149,0.155-0.167c0.057-0.02,0.137-0.028,0.24-0.028H8.4z M12.96,26.82c0.376,0,0.718,0.062,1.022,0.185
			c0.305,0.124,0.565,0.298,0.78,0.524c0.215,0.228,0.381,0.502,0.497,0.826c0.117,0.322,0.175,0.686,0.175,1.09
			c0,0.402-0.059,0.767-0.175,1.09c-0.116,0.323-0.282,0.6-0.497,0.827c-0.215,0.229-0.475,0.404-0.78,0.528
			c-0.305,0.123-0.646,0.185-1.022,0.185c-0.38,0-0.723-0.062-1.027-0.185c-0.305-0.124-0.566-0.3-0.783-0.528
			c-0.217-0.228-0.383-0.504-0.5-0.827s-0.175-0.688-0.175-1.09c0-0.404,0.058-0.768,0.175-1.09c0.117-0.324,0.283-0.599,0.5-0.826
			c0.217-0.227,0.478-0.4,0.783-0.524C12.237,26.882,12.58,26.82,12.96,26.82z M12.96,31.234c0.46,0,0.803-0.153,1.027-0.462
			c0.225-0.308,0.338-0.749,0.338-1.322s-0.113-1.017-0.338-1.327c-0.225-0.313-0.567-0.469-1.027-0.469
			c-0.467,0-0.813,0.156-1.04,0.469c-0.227,0.311-0.34,0.754-0.34,1.327s0.113,1.015,0.34,1.322
			C12.146,31.081,12.493,31.234,12.96,31.234z M18.47,27.575c0.11-0.113,0.224-0.216,0.342-0.308s0.244-0.171,0.377-0.238
			c0.133-0.066,0.275-0.117,0.425-0.154c0.15-0.037,0.313-0.055,0.49-0.055c0.28,0,0.526,0.047,0.737,0.14
			c0.212,0.093,0.39,0.226,0.535,0.396s0.254,0.373,0.328,0.611c0.073,0.239,0.11,0.502,0.11,0.788V32h-1.07v-3.245
			c0-0.343-0.079-0.61-0.238-0.8c-0.158-0.189-0.399-0.285-0.722-0.285c-0.24,0-0.463,0.055-0.667,0.165
			c-0.205,0.11-0.397,0.261-0.578,0.45V32h-1.075v-5.1h0.65c0.146,0,0.24,0.068,0.28,0.205L18.47,27.575z M24.015,28.535h2.535v0.91
			h-2.535V28.535z M32.765,26.029c-0.037,0.061-0.075,0.105-0.115,0.133c-0.04,0.029-0.09,0.043-0.15,0.043
			c-0.063,0-0.134-0.027-0.212-0.08c-0.079-0.053-0.175-0.112-0.29-0.178c-0.115-0.064-0.251-0.125-0.408-0.18
			s-0.343-0.082-0.56-0.082c-0.2,0-0.375,0.024-0.527,0.074c-0.151,0.051-0.279,0.12-0.382,0.211
			c-0.104,0.09-0.181,0.195-0.232,0.316c-0.052,0.122-0.078,0.254-0.078,0.398c0,0.183,0.048,0.336,0.145,0.457
			s0.224,0.226,0.382,0.313c0.158,0.086,0.339,0.162,0.542,0.228c0.204,0.065,0.411,0.134,0.623,0.208
			c0.212,0.072,0.419,0.156,0.623,0.25c0.203,0.093,0.384,0.211,0.542,0.354s0.286,0.318,0.382,0.524
			c0.097,0.207,0.145,0.459,0.145,0.756c0,0.32-0.055,0.619-0.165,0.899c-0.11,0.28-0.269,0.524-0.477,0.733
			c-0.208,0.207-0.465,0.371-0.77,0.492c-0.305,0.119-0.653,0.18-1.042,0.18c-0.23,0-0.455-0.022-0.673-0.067
			c-0.218-0.046-0.427-0.108-0.625-0.19s-0.384-0.181-0.558-0.297c-0.173-0.117-0.328-0.247-0.465-0.391l0.34-0.56
			c0.03-0.047,0.068-0.083,0.115-0.11c0.047-0.026,0.098-0.04,0.155-0.04c0.077,0,0.162,0.036,0.255,0.108
			c0.093,0.07,0.206,0.149,0.337,0.234s0.291,0.163,0.478,0.234c0.187,0.072,0.41,0.107,0.67,0.107c0.423,0,0.751-0.103,0.982-0.31
			c0.232-0.206,0.348-0.491,0.348-0.854c0-0.203-0.048-0.369-0.145-0.498c-0.097-0.128-0.224-0.235-0.383-0.322
			c-0.158-0.087-0.339-0.16-0.542-0.221c-0.203-0.059-0.41-0.123-0.62-0.191s-0.417-0.148-0.62-0.24
			c-0.204-0.092-0.384-0.212-0.542-0.36c-0.158-0.147-0.286-0.331-0.382-0.55c-0.097-0.219-0.145-0.49-0.145-0.817
			c0-0.261,0.051-0.512,0.152-0.755c0.102-0.244,0.25-0.459,0.445-0.648c0.195-0.188,0.436-0.338,0.723-0.451s0.613-0.17,0.98-0.17
			c0.413,0,0.792,0.064,1.138,0.194c0.345,0.13,0.642,0.315,0.892,0.556L32.765,26.029z M37.91,29.77
			c-0.383,0.014-0.707,0.045-0.97,0.093s-0.477,0.11-0.64,0.185c-0.163,0.076-0.281,0.165-0.353,0.268
			c-0.071,0.104-0.107,0.217-0.107,0.34c0,0.121,0.02,0.223,0.058,0.309c0.039,0.084,0.092,0.154,0.16,0.209
			c0.068,0.056,0.148,0.096,0.24,0.121c0.092,0.024,0.192,0.037,0.303,0.037c0.28,0,0.521-0.053,0.722-0.158
			c0.202-0.104,0.398-0.257,0.588-0.457V29.77z M35.06,27.609c0.577-0.536,1.263-0.805,2.06-0.805c0.293,0,0.554,0.048,0.782,0.143
			c0.229,0.096,0.42,0.229,0.575,0.402c0.155,0.174,0.273,0.379,0.355,0.617c0.082,0.239,0.123,0.504,0.123,0.793V32h-0.48
			c-0.104,0-0.182-0.016-0.235-0.047c-0.054-0.032-0.099-0.097-0.135-0.193L38,31.346c-0.13,0.116-0.258,0.221-0.385,0.313
			c-0.127,0.091-0.258,0.168-0.393,0.232c-0.135,0.063-0.28,0.11-0.435,0.143c-0.155,0.031-0.326,0.047-0.513,0.047
			c-0.207,0-0.399-0.028-0.578-0.085c-0.178-0.057-0.332-0.143-0.462-0.258c-0.13-0.114-0.232-0.257-0.307-0.427
			c-0.075-0.17-0.113-0.371-0.113-0.601c0-0.196,0.053-0.388,0.158-0.575c0.105-0.187,0.278-0.354,0.52-0.502
			s0.56-0.271,0.955-0.367c0.395-0.098,0.883-0.152,1.463-0.166v-0.34c0-0.366-0.079-0.64-0.235-0.82
			c-0.156-0.18-0.386-0.27-0.69-0.27c-0.207,0-0.38,0.025-0.52,0.078c-0.14,0.051-0.262,0.107-0.365,0.167
			c-0.104,0.06-0.195,0.116-0.275,0.167c-0.08,0.053-0.165,0.078-0.255,0.078c-0.073,0-0.136-0.02-0.188-0.058
			c-0.051-0.038-0.094-0.086-0.127-0.143L35.06,27.609z M42.775,32.08c-0.423,0-0.749-0.119-0.978-0.357
			c-0.228-0.238-0.342-0.574-0.342-1.008v-2.97h-0.56c-0.06,0-0.112-0.02-0.155-0.058c-0.043-0.038-0.065-0.096-0.065-0.172V27.08
			l0.825-0.12l0.235-1.476c0.017-0.057,0.045-0.102,0.085-0.137s0.094-0.053,0.16-0.053h0.55v1.676h1.415v0.774H42.53v2.896
			c0,0.183,0.045,0.322,0.135,0.42c0.09,0.096,0.21,0.145,0.36,0.145c0.083,0,0.155-0.011,0.215-0.033
			c0.06-0.021,0.111-0.045,0.155-0.069s0.081-0.048,0.112-0.069C43.539,31.011,43.57,31,43.6,31c0.06,0,0.108,0.033,0.145,0.1
			l0.32,0.525c-0.167,0.146-0.363,0.26-0.59,0.338S43.015,32.08,42.775,32.08z M50.17,26.939c0,0.428,0.114,0.755,0.343,0.982
			c0.228,0.229,0.547,0.344,0.958,0.344c0.22,0,0.414-0.035,0.583-0.105c0.168-0.07,0.311-0.164,0.427-0.283
			c0.117-0.117,0.205-0.256,0.265-0.414s0.09-0.328,0.09-0.508c0-0.21-0.032-0.397-0.098-0.563
			c-0.065-0.165-0.156-0.306-0.275-0.422c-0.118-0.117-0.259-0.207-0.422-0.268c-0.164-0.063-0.342-0.094-0.535-0.094
			c-0.203,0-0.387,0.034-0.55,0.101c-0.164,0.067-0.303,0.159-0.42,0.277s-0.207,0.259-0.27,0.421
			C50.202,26.569,50.17,26.746,50.17,26.939z M52.015,29.175c0.066-0.083,0.128-0.162,0.185-0.237s0.11-0.15,0.16-0.228
			c-0.173,0.124-0.367,0.218-0.58,0.282c-0.213,0.065-0.44,0.098-0.68,0.098c-0.26,0-0.51-0.044-0.75-0.133
			c-0.24-0.088-0.454-0.22-0.64-0.395s-0.336-0.392-0.447-0.65c-0.112-0.258-0.167-0.556-0.167-0.893
			c0-0.316,0.059-0.615,0.177-0.895s0.284-0.524,0.498-0.732c0.213-0.209,0.468-0.373,0.765-0.492
			c0.296-0.121,0.625-0.18,0.985-0.18c0.356,0,0.68,0.057,0.97,0.172c0.29,0.115,0.537,0.276,0.74,0.484
			c0.203,0.209,0.36,0.457,0.47,0.746c0.11,0.287,0.165,0.605,0.165,0.952c0,0.216-0.02,0.421-0.058,0.614
			c-0.039,0.193-0.093,0.381-0.165,0.563s-0.158,0.36-0.26,0.535c-0.102,0.176-0.216,0.354-0.342,0.533l-1.695,2.43
			c-0.05,0.073-0.125,0.133-0.223,0.18C51.024,31.977,50.914,32,50.79,32h-0.985L52.015,29.175z M56.005,31.38
			c0-0.097,0.018-0.188,0.053-0.272c0.035-0.085,0.083-0.159,0.145-0.223c0.062-0.063,0.135-0.113,0.22-0.15
			c0.085-0.036,0.176-0.055,0.272-0.055s0.188,0.019,0.272,0.055c0.085,0.037,0.159,0.088,0.223,0.15
			c0.063,0.063,0.113,0.138,0.15,0.223s0.055,0.176,0.055,0.272c0,0.101-0.019,0.192-0.055,0.274
			c-0.037,0.084-0.086,0.157-0.15,0.221s-0.137,0.112-0.223,0.147c-0.085,0.035-0.176,0.053-0.272,0.053s-0.188-0.018-0.272-0.053
			s-0.158-0.084-0.22-0.147c-0.062-0.063-0.11-0.137-0.145-0.221C56.022,31.572,56.005,31.48,56.005,31.38z M56.005,27.734
			c0-0.096,0.018-0.188,0.053-0.271c0.035-0.086,0.083-0.16,0.145-0.223c0.062-0.063,0.135-0.113,0.22-0.15s0.176-0.055,0.272-0.055
			s0.188,0.018,0.272,0.055c0.085,0.037,0.159,0.087,0.223,0.15c0.063,0.063,0.113,0.137,0.15,0.223
			c0.037,0.084,0.055,0.176,0.055,0.271c0,0.101-0.019,0.192-0.055,0.275c-0.037,0.084-0.086,0.156-0.15,0.221
			c-0.063,0.063-0.137,0.111-0.223,0.146c-0.085,0.035-0.176,0.053-0.272,0.053s-0.188-0.018-0.272-0.053s-0.158-0.084-0.22-0.146
			c-0.062-0.064-0.11-0.137-0.145-0.221C56.022,27.927,56.005,27.835,56.005,27.734z M64.495,28.4c0,0.629-0.068,1.175-0.203,1.635
			s-0.321,0.842-0.558,1.145c-0.236,0.304-0.515,0.529-0.835,0.676c-0.32,0.146-0.665,0.22-1.035,0.22
			c-0.37,0-0.715-0.073-1.035-0.22c-0.32-0.146-0.598-0.372-0.833-0.676c-0.235-0.303-0.419-0.685-0.553-1.145s-0.2-1.006-0.2-1.635
			c0-0.631,0.066-1.176,0.2-1.638s0.318-0.844,0.553-1.146c0.235-0.301,0.512-0.526,0.833-0.675c0.32-0.148,0.665-0.222,1.035-0.222
			c0.37,0,0.715,0.073,1.035,0.222c0.32,0.148,0.599,0.374,0.835,0.675c0.237,0.302,0.423,0.684,0.558,1.146
			S64.495,27.77,64.495,28.4z M63.385,28.4c0-0.533-0.042-0.979-0.127-1.333s-0.197-0.64-0.337-0.853s-0.302-0.365-0.485-0.455
			c-0.184-0.09-0.374-0.135-0.57-0.135c-0.2,0-0.391,0.045-0.573,0.135s-0.342,0.242-0.482,0.455s-0.252,0.498-0.335,0.853
			c-0.083,0.354-0.125,0.8-0.125,1.333s0.042,0.977,0.125,1.332c0.083,0.355,0.195,0.639,0.335,0.853s0.301,0.365,0.482,0.455
			s0.373,0.135,0.573,0.135c0.196,0,0.386-0.045,0.57-0.135c0.183-0.09,0.345-0.241,0.485-0.455s0.252-0.497,0.337-0.853
			S63.385,28.934,63.385,28.4z M71.295,28.4c0,0.629-0.067,1.175-0.203,1.635c-0.135,0.46-0.321,0.842-0.557,1.145
			c-0.237,0.304-0.515,0.529-0.835,0.676c-0.32,0.146-0.665,0.22-1.035,0.22s-0.715-0.073-1.035-0.22
			c-0.32-0.146-0.597-0.372-0.833-0.676c-0.235-0.303-0.419-0.685-0.552-1.145s-0.2-1.006-0.2-1.635c0-0.631,0.067-1.176,0.2-1.638
			s0.317-0.844,0.552-1.146c0.235-0.301,0.513-0.526,0.833-0.675c0.32-0.148,0.665-0.222,1.035-0.222s0.715,0.073,1.035,0.222
			c0.32,0.148,0.598,0.374,0.835,0.675c0.236,0.302,0.422,0.684,0.557,1.146C71.228,27.225,71.295,27.77,71.295,28.4z M70.185,28.4
			c0-0.533-0.042-0.979-0.127-1.333s-0.198-0.64-0.337-0.853c-0.14-0.213-0.302-0.365-0.485-0.455
			c-0.183-0.09-0.373-0.135-0.57-0.135c-0.2,0-0.391,0.045-0.573,0.135s-0.342,0.242-0.482,0.455
			c-0.14,0.213-0.251,0.498-0.335,0.853c-0.083,0.354-0.125,0.8-0.125,1.333s0.042,0.977,0.125,1.332
			c0.083,0.355,0.195,0.639,0.335,0.853c0.14,0.214,0.301,0.365,0.482,0.455s0.373,0.135,0.573,0.135
			c0.197,0,0.387-0.045,0.57-0.135c0.184-0.09,0.345-0.241,0.485-0.455c0.14-0.214,0.252-0.497,0.337-0.853
			S70.185,28.934,70.185,28.4z M73.165,28.535H75.7v0.91h-2.535V28.535z M82.215,30.984c0.117,0,0.208,0.035,0.275,0.104
			c0.067,0.068,0.1,0.155,0.1,0.262V32h-4.87v-0.365c0-0.073,0.015-0.15,0.045-0.23c0.03-0.079,0.078-0.152,0.145-0.219l2.24-2.246
			c0.19-0.189,0.359-0.371,0.508-0.545c0.148-0.173,0.275-0.346,0.38-0.52s0.185-0.35,0.24-0.527
			c0.055-0.179,0.083-0.366,0.083-0.563c0-0.189-0.029-0.357-0.087-0.502c-0.058-0.146-0.138-0.266-0.24-0.361
			c-0.102-0.094-0.224-0.166-0.365-0.215c-0.142-0.048-0.297-0.072-0.467-0.072c-0.164,0-0.314,0.023-0.453,0.07
			s-0.262,0.111-0.37,0.195c-0.108,0.083-0.198,0.182-0.27,0.297s-0.124,0.241-0.157,0.378c-0.05,0.137-0.114,0.228-0.193,0.274
			c-0.078,0.047-0.192,0.057-0.342,0.03l-0.565-0.101c0.05-0.34,0.144-0.638,0.282-0.895c0.139-0.256,0.313-0.471,0.522-0.643
			s0.451-0.301,0.723-0.39s0.566-0.132,0.883-0.132c0.32,0,0.614,0.047,0.882,0.142c0.268,0.095,0.5,0.229,0.695,0.405
			c0.195,0.175,0.348,0.387,0.458,0.637s0.165,0.532,0.165,0.846c0,0.267-0.039,0.514-0.118,0.74
			c-0.078,0.227-0.184,0.443-0.317,0.65c-0.133,0.206-0.289,0.406-0.467,0.602s-0.366,0.393-0.563,0.593l-1.74,1.78
			c0.144-0.04,0.288-0.072,0.433-0.096s0.283-0.035,0.413-0.035H82.215z M89.015,30.984c0.117,0,0.208,0.035,0.275,0.104
			c0.066,0.068,0.1,0.155,0.1,0.262V32h-4.87v-0.365c0-0.073,0.015-0.15,0.045-0.23c0.03-0.079,0.079-0.152,0.145-0.219l2.24-2.246
			c0.19-0.189,0.359-0.371,0.507-0.545c0.148-0.173,0.275-0.346,0.38-0.52s0.185-0.35,0.24-0.527
			c0.055-0.179,0.083-0.366,0.083-0.563c0-0.189-0.029-0.357-0.087-0.502c-0.059-0.146-0.139-0.266-0.24-0.361
			c-0.102-0.094-0.223-0.166-0.365-0.215c-0.142-0.048-0.297-0.072-0.467-0.072c-0.164,0-0.314,0.023-0.453,0.07
			c-0.138,0.047-0.262,0.111-0.37,0.195c-0.108,0.083-0.198,0.182-0.27,0.297c-0.072,0.115-0.125,0.241-0.158,0.378
			c-0.05,0.137-0.114,0.228-0.192,0.274c-0.079,0.047-0.193,0.057-0.343,0.03l-0.565-0.101c0.05-0.34,0.144-0.638,0.283-0.895
			c0.138-0.256,0.313-0.471,0.522-0.643s0.451-0.301,0.722-0.39c0.272-0.089,0.566-0.132,0.883-0.132
			c0.32,0,0.614,0.047,0.882,0.142c0.269,0.095,0.5,0.229,0.695,0.405c0.195,0.175,0.347,0.387,0.458,0.637
			c0.11,0.25,0.165,0.532,0.165,0.846c0,0.267-0.04,0.514-0.118,0.74c-0.079,0.227-0.184,0.443-0.317,0.65
			c-0.133,0.206-0.29,0.406-0.468,0.602s-0.366,0.393-0.563,0.593l-1.74,1.78c0.143-0.04,0.287-0.072,0.432-0.096
			s0.283-0.035,0.413-0.035H89.015z M91.47,31.38c0-0.097,0.017-0.188,0.052-0.272s0.083-0.159,0.145-0.223
			c0.062-0.063,0.135-0.113,0.22-0.15c0.085-0.036,0.176-0.055,0.272-0.055s0.188,0.019,0.272,0.055
			c0.085,0.037,0.159,0.088,0.222,0.15c0.063,0.063,0.114,0.138,0.15,0.223s0.055,0.176,0.055,0.272
			c0,0.101-0.018,0.192-0.055,0.274c-0.037,0.084-0.087,0.157-0.15,0.221c-0.063,0.063-0.137,0.112-0.222,0.147
			s-0.176,0.053-0.272,0.053s-0.188-0.018-0.272-0.053c-0.085-0.035-0.159-0.084-0.22-0.147s-0.11-0.137-0.145-0.221
			C91.487,31.572,91.47,31.48,91.47,31.38z M91.47,27.734c0-0.096,0.017-0.188,0.052-0.271c0.035-0.086,0.083-0.16,0.145-0.223
			c0.062-0.063,0.135-0.113,0.22-0.15c0.085-0.037,0.176-0.055,0.272-0.055s0.188,0.018,0.272,0.055s0.159,0.087,0.222,0.15
			c0.063,0.063,0.114,0.137,0.15,0.223c0.037,0.084,0.055,0.176,0.055,0.271c0,0.101-0.018,0.192-0.055,0.275
			c-0.037,0.084-0.087,0.156-0.15,0.221c-0.063,0.063-0.137,0.111-0.222,0.146s-0.176,0.053-0.272,0.053s-0.188-0.018-0.272-0.053
			c-0.085-0.035-0.159-0.084-0.22-0.146c-0.062-0.064-0.11-0.137-0.145-0.221C91.487,27.927,91.47,27.835,91.47,27.734z M99.96,28.4
			c0,0.629-0.067,1.175-0.202,1.635s-0.321,0.842-0.558,1.145c-0.237,0.304-0.515,0.529-0.835,0.676s-0.665,0.22-1.035,0.22
			s-0.715-0.073-1.035-0.22s-0.597-0.372-0.833-0.676c-0.235-0.303-0.419-0.685-0.552-1.145s-0.2-1.006-0.2-1.635
			c0-0.631,0.067-1.176,0.2-1.638s0.317-0.844,0.552-1.146c0.235-0.301,0.513-0.526,0.833-0.675s0.665-0.222,1.035-0.222
			s0.715,0.073,1.035,0.222s0.598,0.374,0.835,0.675c0.236,0.302,0.423,0.684,0.558,1.146S99.96,27.77,99.96,28.4z M98.85,28.4
			c0-0.533-0.042-0.979-0.127-1.333s-0.197-0.64-0.338-0.853c-0.14-0.213-0.301-0.365-0.484-0.455s-0.373-0.135-0.57-0.135
			c-0.2,0-0.391,0.045-0.573,0.135s-0.342,0.242-0.482,0.455c-0.14,0.213-0.251,0.498-0.335,0.853s-0.125,0.8-0.125,1.333
			s0.042,0.977,0.125,1.332s0.195,0.639,0.335,0.853c0.14,0.214,0.301,0.365,0.482,0.455s0.373,0.135,0.573,0.135
			c0.197,0,0.387-0.045,0.57-0.135s0.345-0.241,0.484-0.455c0.141-0.214,0.253-0.497,0.338-0.853S98.85,28.934,98.85,28.4z
			 M106.76,28.4c0,0.629-0.067,1.175-0.202,1.635c-0.136,0.46-0.321,0.842-0.558,1.145c-0.236,0.304-0.516,0.529-0.835,0.676
			s-0.665,0.22-1.035,0.22s-0.715-0.073-1.034-0.22c-0.32-0.146-0.598-0.372-0.833-0.676c-0.235-0.303-0.419-0.685-0.553-1.145
			s-0.2-1.006-0.2-1.635c0-0.631,0.066-1.176,0.2-1.638s0.317-0.844,0.553-1.146c0.235-0.301,0.513-0.526,0.833-0.675
			c0.319-0.148,0.664-0.222,1.034-0.222s0.716,0.073,1.035,0.222s0.599,0.374,0.835,0.675c0.236,0.302,0.422,0.684,0.558,1.146
			C106.692,27.225,106.76,27.77,106.76,28.4z M105.65,28.4c0-0.533-0.043-0.979-0.128-1.333s-0.197-0.64-0.337-0.853
			c-0.141-0.213-0.303-0.365-0.485-0.455c-0.184-0.09-0.374-0.135-0.57-0.135c-0.2,0-0.391,0.045-0.572,0.135
			s-0.343,0.242-0.482,0.455s-0.252,0.498-0.335,0.853c-0.084,0.354-0.125,0.8-0.125,1.333s0.041,0.977,0.125,1.332
			c0.083,0.355,0.195,0.639,0.335,0.853s0.301,0.365,0.482,0.455s0.372,0.135,0.572,0.135c0.196,0,0.387-0.045,0.57-0.135
			c0.183-0.09,0.345-0.241,0.485-0.455c0.14-0.214,0.252-0.497,0.337-0.853S105.65,28.934,105.65,28.4z M116.145,26.029
			c-0.036,0.061-0.074,0.105-0.115,0.133c-0.039,0.029-0.09,0.043-0.149,0.043c-0.063,0-0.134-0.027-0.212-0.08
			s-0.176-0.112-0.291-0.178c-0.114-0.064-0.25-0.125-0.406-0.18c-0.157-0.055-0.344-0.082-0.561-0.082
			c-0.2,0-0.376,0.024-0.527,0.074c-0.152,0.051-0.279,0.12-0.383,0.211c-0.104,0.09-0.181,0.195-0.232,0.316
			c-0.052,0.122-0.078,0.254-0.078,0.398c0,0.183,0.049,0.336,0.146,0.457s0.224,0.226,0.382,0.313
			c0.159,0.086,0.34,0.162,0.543,0.228s0.411,0.134,0.623,0.208c0.211,0.072,0.419,0.156,0.622,0.25
			c0.204,0.093,0.384,0.211,0.542,0.354c0.159,0.144,0.287,0.318,0.383,0.524c0.098,0.207,0.146,0.459,0.146,0.756
			c0,0.32-0.056,0.619-0.165,0.899c-0.11,0.28-0.27,0.524-0.478,0.733c-0.208,0.207-0.466,0.371-0.771,0.492
			c-0.305,0.119-0.652,0.18-1.042,0.18c-0.229,0-0.454-0.022-0.673-0.067c-0.219-0.046-0.426-0.108-0.625-0.19
			c-0.198-0.082-0.384-0.181-0.557-0.297c-0.174-0.117-0.329-0.247-0.466-0.391l0.341-0.56c0.029-0.047,0.068-0.083,0.114-0.11
			c0.047-0.026,0.099-0.04,0.155-0.04c0.076,0,0.162,0.036,0.255,0.108c0.093,0.07,0.206,0.149,0.337,0.234
			c0.133,0.085,0.291,0.163,0.479,0.234c0.186,0.072,0.41,0.107,0.67,0.107c0.423,0,0.75-0.103,0.982-0.31
			c0.231-0.206,0.348-0.491,0.348-0.854c0-0.203-0.049-0.369-0.146-0.498c-0.097-0.128-0.224-0.235-0.382-0.322
			c-0.159-0.087-0.34-0.16-0.543-0.221c-0.203-0.059-0.41-0.123-0.62-0.191s-0.417-0.148-0.62-0.24s-0.385-0.212-0.543-0.36
			c-0.158-0.147-0.285-0.331-0.382-0.55s-0.146-0.49-0.146-0.817c0-0.261,0.051-0.512,0.152-0.755
			c0.102-0.244,0.25-0.459,0.445-0.648c0.195-0.188,0.436-0.338,0.723-0.451s0.613-0.17,0.98-0.17c0.413,0,0.792,0.064,1.137,0.194
			c0.346,0.13,0.643,0.315,0.893,0.556L116.145,26.029z M122.84,26.9V32h-0.65c-0.143,0-0.234-0.068-0.274-0.205l-0.08-0.475
			c-0.106,0.113-0.22,0.217-0.337,0.31c-0.119,0.093-0.244,0.173-0.378,0.24c-0.134,0.066-0.276,0.118-0.428,0.155
			c-0.151,0.036-0.313,0.055-0.487,0.055c-0.28,0-0.527-0.047-0.74-0.141c-0.213-0.093-0.393-0.225-0.537-0.395
			s-0.254-0.374-0.328-0.612c-0.072-0.238-0.109-0.501-0.109-0.788V26.9h1.074v3.244c0,0.344,0.08,0.61,0.238,0.801
			c0.158,0.189,0.398,0.285,0.723,0.285c0.236,0,0.457-0.055,0.662-0.163s0.397-0.257,0.578-0.447V26.9H122.84z M126.154,27.575
			c0.111-0.113,0.225-0.216,0.344-0.308c0.117-0.092,0.244-0.171,0.377-0.238c0.133-0.066,0.275-0.117,0.425-0.154
			c0.15-0.037,0.313-0.055,0.49-0.055c0.28,0,0.526,0.047,0.737,0.14c0.212,0.093,0.391,0.226,0.535,0.396s0.254,0.373,0.328,0.611
			c0.072,0.239,0.109,0.502,0.109,0.788V32h-1.07v-3.245c0-0.343-0.078-0.61-0.237-0.8c-0.158-0.189-0.399-0.285-0.722-0.285
			c-0.24,0-0.463,0.055-0.668,0.165s-0.398,0.261-0.578,0.45V32h-1.074v-5.1h0.649c0.147,0,0.24,0.068,0.28,0.205L126.154,27.575z
			 M136.135,26.939c0,0.428,0.114,0.755,0.343,0.982c0.229,0.229,0.548,0.344,0.958,0.344c0.219,0,0.414-0.035,0.582-0.105
			s0.311-0.164,0.428-0.283c0.116-0.117,0.205-0.256,0.265-0.414s0.09-0.328,0.09-0.508c0-0.21-0.032-0.397-0.097-0.563
			c-0.065-0.165-0.157-0.306-0.275-0.422c-0.119-0.117-0.26-0.207-0.423-0.268c-0.163-0.063-0.341-0.094-0.534-0.094
			c-0.204,0-0.387,0.034-0.551,0.101c-0.163,0.067-0.303,0.159-0.42,0.277s-0.207,0.259-0.27,0.421
			C136.166,26.569,136.135,26.746,136.135,26.939z M137.98,29.175c0.066-0.083,0.128-0.162,0.185-0.237s0.11-0.15,0.16-0.228
			c-0.173,0.124-0.366,0.218-0.58,0.282c-0.214,0.065-0.44,0.098-0.681,0.098c-0.26,0-0.51-0.044-0.75-0.133
			c-0.239-0.088-0.453-0.22-0.64-0.395s-0.335-0.392-0.447-0.65c-0.112-0.258-0.167-0.556-0.167-0.893
			c0-0.316,0.059-0.615,0.177-0.895s0.284-0.524,0.497-0.732c0.214-0.209,0.469-0.373,0.766-0.492
			c0.297-0.121,0.625-0.18,0.984-0.18c0.357,0,0.681,0.057,0.971,0.172s0.537,0.276,0.74,0.484c0.203,0.209,0.359,0.457,0.47,0.746
			c0.11,0.287,0.165,0.605,0.165,0.952c0,0.216-0.02,0.421-0.058,0.614s-0.093,0.381-0.165,0.563s-0.158,0.36-0.26,0.535
			c-0.102,0.176-0.216,0.354-0.343,0.533l-1.694,2.43c-0.051,0.073-0.125,0.133-0.223,0.18c-0.099,0.047-0.209,0.07-0.333,0.07
			h-0.985L137.98,29.175z M141.971,31.38c0-0.097,0.017-0.188,0.052-0.272s0.083-0.159,0.146-0.223
			c0.061-0.063,0.135-0.113,0.22-0.15c0.085-0.036,0.176-0.055,0.272-0.055s0.188,0.019,0.272,0.055
			c0.085,0.037,0.159,0.088,0.222,0.15c0.064,0.063,0.114,0.138,0.15,0.223c0.037,0.085,0.055,0.176,0.055,0.272
			c0,0.101-0.018,0.192-0.055,0.274c-0.036,0.084-0.086,0.157-0.15,0.221c-0.063,0.063-0.137,0.112-0.222,0.147
			s-0.176,0.053-0.272,0.053s-0.188-0.018-0.272-0.053s-0.159-0.084-0.22-0.147c-0.063-0.063-0.11-0.137-0.146-0.221
			C141.987,31.572,141.971,31.48,141.971,31.38z M141.971,27.734c0-0.096,0.017-0.188,0.052-0.271
			c0.035-0.086,0.083-0.16,0.146-0.223c0.061-0.063,0.135-0.113,0.22-0.15s0.176-0.055,0.272-0.055s0.188,0.018,0.272,0.055
			s0.159,0.087,0.222,0.15c0.064,0.063,0.114,0.137,0.15,0.223c0.037,0.084,0.055,0.176,0.055,0.271
			c0,0.101-0.018,0.192-0.055,0.275c-0.036,0.084-0.086,0.156-0.15,0.221c-0.063,0.063-0.137,0.111-0.222,0.146
			s-0.176,0.053-0.272,0.053s-0.188-0.018-0.272-0.053s-0.159-0.084-0.22-0.146c-0.063-0.064-0.11-0.137-0.146-0.221
			C141.987,27.927,141.971,27.835,141.971,27.734z M150.46,28.4c0,0.629-0.067,1.175-0.202,1.635s-0.321,0.842-0.558,1.145
			c-0.237,0.304-0.515,0.529-0.835,0.676s-0.665,0.22-1.035,0.22s-0.715-0.073-1.035-0.22s-0.598-0.372-0.832-0.676
			c-0.235-0.303-0.42-0.685-0.553-1.145s-0.2-1.006-0.2-1.635c0-0.631,0.067-1.176,0.2-1.638s0.317-0.844,0.553-1.146
			c0.234-0.301,0.512-0.526,0.832-0.675s0.665-0.222,1.035-0.222s0.715,0.073,1.035,0.222s0.598,0.374,0.835,0.675
			c0.236,0.302,0.423,0.684,0.558,1.146S150.46,27.77,150.46,28.4z M149.35,28.4c0-0.533-0.042-0.979-0.127-1.333
			s-0.197-0.64-0.338-0.853c-0.14-0.213-0.301-0.365-0.484-0.455s-0.373-0.135-0.57-0.135c-0.2,0-0.391,0.045-0.572,0.135
			s-0.343,0.242-0.482,0.455c-0.141,0.213-0.252,0.498-0.336,0.853c-0.083,0.354-0.125,0.8-0.125,1.333s0.042,0.977,0.125,1.332
			c0.084,0.355,0.195,0.639,0.336,0.853c0.14,0.214,0.301,0.365,0.482,0.455s0.372,0.135,0.572,0.135
			c0.197,0,0.387-0.045,0.57-0.135s0.345-0.241,0.484-0.455c0.141-0.214,0.253-0.497,0.338-0.853S149.35,28.934,149.35,28.4z
			 M157.26,28.4c0,0.629-0.067,1.175-0.202,1.635c-0.136,0.46-0.321,0.842-0.558,1.145c-0.236,0.304-0.516,0.529-0.835,0.676
			s-0.665,0.22-1.035,0.22s-0.715-0.073-1.034-0.22c-0.32-0.146-0.598-0.372-0.833-0.676c-0.235-0.303-0.419-0.685-0.553-1.145
			s-0.2-1.006-0.2-1.635c0-0.631,0.066-1.176,0.2-1.638s0.317-0.844,0.553-1.146c0.235-0.301,0.513-0.526,0.833-0.675
			c0.319-0.148,0.664-0.222,1.034-0.222s0.716,0.073,1.035,0.222s0.599,0.374,0.835,0.675c0.236,0.302,0.422,0.684,0.558,1.146
			C157.192,27.225,157.26,27.77,157.26,28.4z M156.15,28.4c0-0.533-0.043-0.979-0.128-1.333s-0.197-0.64-0.337-0.853
			c-0.141-0.213-0.303-0.365-0.485-0.455c-0.184-0.09-0.374-0.135-0.57-0.135c-0.2,0-0.391,0.045-0.572,0.135
			s-0.343,0.242-0.482,0.455s-0.252,0.498-0.335,0.853c-0.084,0.354-0.125,0.8-0.125,1.333s0.041,0.977,0.125,1.332
			c0.083,0.355,0.195,0.639,0.335,0.853s0.301,0.365,0.482,0.455s0.372,0.135,0.572,0.135c0.196,0,0.387-0.045,0.57-0.135
			c0.183-0.09,0.345-0.241,0.485-0.455c0.14-0.214,0.252-0.497,0.337-0.853S156.15,28.934,156.15,28.4z M159.13,28.535h2.535v0.91
			h-2.535V28.535z M168.395,31.186V32h-3.924v-0.814h1.5v-4.511c0-0.159,0.004-0.323,0.014-0.489l-1.154,0.975
			c-0.051,0.04-0.102,0.065-0.152,0.077c-0.052,0.012-0.1,0.013-0.145,0.003c-0.046-0.01-0.086-0.025-0.121-0.048
			c-0.035-0.021-0.063-0.046-0.082-0.072l-0.335-0.47l2.17-1.865h0.875v6.4H168.395z M172.96,31.23c0.217,0,0.41-0.031,0.58-0.093
			s0.313-0.148,0.427-0.261c0.115-0.111,0.203-0.244,0.264-0.396c0.06-0.154,0.09-0.32,0.09-0.5c0-0.221-0.035-0.41-0.104-0.57
			s-0.162-0.293-0.284-0.397s-0.267-0.184-0.433-0.235s-0.347-0.077-0.54-0.077s-0.374,0.025-0.54,0.077s-0.311,0.131-0.433,0.235
			s-0.216,0.237-0.284,0.397s-0.104,0.35-0.104,0.57c0,0.18,0.03,0.346,0.09,0.5c0.061,0.152,0.148,0.285,0.264,0.396
			c0.114,0.112,0.257,0.199,0.427,0.261S172.743,31.23,172.96,31.23z M172.96,25.545c-0.196,0-0.369,0.03-0.518,0.09
			c-0.148,0.061-0.271,0.141-0.367,0.24s-0.169,0.217-0.218,0.353c-0.049,0.135-0.072,0.277-0.072,0.427
			c0,0.15,0.021,0.297,0.063,0.441c0.041,0.143,0.108,0.27,0.199,0.382c0.092,0.112,0.213,0.2,0.363,0.268
			c0.15,0.066,0.333,0.101,0.55,0.101s0.399-0.034,0.55-0.101c0.15-0.067,0.271-0.155,0.363-0.268s0.158-0.239,0.199-0.382
			c0.042-0.145,0.063-0.291,0.063-0.441c0-0.149-0.023-0.292-0.072-0.427c-0.049-0.136-0.121-0.253-0.221-0.353
			c-0.098-0.1-0.221-0.18-0.367-0.24C173.328,25.575,173.156,25.545,172.96,25.545z M174.096,28.245
			c0.443,0.137,0.775,0.353,0.996,0.649c0.223,0.297,0.333,0.666,0.333,1.105c0,0.316-0.06,0.604-0.18,0.859
			c-0.12,0.258-0.288,0.476-0.505,0.656c-0.217,0.18-0.477,0.318-0.777,0.417c-0.303,0.099-0.637,0.147-1.003,0.147
			s-0.7-0.049-1.003-0.147c-0.301-0.099-0.561-0.237-0.777-0.417c-0.217-0.181-0.385-0.398-0.505-0.656
			c-0.12-0.256-0.18-0.543-0.18-0.859c0-0.439,0.11-0.809,0.333-1.105c0.221-0.297,0.554-0.513,0.997-0.649
			c-0.36-0.144-0.631-0.352-0.813-0.625s-0.272-0.602-0.272-0.985c0-0.27,0.053-0.521,0.16-0.755
			c0.106-0.233,0.258-0.436,0.452-0.607s0.429-0.307,0.702-0.405c0.273-0.098,0.575-0.146,0.905-0.146s0.631,0.049,0.902,0.146
			c0.272,0.099,0.505,0.233,0.7,0.405s0.347,0.374,0.455,0.607s0.162,0.485,0.162,0.755c0,0.384-0.09,0.712-0.271,0.985
			S174.455,28.102,174.096,28.245z M177.436,31.38c0-0.097,0.018-0.188,0.052-0.272c0.035-0.085,0.083-0.159,0.146-0.223
			c0.062-0.063,0.135-0.113,0.22-0.15c0.085-0.036,0.176-0.055,0.272-0.055s0.188,0.019,0.272,0.055
			c0.085,0.037,0.159,0.088,0.223,0.15c0.063,0.063,0.113,0.138,0.149,0.223c0.037,0.085,0.056,0.176,0.056,0.272
			c0,0.101-0.019,0.192-0.056,0.274c-0.036,0.084-0.086,0.157-0.149,0.221s-0.138,0.112-0.223,0.147s-0.176,0.053-0.272,0.053
			s-0.188-0.018-0.272-0.053s-0.158-0.084-0.22-0.147c-0.063-0.063-0.11-0.137-0.146-0.221
			C177.453,31.572,177.436,31.48,177.436,31.38z M177.436,27.734c0-0.096,0.018-0.188,0.052-0.271
			c0.035-0.086,0.083-0.16,0.146-0.223c0.062-0.063,0.135-0.113,0.22-0.15s0.176-0.055,0.272-0.055s0.188,0.018,0.272,0.055
			s0.159,0.087,0.223,0.15c0.063,0.063,0.113,0.137,0.149,0.223c0.037,0.084,0.056,0.176,0.056,0.271
			c0,0.101-0.019,0.192-0.056,0.275c-0.036,0.084-0.086,0.156-0.149,0.221c-0.063,0.063-0.138,0.111-0.223,0.146
			s-0.176,0.053-0.272,0.053s-0.188-0.018-0.272-0.053s-0.158-0.084-0.22-0.146c-0.063-0.064-0.11-0.137-0.146-0.221
			C177.453,27.927,177.436,27.835,177.436,27.734z M185.925,28.4c0,0.629-0.067,1.175-0.202,1.635s-0.32,0.842-0.558,1.145
			c-0.237,0.304-0.515,0.529-0.835,0.676s-0.665,0.22-1.035,0.22s-0.715-0.073-1.035-0.22s-0.598-0.372-0.832-0.676
			c-0.235-0.303-0.42-0.685-0.553-1.145s-0.2-1.006-0.2-1.635c0-0.631,0.067-1.176,0.2-1.638s0.317-0.844,0.553-1.146
			c0.234-0.301,0.512-0.526,0.832-0.675s0.665-0.222,1.035-0.222s0.715,0.073,1.035,0.222s0.598,0.374,0.835,0.675
			c0.237,0.302,0.423,0.684,0.558,1.146S185.925,27.77,185.925,28.4z M184.814,28.4c0-0.533-0.042-0.979-0.127-1.333
			s-0.197-0.64-0.338-0.853c-0.14-0.213-0.301-0.365-0.484-0.455s-0.373-0.135-0.57-0.135c-0.199,0-0.391,0.045-0.572,0.135
			s-0.343,0.242-0.482,0.455c-0.141,0.213-0.252,0.498-0.336,0.853c-0.082,0.354-0.125,0.8-0.125,1.333s0.043,0.977,0.125,1.332
			c0.084,0.355,0.195,0.639,0.336,0.853c0.14,0.214,0.301,0.365,0.482,0.455s0.373,0.135,0.572,0.135
			c0.197,0,0.387-0.045,0.57-0.135s0.345-0.241,0.484-0.455c0.141-0.214,0.253-0.497,0.338-0.853S184.814,28.934,184.814,28.4z
			 M192.725,28.4c0,0.629-0.066,1.175-0.202,1.635c-0.135,0.46-0.321,0.842-0.558,1.145c-0.236,0.304-0.515,0.529-0.835,0.676
			c-0.319,0.146-0.665,0.22-1.034,0.22c-0.371,0-0.716-0.073-1.035-0.22c-0.32-0.146-0.598-0.372-0.833-0.676
			c-0.235-0.303-0.419-0.685-0.553-1.145s-0.2-1.006-0.2-1.635c0-0.631,0.066-1.176,0.2-1.638s0.317-0.844,0.553-1.146
			c0.235-0.301,0.513-0.526,0.833-0.675c0.319-0.148,0.664-0.222,1.035-0.222c0.369,0,0.715,0.073,1.034,0.222
			c0.32,0.148,0.599,0.374,0.835,0.675c0.236,0.302,0.423,0.684,0.558,1.146C192.658,27.225,192.725,27.77,192.725,28.4z
			 M191.615,28.4c0-0.533-0.043-0.979-0.128-1.333s-0.197-0.64-0.337-0.853c-0.141-0.213-0.303-0.365-0.485-0.455
			c-0.184-0.09-0.374-0.135-0.569-0.135c-0.201,0-0.392,0.045-0.573,0.135s-0.343,0.242-0.482,0.455s-0.251,0.498-0.335,0.853
			s-0.125,0.8-0.125,1.333s0.041,0.977,0.125,1.332s0.195,0.639,0.335,0.853s0.301,0.365,0.482,0.455s0.372,0.135,0.573,0.135
			c0.195,0,0.386-0.045,0.569-0.135c0.183-0.09,0.345-0.241,0.485-0.455c0.14-0.214,0.252-0.497,0.337-0.853
			S191.615,28.934,191.615,28.4z"/>
		<path id="phone---FontAwesome" fill="#F8F9FA" d="M18.857,15.036c0,0.482-0.214,1.42-0.415,1.862
			c-0.281,0.656-1.031,1.085-1.634,1.419C16.018,18.746,15.214,19,14.317,19c-1.246,0-2.371-0.509-3.509-0.924
			c-0.817-0.295-1.607-0.656-2.344-1.112c-2.277-1.406-5.022-4.152-6.429-6.429C1.581,9.799,1.219,9.009,0.924,8.192
			C0.509,7.054,0,5.929,0,4.683c0-0.897,0.254-1.701,0.683-2.491c0.335-0.603,0.763-1.353,1.419-1.634
			c0.442-0.201,1.379-0.416,1.862-0.416c0.094,0,0.188,0,0.281,0.041c0.281,0.094,0.576,0.75,0.71,1.018
			c0.428,0.764,0.844,1.541,1.286,2.291c0.214,0.348,0.616,0.777,0.616,1.192c0,0.817-2.424,2.009-2.424,2.732
			c0,0.362,0.335,0.831,0.522,1.152c1.353,2.438,3.04,4.125,5.478,5.478c0.321,0.188,0.79,0.522,1.152,0.522
			c0.723,0,1.915-2.424,2.732-2.424c0.415,0,0.844,0.401,1.192,0.616c0.75,0.442,1.527,0.857,2.291,1.286
			c0.268,0.134,0.924,0.429,1.018,0.71C18.857,14.848,18.857,14.942,18.857,15.036z"/>
	</g>
</g>
</svg>
