<?xml version="1.0" encoding="utf-8"?>
<!-- Generator: Adobe Illustrator 19.0.0, SVG Export Plug-In . SVG Version: 6.00 Build 0)  -->
<svg version="1.1" id="圖層_1" xmlns="http://www.w3.org/2000/svg" xmlns:xlink="http://www.w3.org/1999/xlink" x="0px" y="0px"
	 viewBox="0 0 953 217" style="enable-background:new 0 0 953 217;" xml:space="preserve">
<path id="XMLID_60_" d="M735.6,22.8c-5.9-5.1-16.1-4.9-21.2,1.5c-20.3,25.8-40.7,51.6-61,77.4c5-19.3,10.1-38.6,15.1-57.8
	c3.7-14.3-17-24.6-26-12.8c-25.2,32.9-50.4,65.9-75.6,98.8c2-8,4.2-16,6.8-23.9c4.8-14.6,12-31,20.1-46.1
	c5.5-8.6,10.8-17.3,15.9-26.1c3.7-6.4,0.7-15.2-5.2-19c-5.7-3.6-15.3-3.7-19.6,2.5c-0.7,1.1-1.4,2.1-2.1,3.2c0,0,0,0,0,0
	c0,0-0.1,0.1-0.1,0.1c-4.7,7.1-9.1,14.4-13.2,21.8c-18.6,29.1-40.3,56.9-64.1,82c8.1-34,16.2-67.9,24.3-101.9
	c1.7-7.2-3.1-14.8-9.9-17c-7.2-2.3-14.6,0.7-18.3,7.4c-14.9,27.7-30.6,51.1-50.7,75.3c-19.6,23.6-41.1,45.1-63.8,63.5
	c-2.1,1.7-4.3,3.4-6.5,5.1c17.8-47.4,43.4-92.6,74.9-132c5.1-6.3,4.8-15.7-1.5-21.2c-5.9-5.2-16.1-4.9-21.2,1.5l-85.7,107.2
	c-6.1,7.6-11.8,15.6-18.3,22.8c1.4-3,3.1-5.8,4.8-8.7c5.8-9.6,11.7-19.1,17.5-28.7c13.4-21.9,26.8-43.9,40.2-65.8
	c3.8-6.3,0.6-15.3-5.2-19c-6.3-4-14.5-3.2-19.6,2.5c-25,28.2-49.9,56.3-74.9,84.5l29.7-68.4c3-6.8,1.2-14.9-5.2-19
	c-6.6-4.3-14-2.8-19.6,2.5c-37.8,36.6-75.6,73.2-113.4,109.8c11.4-29.5,22.8-59,34.1-88.4c2.7-7,1.4-14.8-5.2-19
	c-5.9-3.8-15-3.5-19.6,2.5c-35.3,46.7-76.3,90.3-120.5,127.4c-1.5,1.3-3,2.5-4.5,3.7c12-41.7,24.1-83.3,36.1-125
	c2-7.1-3.3-14.9-9.9-17c-7.6-2.5-14.1,0.9-18.3,7.4c-4.7,7.4-9.4,14.8-14,22.2c-3.3,5.3-1.5,12.3,2.6,16.8
	c-12.8,44.3-25.6,88.6-38.4,132.9c-3.7,12.6,13.1,22.8,23.2,15.4c39.1-28.8,75.7-61,109.1-96.3c-8.9,23-17.7,45.9-26.6,68.9
	c-6.2,16,12.3,28.6,24.8,16.5L264.2,88c-12.4,28.6-24.8,57.1-37.2,85.7c-6.7,15.4,13.1,29.6,24.8,16.5c15-16.9,30-33.8,45-50.8
	c-0.2,2.2-0.2,4.4,0,6.5c1.3,13.6,12.1,23.9,25.8,24.2c10.1,0.2,18.9-5.4,26-12.4c-3.9,11.3-7.5,22.8-10.7,34.4
	c-3.6,13.2,12.8,22,23.2,15.4c45.4-29.2,86.2-66,119.7-108.5c-5.4,22.7-10.8,45.4-16.3,68.1c-1.4,5.8,1.6,12.2,6.5,15.4
	c4.6,3,12.2,3.9,16.7,0c16.8-14.6,32.7-30.2,47.6-46.5c-3.3,16.2-5.3,32.7-6.1,49.4c-0.3,5.8,5.1,11.4,10.2,13
	c5.4,1.8,12.4,0.6,16.1-4.2c21.7-28.4,43.5-56.8,65.2-85.2c-4.8,18.4-9.6,36.9-14.5,55.3c-3.8,14.4,16.9,24.4,26,12.8
	c35-44.4,70-88.8,105-133.2C742.1,37.6,741.9,28.3,735.6,22.8z"/>
</svg>
