<?xml version="1.0" encoding="UTF-8"?>
<svg width="38px" height="38px" viewBox="0 0 38 38" version="1.1" xmlns="http://www.w3.org/2000/svg" xmlns:xlink="http://www.w3.org/1999/xlink">
    <!-- Generator: Sketch 51 (57462) - http://www.bohemiancoding.com/sketch -->
    <title>Group 76</title>
    <desc>Created with Sketch.</desc>
    <defs/>
    <g id="Page-1" stroke="none" stroke-width="1" fill="none" fill-rule="evenodd">
        <g id="Group-76" transform="translate(1.000000, 1.000000)">
            <g id="Group-55-Copy-2" fill-rule="nonzero" stroke="#EFEEF0">
                <circle id="Oval" cx="18" cy="18" r="18"/>
            </g>
            <path d="M25.5585938,12.8261719 C25.8984392,13.0722669 26.1650381,13.4560521 26.3583984,13.9775391 C26.5517588,14.499026 26.6982417,15.0556611 26.7978516,15.6474609 C26.8974614,16.2392608 26.9589843,16.8076145 26.9824219,17.3525391 C27.0058595,17.8974637 27.0234374,18.3046862 27.0351562,18.5742188 C27.0234374,18.9140642 27.0029298,19.3535129 26.9736328,19.8925781 C26.9443358,20.4316433 26.8798833,20.9765597 26.7802734,21.5273438 C26.6806636,22.0781278 26.5341807,22.5937476 26.3408203,23.0742188 C26.14746,23.5546899 25.8867204,23.9179675 25.5585938,24.1640625 C25.4296869,24.2460942 25.2333998,24.3339839 24.9697266,24.4277344 C24.7060534,24.5214848 24.2959012,24.6093746 23.7392578,24.6914062 C23.1826144,24.7734379 22.4443405,24.84082 21.5244141,24.8935547 C20.6044876,24.9462893 19.435554,24.9726562 18.0175781,24.9726562 C14.9589691,24.9726562 13.013676,24.8759775 12.1816406,24.6826172 C11.3496052,24.4892568 10.8574226,24.3515629 10.7050781,24.2695312 C10.3300763,24.0351551 10.0312511,23.6601588 9.80859375,23.1445312 C9.58593639,22.6289037 9.41601621,22.0810576 9.29882812,21.5009766 C9.18164004,20.9208955 9.10546893,20.3584012 9.0703125,19.8134766 C9.03515607,19.268552 9.01171881,18.8613295 9,18.5917969 C9.01171881,18.3808583 9.03222642,18.0000028 9.06152344,17.4492188 C9.09082046,16.8984347 9.16406191,16.3125031 9.28125,15.6914062 C9.39843809,15.0703094 9.57128792,14.4755888 9.79980469,13.9072266 C10.0283215,13.3388643 10.3359356,12.9433605 10.7226562,12.7207031 C10.863282,12.6269527 11.3496052,12.4833994 12.1816406,12.2900391 C13.013676,12.0966787 14.9589691,12 18.0175781,12 C19.435554,12 20.6044876,12.0263669 21.5244141,12.0791016 C22.4443405,12.1318362 23.1826144,12.1992183 23.7392578,12.28125 C24.2959012,12.3632817 24.7060534,12.4511714 24.9697266,12.5449219 C25.2333998,12.6386723 25.4296869,12.7324214 25.5585938,12.8261719 Z M24.890625,23.25 C25.13672,23.0742179 25.3652333,22.5908243 25.5761719,21.7998047 C25.7871104,21.0087851 25.8984374,19.9336005 25.9101562,18.5742188 C25.8984374,17.2382746 25.7871104,16.1396527 25.5761719,15.2783203 C25.3652333,14.4169879 25.13672,13.9042977 24.890625,13.7402344 C24.7968745,13.6699215 24.3222699,13.5498055 23.4667969,13.3798828 C22.6113238,13.2099601 20.7949358,13.125 18.0175781,13.125 C15.333971,13.125 13.5703167,13.2011711 12.7265625,13.3535156 C11.8828083,13.5058601 11.4082037,13.6113278 11.3027344,13.6699219 C11.0332018,13.8339852 10.7753919,14.3642533 10.5292969,15.2607422 C10.2832019,16.157231 10.1484376,17.2675715 10.125,18.5917969 C10.1484376,19.9160222 10.2802722,20.9912068 10.5205078,21.8173828 C10.7607434,22.6435588 11.0156237,23.1386711 11.2851562,23.3027344 C11.4023443,23.3613284 11.8798786,23.4667961 12.7177734,23.6191406 C13.5556683,23.7714851 15.3222521,23.8476562 18.0175781,23.8476562 C20.7949358,23.8476562 22.6113238,23.7656258 23.4667969,23.6015625 C24.3222699,23.4374992 24.7968745,23.3203129 24.890625,23.25 Z M21.6738281,18.046875 C21.7675786,18.0937502 21.8378904,18.1611324 21.8847656,18.2490234 C21.9316409,18.3369145 21.9550781,18.4277339 21.9550781,18.5214844 C21.9550781,18.6269537 21.9316409,18.7207027 21.8847656,18.8027344 C21.8378904,18.884766 21.7675786,18.9550778 21.6738281,19.0136719 L16.6113281,22.1074219 C16.5761717,22.1425783 16.5322268,22.1660156 16.4794922,22.1777344 C16.4267575,22.1894532 16.3769534,22.1953125 16.3300781,22.1953125 C16.2832029,22.1953125 16.2363284,22.1894532 16.1894531,22.1777344 C16.1425779,22.1660156 16.0957034,22.1484376 16.0488281,22.125 C15.9667965,22.0781248 15.8994143,22.0107426 15.8466797,21.9228516 C15.793945,21.8349605 15.7675781,21.7382818 15.7675781,21.6328125 L15.7675781,15.4277344 C15.7675781,15.3222651 15.793945,15.2255864 15.8466797,15.1376953 C15.8994143,15.0498042 15.9667965,14.9824221 16.0488281,14.9355469 C16.1425786,14.8769528 16.2392573,14.8505859 16.3388672,14.8564453 C16.4384771,14.8623047 16.5292965,14.8886716 16.6113281,14.9355469 L21.6738281,18.046875 Z M16.8925781,20.6308594 L20.3027344,18.5214844 L16.8925781,16.4121094 L16.8925781,20.6308594 Z" id="-copy" fill="#EFEEF0"/>
        </g>
    </g>
</svg>